# Blender v2.90.1 OBJ File: ''
# www.blender.org
mtllib stage3.mtl
o 平面
v 1.000284 -0.000004 9.278873
v -0.884980 0.000002 -8.834176
v -0.999716 -0.000004 9.278873
v -0.857781 0.000004 -12.666695
v -2.214142 0.000004 -11.258691
v -3.986021 0.000004 -14.880112
v -4.758036 0.000004 -13.126353
v -7.780008 0.000004 -14.880621
v -7.780008 0.000004 -12.880622
v -11.149777 0.000004 -12.966338
v -11.548977 0.000004 -14.883204
v -13.795170 0.000004 -11.900634
v -15.042477 0.000004 -13.347323
v -15.211758 0.000004 -9.572001
v -17.049061 0.000002 -6.305112
v -15.049061 0.000002 -6.305112
v -16.757938 0.000002 -3.199365
v -15.050831 0.000000 -2.492259
v -17.765268 -0.000000 0.216761
v -21.584000 -0.000000 0.211683
v -18.472374 0.000000 -1.490346
v -21.584000 0.000000 -1.788317
v -25.371971 -0.000000 0.211683
v -25.371971 0.000000 -1.788317
v -29.177950 -0.000000 0.211683
v -29.177950 0.000000 -1.788317
v -29.438780 0.089181 0.211683
v -28.921076 -0.089181 -1.788317
v -29.438780 0.089181 -1.788317
v -36.205925 0.389253 0.211683
v -32.629021 -0.426018 -1.788317
v -36.205925 0.389253 -1.788317
v -39.597408 1.134548 0.211683
v -39.597408 1.134548 -1.788317
v -42.786995 2.221868 0.211683
v -42.786995 2.221868 -1.788317
v -45.404121 4.415231 0.211685
v -45.404121 4.415233 -1.788315
v -46.672741 7.801789 0.211685
v -46.672741 7.801789 -1.788315
v -46.663807 11.138045 0.114484
v -46.663807 11.567591 -1.788561
v -46.663807 13.826408 1.403952
v -46.663807 15.014917 -0.150227
v -46.663807 15.737068 3.401754
v -46.663807 17.496033 2.750621
v -46.663807 17.492840 6.405908
v -46.663811 15.674351 9.390012
v -46.663811 17.495720 10.056679
v -46.663811 15.577524 13.374391
v -46.663807 12.099217 14.988417
v -46.663811 14.141077 12.103515
v -46.677155 8.321449 14.984314
v -46.663807 11.676601 13.082109
v -41.531273 3.302795 14.982736
v -37.833504 2.732597 12.982735
v -41.531273 3.302795 12.982737
v -44.778603 5.100274 14.982738
v -44.778603 5.100274 12.982737
v -46.677155 8.321451 12.984314
v -38.137081 2.617314 14.984082
v -37.653057 2.873348 12.984083
v -38.137081 2.617314 12.984083
v -33.529285 -0.000004 12.977522
v -11.344282 -0.000004 14.795454
v -10.770706 -0.000004 12.976301
v -9.206221 -0.000006 15.998510
v -7.632645 -0.000004 15.179358
v -7.630342 -0.000006 18.923405
v -9.337996 -0.000008 21.956173
v -7.630890 -0.000008 22.663277
v -10.344532 -0.000008 25.372757
v -11.051639 -0.000008 23.665649
v -13.467852 -0.000008 25.074896
v -14.174959 -0.000008 23.367788
v -15.175920 -0.000008 26.786850
v -16.883026 -0.000008 26.079744
v -15.178543 -0.000010 29.213551
v -14.171949 -0.000010 32.634132
v -13.464842 -0.000010 30.927027
v -10.501866 -0.000010 32.630844
v -10.501866 -0.000010 30.630846
v -7.435643 -0.000010 30.630846
v -4.187061 -0.000010 32.629440
v -2.325577 -0.000010 29.263889
v -4.716011 -0.000010 30.780788
v -0.929158 -0.000010 30.610031
v -0.883214 -0.000008 27.035894
v -0.999432 -0.000004 13.018633
v 1.000568 -0.000004 13.018633
v 1.000568 -0.000006 16.755856
v -0.999432 -0.000006 16.755856
v 1.000568 -0.000006 20.511593
v -0.999432 -0.000006 20.511593
v 1.000568 -0.000008 24.118721
v 0.984255 -0.000008 27.533386
v -7.435643 -0.000010 32.630844
v 0.991537 0.000004 -9.315546
v -17.059864 0.000004 -10.101825
v -28.921076 -0.089181 0.211683
v -32.629021 -0.426018 0.211683
v -46.663807 15.492842 6.405906
v -37.833504 2.732597 14.982734
v -37.653057 2.873348 14.984082
v -33.529285 -0.000004 14.977522
v -9.630342 -0.000006 18.923405
v -16.885649 -0.000010 29.920658
v -0.999432 -0.000008 24.118721
vt 0.237805 0.905468
vt 0.306764 0.289463
vt 0.310962 0.905468
vt 0.172905 0.209628
vt 0.171910 0.079288
vt 0.221523 0.127173
vt 0.286336 0.004012
vt 0.314575 0.063655
vt 0.425115 0.003994
vt 0.425115 0.072012
vt 0.548376 0.069097
vt 0.562978 0.003906
vt 0.645141 0.105340
vt 0.336607 0.071355
vt 0.342799 0.199749
vt 0.290982 0.120555
vt 0.410005 0.310853
vt 0.336848 0.310853
vt 0.399357 0.416476
vt 0.336913 0.440524
vt 0.436204 0.532654
vt 0.711062 0.991134
vt 0.597243 0.933250
vt 0.711062 0.923116
vt 0.849621 0.991133
vt 0.849621 0.923115
vt 0.988838 0.991133
vt 0.988838 0.923115
vt 0.544074 0.220854
vt 0.563223 0.288872
vt 0.544074 0.288872
vt 0.544074 0.537958
vt 0.470878 0.660441
vt 0.470878 0.537958
vt 0.544074 0.421854
vt 0.470878 0.421854
vt 0.544074 0.312236
vt 0.470878 0.312236
vt 0.544074 0.220854
vt 0.470878 0.220854
vt 0.826083 0.823230
vt 0.953578 0.891252
vt 0.826080 0.891248
vt 0.704470 0.826532
vt 0.688807 0.891252
vt 0.606454 0.782676
vt 0.563118 0.835531
vt 0.629433 0.588855
vt 0.655758 0.709655
vt 0.565300 0.610998
vt 0.565421 0.486685
vt 0.631727 0.385201
vt 0.565320 0.362527
vt 0.556664 0.101369
vt 0.430380 0.169771
vt 0.416313 0.105501
vt 0.673693 0.172525
vt 0.544490 0.165369
vt 0.738743 0.431639
vt 0.672218 0.316638
vt 0.742569 0.304096
vt 0.544074 0.772806
vt 0.470878 0.899127
vt 0.470878 0.772806
vt 0.544074 0.660441
vt 0.470878 0.660441
vt 0.665365 0.429824
vt 0.735388 0.546004
vt 0.662011 0.544188
vt 0.776187 0.437251
vt 0.766209 0.395161
vt 0.776187 0.395161
vt 0.841707 0.785627
vt 0.779334 0.033353
vt 0.846212 0.014244
vt 0.439890 0.560761
vt 0.382663 0.663543
vt 0.325104 0.635684
vt 0.325020 0.763015
vt 0.387484 0.866156
vt 0.325040 0.890204
vt 0.200318 0.346008
vt 0.096673 0.419773
vt 0.153572 0.300731
vt 0.164439 0.421164
vt 0.148114 0.514840
vt 0.119607 0.540356
vt 0.156220 0.656635
vt 0.093742 0.598413
vt 0.218664 0.632587
vt 0.156317 0.739164
vt 0.119497 0.855495
vt 0.093632 0.797438
vt 0.533032 0.938037
vt 0.424650 0.995982
vt 0.424650 0.927965
vt 0.312492 0.927965
vt 0.193664 0.995935
vt 0.125573 0.881476
vt 0.213012 0.933064
vt 0.074494 0.927257
vt 0.072813 0.805705
vt 0.003916 0.201808
vt 0.077063 0.328993
vt 0.003906 0.328993
vt 0.003906 0.456092
vt 0.077064 0.456092
vt 0.003907 0.583821
vt 0.077064 0.583821
vt 0.003907 0.706495
vt 0.004504 0.822624
vt 0.312492 0.995983
vt 0.238124 0.273093
vt 0.104265 0.193257
vt 0.690765 0.056140
vt 0.410400 0.181730
vt 0.462068 0.474597
vt 0.571379 0.991306
vt 0.563223 0.220854
vt 0.544074 0.660441
vt 0.953581 0.823234
vt 0.699094 0.656800
vt 0.638341 0.486688
vt 0.622255 0.218733
vt 0.544074 0.899127
vt 0.766209 0.437251
vt 0.768305 0.785262
vt 0.460870 0.622628
vt 0.398177 0.763015
vt 0.215880 0.516231
vt 0.218760 0.763212
vt 0.558897 0.996094
vt 0.077074 0.201808
vt 0.077064 0.706495
vn -0.0000 1.0000 0.0000
vn 0.3257 0.9455 0.0000
vn 0.2222 0.9750 0.0000
vn 0.2146 0.9767 0.0000
vn 0.3227 0.9465 0.0000
vn 0.6423 0.7664 0.0000
vn 0.9365 0.3508 0.0000
vn 1.0000 -0.0026 -0.0001
vn 1.0000 -0.0026 -0.0002
vn 1.0000 -0.0001 -0.0000
vn 1.0000 -0.0000 0.0000
vn 1.0000 -0.0035 0.0008
vn 1.0000 -0.0033 0.0008
vn 0.1524 0.9883 0.0000
vn 0.4843 0.8749 0.0000
vn 0.8615 0.5078 0.0000
vn -0.4676 0.8839 0.0000
vn 1.0000 -0.0027 0.0000
vn 1.0000 -0.0040 -0.0000
usemtl マテリアル
s 1
f 1/1/1 2/2/1 3/3/1
f 2/4/1 4/5/1 5/6/1
f 5/6/1 6/7/1 7/8/1
f 7/8/1 8/9/1 9/10/1
f 8/9/1 10/11/1 9/10/1
f 11/12/1 12/13/1 10/11/1
f 13/14/1 14/15/1 12/16/1
f 14/15/1 15/17/1 16/18/1
f 16/18/1 17/19/1 18/20/1
f 17/19/1 19/21/1 18/20/1
f 20/22/1 21/23/1 22/24/1
f 23/25/1 22/24/1 24/26/1
f 25/27/1 24/26/1 26/28/1
f 27/29/2 28/30/2 29/31/2
f 30/32/3 31/33/3 32/34/4
f 33/35/4 32/34/4 34/36/4
f 35/37/5 34/36/5 36/38/5
f 37/39/6 36/38/6 38/40/6
f 39/41/7 38/42/7 40/43/7
f 41/44/8 40/43/9 42/45/10
f 43/46/11 42/45/10 44/47/11
f 45/48/11 44/49/11 46/50/11
f 47/51/11 45/48/11 46/50/11
f 48/52/11 47/51/11 49/53/11
f 50/54/11 48/55/11 49/56/11
f 51/57/11 52/58/11 50/54/11
f 53/59/12 54/60/13 51/61/11
f 55/62/14 56/63/14 57/64/14
f 58/65/15 57/64/15 59/66/15
f 60/67/16 58/68/16 59/69/16
f 61/70/17 62/71/17 63/72/17
f 64/73/1 65/74/1 66/75/1
f 66/76/1 67/77/1 68/78/1
f 67/77/1 69/79/1 68/78/1
f 69/79/1 70/80/1 71/81/1
f 70/82/1 72/83/1 71/84/1
f 73/85/1 74/86/1 72/83/1
f 75/87/1 76/88/1 74/89/1
f 77/90/1 78/91/1 76/88/1
f 78/91/1 79/92/1 80/93/1
f 80/94/1 81/95/1 82/96/1
f 81/95/1 83/97/1 82/96/1
f 84/98/1 85/99/1 86/100/1
f 87/101/1 88/102/1 85/99/1
f 1/103/1 89/104/1 90/105/1
f 89/104/1 91/106/1 90/105/1
f 92/107/1 93/108/1 91/106/1
f 94/109/1 95/110/1 93/108/1
f 95/110/1 88/102/1 96/111/1
f 97/112/1 86/100/1 83/97/1
f 1/1/1 98/113/1 2/2/1
f 2/4/1 98/114/1 4/5/1
f 5/6/1 4/5/1 6/7/1
f 7/8/1 6/7/1 8/9/1
f 8/9/1 11/12/1 10/11/1
f 11/12/1 13/115/1 12/13/1
f 13/14/1 99/116/1 14/15/1
f 14/15/1 99/116/1 15/17/1
f 16/18/1 15/17/1 17/19/1
f 17/19/1 21/117/1 19/21/1
f 20/22/1 19/118/1 21/23/1
f 23/25/1 20/22/1 22/24/1
f 25/27/1 23/25/1 24/26/1
f 27/29/2 100/119/2 28/30/2
f 30/32/3 101/120/3 31/33/3
f 33/35/4 30/32/3 32/34/4
f 35/37/5 33/35/5 34/36/5
f 37/39/6 35/37/6 36/38/6
f 39/41/7 37/121/7 38/42/7
f 41/44/8 39/41/18 40/43/9
f 43/46/11 41/44/8 42/45/10
f 45/48/11 43/122/11 44/49/11
f 47/51/11 102/123/11 45/48/11
f 48/52/11 102/123/11 47/51/11
f 50/54/11 52/58/11 48/55/11
f 51/57/11 54/124/13 52/58/11
f 53/59/19 60/67/19 54/60/19
f 55/62/14 103/125/14 56/63/14
f 58/65/15 55/62/15 57/64/15
f 60/67/16 53/59/16 58/68/16
f 61/70/17 104/126/17 62/71/17
f 64/73/1 105/127/1 65/74/1
f 66/76/1 65/128/1 67/77/1
f 67/77/1 106/129/1 69/79/1
f 69/79/1 106/129/1 70/80/1
f 70/82/1 73/85/1 72/83/1
f 73/85/1 75/130/1 74/86/1
f 75/87/1 77/90/1 76/88/1
f 77/90/1 107/131/1 78/91/1
f 78/91/1 107/131/1 79/92/1
f 80/94/1 79/132/1 81/95/1
f 81/95/1 97/112/1 83/97/1
f 84/98/1 87/101/1 85/99/1
f 87/101/1 96/111/1 88/102/1
f 1/103/1 3/133/1 89/104/1
f 89/104/1 92/107/1 91/106/1
f 92/107/1 94/109/1 93/108/1
f 94/109/1 108/134/1 95/110/1
f 95/110/1 108/134/1 88/102/1
f 97/112/1 84/98/1 86/100/1
