# Blender v2.90.1 OBJ File: ''
# www.blender.org
mtllib rightTire.mtl
o rightTire_Cube.002
v -0.155880 0.237570 0.093100
v -0.155880 0.258351 -0.011373
v -0.131503 0.217163 -0.011373
v -0.155880 0.237570 -0.115846
v -0.131503 0.199517 -0.100084
v -0.155880 0.178391 -0.204414
v -0.131503 0.149266 -0.175290
v -0.155880 -0.014651 -0.284375
v -0.155880 -0.119124 -0.263594
v -0.131503 -0.103362 -0.225541
v -0.155880 0.089823 -0.263594
v -0.131503 0.074061 -0.225541
v -0.131503 -0.014651 -0.243187
v -0.155880 0.178391 0.181668
v -0.131503 0.199517 0.077338
v -0.155880 0.089823 0.240847
v -0.131503 0.149266 0.152544
v -0.131503 0.074061 0.202795
v -0.131503 -0.014651 0.220441
v -0.061654 0.074061 0.202795
v -0.061654 -0.014651 0.220441
v -0.131503 -0.014651 0.220441
v -0.155880 -0.014651 0.261629
v -0.131503 0.074061 0.202795
v -0.141065 -0.338128 0.122616
v 0.152466 -0.338128 0.122616
v 0.152466 -0.262230 0.236206
v -0.141065 0.335479 -0.011373
v 0.152466 0.335479 -0.011373
v 0.152466 0.308827 -0.145362
v -0.141065 -0.364780 -0.011373
v 0.152466 -0.364780 -0.011373
v -0.141065 0.308827 0.122616
v 0.152466 0.308827 0.122616
v -0.141065 -0.338128 -0.145362
v 0.152466 -0.338128 -0.145362
v -0.141065 0.232928 0.236206
v 0.152466 0.232928 0.236206
v -0.141065 -0.262230 -0.258952
v 0.152466 -0.262230 -0.258952
v -0.141065 0.119338 0.312104
v 0.152466 0.119338 0.312104
v -0.141065 -0.148639 -0.334851
v 0.152466 -0.148639 -0.334851
v -0.141065 -0.014651 0.338757
v 0.152466 -0.014651 0.338757
v -0.141065 0.119338 -0.334850
v 0.152466 0.119338 -0.334850
v 0.152466 -0.014651 -0.361503
v -0.141065 -0.014651 -0.361503
v -0.141065 -0.148639 0.312105
v 0.152466 -0.148639 0.312105
v -0.141065 0.232928 -0.258952
v 0.152466 0.232928 -0.258952
v -0.141065 -0.262230 0.236206
v -0.141065 0.308827 -0.145362
v 0.167281 -0.207692 0.181668
v 0.167281 -0.119124 0.240848
v 0.167281 -0.266871 0.093100
v 0.167281 -0.287652 -0.011373
v 0.167281 -0.266871 -0.115846
v 0.167281 -0.207692 -0.204414
v 0.167281 0.089823 -0.263594
v 0.167281 -0.014651 -0.284375
v 0.167281 -0.119124 -0.263594
v 0.167281 0.178391 -0.204414
v 0.167281 0.237570 -0.115846
v 0.167281 0.258351 -0.011373
v 0.167281 0.237570 0.093100
v 0.167281 0.178391 0.181668
v 0.167281 0.089823 0.240847
v 0.167281 -0.014651 0.261629
v -0.141065 0.119338 0.312104
v -0.141065 0.232928 0.236206
v -0.141065 -0.148639 0.312105
v -0.141065 -0.014651 0.338757
v -0.141065 -0.262230 0.236206
v -0.155880 -0.119124 0.240848
v -0.141065 -0.338128 0.122616
v -0.155880 -0.207692 0.181668
v -0.155880 -0.266871 0.093100
v -0.155880 -0.287652 -0.011373
v -0.141065 -0.338128 -0.145362
v -0.141065 -0.364780 -0.011373
v -0.155880 -0.266871 -0.115846
v -0.155880 -0.207692 -0.204414
v -0.141065 0.119338 -0.334850
v -0.141065 -0.014651 -0.361503
v -0.141065 -0.148639 -0.334851
v -0.141065 -0.262230 -0.258952
v -0.141065 0.232928 -0.258952
v -0.141065 0.308827 -0.145362
v -0.141065 0.308827 0.122616
v -0.141065 0.335479 -0.011373
vt 0.000000 0.000000
vt 0.000000 0.000000
vt 0.000000 0.000000
vt 0.000000 0.000000
vt 0.000000 0.000000
vt 0.000000 0.000000
vt 0.000000 0.000000
vt 0.000000 0.000000
vt 0.000000 0.000000
vt 0.000000 0.000000
vt 0.000000 0.000000
vt 0.000000 0.000000
vt 0.000000 0.000000
vt 0.000000 0.000000
vt 0.000000 0.000000
vt 0.000000 0.000000
vt 0.000000 0.000000
vt 0.000000 0.000000
vt 0.000000 0.000000
vt 0.000000 0.000000
vt 0.000000 0.000000
vt 0.000000 0.000000
vt 0.000000 0.000000
vt 0.000000 0.000000
vt 0.000000 0.000000
vt 0.000000 0.000000
vt 0.000000 0.000000
vt 0.000000 0.000000
vt 0.000000 0.000000
vt 0.000000 0.000000
vt 0.000000 0.000000
vt 0.000000 0.000000
vt 0.000000 0.000000
vt 0.000000 0.000000
vt 0.000000 0.000000
vt 0.000000 0.000000
vt 0.000000 0.000000
vt 0.000000 0.000000
vt 0.000000 0.000000
vt 0.000000 0.000000
vt 0.000000 0.000000
vt 0.000000 0.000000
vt 0.000000 0.000000
vt 0.000000 0.000000
vt 0.000000 0.000000
vt 0.000000 0.000000
vt 0.000000 0.000000
vt 0.000000 0.000000
vt 0.000000 0.000000
vt 0.000000 0.000000
vt 0.000000 0.000000
vt 0.000000 0.000000
vt 0.000000 0.000000
vt 0.000000 0.000000
vt 0.000000 0.000000
vt 0.000000 0.000000
vt 0.000000 0.000000
vt 0.000000 0.000000
vt 0.000000 0.000000
vt 0.000000 0.000000
vt 0.000000 0.000000
vt 0.000000 0.000000
vt 0.000000 0.000000
vt 0.000000 0.000000
vt 0.000000 0.000000
vt 0.000000 0.000000
vt 0.000000 0.000000
vt 0.000000 0.000000
vt 0.000000 0.000000
vt 0.000000 0.000000
vt 0.000000 0.000000
vt 0.000000 0.000000
vt 0.000000 0.000000
vt 0.000000 0.000000
vt 0.000000 0.000000
vt 0.000000 0.000000
vt 0.000000 0.000000
vt 0.000000 0.000000
vt 0.000000 0.000000
vt 0.000000 0.000000
vt 0.000000 0.000000
vt 0.000000 0.000000
vt 0.000000 0.000000
vt 0.000000 0.000000
vt 0.000000 0.000000
vt 0.000000 0.000000
vt 0.000000 0.000000
vt 0.000000 0.000000
vt 0.000000 0.000000
vt 0.000000 0.000000
vt 0.000000 0.000000
vt 0.000000 0.000000
vt 0.000000 0.000000
vt 0.000000 0.000000
vn -0.8562 -0.5067 -0.1008
vn -0.8562 -0.5067 0.1008
vn -0.8562 -0.4296 0.2870
vn -0.8562 0.1008 0.5067
vn -0.8562 -0.2870 0.4296
vn -0.8562 -0.1008 0.5067
vn -0.8562 -0.4296 -0.2870
vn -0.8562 -0.2870 -0.4296
vn -0.8562 -0.1008 -0.5067
vn 0.0000 -0.1951 -0.9808
vn 0.0000 -0.8315 0.5556
vn 0.0000 0.9808 -0.1951
vn 0.0000 -0.9808 0.1951
vn 0.0000 0.9808 0.1951
vn 0.0000 -0.9808 -0.1951
vn 0.0000 0.8315 0.5556
vn 0.0000 -0.8315 -0.5556
vn 0.0000 0.5556 0.8315
vn 0.0000 -0.5556 -0.8315
vn 0.0000 0.1951 0.9808
vn 0.0000 0.1951 -0.9808
vn 0.0000 -0.1951 0.9808
vn 0.0000 0.5556 -0.8315
vn 0.0000 -0.5556 0.8315
vn 0.0000 0.8315 -0.5556
vn 0.9814 -0.1068 0.1598
vn 0.9814 -0.1598 0.1068
vn 0.9814 -0.1885 0.0375
vn 0.9814 -0.1885 -0.0375
vn 0.9814 -0.1598 -0.1068
vn 0.9814 0.0375 -0.1885
vn 0.9814 -0.1068 -0.1598
vn 0.9814 0.1068 -0.1598
vn 0.9814 -0.0375 -0.1885
vn 0.9814 0.1598 -0.1068
vn 0.9814 0.1885 -0.0375
vn 0.9814 0.1885 0.0375
vn 0.9814 0.1598 0.1068
vn 0.9814 0.1068 0.1598
vn 0.9814 0.0375 0.1885
vn 0.9814 -0.0375 0.1885
vn -0.9814 0.1068 0.1598
vn -0.9814 0.0375 0.1885
vn -0.9814 -0.0375 0.1885
vn -0.9814 -0.1068 0.1598
vn -0.9814 -0.1598 0.1068
vn -0.9814 -0.1885 0.0375
vn -0.9814 -0.1885 -0.0375
vn -0.9814 -0.1598 -0.1068
vn -0.9814 0.0375 -0.1885
vn -0.9814 -0.1068 -0.1598
vn -0.9814 0.1068 -0.1598
vn -0.9814 -0.0375 -0.1885
vn -0.9814 0.1598 -0.1068
vn -0.9814 0.1885 -0.0375
vn -0.9814 0.1885 0.0375
vn -0.9814 0.1598 0.1068
usemtl マテリアル.013
s 1
f 1/1/1 2/2/1 3/3/1
f 4/4/2 5/5/2 3/3/2
f 6/6/3 7/7/3 5/5/3
f 8/8/4 9/9/4 10/10/4
f 6/6/5 11/11/5 12/12/5
f 11/11/6 8/8/6 13/13/6
f 14/14/7 1/1/7 15/15/7
f 16/16/8 14/14/8 17/17/8
f 16/16/9 18/18/9 19/19/9
f 20/20/10 21/21/10 22/22/10
f 1/1/1 3/3/1 15/15/1
f 4/4/2 3/3/2 2/2/2
f 6/6/3 5/5/3 4/4/3
f 8/8/4 10/10/4 13/13/4
f 6/6/5 12/12/5 7/7/5
f 11/11/6 13/13/6 12/12/6
f 14/14/7 15/15/7 17/17/7
f 16/16/8 17/17/8 18/18/8
f 16/16/9 19/19/9 23/23/9
f 20/20/10 22/22/10 24/24/10
f 25/25/11 26/26/11 27/27/11
f 28/28/12 29/29/12 30/30/12
f 31/31/13 32/32/13 26/26/13
f 33/33/14 34/34/14 29/29/14
f 35/35/15 36/36/15 32/32/15
f 37/37/16 38/38/16 34/34/16
f 39/39/17 40/40/17 36/36/17
f 41/41/18 42/42/18 38/38/18
f 43/43/19 44/44/19 40/40/19
f 45/45/20 46/46/20 42/42/20
f 47/47/21 48/48/21 49/49/21
f 50/50/10 49/49/10 44/44/10
f 51/51/22 52/52/22 46/46/22
f 53/53/23 54/54/23 48/48/23
f 55/55/24 27/27/24 52/52/24
f 56/56/25 30/30/25 54/54/25
f 27/27/26 57/57/26 58/58/26
f 26/26/27 59/59/27 57/57/27
f 26/26/28 32/32/28 60/60/28
f 36/36/29 61/61/29 60/60/29
f 36/36/30 40/40/30 62/62/30
f 48/48/31 63/63/31 64/64/31
f 40/40/32 44/44/32 65/65/32
f 48/48/33 54/54/33 66/66/33
f 44/44/34 49/49/34 64/64/34
f 54/54/35 30/30/35 67/67/35
f 30/30/36 29/29/36 68/68/36
f 34/34/37 69/69/37 68/68/37
f 38/38/38 70/70/38 69/69/38
f 42/42/39 71/71/39 70/70/39
f 42/42/40 46/46/40 72/72/40
f 46/46/41 52/52/41 58/58/41
f 73/73/42 74/74/42 14/14/42
f 73/73/43 16/16/43 23/23/43
f 75/75/44 76/76/44 23/23/44
f 77/77/45 75/75/45 78/78/45
f 79/79/46 77/77/46 80/80/46
f 79/79/47 81/81/47 82/82/47
f 83/83/48 84/84/48 82/82/48
f 83/83/49 85/85/49 86/86/49
f 87/87/50 88/88/50 8/8/50
f 89/89/51 90/90/51 86/86/51
f 87/87/52 11/11/52 6/6/52
f 88/88/53 89/89/53 9/9/53
f 91/91/54 6/6/54 4/4/54
f 92/92/55 4/4/55 2/2/55
f 93/93/56 94/94/56 2/2/56
f 74/74/57 93/93/57 1/1/57
f 25/25/11 27/27/11 55/55/11
f 28/28/12 30/30/12 56/56/12
f 31/31/13 26/26/13 25/25/13
f 33/33/14 29/29/14 28/28/14
f 35/35/15 32/32/15 31/31/15
f 37/37/16 34/34/16 33/33/16
f 39/39/17 36/36/17 35/35/17
f 41/41/18 38/38/18 37/37/18
f 43/43/19 40/40/19 39/39/19
f 45/45/20 42/42/20 41/41/20
f 47/47/21 49/49/21 50/50/21
f 50/50/10 44/44/10 43/43/10
f 51/51/22 46/46/22 45/45/22
f 53/53/23 48/48/23 47/47/23
f 55/55/24 52/52/24 51/51/24
f 56/56/25 54/54/25 53/53/25
f 27/27/26 58/58/26 52/52/26
f 26/26/27 57/57/27 27/27/27
f 26/26/28 60/60/28 59/59/28
f 36/36/29 60/60/29 32/32/29
f 36/36/30 62/62/30 61/61/30
f 48/48/31 64/64/31 49/49/31
f 40/40/32 65/65/32 62/62/32
f 48/48/33 66/66/33 63/63/33
f 44/44/34 64/64/34 65/65/34
f 54/54/35 67/67/35 66/66/35
f 30/30/36 68/68/36 67/67/36
f 34/34/37 68/68/37 29/29/37
f 38/38/38 69/69/38 34/34/38
f 42/42/39 70/70/39 38/38/39
f 42/42/40 72/72/40 71/71/40
f 46/46/41 58/58/41 72/72/41
f 73/73/42 14/14/42 16/16/42
f 73/73/43 23/23/43 76/76/43
f 75/75/44 23/23/44 78/78/44
f 77/77/45 78/78/45 80/80/45
f 79/79/46 80/80/46 81/81/46
f 79/79/47 82/82/47 84/84/47
f 83/83/48 82/82/48 85/85/48
f 83/83/49 86/86/49 90/90/49
f 87/87/50 8/8/50 11/11/50
f 89/89/51 86/86/51 9/9/51
f 87/87/52 6/6/52 91/91/52
f 88/88/53 9/9/53 8/8/53
f 91/91/54 4/4/54 92/92/54
f 92/92/55 2/2/55 94/94/55
f 93/93/56 2/2/56 1/1/56
f 74/74/57 1/1/57 14/14/57
