# Blender v2.90.1 OBJ File: ''
# www.blender.org
mtllib behindTire.mtl
o behindTire_Cube.007
v -0.669553 0.219613 0.003812
v -0.645175 0.260801 0.003812
v -0.645175 0.240020 0.108285
v -0.645175 0.240020 -0.100661
v -0.645175 0.180841 -0.189229
v -0.669553 0.201967 -0.084899
v -0.645175 -0.116674 -0.248409
v -0.645175 -0.012201 -0.269190
v -0.669553 -0.012201 -0.228002
v -0.669553 0.076511 -0.210356
v -0.645175 0.092273 -0.248408
v -0.669553 0.201967 0.092524
v -0.645175 0.180841 0.196853
v -0.669553 0.151716 0.167729
v -0.645175 0.092273 0.256032
v -0.645175 -0.012201 0.276814
v -0.669553 -0.012201 0.235626
v 0.815089 0.240020 0.108285
v 0.815089 0.260801 0.003812
v 0.839467 0.219613 0.003812
v 0.815089 0.180841 -0.189229
v 0.839467 0.151716 -0.160105
v 0.839467 0.201967 -0.084899
v 0.815089 0.180841 0.196853
v 0.839467 0.201967 0.092524
v 0.815089 0.092273 0.256032
v 0.839467 0.151716 0.167729
v -0.669553 0.151716 -0.160105
v -0.669553 -0.100912 -0.210356
v -0.669553 0.076511 0.217980
v 0.815089 0.240020 -0.100661
v 0.839467 0.076511 0.217980
v -0.953521 -0.259780 0.251391
v -0.953521 -0.335678 0.137801
v -0.659990 -0.335678 0.137801
v -0.953521 0.311277 -0.130177
v -0.953521 0.337929 0.003812
v -0.659990 0.337929 0.003812
v -0.953521 -0.362330 0.003812
v -0.659990 -0.362330 0.003812
v -0.953521 0.311277 0.137801
v -0.659990 0.311277 0.137801
v -0.953521 -0.335678 -0.130177
v -0.659990 -0.335678 -0.130177
v -0.953521 0.235378 0.251391
v -0.659990 0.235378 0.251391
v -0.953521 -0.259780 -0.243767
v -0.659990 -0.259780 -0.243767
v -0.953521 0.121788 0.327289
v -0.659990 0.121788 0.327289
v -0.953521 -0.146189 -0.319666
v -0.659990 -0.146189 -0.319666
v -0.953521 -0.012201 0.353942
v -0.659990 -0.012201 0.353942
v -0.953521 -0.012201 -0.346318
v -0.953521 0.121788 -0.319665
v -0.659990 0.121788 -0.319665
v -0.659990 -0.012201 -0.346318
v -0.953521 -0.146189 0.327290
v -0.659990 -0.146189 0.327290
v -0.953521 0.235378 -0.243767
v -0.659990 0.235378 -0.243767
v -0.659990 -0.259780 0.251391
v -0.659990 0.311277 -0.130177
v -0.645175 -0.116674 0.256033
v -0.645175 -0.205242 0.196853
v -0.645175 -0.285202 0.003812
v -0.645175 -0.205242 -0.189229
v -0.953521 -0.259780 0.251391
v -0.953521 -0.146189 0.327290
v -0.968337 -0.116674 0.256033
v -0.953521 -0.335678 0.137801
v -0.968337 -0.205242 0.196853
v -0.968337 -0.285202 0.003812
v -0.953521 -0.362330 0.003812
v -0.953521 -0.335678 -0.130177
v -0.968337 -0.205242 -0.189229
v -0.953521 -0.259780 -0.243767
v -0.953521 0.121788 -0.319665
v -0.953521 -0.012201 -0.346318
v -0.968337 -0.012201 -0.269190
v -0.953521 -0.146189 -0.319666
v -0.968337 0.180841 -0.189229
v -0.953521 0.235378 -0.243767
v -0.968337 0.240020 -0.100661
v -0.953521 0.311277 -0.130177
v -0.968337 0.260801 0.003812
v -0.953521 0.337929 0.003812
v -0.953521 0.311277 0.137801
v -0.953521 0.235378 0.251391
v -0.968337 0.240020 0.108285
v -0.968337 0.092273 0.256032
v -0.953521 0.121788 0.327289
v -0.968337 -0.012201 0.276814
v -0.953521 -0.012201 0.353942
v 0.829904 -0.335678 0.137801
v 1.123436 -0.335678 0.137801
v 1.123436 -0.259780 0.251391
v 0.829904 0.337929 0.003812
v 1.123436 0.337929 0.003812
v 1.123436 0.311277 -0.130177
v 0.829904 -0.362330 0.003812
v 1.123436 -0.362330 0.003812
v 0.829904 0.311277 0.137801
v 1.123436 0.311277 0.137801
v 0.829904 -0.335678 -0.130177
v 1.123436 -0.335678 -0.130177
v 0.829904 0.235378 0.251391
v 1.123436 0.235378 0.251391
v 0.829904 -0.259780 -0.243767
v 1.123436 -0.259780 -0.243767
v 0.829904 0.121788 0.327289
v 1.123436 0.121788 0.327289
v 0.829904 -0.146189 -0.319666
v 1.123436 -0.146189 -0.319666
v 0.829904 -0.012201 0.353942
v 1.123436 -0.012201 0.353942
v 0.829904 0.121788 -0.319665
v 1.123436 0.121788 -0.319665
v 1.123436 -0.012201 -0.346318
v 0.829904 -0.012201 -0.346318
v 0.829904 -0.146189 0.327290
v 1.123436 -0.146189 0.327290
v 0.829904 0.235378 -0.243767
v 1.123436 0.235378 -0.243767
v 0.829904 -0.259780 0.251391
v 0.829904 0.311277 -0.130177
v 1.138251 -0.205242 0.196853
v 1.138251 -0.116674 0.256033
v 1.138251 -0.264421 0.108285
v 1.138251 -0.285202 0.003812
v 1.138251 -0.264421 -0.100661
v 1.138251 -0.205242 -0.189229
v 1.138251 0.092273 -0.248408
v 1.138251 -0.012201 -0.269190
v 1.138251 -0.116674 -0.248409
v 1.138251 0.180841 -0.189229
v 1.138251 0.240020 -0.100661
v 1.138251 0.260801 0.003812
v 1.138251 0.240020 0.108285
v 1.138251 0.180841 0.196853
v 1.138251 0.092273 0.256032
v 1.138251 -0.012201 0.276814
v 0.829904 0.121788 0.327289
v 0.829904 0.235378 0.251391
v 0.815089 -0.012201 0.276814
v 0.829904 -0.146189 0.327290
v 0.829904 -0.012201 0.353942
v 0.829904 -0.259780 0.251391
v 0.815089 -0.116674 0.256033
v 0.829904 -0.335678 0.137801
v 0.815089 -0.205242 0.196853
v 0.815089 -0.264421 0.108285
v 0.815089 -0.285202 0.003812
v 0.829904 -0.335678 -0.130177
v 0.829904 -0.362330 0.003812
v 0.815089 -0.264421 -0.100661
v 0.815089 -0.205242 -0.189229
v 0.829904 0.121788 -0.319665
v 0.829904 -0.012201 -0.346318
v 0.815089 -0.012201 -0.269190
v 0.829904 -0.146189 -0.319666
v 0.829904 -0.259780 -0.243767
v 0.815089 0.092273 -0.248408
v 0.815089 -0.116674 -0.248409
v 0.829904 0.235378 -0.243767
v 0.829904 0.311277 -0.130177
v 0.829904 0.311277 0.137801
v 0.829904 0.337929 0.003812
v -0.645175 -0.264421 0.108285
v -0.645175 -0.264421 -0.100661
v -0.968337 -0.264421 0.108285
v -0.968337 -0.264421 -0.100661
v -0.968337 0.092273 -0.248408
v -0.968337 -0.116674 -0.248409
v -0.968337 0.180841 0.196853
vt 0.000000 0.000000
vt 0.000000 0.000000
vt 0.000000 0.000000
vt 0.000000 0.000000
vt 0.000000 0.000000
vt 0.000000 0.000000
vt 0.000000 0.000000
vt 0.000000 0.000000
vt 0.000000 0.000000
vt 0.000000 0.000000
vt 0.000000 0.000000
vt 0.000000 0.000000
vt 0.000000 0.000000
vt 0.000000 0.000000
vt 0.000000 0.000000
vt 0.000000 0.000000
vt 0.000000 0.000000
vt 0.000000 0.000000
vt 0.000000 0.000000
vt 0.000000 0.000000
vt 0.000000 0.000000
vt 0.000000 0.000000
vt 0.000000 0.000000
vt 0.000000 0.000000
vt 0.000000 0.000000
vt 0.000000 0.000000
vt 0.000000 0.000000
vt 0.000000 0.000000
vt 0.000000 0.000000
vt 0.000000 0.000000
vt 0.000000 0.000000
vt 0.000000 0.000000
vt 0.000000 0.000000
vt 0.000000 0.000000
vt 0.000000 0.000000
vt 0.000000 0.000000
vt 0.000000 0.000000
vt 0.000000 0.000000
vt 0.000000 0.000000
vt 0.000000 0.000000
vt 0.000000 0.000000
vt 0.000000 0.000000
vt 0.000000 0.000000
vt 0.000000 0.000000
vt 0.000000 0.000000
vt 0.000000 0.000000
vt 0.000000 0.000000
vt 0.000000 0.000000
vt 0.000000 0.000000
vt 0.000000 0.000000
vt 0.000000 0.000000
vt 0.000000 0.000000
vt 0.000000 0.000000
vt 0.000000 0.000000
vt 0.000000 0.000000
vt 0.000000 0.000000
vt 0.000000 0.000000
vt 0.000000 0.000000
vt 0.000000 0.000000
vt 0.000000 0.000000
vt 0.000000 0.000000
vt 0.000000 0.000000
vt 0.000000 0.000000
vt 0.000000 0.000000
vt 0.000000 0.000000
vt 0.000000 0.000000
vt 0.000000 0.000000
vt 0.000000 0.000000
vt 0.000000 0.000000
vt 0.000000 0.000000
vt 0.000000 0.000000
vt 0.000000 0.000000
vt 0.000000 0.000000
vt 0.000000 0.000000
vt 0.000000 0.000000
vt 0.000000 0.000000
vt 0.000000 0.000000
vt 0.000000 0.000000
vt 0.000000 0.000000
vt 0.000000 0.000000
vt 0.000000 0.000000
vt 0.000000 0.000000
vt 0.000000 0.000000
vt 0.000000 0.000000
vt 0.000000 0.000000
vt 0.000000 0.000000
vt 0.000000 0.000000
vt 0.000000 0.000000
vt 0.000000 0.000000
vt 0.000000 0.000000
vt 0.000000 0.000000
vt 0.000000 0.000000
vt 0.000000 0.000000
vt 0.000000 0.000000
vt 0.000000 0.000000
vt 0.000000 0.000000
vt 0.000000 0.000000
vt 0.000000 0.000000
vt 0.000000 0.000000
vt 0.000000 0.000000
vt 0.000000 0.000000
vt 0.000000 0.000000
vt 0.000000 0.000000
vt 0.000000 0.000000
vt 0.000000 0.000000
vt 0.000000 0.000000
vt 0.000000 0.000000
vt 0.000000 0.000000
vt 0.000000 0.000000
vt 0.000000 0.000000
vt 0.000000 0.000000
vt 0.000000 0.000000
vt 0.000000 0.000000
vt 0.000000 0.000000
vt 0.000000 0.000000
vt 0.000000 0.000000
vt 0.000000 0.000000
vt 0.000000 0.000000
vt 0.000000 0.000000
vt 0.000000 0.000000
vt 0.000000 0.000000
vt 0.000000 0.000000
vt 0.000000 0.000000
vt 0.000000 0.000000
vt 0.000000 0.000000
vt 0.000000 0.000000
vt 0.000000 0.000000
vt 0.000000 0.000000
vt 0.000000 0.000000
vt 0.000000 0.000000
vt 0.000000 0.000000
vt 0.000000 0.000000
vt 0.000000 0.000000
vt 0.000000 0.000000
vt 0.000000 0.000000
vt 0.000000 0.000000
vt 0.000000 0.000000
vt 0.000000 0.000000
vt 0.000000 0.000000
vt 0.000000 0.000000
vt 0.000000 0.000000
vt 0.000000 0.000000
vt 0.000000 0.000000
vt 0.000000 0.000000
vt 0.000000 0.000000
vt 0.000000 0.000000
vt 0.000000 0.000000
vt 0.000000 0.000000
vt 0.000000 0.000000
vt 0.000000 0.000000
vt 0.000000 0.000000
vt 0.000000 0.000000
vt 0.000000 0.000000
vt 0.000000 0.000000
vt 0.000000 0.000000
vt 0.000000 0.000000
vt 0.000000 0.000000
vt 0.000000 0.000000
vt 0.000000 0.000000
vt 0.000000 0.000000
vt 0.000000 0.000000
vt 0.000000 0.000000
vt 0.000000 0.000000
vt 0.000000 0.000000
vt 0.000000 0.000000
vt 0.000000 0.000000
vt 0.000000 0.000000
vt 0.000000 0.000000
vt 0.000000 0.000000
vt 0.000000 0.000000
vt 0.000000 0.000000
vt 0.000000 0.000000
vt 0.000000 0.000000
vt 0.000000 0.000000
vt 0.000000 0.000000
vt 0.000000 0.000000
vn 0.8562 -0.5067 -0.1008
vn 0.8562 -0.5067 0.1008
vn 0.8562 -0.5068 0.1008
vn 0.8562 -0.4296 0.2870
vn 0.8562 0.1008 0.5067
vn 0.8562 -0.2871 0.4296
vn 0.8562 -0.1008 0.5067
vn 0.8562 -0.4296 -0.2871
vn 0.8562 -0.2870 -0.4296
vn 0.8562 -0.1008 -0.5068
vn 0.8562 -0.1008 -0.5067
vn -0.8562 -0.5067 -0.1008
vn -0.8562 -0.5068 -0.1008
vn -0.8562 -0.4296 0.2870
vn -0.8562 -0.4296 -0.2871
vn -0.8562 -0.2870 -0.4296
vn 0.8562 -0.1008 0.5068
vn 0.8562 -0.2871 -0.4296
vn -0.8562 -0.2871 -0.4296
vn 0.0000 -0.8315 0.5556
vn 0.0000 0.9808 -0.1951
vn 0.0000 -0.9808 0.1951
vn 0.0000 0.9808 0.1951
vn 0.0000 -0.9808 -0.1951
vn 0.0000 0.8315 0.5556
vn 0.0000 -0.8315 -0.5556
vn 0.0000 0.5556 0.8315
vn 0.0000 -0.5556 -0.8315
vn 0.0000 0.1951 0.9808
vn 0.0000 0.1951 -0.9808
vn 0.0000 -0.1951 -0.9808
vn 0.0000 -0.1951 0.9808
vn 0.0000 0.5556 -0.8315
vn 0.0000 -0.5556 0.8315
vn 0.0000 0.8315 -0.5556
vn 0.9814 0.1068 0.1598
vn 0.9814 0.0375 0.1885
vn 0.9814 -0.0375 0.1885
vn 0.9814 -0.1068 0.1598
vn 0.9814 -0.1598 0.1068
vn 0.9814 -0.1885 0.0375
vn 0.9814 -0.1885 -0.0375
vn 0.9814 -0.1598 -0.1068
vn 0.9814 0.0375 -0.1885
vn 0.9814 -0.1068 -0.1598
vn 0.9814 0.1068 -0.1598
vn 0.9814 -0.0375 -0.1885
vn 0.9814 0.1598 -0.1068
vn 0.9814 0.1885 -0.0375
vn 0.9814 0.1885 0.0375
vn 0.9814 0.1598 0.1068
vn -0.9814 -0.1068 0.1598
vn -0.9814 -0.1598 0.1068
vn -0.9814 -0.1885 0.0375
vn -0.9814 -0.1885 -0.0375
vn -0.9814 -0.1598 -0.1068
vn -0.9814 0.0375 -0.1885
vn -0.9814 -0.1068 -0.1598
vn -0.9814 0.1068 -0.1598
vn -0.9814 -0.0375 -0.1885
vn -0.9814 0.1598 -0.1068
vn -0.9814 0.1885 -0.0375
vn -0.9814 0.1885 0.0375
vn -0.9814 0.1598 0.1068
vn -0.9814 0.1068 0.1598
vn -0.9814 0.0375 0.1885
vn -0.9814 -0.0375 0.1885
usemtl Material.004
s 1
f 1/1/1 2/2/1 3/3/1
f 4/4/2 2/2/3 1/1/2
f 5/5/4 4/4/4 6/6/4
f 7/7/5 8/8/5 9/9/5
f 10/10/6 11/11/6 5/5/6
f 9/9/7 8/8/7 11/11/7
f 12/12/8 3/3/8 13/13/8
f 14/14/9 13/13/9 15/15/9
f 15/15/10 16/16/11 17/17/10
f 18/18/12 19/19/13 20/20/12
f 21/21/14 22/22/14 23/23/14
f 24/24/15 18/18/15 25/25/15
f 26/26/16 24/24/16 27/27/16
f 1/1/1 3/3/1 12/12/1
f 4/4/2 1/1/2 6/6/2
f 5/5/4 6/6/4 28/28/4
f 7/7/5 9/9/5 29/29/5
f 10/10/6 5/5/6 28/28/6
f 9/9/17 11/11/17 10/10/17
f 12/12/8 13/13/8 14/14/8
f 14/14/18 15/15/18 30/30/18
f 15/15/10 17/17/10 30/30/10
f 18/18/12 20/20/12 25/25/12
f 21/21/14 23/23/14 31/31/14
f 24/24/15 25/25/15 27/27/15
f 26/26/19 27/27/19 32/32/19
f 33/33/20 34/34/20 35/35/20
f 36/36/21 37/37/21 38/38/21
f 34/34/22 39/39/22 40/40/22
f 37/37/23 41/41/23 42/42/23
f 39/39/24 43/43/24 44/44/24
f 41/41/25 45/45/25 46/46/25
f 43/43/26 47/47/26 48/48/26
f 45/45/27 49/49/27 50/50/27
f 47/47/28 51/51/28 52/52/28
f 49/49/29 53/53/29 54/54/29
f 55/55/30 56/56/30 57/57/30
f 51/51/31 55/55/31 58/58/31
f 53/53/32 59/59/32 60/60/32
f 56/56/33 61/61/33 62/62/33
f 59/59/34 33/33/34 63/63/34
f 61/61/35 36/36/35 64/64/35
f 13/13/36 46/46/36 50/50/36
f 50/50/37 54/54/37 16/16/37
f 16/16/38 54/54/38 60/60/38
f 65/65/39 60/60/39 63/63/39
f 66/66/40 63/63/40 35/35/40
f 35/35/41 40/40/41 67/67/41
f 67/67/42 40/40/42 44/44/42
f 44/44/43 48/48/43 68/68/43
f 8/8/44 58/58/44 57/57/44
f 68/68/45 48/48/45 52/52/45
f 57/57/46 62/62/46 5/5/46
f 7/7/47 52/52/47 58/58/47
f 62/62/48 64/64/48 4/4/48
f 64/64/49 38/38/49 2/2/49
f 2/2/50 38/38/50 42/42/50
f 3/3/51 42/42/51 46/46/51
f 69/69/52 70/70/52 71/71/52
f 72/72/53 69/69/53 73/73/53
f 74/74/54 75/75/54 72/72/54
f 76/76/55 75/75/55 74/74/55
f 77/77/56 78/78/56 76/76/56
f 79/79/57 80/80/57 81/81/57
f 82/82/58 78/78/58 77/77/58
f 83/83/59 84/84/59 79/79/59
f 81/81/60 80/80/60 82/82/60
f 85/85/61 86/86/61 84/84/61
f 87/87/62 88/88/62 86/86/62
f 89/89/63 88/88/63 87/87/63
f 90/90/64 89/89/64 91/91/64
f 92/92/65 93/93/65 90/90/65
f 94/94/66 95/95/66 93/93/66
f 71/71/67 70/70/67 95/95/67
f 96/96/20 97/97/20 98/98/20
f 99/99/21 100/100/21 101/101/21
f 102/102/22 103/103/22 97/97/22
f 104/104/23 105/105/23 100/100/23
f 106/106/24 107/107/24 103/103/24
f 108/108/25 109/109/25 105/105/25
f 110/110/26 111/111/26 107/107/26
f 112/112/27 113/113/27 109/109/27
f 114/114/28 115/115/28 111/111/28
f 116/116/29 117/117/29 113/113/29
f 118/118/30 119/119/30 120/120/30
f 121/121/31 120/120/31 115/115/31
f 122/122/32 123/123/32 117/117/32
f 124/124/33 125/125/33 119/119/33
f 126/126/34 98/98/34 123/123/34
f 127/127/35 101/101/35 125/125/35
f 98/98/39 128/128/39 129/129/39
f 97/97/40 130/130/40 128/128/40
f 97/97/41 103/103/41 131/131/41
f 107/107/42 132/132/42 131/131/42
f 107/107/43 111/111/43 133/133/43
f 119/119/44 134/134/44 135/135/44
f 115/115/45 136/136/45 133/133/45
f 119/119/46 125/125/46 137/137/46
f 115/115/47 120/120/47 135/135/47
f 125/125/48 101/101/48 138/138/48
f 101/101/49 100/100/49 139/139/49
f 105/105/50 140/140/50 139/139/50
f 109/109/51 141/141/51 140/140/51
f 109/109/36 113/113/36 142/142/36
f 113/113/37 117/117/37 143/143/37
f 117/117/38 123/123/38 129/129/38
f 144/144/65 145/145/65 24/24/65
f 144/144/66 26/26/66 146/146/66
f 147/147/67 148/148/67 146/146/67
f 149/149/52 147/147/52 150/150/52
f 151/151/53 149/149/53 152/152/53
f 151/151/54 153/153/54 154/154/54
f 155/155/55 156/156/55 154/154/55
f 155/155/56 157/157/56 158/158/56
f 159/159/57 160/160/57 161/161/57
f 162/162/58 163/163/58 158/158/58
f 159/159/59 164/164/59 21/21/59
f 162/162/60 165/165/60 161/161/60
f 166/166/61 21/21/61 31/31/61
f 167/167/62 31/31/62 19/19/62
f 168/168/63 169/169/63 19/19/63
f 145/145/64 168/168/64 18/18/64
f 33/33/20 35/35/20 63/63/20
f 36/36/21 38/38/21 64/64/21
f 34/34/22 40/40/22 35/35/22
f 37/37/23 42/42/23 38/38/23
f 39/39/24 44/44/24 40/40/24
f 41/41/25 46/46/25 42/42/25
f 43/43/26 48/48/26 44/44/26
f 45/45/27 50/50/27 46/46/27
f 47/47/28 52/52/28 48/48/28
f 49/49/29 54/54/29 50/50/29
f 55/55/30 57/57/30 58/58/30
f 51/51/31 58/58/31 52/52/31
f 53/53/32 60/60/32 54/54/32
f 56/56/33 62/62/33 57/57/33
f 59/59/34 63/63/34 60/60/34
f 61/61/35 64/64/35 62/62/35
f 13/13/36 50/50/36 15/15/36
f 50/50/37 16/16/37 15/15/37
f 16/16/38 60/60/38 65/65/38
f 65/65/39 63/63/39 66/66/39
f 66/66/40 35/35/40 170/170/40
f 35/35/41 67/67/41 170/170/41
f 67/67/42 44/44/42 171/171/42
f 44/44/43 68/68/43 171/171/43
f 8/8/44 57/57/44 11/11/44
f 68/68/45 52/52/45 7/7/45
f 57/57/46 5/5/46 11/11/46
f 7/7/47 58/58/47 8/8/47
f 62/62/48 4/4/48 5/5/48
f 64/64/49 2/2/49 4/4/49
f 2/2/50 42/42/50 3/3/50
f 3/3/51 46/46/51 13/13/51
f 69/69/52 71/71/52 73/73/52
f 72/72/53 73/73/53 172/172/53
f 74/74/54 72/72/54 172/172/54
f 76/76/55 74/74/55 173/173/55
f 77/77/56 76/76/56 173/173/56
f 79/79/57 81/81/57 174/174/57
f 82/82/58 77/77/58 175/175/58
f 83/83/59 79/79/59 174/174/59
f 81/81/60 82/82/60 175/175/60
f 85/85/61 84/84/61 83/83/61
f 87/87/62 86/86/62 85/85/62
f 89/89/63 87/87/63 91/91/63
f 90/90/64 91/91/64 176/176/64
f 92/92/65 90/90/65 176/176/65
f 94/94/66 93/93/66 92/92/66
f 71/71/67 95/95/67 94/94/67
f 96/96/20 98/98/20 126/126/20
f 99/99/21 101/101/21 127/127/21
f 102/102/22 97/97/22 96/96/22
f 104/104/23 100/100/23 99/99/23
f 106/106/24 103/103/24 102/102/24
f 108/108/25 105/105/25 104/104/25
f 110/110/26 107/107/26 106/106/26
f 112/112/27 109/109/27 108/108/27
f 114/114/28 111/111/28 110/110/28
f 116/116/29 113/113/29 112/112/29
f 118/118/30 120/120/30 121/121/30
f 121/121/31 115/115/31 114/114/31
f 122/122/32 117/117/32 116/116/32
f 124/124/33 119/119/33 118/118/33
f 126/126/34 123/123/34 122/122/34
f 127/127/35 125/125/35 124/124/35
f 98/98/39 129/129/39 123/123/39
f 97/97/40 128/128/40 98/98/40
f 97/97/41 131/131/41 130/130/41
f 107/107/42 131/131/42 103/103/42
f 107/107/43 133/133/43 132/132/43
f 119/119/44 135/135/44 120/120/44
f 115/115/45 133/133/45 111/111/45
f 119/119/46 137/137/46 134/134/46
f 115/115/47 135/135/47 136/136/47
f 125/125/48 138/138/48 137/137/48
f 101/101/49 139/139/49 138/138/49
f 105/105/50 139/139/50 100/100/50
f 109/109/51 140/140/51 105/105/51
f 109/109/36 142/142/36 141/141/36
f 113/113/37 143/143/37 142/142/37
f 117/117/38 129/129/38 143/143/38
f 144/144/65 24/24/65 26/26/65
f 144/144/66 146/146/66 148/148/66
f 147/147/67 146/146/67 150/150/67
f 149/149/52 150/150/52 152/152/52
f 151/151/53 152/152/53 153/153/53
f 151/151/54 154/154/54 156/156/54
f 155/155/55 154/154/55 157/157/55
f 155/155/56 158/158/56 163/163/56
f 159/159/57 161/161/57 164/164/57
f 162/162/58 158/158/58 165/165/58
f 159/159/59 21/21/59 166/166/59
f 162/162/60 161/161/60 160/160/60
f 166/166/61 31/31/61 167/167/61
f 167/167/62 19/19/62 169/169/62
f 168/168/63 19/19/63 18/18/63
f 145/145/64 18/18/64 24/24/64
