# Blender v2.90.1 OBJ File: ''
# www.blender.org
mtllib bumper.mtl
o bumper_Cube.001
v -0.237274 -0.613699 -2.360472
v -0.236215 -0.608271 -2.338942
v 0.000000 -0.608271 -2.349234
v -0.238422 -0.819121 -2.358183
v -0.496844 -0.819121 -2.312630
v -0.494727 -0.613699 -2.314919
v -0.525116 -0.599236 -2.289744
v -1.013300 -0.573536 -2.067905
v -0.961234 -0.607294 -1.985663
v -1.024188 -0.813006 -2.228304
v -0.927442 -0.831927 -2.217527
v -0.927442 -1.003087 -2.261172
v -0.335343 -1.018268 -2.355964
v -0.675569 -1.018268 -2.310411
v -0.637769 -1.002482 -2.285752
v -0.942662 -0.412838 -1.955058
v -0.957931 -0.400959 -1.940515
v -0.603882 -0.404357 -2.175956
v -0.610663 -0.418603 -2.177510
v -1.024188 -0.587080 -2.066572
v -0.558597 -0.452361 -2.095268
v -0.943981 -0.446596 -1.872815
v -0.398091 -0.632994 -2.207501
v -0.355068 -1.002482 -2.331305
v 0.000000 -1.002482 -2.341597
v 0.000000 -0.819121 -2.368476
v -0.467852 -0.608271 -2.293389
v -0.296468 -0.425316 -2.313898
v -0.289473 -0.438779 -2.297038
v -0.566062 -0.419921 -2.168360
v 0.000000 -0.450149 -2.376657
v 0.000000 -0.461122 -2.376021
v -0.443890 -0.472905 -2.210696
v -0.395682 -0.564491 -2.280788
v -0.031472 -0.499395 -2.339833
v -0.236204 -0.563661 -2.328398
v -0.279306 -0.483840 -2.276598
v -0.030455 -0.563603 -2.318305
v -0.489263 -0.837008 -2.287595
v -0.487596 -0.839054 -2.248173
v -0.274535 -0.837008 -2.333148
v 0.000000 -0.837008 -2.343441
v 0.000000 -0.839054 -2.304018
v -1.024188 -1.018995 -2.280830
v -0.636102 -1.004528 -2.246330
v -0.353401 -1.004528 -2.291883
v -0.272868 -0.839054 -2.248173
v -0.925775 -1.005133 -2.221750
v 0.000000 -1.004528 -2.302175
v -0.919691 -1.013677 -2.174556
v 0.237274 -0.613699 -2.360472
v 0.000000 -0.613699 -2.370764
v 0.238422 -0.819121 -2.358183
v 0.494727 -0.613699 -2.314919
v 0.961234 -0.607294 -1.985663
v 1.013300 -0.573536 -2.067905
v 0.525116 -0.599236 -2.289744
v 1.024188 -0.813006 -2.228304
v 0.496844 -0.819121 -2.312630
v 1.024188 -1.018995 -2.280830
v 0.927442 -1.003087 -2.261172
v 0.637769 -1.002482 -2.285752
v 0.675569 -1.018268 -2.310411
v 0.335343 -1.018268 -2.355964
v 0.942662 -0.412838 -1.955058
v 0.610663 -0.418603 -2.177510
v 0.603882 -0.404357 -2.175956
v 1.024188 -0.587080 -2.066572
v 0.957931 -0.400959 -1.940515
v 0.558597 -0.452361 -2.095268
v 0.000000 -1.018268 -2.366257
v 0.467852 -0.608271 -2.293389
v 0.296468 -0.425316 -2.313898
v 0.566062 -0.419921 -2.168360
v 0.289473 -0.438779 -2.297038
v 0.443890 -0.472905 -2.210696
v 0.279306 -0.483840 -2.276598
v 0.395682 -0.564491 -2.280788
v 0.031472 -0.499395 -2.339833
v 0.030455 -0.563603 -2.318305
v 0.236215 -0.608271 -2.338942
v 0.236204 -0.563661 -2.328398
v 0.487596 -0.839054 -2.248173
v 0.489263 -0.837008 -2.287595
v 0.927442 -0.831927 -2.217527
v 0.925775 -1.005133 -2.221750
v 0.274535 -0.837008 -2.333148
v 0.481511 -0.847598 -2.200979
v 0.925775 -0.833973 -2.178105
v 0.355068 -1.002482 -2.331305
v 0.353401 -1.004528 -2.291883
v 0.272868 -0.839054 -2.248173
v 0.636102 -1.004528 -2.246330
v 0.919691 -1.013677 -2.174556
v -0.534922 -0.475255 2.015198
v -0.826176 -0.475983 2.044779
v -0.827464 -0.475045 2.006630
v -0.536210 -0.474317 1.977050
v -0.260359 -0.474317 1.977050
v -0.259071 -0.475255 2.015198
v 0.000000 -0.474317 1.977050
v -0.260359 -0.669284 1.972253
v 0.000000 -0.669284 1.972253
v -0.536663 -0.474097 1.968118
v -0.260812 -0.474097 1.968118
v -0.534922 -0.670223 2.010402
v -0.536210 -0.669284 1.972253
v -0.827464 -0.670012 2.001834
v -0.259071 -0.670223 2.010402
v 0.000000 -0.670223 2.010402
v -0.826176 -0.670951 2.039983
v -0.536663 -0.492924 1.967654
v -0.538990 -0.491795 1.921737
v -0.281971 -0.491795 1.921737
v -0.279644 -0.650238 1.963784
v -0.279644 -0.492924 1.967654
v -0.827916 -0.669792 1.992902
v -0.827916 -0.474825 1.997698
v -0.260812 -0.669065 1.963321
v -0.809180 -0.650918 1.991462
v -0.536663 -0.669065 1.963321
v -0.809180 -0.493605 1.995332
v -0.536663 -0.650238 1.963784
v -0.811507 -0.649789 1.945545
v -0.281971 -0.649108 1.917867
v -0.811507 -0.492476 1.949415
v -0.538990 -0.649108 1.917867
v 0.827464 -0.475045 2.006630
v 0.826176 -0.475983 2.044779
v 0.534922 -0.475255 2.015198
v 0.259071 -0.475255 2.015198
v 0.260359 -0.474317 1.977050
v 0.000000 -0.475255 2.015198
v 0.260359 -0.669284 1.972253
v 0.536210 -0.474317 1.977050
v 0.260812 -0.474097 1.968118
v 0.534922 -0.670223 2.010402
v 0.826176 -0.670951 2.039983
v 0.827464 -0.670012 2.001834
v 0.259071 -0.670223 2.010402
v 0.536663 -0.492924 1.967654
v 0.279644 -0.492924 1.967654
v 0.281971 -0.491795 1.921737
v 0.279644 -0.650238 1.963784
v 0.827916 -0.669792 1.992902
v 0.260812 -0.669065 1.963321
v 0.536210 -0.669284 1.972253
v 0.827916 -0.474825 1.997698
v 0.809180 -0.650918 1.991462
v 0.536663 -0.650238 1.963784
v 0.536663 -0.669065 1.963321
v 0.809180 -0.493605 1.995332
v 0.536663 -0.474097 1.968118
v 0.811507 -0.649789 1.945545
v 0.281971 -0.649108 1.917867
v 0.811507 -0.492476 1.949415
v -0.925775 -0.833973 -2.178105
v -0.630017 -1.013073 -2.199136
v 0.398091 -0.632994 -2.207501
v 0.943981 -0.446596 -1.872815
v 0.919691 -0.842517 -2.130912
v 0.630017 -1.013073 -2.199136
v 0.538990 -0.491795 1.921737
v 0.538990 -0.649108 1.917867
v -0.481511 -0.847598 -2.200979
vt 0.553030 0.442787
vt 0.553030 0.442787
vt 0.553030 0.375000
vt 0.462634 0.442787
vt 0.462634 0.500000
vt 0.553030 0.500000
vt 0.558315 0.500000
vt 0.559409 0.500000
vt 0.559409 0.500000
vt 0.462634 0.500000
vt 0.462634 0.500000
vt 0.375000 0.500000
vt 0.317787 0.500000
vt 0.375000 0.500000
vt 0.375000 0.500000
vt 0.618717 0.500000
vt 0.625000 0.500000
vt 0.625000 0.500000
vt 0.619886 0.500000
vt 0.553030 0.500000
vt 0.619886 0.500000
vt 0.618717 0.500000
vt 0.558315 0.500000
vt 0.317787 0.500000
vt 0.250000 0.500000
vt 0.462634 0.375000
vt 0.553030 0.500000
vt 0.682213 0.500000
vt 0.682213 0.500000
vt 0.625000 0.500000
vt 0.750000 0.500000
vt 0.750000 0.500000
vt 0.613266 0.492116
vt 0.625000 0.442787
vt 0.564384 0.491623
vt 0.609528 0.381375
vt 0.625000 0.375000
vt 0.566726 0.440709
vt 0.611252 0.445600
vt 0.568486 0.381816
vt 0.462634 0.500000
vt 0.462634 0.500000
vt 0.462634 0.442787
vt 0.462634 0.375000
vt 0.462634 0.375000
vt 0.375000 0.500000
vt 0.375000 0.500000
vt 0.317787 0.500000
vt 0.462634 0.442787
vt 0.375000 0.500000
vt 0.250000 0.500000
vt 0.375000 0.500000
vt 0.553030 0.442787
vt 0.553030 0.375000
vt 0.462634 0.442787
vt 0.553030 0.500000
vt 0.559409 0.500000
vt 0.559409 0.500000
vt 0.558315 0.500000
vt 0.462634 0.500000
vt 0.462634 0.500000
vt 0.375000 0.500000
vt 0.375000 0.500000
vt 0.375000 0.500000
vt 0.375000 0.500000
vt 0.317787 0.500000
vt 0.618717 0.500000
vt 0.619886 0.500000
vt 0.625000 0.500000
vt 0.553030 0.500000
vt 0.625000 0.500000
vt 0.619886 0.500000
vt 0.250000 0.500000
vt 0.553030 0.500000
vt 0.682213 0.500000
vt 0.625000 0.500000
vt 0.682213 0.500000
vt 0.613266 0.492116
vt 0.611252 0.445600
vt 0.625000 0.442787
vt 0.564384 0.491623
vt 0.609528 0.381375
vt 0.568486 0.381816
vt 0.553030 0.442787
vt 0.566726 0.440709
vt 0.462634 0.500000
vt 0.462634 0.500000
vt 0.462634 0.500000
vt 0.375000 0.500000
vt 0.462634 0.442787
vt 0.462634 0.500000
vt 0.462634 0.500000
vt 0.317787 0.500000
vt 0.317787 0.500000
vt 0.462634 0.442787
vt 0.375000 0.500000
vt 0.375000 0.500000
vt 0.553030 0.750000
vt 0.553030 0.750000
vt 0.553030 0.750000
vt 0.553030 0.750000
vt 0.553030 0.807213
vt 0.553030 0.807213
vt 0.553030 0.875000
vt 0.432463 0.807213
vt 0.432463 0.875000
vt 0.553030 0.750000
vt 0.553030 0.807213
vt 0.432463 0.750000
vt 0.432463 0.750000
vt 0.432463 0.750000
vt 0.432463 0.807213
vt 0.432463 0.875000
vt 0.432463 0.750000
vt 0.541388 0.750000
vt 0.541388 0.750000
vt 0.541388 0.803307
vt 0.444106 0.803307
vt 0.541388 0.803307
vt 0.432463 0.750000
vt 0.553030 0.750000
vt 0.432463 0.807213
vt 0.444106 0.750000
vt 0.432463 0.750000
vt 0.541388 0.750000
vt 0.444105 0.750000
vt 0.444106 0.750000
vt 0.444106 0.803307
vt 0.541388 0.750000
vt 0.444105 0.750000
vt 0.553030 0.750000
vt 0.553030 0.750000
vt 0.553030 0.750000
vt 0.553030 0.807213
vt 0.553030 0.807213
vt 0.553030 0.875000
vt 0.432463 0.807213
vt 0.553030 0.750000
vt 0.553030 0.807213
vt 0.432463 0.750000
vt 0.432463 0.750000
vt 0.432463 0.750000
vt 0.432463 0.807213
vt 0.541388 0.750000
vt 0.541388 0.803307
vt 0.541388 0.803307
vt 0.444106 0.803307
vt 0.432463 0.750000
vt 0.432463 0.807213
vt 0.432463 0.750000
vt 0.553030 0.750000
vt 0.444106 0.750000
vt 0.444105 0.750000
vt 0.432463 0.750000
vt 0.541388 0.750000
vt 0.553030 0.750000
vt 0.444106 0.750000
vt 0.444106 0.803307
vt 0.541388 0.750000
vt 0.462634 0.500000
vt 0.375000 0.500000
vt 0.558315 0.500000
vt 0.618717 0.500000
vt 0.462634 0.500000
vt 0.375000 0.500000
vt 0.541388 0.750000
vt 0.444105 0.750000
vt 0.462634 0.500000
vn -0.0106 0.9696 -0.2443
vn -0.0106 0.9697 -0.2440
vn -0.0106 0.9696 -0.2444
vn -0.1740 -0.0097 -0.9847
vn -0.1736 -0.0092 -0.9848
vn -0.1739 -0.0095 -0.9847
vn 0.1755 0.9448 0.2767
vn -0.1580 -0.0094 -0.9874
vn 0.1544 0.2441 -0.9574
vn -0.0627 0.8814 -0.4682
vn -0.5266 0.2979 -0.7962
vn -0.4519 0.3065 -0.8377
vn -0.3099 0.6134 -0.7265
vn -0.7271 0.5432 -0.4199
vn -0.1939 -0.9446 -0.2649
vn 0.9956 -0.0917 -0.0217
vn -0.4968 -0.7316 0.4670
vn -0.0159 0.8363 -0.5481
vn -0.0432 -0.0110 -0.9990
vn -0.0431 -0.0109 -0.9990
vn -0.0358 0.9787 -0.2021
vn -0.2958 -0.8025 -0.5181
vn -0.2668 -0.0558 -0.9621
vn 0.3961 0.6422 -0.6563
vn -0.4206 -0.2802 -0.8629
vn -0.1811 0.5358 -0.8247
vn -0.6744 -0.1322 -0.7264
vn -0.2801 0.2209 -0.9342
vn -0.2475 -0.4460 -0.8601
vn -0.0363 0.5521 -0.8330
vn -0.0197 -0.9985 -0.0510
vn -0.0019 -0.9987 -0.0518
vn 0.0000 -0.9987 -0.0518
vn -0.0989 -0.8236 -0.5585
vn -0.1211 -0.7168 -0.6867
vn -0.0251 -0.8134 -0.5812
vn -0.0434 0.8703 -0.4906
vn -0.0434 0.8703 -0.4905
vn 0.0084 0.9986 0.0515
vn 0.0022 0.9987 0.0517
vn 0.0083 0.9986 0.0515
vn -0.0051 -0.9997 -0.0240
vn 0.0023 0.9987 0.0517
vn 0.0014 0.9987 0.0519
vn 0.0000 0.9987 0.0518
vn 0.0129 0.9842 0.1765
vn 0.0106 0.9697 -0.2440
vn 0.0106 0.9696 -0.2444
vn 0.1740 -0.0097 -0.9847
vn 0.1742 -0.0100 -0.9847
vn 0.1739 -0.0095 -0.9847
vn -0.1755 0.9448 0.2767
vn 0.1580 -0.0094 -0.9874
vn -0.1544 0.2441 -0.9574
vn 0.0627 0.8814 -0.4682
vn 0.5207 0.3336 -0.7858
vn 0.4520 0.3065 -0.8377
vn 0.3928 0.2281 -0.8909
vn 0.2263 0.6244 -0.7476
vn 0.1939 -0.9446 -0.2649
vn -0.8455 0.0033 -0.5339
vn 0.7907 -0.5462 0.2764
vn 0.0163 0.8405 -0.5416
vn 0.0165 0.8421 -0.5391
vn 0.0160 0.8379 -0.5455
vn 0.0432 -0.0110 -0.9990
vn 0.0433 -0.0111 -0.9990
vn 0.0358 0.9787 -0.2021
vn 0.2606 -0.8535 -0.4512
vn 0.1868 -0.8040 -0.5645
vn -0.3961 0.6422 -0.6563
vn 0.3574 -0.4515 -0.8176
vn 0.1811 0.5358 -0.8247
vn 0.8236 -0.1920 -0.5337
vn 0.2801 0.2209 -0.9342
vn 0.2475 -0.4460 -0.8601
vn -0.0476 0.2298 -0.9721
vn 0.0197 -0.9985 -0.0510
vn -0.9991 0.0106 -0.0417
vn 0.0019 -0.9987 -0.0518
vn 0.0989 -0.8236 -0.5585
vn 0.1211 -0.7168 -0.6867
vn 0.0251 -0.8134 -0.5812
vn 0.0434 0.8703 -0.4905
vn 0.0391 -0.9841 -0.1731
vn -0.0083 0.9986 0.0515
vn -0.0014 0.9987 0.0519
vn -0.0083 0.9986 0.0516
vn 0.0050 -0.9997 -0.0240
vn 0.0051 -0.9997 -0.0240
vn -0.0023 0.9987 0.0517
vn -0.0129 0.9842 0.1765
vn -0.9920 0.0312 -0.1222
vn 0.0000 -0.9997 -0.0246
vn 0.0000 -0.0246 0.9997
vn -0.9987 -0.0012 0.0506
vn 0.0000 0.9997 0.0246
vn 0.9994 0.0008 -0.0337
vn 0.9987 0.0012 -0.0505
vn 0.0000 0.9997 0.0245
vn 0.1011 -0.0245 0.9946
vn 0.9987 0.0012 -0.0506
vn 0.9987 -0.0012 0.0506
vn -0.9994 0.0008 -0.0337
vn -0.9987 0.0012 -0.0505
vn -0.1011 -0.0245 0.9946
vn -0.9987 0.0012 -0.0506
vn -0.1742 -0.0100 -0.9847
vn 0.1251 0.9707 0.2052
vn -0.3321 0.5490 -0.7670
vn -0.0950 0.8022 -0.5895
vn -0.5207 0.3336 -0.7858
vn -0.5458 0.2469 -0.8007
vn -0.3928 0.2281 -0.8909
vn -0.2263 0.6244 -0.7476
vn -0.2286 -0.8993 -0.3728
vn 0.8455 0.0033 -0.5339
vn -0.7907 -0.5462 0.2764
vn -0.0165 0.8421 -0.5391
vn -0.0433 -0.0111 -0.9990
vn -0.0476 0.9691 -0.2420
vn -0.2606 -0.8535 -0.4512
vn -0.1868 -0.8040 -0.5645
vn -0.3574 -0.4515 -0.8176
vn -0.0641 0.5285 -0.8465
vn -0.8236 -0.1920 -0.5337
vn -0.1654 0.5148 -0.8412
vn -0.2599 -0.5420 -0.7992
vn 0.0476 0.2298 -0.9721
vn -0.0049 -0.9997 -0.0240
vn -0.1174 -0.8245 -0.5535
vn -0.0226 -0.7978 -0.6026
vn 0.1736 -0.0092 -0.9848
vn -0.1251 0.9707 0.2052
vn 0.3321 0.5490 -0.7670
vn 0.0950 0.8022 -0.5895
vn 0.5266 0.2979 -0.7962
vn 0.5458 0.2469 -0.8007
vn 0.3099 0.6134 -0.7265
vn 0.7271 0.5432 -0.4199
vn 0.2286 -0.8993 -0.3728
vn -0.9956 -0.0917 -0.0217
vn 0.4968 -0.7316 0.4670
vn 0.0159 0.8363 -0.5481
vn 0.0431 -0.0109 -0.9990
vn 0.0476 0.9691 -0.2420
vn 0.2958 -0.8025 -0.5181
vn 0.2668 -0.0558 -0.9621
vn 0.4206 -0.2802 -0.8629
vn 0.0641 0.5285 -0.8465
vn 0.6744 -0.1322 -0.7264
vn 0.1654 0.5148 -0.8412
vn 0.2599 -0.5420 -0.7992
vn 0.0363 0.5521 -0.8330
vn 0.0049 -0.9997 -0.0240
vn 0.1174 -0.8245 -0.5535
vn 0.0226 -0.7978 -0.6026
vn 0.0434 0.8703 -0.4906
vn -0.7261 0.6540 0.2120
vn 0.7261 0.6540 0.2120
usemtl マテリアル.005
s 1
f 1/1/1 2/2/2 3/3/3
f 4/4/4 5/5/5 6/6/6
f 7/7/7 8/8/7 9/9/7
f 6/6/8 5/5/8 10/10/8
f 10/10/9 11/11/9 12/12/9
f 13/13/10 14/14/10 15/15/10
f 16/16/11 17/17/11 18/18/11
f 7/7/12 19/19/12 18/18/12
f 7/7/13 6/6/13 20/20/13
f 8/8/14 20/20/14 17/17/14
f 16/16/15 19/19/15 21/21/15
f 16/16/16 22/22/16 9/9/16
f 7/7/17 23/23/17 21/21/17
f 13/13/18 24/24/18 25/25/18
f 26/26/19 4/4/20 1/1/19
f 1/1/21 6/6/21 27/27/21
f 28/28/22 29/29/22 30/30/22
f 31/31/23 32/32/23 29/29/23
f 6/6/24 18/18/24 30/30/24
f 33/33/25 30/30/25 29/34/25
f 33/33/26 34/35/26 27/27/26
f 35/36/27 32/37/27 3/3/27
f 34/35/28 36/38/28 2/2/28
f 35/36/29 37/39/29 29/34/29
f 38/40/30 3/3/30 2/2/30
f 11/11/31 39/41/31 40/42/31
f 41/43/32 42/44/33 43/45/33
f 5/5/34 39/41/34 11/11/34
f 5/5/35 4/4/35 41/43/35
f 4/4/36 26/26/36 42/44/36
f 14/14/37 44/46/38 12/12/38
f 15/15/39 45/47/40 46/48/41
f 39/41/42 41/43/42 47/49/42
f 12/12/43 48/50/43 45/47/40
f 24/24/44 46/48/41 49/51/45
f 45/47/46 48/50/46 50/52/46
f 51/53/47 52/54/48 3/3/48
f 53/55/49 51/53/50 54/56/51
f 55/57/52 56/58/52 57/59/52
f 58/60/53 59/61/53 54/56/53
f 58/60/54 60/62/54 61/63/54
f 62/64/55 63/65/55 64/66/55
f 65/67/56 66/68/56 67/69/56
f 67/69/57 66/68/57 57/59/57
f 57/59/58 56/58/58 68/70/58
f 56/58/59 65/67/59 69/71/59
f 70/72/60 66/68/60 65/67/60
f 65/67/61 56/58/61 55/57/61
f 57/59/62 66/68/62 70/72/62
f 64/66/63 71/73/64 25/25/65
f 26/26/66 52/54/67 51/53/66
f 72/74/68 54/56/68 51/53/68
f 73/75/69 67/69/69 74/76/69
f 31/31/70 73/75/70 75/77/70
f 74/76/71 67/69/71 54/56/71
f 76/78/72 77/79/72 75/80/72
f 72/74/73 78/81/73 76/78/73
f 79/82/74 80/83/74 3/3/74
f 81/84/75 82/85/75 78/81/75
f 75/80/76 77/79/76 79/82/76
f 80/83/77 82/85/77 81/84/77
f 83/86/78 84/87/78 85/88/78
f 85/88/79 61/63/79 86/89/79
f 43/45/33 42/44/33 87/90/80
f 59/61/81 58/60/81 85/88/81
f 87/90/82 53/55/82 59/61/82
f 42/44/83 26/26/83 53/55/83
f 61/63/84 60/62/84 63/65/84
f 88/91/85 83/86/85 89/92/85
f 62/64/86 90/93/87 91/94/88
f 92/95/89 87/90/89 84/87/90
f 61/63/91 62/64/91 93/96/91
f 90/93/87 25/25/45 49/51/45
f 94/97/92 86/89/92 93/96/92
f 89/92/93 86/89/93 94/97/93
f 95/98/94 96/99/94 97/100/94
f 95/98/94 98/101/94 99/102/94
f 100/103/94 99/102/94 101/104/94
f 99/102/95 102/105/95 103/106/95
f 98/101/94 104/107/94 105/108/94
f 102/105/96 99/102/96 105/108/96
f 106/109/97 107/110/97 108/111/97
f 109/112/97 110/113/97 103/106/97
f 106/109/97 109/112/97 102/105/97
f 111/114/98 108/111/98 97/100/98
f 112/115/94 113/116/94 114/117/94
f 115/118/96 116/119/96 114/117/96
f 108/111/99 117/120/99 118/121/99
f 107/110/97 102/105/97 119/122/100
f 120/123/101 117/120/101 121/124/101
f 120/123/101 122/125/101 118/121/101
f 122/125/101 112/115/101 104/107/101
f 116/119/95 105/108/95 104/107/95
f 115/118/95 123/126/95 121/124/95
f 116/119/95 115/118/95 119/122/95
f 122/125/102 120/123/102 124/127/102
f 123/126/97 115/118/97 125/128/97
f 112/115/94 122/125/94 126/129/94
f 123/126/97 127/130/97 124/127/97
f 128/131/94 129/132/94 130/133/94
f 130/133/94 131/134/94 132/135/94
f 131/134/94 133/136/94 101/104/94
f 103/106/95 134/137/95 132/135/95
f 135/138/94 132/135/94 136/139/94
f 136/139/103 132/135/103 134/137/103
f 137/140/97 138/141/97 139/142/97
f 103/106/97 110/113/97 140/143/97
f 134/137/97 140/143/97 137/140/97
f 139/142/104 138/141/104 129/132/104
f 141/144/94 142/145/94 143/146/94
f 143/146/103 142/145/103 144/147/103
f 145/148/105 139/142/105 128/131/105
f 146/149/100 134/137/97 147/150/97
f 148/151/94 128/131/94 135/138/94
f 147/150/97 139/142/97 145/148/97
f 149/152/106 150/153/106 151/154/106
f 148/151/106 152/155/106 149/152/106
f 153/156/106 141/144/106 152/155/106
f 142/145/95 141/144/95 153/156/95
f 151/154/95 150/153/95 144/147/95
f 146/149/95 144/147/95 142/145/95
f 154/157/107 149/152/107 152/155/107
f 155/158/97 144/147/97 150/153/97
f 156/159/94 152/155/94 141/144/94
f 150/153/97 149/152/97 154/157/97
f 1/1/1 3/3/3 52/54/3
f 4/4/4 6/6/6 1/1/108
f 7/7/109 9/9/109 23/23/109
f 6/6/110 10/10/110 20/20/110
f 10/10/9 12/12/9 44/46/9
f 13/13/111 15/15/111 24/24/111
f 16/16/112 18/18/112 19/19/112
f 7/7/113 18/18/113 6/6/113
f 7/7/114 20/20/114 8/8/114
f 8/8/115 17/17/115 16/16/115
f 16/16/116 21/21/116 22/22/116
f 16/16/117 9/9/117 8/8/117
f 7/7/118 21/21/118 19/19/118
f 13/13/119 25/25/119 71/73/119
f 26/26/19 1/1/19 52/54/120
f 1/1/121 27/27/121 2/2/121
f 28/28/122 30/30/122 18/18/122
f 31/31/123 29/29/123 28/28/123
f 6/6/24 30/30/24 27/27/24
f 33/33/124 29/34/124 37/39/124
f 33/33/125 27/27/125 30/30/125
f 35/36/126 3/3/126 38/40/126
f 34/35/127 2/2/127 27/27/127
f 35/36/128 29/34/128 32/37/128
f 38/40/129 2/2/129 36/38/129
f 11/11/31 40/42/31 157/160/31
f 41/43/130 43/45/130 47/49/130
f 5/5/34 11/11/34 10/10/34
f 5/5/131 41/43/131 39/41/131
f 4/4/132 42/44/132 41/43/132
f 14/14/37 12/12/38 15/15/37
f 15/15/39 46/48/41 24/24/44
f 39/41/33 47/49/33 40/42/33
f 12/12/43 45/47/40 15/15/39
f 24/24/44 49/51/45 25/25/45
f 45/47/46 50/52/46 158/161/46
f 51/53/47 3/3/48 81/84/47
f 53/55/49 54/56/51 59/61/133
f 55/57/134 57/59/134 159/162/134
f 58/60/135 54/56/135 68/70/135
f 58/60/54 61/63/54 85/88/54
f 62/64/136 64/66/136 90/93/136
f 65/67/137 67/69/137 69/71/137
f 67/69/138 57/59/138 54/56/138
f 57/59/139 68/70/139 54/56/139
f 56/58/140 69/71/140 68/70/140
f 70/72/141 65/67/141 160/163/141
f 65/67/142 55/57/142 160/163/142
f 57/59/143 70/72/143 159/162/143
f 64/66/63 25/25/65 90/93/144
f 26/26/66 51/53/66 53/55/145
f 72/74/146 51/53/146 81/84/146
f 73/75/147 74/76/147 75/77/147
f 31/31/148 75/77/148 32/32/148
f 74/76/71 54/56/71 72/74/71
f 76/78/149 75/80/149 74/76/149
f 72/74/150 76/78/150 74/76/150
f 79/82/151 3/3/151 32/37/151
f 81/84/152 78/81/152 72/74/152
f 75/80/153 79/82/153 32/37/153
f 80/83/154 81/84/154 3/3/154
f 83/86/78 85/88/78 89/92/78
f 85/88/79 86/89/79 89/92/79
f 43/45/155 87/90/89 92/95/89
f 59/61/81 85/88/81 84/87/81
f 87/90/156 59/61/156 84/87/156
f 42/44/157 53/55/157 87/90/157
f 61/63/158 63/65/158 62/64/158
f 88/91/85 89/92/85 161/164/85
f 62/64/86 91/94/88 93/96/86
f 92/95/33 84/87/33 83/86/33
f 61/63/91 93/96/91 86/89/91
f 90/93/87 49/51/45 91/94/88
f 94/97/92 93/96/92 162/165/92
f 89/92/93 94/97/93 161/164/93
f 95/98/94 97/100/94 98/101/94
f 95/98/94 99/102/94 100/103/94
f 100/103/94 101/104/94 133/136/94
f 99/102/95 103/106/95 101/104/95
f 98/101/94 105/108/94 99/102/94
f 102/105/96 105/108/96 119/122/96
f 106/109/97 108/111/97 111/114/97
f 109/112/97 103/106/97 102/105/97
f 106/109/97 102/105/97 107/110/97
f 111/114/98 97/100/98 96/99/98
f 112/115/94 114/117/94 116/119/94
f 115/118/96 114/117/96 125/128/96
f 108/111/99 118/121/99 97/100/99
f 107/110/97 119/122/100 121/124/100
f 120/123/101 121/124/101 123/126/101
f 120/123/101 118/121/101 117/120/101
f 122/125/101 104/107/101 118/121/101
f 116/119/95 104/107/95 112/115/95
f 115/118/95 121/124/95 119/122/95
f 116/119/95 119/122/95 105/108/95
f 122/125/102 124/127/102 126/129/102
f 123/126/97 125/128/97 127/130/97
f 112/115/94 126/129/94 113/116/94
f 123/126/97 124/127/97 120/123/97
f 128/131/94 130/133/94 135/138/94
f 130/133/94 132/135/94 135/138/94
f 131/134/94 101/104/94 132/135/94
f 103/106/95 132/135/95 101/104/95
f 135/138/94 136/139/94 153/156/94
f 136/139/103 134/137/103 146/149/103
f 137/140/97 139/142/97 147/150/97
f 103/106/97 140/143/97 134/137/97
f 134/137/97 137/140/97 147/150/97
f 139/142/104 129/132/104 128/131/104
f 141/144/94 143/146/94 163/166/94
f 143/146/103 144/147/103 155/158/103
f 145/148/105 128/131/105 148/151/105
f 146/149/100 147/150/97 151/154/100
f 148/151/94 135/138/94 153/156/94
f 147/150/97 145/148/97 151/154/100
f 149/152/106 151/154/106 145/148/106
f 148/151/106 149/152/106 145/148/106
f 153/156/106 152/155/106 148/151/106
f 142/145/95 153/156/95 136/139/95
f 151/154/95 144/147/95 146/149/95
f 146/149/95 142/145/95 136/139/95
f 154/157/107 152/155/107 156/159/107
f 155/158/97 150/153/97 164/167/97
f 156/159/94 141/144/94 163/166/94
f 150/153/97 154/157/97 164/167/97
f 45/47/159 158/161/159 165/168/159
f 93/96/160 83/86/160 88/91/160
f 45/47/159 165/168/159 40/42/159
f 93/96/160 88/91/160 162/165/160
