# Blender v2.90.1 OBJ File: ''
# www.blender.org
mtllib leftTire.mtl
o leftTire_Cube.005
v 0.187868 0.217433 0.006966
v 0.212246 0.258621 0.006966
v 0.212246 0.237840 0.111440
v 0.212246 0.237840 -0.097507
v 0.187868 0.149536 -0.156951
v 0.212246 0.178660 -0.186075
v 0.187868 -0.103092 -0.207202
v 0.212246 -0.118854 -0.245254
v 0.212246 -0.014381 -0.266035
v 0.187868 0.074331 -0.207201
v 0.212246 0.090092 -0.245254
v 0.187868 -0.014381 -0.224847
v 0.187868 0.199787 0.095678
v 0.212246 0.178660 0.200008
v 0.187868 0.149536 0.170884
v 0.212246 0.090092 0.259187
v 0.212246 -0.014381 0.279968
v 0.187868 -0.014381 0.238780
v 0.212246 -0.118854 0.259187
v 0.187868 -0.103092 0.221135
v 0.212246 -0.207422 0.200008
v 0.187868 0.199787 -0.081745
v 0.187868 0.074331 0.221134
v 0.187868 -0.178298 0.170884
v -0.096101 -0.261960 0.254546
v -0.096101 -0.337858 0.140955
v 0.197431 -0.337858 0.140955
v -0.096101 0.309097 -0.127022
v -0.096101 0.335749 0.006966
v 0.197431 0.335749 0.006966
v -0.096101 -0.364510 0.006966
v 0.197431 -0.364510 0.006966
v -0.096101 0.309097 0.140955
v 0.197431 0.309097 0.140955
v -0.096101 -0.337858 -0.127022
v 0.197431 -0.337858 -0.127022
v -0.096101 0.233198 0.254545
v 0.197431 0.233198 0.254545
v -0.096101 -0.261960 -0.240613
v 0.197431 -0.261960 -0.240613
v -0.096101 0.119608 0.330444
v 0.197431 0.119608 0.330444
v -0.096101 -0.148369 -0.316511
v 0.197431 -0.148369 -0.316511
v -0.096101 -0.014381 0.357096
v 0.197431 -0.014381 0.357096
v -0.096101 -0.014381 -0.343163
v -0.096101 0.119608 -0.316511
v 0.197431 0.119608 -0.316511
v 0.197431 -0.014381 -0.343163
v -0.096101 -0.148369 0.330444
v 0.197431 -0.148369 0.330444
v -0.096101 0.233198 -0.240612
v 0.197431 0.233198 -0.240612
v 0.197431 -0.261960 0.254546
v 0.197431 0.309097 -0.127022
v -0.110916 -0.118854 0.259187
v -0.110916 -0.207422 0.200008
v -0.110916 -0.287382 0.006966
v 0.212246 -0.118854 0.259187
v 0.212246 -0.207422 0.200008
v -0.110916 -0.207422 -0.186075
v -0.110916 -0.014381 -0.266035
v 0.212246 -0.287382 0.006966
v -0.110916 -0.118854 -0.245254
v -0.110916 0.178660 -0.186075
v -0.110916 0.237840 -0.097507
v 0.212246 -0.207422 -0.186075
v -0.110916 0.258621 0.006966
v -0.110916 0.237840 0.111440
v -0.110916 0.178660 0.200008
v -0.110916 -0.014381 0.279968
v 0.209443 -0.162182 0.383096
v 0.209443 0.022235 0.386261
v 0.209443 0.022235 -0.009366
v 0.209443 -0.162182 -0.009366
v 0.209443 0.022528 -0.404521
v 0.209443 0.396514 -0.009366
v 0.209443 0.291733 -0.292444
v 0.209443 0.298399 0.278650
v 0.197431 0.233198 0.254545
v 0.197431 0.119608 0.330444
v 0.197431 -0.014381 0.357096
v 0.197431 -0.148369 0.330444
v 0.197431 -0.014381 -0.343163
v 0.197431 0.119608 -0.316511
v 0.197431 0.233198 -0.240612
v 0.197431 -0.148369 -0.316511
v 0.197431 0.309097 -0.127022
v 0.197431 0.335749 0.006966
v 0.197431 0.309097 0.140955
v -0.110916 -0.266601 0.111440
v -0.110916 -0.266601 -0.097507
v 0.212246 -0.266601 0.111440
v -0.110916 0.090092 -0.245254
v 0.212246 -0.266601 -0.097507
v 0.212246 -0.118854 -0.245254
v -0.110916 0.090092 0.259187
v 0.209443 -0.162182 -0.411324
vt 0.000000 0.000000
vt 0.000000 0.000000
vt 0.000000 0.000000
vt 0.000000 0.000000
vt 0.000000 0.000000
vt 0.000000 0.000000
vt 0.000000 0.000000
vt 0.000000 0.000000
vt 0.000000 0.000000
vt 0.000000 0.000000
vt 0.000000 0.000000
vt 0.000000 0.000000
vt 0.000000 0.000000
vt 0.000000 0.000000
vt 0.000000 0.000000
vt 0.000000 0.000000
vt 0.000000 0.000000
vt 0.000000 0.000000
vt 0.000000 0.000000
vt 0.000000 0.000000
vt 0.000000 0.000000
vt 0.000000 0.000000
vt 0.000000 0.000000
vt 0.000000 0.000000
vt 0.000000 0.000000
vt 0.000000 0.000000
vt 0.000000 0.000000
vt 0.000000 0.000000
vt 0.000000 0.000000
vt 0.000000 0.000000
vt 0.000000 0.000000
vt 0.000000 0.000000
vt 0.000000 0.000000
vt 0.000000 0.000000
vt 0.000000 0.000000
vt 0.000000 0.000000
vt 0.000000 0.000000
vt 0.000000 0.000000
vt 0.000000 0.000000
vt 0.000000 0.000000
vt 0.000000 0.000000
vt 0.000000 0.000000
vt 0.000000 0.000000
vt 0.000000 0.000000
vt 0.000000 0.000000
vt 0.000000 0.000000
vt 0.000000 0.000000
vt 0.000000 0.000000
vt 0.000000 0.000000
vt 0.000000 0.000000
vt 0.000000 0.000000
vt 0.000000 0.000000
vt 0.000000 0.000000
vt 0.000000 0.000000
vt 0.000000 0.000000
vt 0.000000 0.000000
vt 0.000000 0.000000
vt 0.000000 0.000000
vt 0.000000 0.000000
vt 0.000000 0.000000
vt 0.000000 0.000000
vt 0.000000 0.000000
vt 0.000000 0.000000
vt 0.000000 0.000000
vt 0.000000 0.000000
vt 0.000000 0.000000
vt 0.000000 0.000000
vt 0.000000 0.000000
vt 0.000000 0.000000
vt 0.000000 0.000000
vt 0.000000 0.000000
vt 0.000000 0.000000
vt 0.375000 0.500000
vt 0.432463 0.500000
vt 0.432463 0.500000
vt 0.375000 0.500000
vt 0.432463 0.500000
vt 0.553030 0.500000
vt 0.553030 0.500000
vt 0.553030 0.500000
vt 0.000000 0.000000
vt 0.000000 0.000000
vt 0.000000 0.000000
vt 0.000000 0.000000
vt 0.000000 0.000000
vt 0.000000 0.000000
vt 0.000000 0.000000
vt 0.000000 0.000000
vt 0.000000 0.000000
vt 0.000000 0.000000
vt 0.000000 0.000000
vt 0.000000 0.000000
vt 0.000000 0.000000
vt 0.000000 0.000000
vt 0.000000 0.000000
vt 0.000000 0.000000
vt 0.000000 0.000000
vt 0.000000 0.000000
vt 0.375000 0.500000
vn 0.8562 -0.5067 -0.1008
vn 0.8562 -0.5067 0.1008
vn 0.8562 -0.4296 0.2871
vn 0.8562 0.1008 0.5068
vn 0.8562 -0.2871 0.4296
vn 0.8562 -0.1008 0.5067
vn 0.8562 -0.4296 -0.2871
vn 0.8562 -0.2871 -0.4296
vn 0.8562 -0.1008 -0.5067
vn 0.8562 0.1008 -0.5067
vn 0.8562 0.2871 -0.4296
vn 0.8562 -0.4296 0.2870
vn 0.8562 0.1008 0.5067
vn 0.8562 0.1008 -0.5068
vn 0.0000 -0.8315 0.5556
vn 0.0000 0.9808 -0.1951
vn 0.0000 -0.9808 0.1951
vn 0.0000 0.9808 0.1951
vn 0.0000 -0.9808 -0.1951
vn 0.0000 0.8315 0.5556
vn 0.0000 -0.8315 -0.5556
vn 0.0000 0.5556 0.8315
vn 0.0000 -0.5556 -0.8315
vn 0.0000 0.1951 0.9808
vn 0.0000 0.1951 -0.9808
vn 0.0000 -0.1951 -0.9808
vn 0.0000 -0.1951 0.9808
vn 0.0000 0.5556 -0.8315
vn 0.0000 -0.5556 0.8315
vn 0.0000 0.8315 -0.5556
vn -0.9814 -0.1068 0.1598
vn -0.9814 -0.1598 0.1068
vn -0.9814 -0.1885 0.0375
vn 0.9814 -0.1068 0.1598
vn -0.9814 -0.1885 -0.0375
vn 0.9814 -0.1598 0.1068
vn -0.9814 -0.1598 -0.1068
vn -0.9814 0.0375 -0.1885
vn 0.9814 -0.1885 0.0375
vn -0.9814 -0.1068 -0.1598
vn -0.9814 0.1068 -0.1598
vn 0.9814 -0.1885 -0.0375
vn -0.9814 -0.0375 -0.1885
vn -0.9814 0.1598 -0.1068
vn 0.9814 -0.1598 -0.1068
vn -0.9814 0.1885 -0.0375
vn 0.9814 -0.1068 -0.1598
vn -0.9814 0.1885 0.0375
vn -0.9814 0.1598 0.1068
vn -0.9814 0.1068 0.1598
vn -0.9814 0.0375 0.1885
vn -0.9814 -0.0375 0.1885
vn -1.0000 -0.0000 0.0000
vn 0.9814 0.1068 0.1598
vn 0.9814 0.0375 0.1885
vn 0.9814 -0.0375 0.1885
vn 0.9814 0.0375 -0.1885
vn 0.9814 0.1068 -0.1598
vn 0.9814 -0.0375 -0.1885
vn 0.9814 0.1598 -0.1068
vn 0.9814 0.1885 -0.0375
vn 0.9814 0.1885 0.0375
vn 0.9814 0.1598 0.1068
usemtl マテリアル.008
s 1
f 1/1/1 2/2/1 3/3/1
f 4/4/2 2/2/2 1/1/2
f 5/5/3 6/6/3 4/4/3
f 7/7/4 8/8/4 9/9/4
f 10/10/5 11/11/5 6/6/5
f 12/12/6 9/9/6 11/11/6
f 13/13/7 3/3/7 14/14/7
f 15/15/8 14/14/8 16/16/8
f 16/16/9 17/17/9 18/18/9
f 18/18/10 17/17/10 19/19/10
f 20/20/11 19/19/11 21/21/11
f 1/1/1 3/3/1 13/13/1
f 4/4/2 1/1/2 22/22/2
f 5/5/12 4/4/12 22/22/12
f 7/7/4 9/9/4 12/12/13
f 10/10/5 6/6/5 5/5/5
f 12/12/6 11/11/6 10/10/6
f 13/13/7 14/14/7 15/15/7
f 15/15/8 16/16/8 23/23/8
f 16/16/9 18/18/9 23/23/9
f 18/18/14 19/19/14 20/20/14
f 20/20/11 21/21/11 24/24/11
f 25/25/15 26/26/15 27/27/15
f 28/28/16 29/29/16 30/30/16
f 26/26/17 31/31/17 32/32/17
f 29/29/18 33/33/18 34/34/18
f 31/31/19 35/35/19 36/36/19
f 33/33/20 37/37/20 38/38/20
f 35/35/21 39/39/21 40/40/21
f 37/37/22 41/41/22 42/42/22
f 39/39/23 43/43/23 44/44/23
f 41/41/24 45/45/24 46/46/24
f 47/47/25 48/48/25 49/49/25
f 43/43/26 47/47/26 50/50/26
f 45/45/27 51/51/27 52/52/27
f 48/48/28 53/53/28 54/54/28
f 51/51/29 25/25/29 55/55/29
f 53/53/30 28/28/30 56/56/30
f 25/25/31 51/51/31 57/57/31
f 26/26/32 25/25/32 58/58/32
f 59/59/33 31/31/33 26/26/33
f 60/60/34 52/52/34 55/55/34
f 35/35/35 31/31/35 59/59/35
f 61/61/36 55/55/36 27/27/36
f 62/62/37 39/39/37 35/35/37
f 48/48/38 47/47/38 63/63/38
f 27/27/39 32/32/39 64/64/39
f 65/65/40 43/43/40 39/39/40
f 66/66/41 53/53/41 48/48/41
f 64/64/42 32/32/42 36/36/42
f 63/63/43 47/47/43 43/43/43
f 67/67/44 28/28/44 53/53/44
f 36/36/45 40/40/45 68/68/45
f 69/69/46 29/29/46 28/28/46
f 68/68/47 40/40/47 44/44/47
f 33/33/48 29/29/48 69/69/48
f 37/37/49 33/33/49 70/70/49
f 41/41/50 37/37/50 71/71/50
f 72/72/51 45/45/51 41/41/51
f 57/57/52 51/51/52 45/45/52
f 73/73/53 74/74/53 75/75/53
f 76/76/53 75/75/53 77/77/53
f 75/75/53 78/78/53 79/79/53
f 80/80/53 78/78/53 75/75/53
f 14/14/54 81/81/54 82/82/54
f 82/82/55 83/83/55 17/17/55
f 17/17/56 83/83/56 84/84/56
f 9/9/57 85/85/57 86/86/57
f 86/86/58 87/87/58 6/6/58
f 8/8/59 88/88/59 85/85/59
f 87/87/60 89/89/60 4/4/60
f 89/89/61 90/90/61 2/2/61
f 2/2/62 90/90/62 91/91/62
f 3/3/63 91/91/63 81/81/63
f 25/25/15 27/27/15 55/55/15
f 28/28/16 30/30/16 56/56/16
f 26/26/17 32/32/17 27/27/17
f 29/29/18 34/34/18 30/30/18
f 31/31/19 36/36/19 32/32/19
f 33/33/20 38/38/20 34/34/20
f 35/35/21 40/40/21 36/36/21
f 37/37/22 42/42/22 38/38/22
f 39/39/23 44/44/23 40/40/23
f 41/41/24 46/46/24 42/42/24
f 47/47/25 49/49/25 50/50/25
f 43/43/26 50/50/26 44/44/26
f 45/45/27 52/52/27 46/46/27
f 48/48/28 54/54/28 49/49/28
f 51/51/29 55/55/29 52/52/29
f 53/53/30 56/56/30 54/54/30
f 25/25/31 57/57/31 58/58/31
f 26/26/32 58/58/32 92/92/32
f 59/59/33 26/26/33 92/92/33
f 60/60/34 55/55/34 61/61/34
f 35/35/35 59/59/35 93/93/35
f 61/61/36 27/27/36 94/94/36
f 62/62/37 35/35/37 93/93/37
f 48/48/38 63/63/38 95/95/38
f 27/27/39 64/64/39 94/94/39
f 65/65/40 39/39/40 62/62/40
f 66/66/41 48/48/41 95/95/41
f 64/64/42 36/36/42 96/96/42
f 63/63/43 43/43/43 65/65/43
f 67/67/44 53/53/44 66/66/44
f 36/36/45 68/68/45 96/96/45
f 69/69/46 28/28/46 67/67/46
f 68/68/47 44/44/47 97/97/47
f 33/33/48 69/69/48 70/70/48
f 37/37/49 70/70/49 71/71/49
f 41/41/50 71/71/50 98/98/50
f 72/72/51 41/41/51 98/98/51
f 57/57/52 45/45/52 72/72/52
f 73/73/53 75/75/53 76/76/53
f 76/76/53 77/77/53 99/99/53
f 75/75/53 79/79/53 77/77/53
f 80/80/53 75/75/53 74/74/53
f 14/14/54 82/82/54 16/16/54
f 82/82/55 17/17/55 16/16/55
f 17/17/56 84/84/56 19/19/56
f 9/9/57 86/86/57 11/11/57
f 86/86/58 6/6/58 11/11/58
f 8/8/59 85/85/59 9/9/59
f 87/87/60 4/4/60 6/6/60
f 89/89/61 2/2/61 4/4/61
f 2/2/62 91/91/62 3/3/62
f 3/3/63 81/81/63 14/14/63
