# Blender v2.90.1 OBJ File: 'MugenStage.blend'
# www.blender.org
mtllib MugenStageGrass2.mtl
o grass2_å¹³é¢.031
v -15.349873 -0.756220 11.056625
v -12.297400 -0.225296 15.257444
v -5.930314 -0.037391 6.342927
v -19.086859 -1.146448 12.576117
v -18.122337 -0.299592 17.552891
v -21.130705 -1.369299 12.786923
v -23.043449 -0.523138 17.132431
v -26.826288 -0.877568 14.044287
v -22.370367 -1.693263 11.413570
v -28.252609 -1.596284 8.716013
v -23.476112 -2.161865 9.012840
v -23.924953 -2.986845 -1.009121
v -19.395718 -4.111759 -3.066170
vt 0.000000 0.000000
vt 1.000000 0.000000
vt 0.000000 1.000000
vt 1.000000 0.000000
vt 0.000000 1.000000
vt 0.000000 0.000000
vt 1.000000 0.000000
vt 0.000000 1.000000
vt 0.000000 0.000000
vt 0.000000 1.000000
vt 0.000000 0.000000
vt 1.000000 0.000000
vt 0.000000 1.000000
vt 0.000000 0.000000
vt 0.000000 0.000000
vt 1.000000 0.000000
vt 1.000000 1.000000
vt 1.000000 0.000000
vt 1.000000 1.000000
vt 0.000000 1.000000
vt 1.000000 1.000000
vt 1.000000 1.000000
vt 1.000000 1.000000
vt 1.000000 1.000000
vn -0.1017 0.9935 -0.0517
vn -0.1574 0.9781 -0.1359
vn -0.1300 0.9609 -0.2443
vn 0.0655 0.9791 -0.1926
vn 0.1261 0.9781 -0.1657
vn 0.1225 0.9887 -0.0869
vn 0.2017 0.9754 -0.0893
vn -0.0484 0.9947 -0.0906
vn -0.0310 0.9863 -0.1618
vn -0.0300 0.9786 -0.2038
vn 0.0520 0.9754 -0.2143
usemtl None
s off
f 1/1/1 2/2/1 3/3/1
f 5/4/2 1/5/2 4/6/2
f 7/7/3 4/8/3 6/9/3
f 7/7/4 9/10/4 8/11/4
f 8/12/5 11/13/5 10/14/5
f 12/15/6 10/16/6 11/17/6
f 11/18/7 13/19/7 12/20/7
f 5/4/8 2/21/8 1/5/8
f 7/7/9 5/22/9 4/8/9
f 7/7/10 6/23/10 9/10/10
f 8/12/11 9/24/11 11/13/11
