# Blender v2.90.1 OBJ File: ''
# www.blender.org
mtllib MugenStageGrass.mtl
o MugenStageSidewalk.003_stage_平面.001_MugenStageSidewalk.003_stage_平面.003
v 43.637093 -2.862469 -37.682484
v 47.694798 -1.232102 -44.248249
v 45.322189 -2.239298 -40.425076
v 42.062214 -1.262272 -44.473370
v 17.959721 -0.122675 -38.386108
v 28.546383 -0.037367 -50.468868
v 23.497208 -0.093061 -54.561817
v 30.902142 -0.037367 -51.995373
v 34.393032 -0.037364 -52.200829
v 28.971954 -0.091007 -58.928352
v 38.328964 -0.272760 -51.102982
v 36.352257 -0.092377 -59.225681
v 41.327496 -0.750279 -48.274254
v 43.506969 -0.287043 -56.600666
v 47.800873 -0.977669 -47.098129
v 47.953476 -0.611632 -51.198029
v -15.349873 -0.756226 11.056625
v -12.306759 -0.271271 15.253824
v -5.923912 -0.081611 6.337438
v -18.133259 -0.343692 17.537096
v -19.086859 -1.146454 12.576117
v -23.037540 -0.565814 17.115021
v -21.130705 -1.369305 12.786923
v -22.370367 -1.693269 11.413570
v -26.815411 -0.928756 14.040318
v -23.476112 -2.161868 9.012840
v -28.254547 -1.648211 8.718822
v -23.906403 -3.035387 -1.024922
v -19.395718 -4.161476 -3.066173
v 42.911678 -2.143862 -40.819424
vt 0.985384 2.052094
vt 1.815176 2.645406
vt 0.991625 3.030607
vt 2.401172 -2.034004
vt -0.167921 -0.327874
vt -0.978549 -1.227113
vt -0.499977 0.071533
vt -0.567090 0.675456
vt -1.919445 -0.303463
vt -0.366136 1.364535
vt -2.034004 0.973210
vt 0.201053 1.901646
vt -1.538768 2.232057
vt 0.399853 3.032000
vt -0.451483 3.034004
vt 1.746633 2.223735
vt 2.401173 2.371317
vt 0.523818 -0.704530
vt 0.095807 -2.004614
vt 3.004613 -1.979536
vt -1.318506 -1.129099
vt -0.382089 -0.142519
vt -2.004615 -0.023241
vt -0.744925 0.260388
vt -0.638451 0.739627
vt -1.936102 1.255770
vt -0.286670 1.351735
vt -1.002483 2.390805
vt 1.807347 3.004614
vt 3.004615 2.391660
vn -0.0171 0.9713 0.2373
vn -0.0050 0.9697 0.2442
vn -0.0222 0.9702 0.2411
vn -0.0035 1.0000 0.0014
vn -0.0021 1.0000 -0.0002
vn -0.0023 1.0000 0.0001
vn -0.0006 1.0000 -0.0011
vn -0.0001 1.0000 -0.0011
vn -0.0010 1.0000 -0.0008
vn 0.0558 0.9983 0.0141
vn 0.0812 0.9934 0.0816
vn 0.0117 0.9960 0.0891
vn 0.0205 0.9951 0.0964
vn 0.0117 0.9960 0.0890
vn 0.0003 1.0000 -0.0014
vn 0.0191 0.9996 0.0231
vn -0.0011 0.9982 0.0603
vn -0.0189 0.9904 0.1369
vn -0.0190 0.9904 0.1369
vn -0.0073 0.9724 0.2332
vn -0.0035 0.9760 0.2176
vn -0.1017 0.9935 -0.0517
vn -0.1574 0.9781 -0.1359
vn -0.1300 0.9609 -0.2443
vn 0.0655 0.9791 -0.1927
vn 0.0655 0.9791 -0.1926
vn 0.1261 0.9781 -0.1657
vn 0.1225 0.9887 -0.0869
vn 0.2017 0.9754 -0.0894
vn -0.0484 0.9947 -0.0906
vn -0.0310 0.9863 -0.1618
vn -0.0300 0.9786 -0.2037
vn 0.0520 0.9754 -0.2143
usemtl マテリアル.007
s 1
f 4/1/1 3/2/2 2/3/3
f 5/4/4 6/5/5 7/6/6
f 8/7/7 7/6/6 6/5/5
f 9/8/8 10/9/9 8/7/7
f 11/10/10 12/11/10 9/8/10
f 13/12/11 14/13/11 11/10/11
f 13/12/12 15/14/13 16/15/14
f 8/7/7 10/9/9 7/6/6
f 9/8/15 12/11/15 10/9/15
f 11/10/16 14/13/16 12/11/16
f 13/12/17 16/15/17 14/13/17
f 13/12/18 4/1/19 2/3/19
f 13/12/12 2/3/12 15/14/13
f 3/2/2 30/16/20 1/17/21
f 4/1/1 30/16/20 3/2/2
usemtl マテリアル.008
f 17/18/22 18/19/22 19/20/22
f 20/21/23 17/18/23 21/22/23
f 22/23/24 21/22/24 23/24/24
f 22/23/25 24/25/26 25/26/25
f 25/26/27 26/27/27 27/28/27
f 28/29/28 27/28/28 26/27/28
f 26/27/29 29/30/29 28/29/29
f 20/21/30 18/19/30 17/18/30
f 22/23/31 20/21/31 21/22/31
f 22/23/32 23/24/32 24/25/32
f 25/26/33 24/25/33 26/27/33
