# Blender v2.90.1 OBJ File: ''
# www.blender.org
mtllib MugenStageTireMaskUV.mtl
o MugenStageUV_stage_平面.017
v 44.628624 -2.687405 -36.784077
v 39.015347 -4.242872 -29.317837
v 46.636948 -2.371135 -34.897678
v 27.540306 -0.034264 -62.737823
v 37.007038 -0.031854 -63.249142
v 44.326885 -0.180534 -57.711967
v 45.909458 -0.088061 -59.821800
v 15.768738 -8.493796 -16.384300
v 0.251490 -8.562630 -14.105901
v 0.390479 -8.562632 -11.232184
v -17.005686 -0.071365 22.247442
v -23.733219 -0.374703 18.731197
v -24.916199 -0.149141 21.485668
v -10.419813 -6.337812 -8.418428
v -26.303743 -2.318090 -4.002558
v -24.716898 -2.734755 -1.801659
v -9.414339 -0.079868 18.668686
v -4.594839 -0.027994 6.775570
v -11.440867 -0.175802 16.281305
v 49.256393 -0.408845 -51.642948
v 51.598454 -0.733441 -43.130726
v 51.634575 -0.139795 -52.451183
v 20.126822 -0.038108 -56.979271
v 15.460333 -8.395185 -19.302788
v -1.470635 -0.033114 7.823422
v 7.142294 -0.036920 -20.868565
v -32.734989 -0.394357 8.314882
v 48.984272 -1.031470 -43.878651
v -17.795580 -0.221513 18.968424
v -10.416715 -6.337810 -11.277388
v 28.515274 -0.036362 -60.138733
v 22.376902 -0.037599 -55.363121
v -29.842892 -1.240449 8.600298
v -30.918577 -0.240212 16.310524
v -28.119144 -0.675516 14.763045
v -26.297571 -2.316094 -4.012086
v 37.248161 -4.242871 -31.609081
v 36.579025 -0.035461 -60.599064
v 10.487327 -0.037375 -20.797079
v 0.621665 -0.031961 -5.510712
v 3.844014 -0.035008 -4.896801
vt 0.000000 0.809427
vt 0.102247 0.885701
vt 0.027835 0.895781
vt 0.207607 0.962353
vt 0.471723 0.975947
vt 0.459068 1.000000
vt 0.698968 0.970164
vt 0.729693 0.991214
vt 0.925671 0.931479
vt 0.857404 0.918791
vt 1.000000 0.845811
vt 0.919937 0.844447
vt 0.964951 0.759314
vt 0.703583 0.538068
vt 0.771349 0.521497
vt 0.507065 0.403181
vt 0.570438 0.385756
vt 0.351069 0.313647
vt 0.411271 0.295367
vt 0.182960 0.160816
vt 0.261537 0.157293
vt 0.312464 0.038928
vt 0.517507 0.000000
vt 0.377030 0.056494
vt 0.747378 0.007082
vt 0.541409 0.028629
vt 0.922632 0.055112
vt 0.713217 0.032598
vt 0.908923 0.130436
vt 0.837673 0.070781
vt 1.000000 0.128735
vt 0.846291 0.236920
vt 0.931266 0.251120
vt 0.692307 0.350273
vt 0.770110 0.367901
vt 0.499827 0.491966
vt 0.568665 0.513878
vt 0.079358 0.814152
vt 0.254855 0.942566
vt 0.881082 0.762129
vt 0.183038 0.160714
vn 0.0001 1.0000 0.0008
vn -0.0002 1.0000 0.0009
vn -0.0082 0.9993 0.0377
vn -0.0870 0.9934 0.0746
vn -0.0910 0.9939 0.0629
vn -0.1434 0.9836 0.1092
vn -0.2024 0.9779 0.0515
vn -0.1529 0.9870 0.0495
vn -0.0044 1.0000 0.0002
vn 0.2016 0.9795 0.0002
vn 0.2473 0.9689 0.0067
vn 0.2688 0.9632 -0.0098
vn 0.2874 0.9541 -0.0837
vn 0.0878 0.9890 -0.1193
vn -0.0019 0.9966 -0.0824
vn -0.0241 0.9989 -0.0399
vn -0.0355 0.9993 -0.0100
vn 0.0015 1.0000 0.0003
vn 0.0009 1.0000 0.0001
vn -0.0002 1.0000 -0.0001
vn -0.0002 1.0000 -0.0000
vn -0.0000 1.0000 0.0014
vn 0.0172 0.9998 0.0041
vn -0.0040 0.9992 0.0408
vn -0.1340 0.9882 0.0745
vn -0.2316 0.9692 0.0840
vn -0.1348 0.9854 0.1040
vn -0.1309 0.9862 0.1010
vn 0.0005 0.9994 0.0337
vn 0.2017 0.9794 -0.0098
vn 0.2456 0.9694 0.0003
vn -0.0145 0.9805 0.1961
vn 0.2807 0.9598 0.0005
vn 0.0898 0.9892 -0.1158
vn 0.0040 0.9968 -0.0799
vn -0.0242 0.9989 -0.0399
vn -0.0127 0.9995 -0.0294
vn 0.0002 1.0000 0.0044
vn 0.0009 1.0000 0.0002
vn 0.0001 1.0000 -0.0001
vn 0.0001 1.0000 0.0000
usemtl マテリアル.024
s off
f 23/1/1 31/2/1 4/3/1
f 31/2/2 5/4/2 4/3/2
f 5/4/3 6/5/3 7/6/3
f 7/6/4 20/7/4 22/8/4
f 20/7/5 21/9/5 22/8/5
f 28/10/6 3/11/6 21/9/6
f 1/12/7 2/13/7 3/11/7
f 2/13/8 24/14/8 8/15/8
f 8/15/9 9/16/9 10/17/9
f 10/17/10 30/18/10 14/19/10
f 36/20/11 16/21/11 14/19/11
f 27/22/12 16/21/12 36/20/12
f 34/23/13 33/24/13 27/22/13
f 13/25/14 35/26/14 34/23/14
f 11/27/15 12/28/15 13/25/15
f 11/27/16 19/29/16 29/30/16
f 17/31/17 18/32/17 19/29/17
f 25/33/18 40/34/18 18/32/18
f 41/35/19 26/36/19 40/34/19
f 23/1/20 39/37/20 32/38/20
f 23/1/21 32/38/21 31/2/21
f 31/2/22 38/39/22 5/4/22
f 5/4/23 38/39/23 6/5/23
f 7/6/24 6/5/24 20/7/24
f 20/7/25 28/10/25 21/9/25
f 28/10/26 1/12/26 3/11/26
f 1/12/27 37/40/27 2/13/27
f 2/13/28 37/40/28 24/14/28
f 8/15/29 24/14/29 9/16/29
f 10/17/30 9/16/30 30/18/30
f 14/19/31 30/18/31 36/20/31
f 36/20/32 15/41/32 16/21/32
f 27/22/33 33/24/33 16/21/33
f 34/23/34 35/26/34 33/24/34
f 13/25/35 12/28/35 35/26/35
f 11/27/36 29/30/36 12/28/36
f 11/27/37 17/31/37 19/29/37
f 17/31/38 25/33/38 18/32/38
f 25/33/39 41/35/39 40/34/39
f 41/35/40 39/37/40 26/36/40
f 23/1/41 26/36/41 39/37/41
