# Blender v2.90.1 OBJ File: ''
# www.blender.org
mtllib MugenStage.mtl
o MugenStageCheckHit_stage_平面.008
v 43.642067 -2.801881 -37.677673
v 39.845749 -4.242867 -28.241179
v 47.639347 -2.213274 -33.956131
v 27.085148 -0.033275 -63.951195
v 37.230152 -0.029962 -64.630577
v 43.506969 -0.187052 -56.600666
v 46.742210 -0.039392 -60.931992
v 15.907711 -8.538230 -15.069180
v 0.184204 -8.562626 -15.497096
v 0.457765 -8.562631 -9.840991
v -16.657084 -0.005105 23.694565
v -23.037540 -0.465811 17.115021
v -25.617786 -0.015372 23.119255
v -10.421251 -6.337813 -7.091171
v -27.003208 -2.194395 -5.120543
v -23.906403 -2.935387 -1.024922
v -8.539089 -0.038437 19.699787
v -5.923912 0.018390 6.337438
v -12.306759 -0.171269 15.253824
v 47.953476 -0.511640 -51.198029
v 52.893269 -0.585818 -42.760277
v 52.944492 0.008408 -52.896362
v 19.006622 -0.038352 -57.783867
v 15.321360 -8.350745 -20.617912
v -0.147964 -0.035283 8.267043
v 5.662411 -0.036917 -20.868565
v -34.321400 -0.034673 8.193549
v 47.694798 -1.132113 -44.248249
v -18.133259 -0.243689 17.537096
v -10.415277 -6.337807 -12.604648
v 28.971954 0.008983 -58.928352
v 23.497208 0.006930 -54.561817
v -28.254547 -1.548210 8.718822
v -32.233189 -0.035797 17.037220
v -26.815411 -0.828754 14.040318
v -26.991516 -2.190612 -5.138598
v 36.417759 -4.242866 -32.685738
v 36.352257 0.007613 -59.225681
v 11.967209 -0.037372 -20.797079
v 51.181046 -1.247317 -39.891060
v 47.667034 -1.772949 -39.643532
v 45.317448 -2.130250 -40.440865
v 49.977615 -0.601636 -47.740555
v 47.800873 -0.877677 -47.098129
v 52.924133 -0.227747 -48.868114
vt 0.833057 0.809442
vt 0.929887 0.729852
vt 0.964029 0.811147
vt 0.270533 0.932435
vt 0.511519 0.921975
vt 0.493067 0.967299
vt 0.750498 0.506825
vt 0.478606 0.415264
vt 0.578655 0.383159
vt 0.853876 0.083003
vt 0.635402 0.084068
vt 0.693333 0.032801
vt 0.441258 0.302250
vt 0.194134 0.192381
vt 0.315659 0.186473
vt 0.923128 0.155413
vt 0.741677 0.250854
vt 0.784517 0.159302
vt 0.677755 0.916295
vt 0.800758 0.932279
vt 0.733054 0.956497
vt 0.646939 0.536469
vt 0.871454 0.273840
vt 0.477612 0.482427
vt 0.790872 0.873133
vt 0.923168 0.868050
vt 0.903414 0.895559
vt 0.724757 0.110853
vt 0.348321 0.335177
vt 0.227770 0.848962
vt 0.079310 0.782517
vt 0.209325 0.790153
vt 0.111225 0.867662
vt 0.406439 0.102466
vt 0.479348 0.029484
vt 0.520347 0.079647
vt 0.294964 0.069745
vt 0.797182 0.735850
vt 0.347160 0.894909
vt 0.744486 0.890832
vt 0.770222 0.907798
vt 0.584949 0.519736
vt 0.815498 0.835952
vt 0.868351 0.845397
vn -0.2101 0.9758 0.0601
vn -0.0124 0.9993 0.0345
vn -0.0016 1.0000 0.0001
vn 0.0040 0.9968 -0.0799
vn 0.2427 0.9701 0.0024
vn -0.0393 0.9992 -0.0068
vn -0.0942 0.9934 0.0661
vn -0.0896 0.9934 0.0714
vn -0.0917 0.9939 0.0609
vn -0.1501 0.9874 0.0492
vn 0.0014 1.0000 0.0002
vn 0.0006 1.0000 0.0001
vn 0.0016 1.0000 0.0003
vn -0.1443 0.9808 0.1310
vn -0.1441 0.9829 0.1145
vn -0.1474 0.9800 0.1335
vn -0.0273 0.9989 -0.0391
vn 0.2004 0.9797 0.0002
vn -0.0001 1.0000 0.0008
vn -0.0020 1.0000 -0.0003
vn -0.0026 1.0000 -0.0006
vn -0.0001 1.0000 0.0012
vn -0.0001 1.0000 0.0009
vn 0.0690 0.9859 -0.1525
vn 0.0690 0.9859 -0.1524
vn 0.2614 0.9651 -0.0129
vn -0.0907 0.9938 0.0641
vn -0.0237 0.9955 -0.0916
vn -0.1244 0.9876 0.0959
vn -0.1250 0.9875 0.0957
vn -0.1250 0.9875 0.0959
vn 0.0249 0.9997 0.0054
vn -0.0025 0.9994 0.0340
vn -0.0420 0.9985 -0.0356
vn 0.2425 0.9702 0.0003
vn 0.0012 1.0000 0.0012
vn -0.1093 0.9904 0.0846
vn -0.1074 0.9901 0.0902
vn -0.1034 0.9909 0.0861
vn -0.1332 0.9858 0.1027
vn 0.0021 1.0000 0.0004
vn -0.1906 0.9737 0.1248
vn -0.1949 0.9728 0.1248
vn -0.2031 0.9732 0.1082
vn -0.0111 0.9995 -0.0308
vn 0.2028 0.9792 -0.0098
vn 0.0000 1.0000 0.0013
vn 0.2544 0.9653 -0.0599
vn 0.2518 0.9675 -0.0244
vn 0.0107 0.9986 0.0518
vn 0.0950 0.9898 -0.1066
vn -0.1419 0.9847 0.1008
vn -0.1423 0.9869 0.0757
vn -0.2137 0.9725 0.0926
vn -0.2212 0.9722 0.0774
vn -0.1060 0.9915 0.0749
vn -0.1128 0.9919 0.0576
vn -0.1256 0.9893 0.0739
vn -0.1325 0.9888 0.0692
usemtl マテリアル.012
s 1
f 1/1/1 2/2/1 3/3/1
f 5/4/2 6/5/2 7/6/2
f 8/7/3 9/8/3 10/9/3
f 11/10/4 12/11/4 13/12/4
f 14/13/5 15/14/5 16/15/5
f 17/16/6 18/17/6 19/18/6
f 20/19/7 45/20/8 22/21/9
f 2/2/10 24/22/10 8/7/10
f 25/23/11 26/24/12 18/17/13
f 28/25/14 40/26/15 21/27/16
f 11/10/17 19/18/17 29/28/17
f 10/9/18 30/29/18 14/13/18
f 31/30/19 23/31/20 32/32/21
f 31/30/19 5/4/22 4/33/23
f 33/34/24 34/35/24 35/36/25
f 27/37/26 16/15/26 15/14/26
f 7/6/27 20/19/7 22/21/9
f 35/36/28 13/12/28 12/11/28
f 1/1/29 37/38/30 2/2/31
f 5/4/32 38/39/32 6/5/32
f 8/7/33 24/22/33 9/8/33
f 11/10/34 29/28/34 12/11/34
f 14/13/35 30/29/35 15/14/35
f 17/16/36 25/23/36 18/17/36
f 20/19/37 44/40/38 43/41/39
f 2/2/31 37/38/30 24/22/40
f 25/23/11 39/42/41 26/24/12
f 28/25/42 42/43/43 41/44/44
f 11/10/45 17/16/45 19/18/45
f 10/9/46 9/8/46 30/29/46
f 31/30/19 4/33/23 23/31/20
f 31/30/19 38/39/47 5/4/22
f 33/34/48 27/37/48 34/35/48
f 27/37/49 33/34/49 16/15/49
f 7/6/50 6/5/50 20/19/50
f 35/36/51 34/35/51 13/12/51
f 23/31/20 39/42/41 32/32/21
f 40/26/15 41/44/52 3/3/53
f 41/44/44 1/1/54 3/3/55
f 45/20/8 43/41/56 21/27/57
f 43/41/39 28/25/58 21/27/59
f 20/19/7 43/41/56 45/20/8
f 28/25/14 41/44/52 40/26/15
f 23/31/20 26/24/12 39/42/41
f 41/44/44 42/43/43 1/1/54
f 43/41/39 44/40/38 28/25/58
l 27 36
