# Blender v2.90.1 OBJ File: ''
# www.blender.org
mtllib MugenStageDarkness.mtl
o darkness_立方体.002
v -6.464252 -3.217176 -6.665498
v -9.449870 -7.823705 -13.291702
v -6.464252 -7.823707 -6.665501
v -9.449870 -3.217174 -13.291702
v -8.976265 -7.823705 -13.505095
v -8.976265 -3.217174 -13.505095
v -5.990646 -7.823707 -6.878895
v -5.990646 -3.217176 -6.878893
v 34.759388 -1.864032 -24.632595
v 29.851337 -6.470561 -30.038574
v 34.759388 -6.470563 -24.632599
v 29.851337 -1.864030 -30.038570
v 30.235935 -6.470561 -30.387749
v 30.235935 -1.864030 -30.387745
v 35.143978 -6.470563 -24.981773
v 35.143978 -1.864032 -24.981770
vt 0.625000 0.000000
vt 0.375000 0.250000
vt 0.375000 0.000000
vt 0.625000 0.250000
vt 0.375000 0.500000
vt 0.625000 0.500000
vt 0.375000 0.750000
vt 0.625000 0.750000
vt 0.375000 1.000000
vt 0.125000 0.750000
vt 0.125000 0.500000
vt 0.875000 0.500000
vt 0.625000 0.000000
vt 0.375000 0.250000
vt 0.375000 0.000000
vt 0.625000 0.250000
vt 0.375000 0.500000
vt 0.625000 0.500000
vt 0.375000 0.750000
vt 0.625000 0.750000
vt 0.375000 1.000000
vt 0.125000 0.750000
vt 0.125000 0.500000
vt 0.875000 0.750000
vt 0.625000 1.000000
vt 0.875000 0.750000
vt 0.625000 1.000000
vt 0.875000 0.500000
vn -0.9117 -0.0000 0.4108
vn -0.4108 0.0000 -0.9117
vn 0.9117 0.0000 -0.4108
vn 0.4108 -0.0000 0.9117
vn -0.0000 -1.0000 -0.0000
vn 0.0000 1.0000 0.0000
vn -0.7404 -0.0000 0.6722
vn -0.6722 0.0000 -0.7404
vn 0.7404 0.0000 -0.6722
vn 0.6722 -0.0000 0.7404
usemtl None
s 1
f 1/1/1 2/2/1 3/3/1
f 4/4/2 5/5/2 2/2/2
f 6/6/3 7/7/3 5/5/3
f 8/8/4 3/9/4 7/7/4
f 5/5/5 3/10/5 2/11/5
f 4/12/6 8/8/6 6/6/6
f 9/13/7 10/14/7 11/15/7
f 12/16/8 13/17/8 10/14/8
f 14/18/9 15/19/9 13/17/9
f 16/20/10 11/21/10 15/19/10
f 13/17/5 11/22/5 10/23/5
f 14/18/6 9/24/6 16/20/6
f 1/1/1 4/4/1 2/2/1
f 4/4/2 6/6/2 5/5/2
f 6/6/3 8/8/3 7/7/3
f 8/8/4 1/25/4 3/9/4
f 5/5/5 7/7/5 3/10/5
f 4/12/6 1/26/6 8/8/6
f 9/13/7 12/16/7 10/14/7
f 12/16/8 14/18/8 13/17/8
f 14/18/9 16/20/9 15/19/9
f 16/20/10 9/27/10 11/21/10
f 13/17/5 15/19/5 11/22/5
f 14/18/6 12/28/6 9/24/6
