# Blender v2.90.1 OBJ File: ''
# www.blender.org
mtllib MugenStageSlope.mtl
o slope_平面.023
v 11.986061 0.249013 -20.978802
v 11.482861 -0.021020 -19.641283
v 12.009559 -0.052660 -20.969524
v 6.149085 -0.055452 -6.833831
v 0.947614 0.163178 -9.815216
v 0.580315 -0.004139 -8.920679
v 6.509894 0.136920 -7.746801
v 0.950019 -0.045439 -9.766763
v 12.813895 -0.080947 -31.848026
v 15.771765 0.118898 -31.446999
v 13.094905 0.093148 -32.457409
v 15.544678 -0.048938 -30.825348
v 9.190625 -0.021899 -14.135331
v 4.167634 0.279315 -17.467110
v 3.639807 0.000392 -16.130806
v 9.697050 0.273644 -15.463963
v 4.220502 -0.031958 -17.539539
v 7.753309 -0.021618 -10.667277
v 2.531220 0.162896 -13.575180
v 2.204474 -0.000176 -12.731935
v 8.088630 0.159431 -11.510352
v 2.583003 -0.029954 -13.596134
v 12.872046 -0.036763 -40.676754
v 15.887695 0.129510 -40.201485
v 13.025058 0.095879 -41.319695
v 15.638866 -0.048179 -39.600121
v 14.962303 -0.026661 -46.520100
v 20.499134 0.176097 -45.163429
v 15.207306 0.149151 -47.143112
v 20.282070 0.005347 -44.580879
v 42.361656 -2.955403 -34.178165
v 42.900669 -3.039962 -36.961910
v 41.239540 -2.970854 -35.833645
v 21.770081 -7.632884 -18.454710
v 16.017550 -6.221271 -17.230600
v 16.655521 -6.199184 -15.352590
v 2.106983 -6.205130 -10.416055
v 1.464567 -6.205131 -12.310073
v 6.531527 -0.047500 -7.800926
v 8.078861 -0.049893 -11.492228
v 20.757557 -7.632885 -20.179474
v 9.730756 -0.037974 -15.511805
v 44.034935 -2.930672 -35.311180
v 5.958214 -0.003790 -21.637074
v 6.476892 0.230587 -22.971508
v 6.465209 -0.052436 -23.011135
v 13.079817 -0.121937 -32.454391
v 15.803606 -0.059475 -31.448103
v 13.081898 -0.057237 -41.331917
v 15.902855 -0.049480 -40.185135
v 20.472277 -0.049678 -45.167297
v 15.189860 -0.036249 -47.146381
v 41.245644 -3.293642 -35.839008
v 42.366329 -3.264158 -34.172634
v 34.831806 -4.672523 -27.694347
v 36.506645 -4.666138 -28.738871
v 34.827217 -4.911185 -27.716583
v 35.917732 -5.032526 -26.110033
v 37.640911 -4.656693 -27.088140
v 35.920498 -4.749817 -26.116497
v 27.802513 -6.187406 -25.374170
v 26.087864 -6.021961 -24.382803
v 26.107788 -6.455907 -24.386726
v 26.653019 -6.153547 -27.077055
v 25.005199 -6.504291 -26.103109
v 24.992382 -6.111213 -26.127043
v 16.031057 -8.488594 -17.375313
v 1.327544 -8.550583 -12.295878
v 15.867393 -8.515478 -15.165797
v 1.868962 -8.650756 -10.307972
vt 0.000000 0.000000
vt 1.000000 0.000000
vt 1.000000 1.000000
vt 0.991835 0.152856
vt 0.971288 0.101853
vt 0.991835 0.101786
vt 0.970885 0.152858
vt 1.000000 0.000000
vt 0.000000 1.000000
vt 0.000000 0.000000
vt 0.987115 0.251319
vt 0.970904 0.275702
vt 0.970885 0.251411
vt 0.987115 0.276135
vt 1.000000 0.101708
vt 0.971290 0.051412
vt 1.000000 0.051270
vt 0.970885 0.101786
vt 1.000000 0.000000
vt 0.000000 1.000000
vt 0.000000 0.000000
vt 0.991662 0.203295
vt 0.971290 0.153009
vt 0.991662 0.152858
vt 0.970885 0.203383
vt 1.000000 0.000000
vt 0.000000 1.000000
vt 0.000000 0.000000
vt 0.987115 0.276135
vt 0.970903 0.300518
vt 0.970885 0.276227
vt 0.987115 0.300950
vt 0.987113 0.203383
vt 0.970895 0.250924
vt 0.970885 0.203511
vt 0.987113 0.251319
vt 0.000000 0.000000
vt 1.000000 1.000000
vt 0.000000 1.000000
vt 1.000000 0.000000
vt 0.000000 1.000000
vt 0.000000 0.000000
vt 0.000000 0.000000
vt 1.000000 1.000000
vt 0.000000 1.000000
vt 0.000000 0.000000
vt 1.000000 1.000000
vt 0.000000 0.000000
vt 1.000000 0.000000
vt 1.000000 1.000000
vt 0.000000 0.000000
vt 1.000000 0.000000
vt 1.000000 1.000000
vt 0.000000 0.000000
vt 1.000000 1.000000
vt 0.000000 0.000000
vt 1.000000 1.000000
vt 1.000000 1.000000
vt 1.000000 0.000000
vt 1.000000 1.000000
vt 1.000000 0.000000
vt 0.000000 0.000000
vt 1.000000 0.000000
vt 0.000000 0.000000
vt 1.000000 1.000000
vt 0.000000 1.000000
vt 1.000000 0.000000
vt 0.000000 1.000000
vt 0.000000 0.000000
vt 1.000000 1.000000
vt 1.000000 0.000000
vt 0.000000 1.000000
vt 0.000000 0.000000
vt 1.000000 1.000000
vt 0.000000 0.000000
vt 1.000000 1.000000
vt 0.000000 1.000000
vt 1.000000 0.000000
vt 0.000000 0.000000
vt 0.000000 0.000000
vt 0.000000 1.000000
vt 1.000000 1.000000
vt 0.000000 0.000000
vt 0.000000 0.000000
vt 1.000000 0.000000
vt 0.000000 0.000000
vt 1.000000 0.000000
vt 0.000000 0.000000
vt 0.000000 0.000000
vt 1.000000 1.000000
vt 0.000000 0.000000
vt 0.000000 1.000000
vt 0.000000 0.000000
vt 0.000000 0.000000
vt 0.000000 0.000000
vt 0.000000 0.000000
vt 1.000000 0.101708
vt 0.971290 0.051412
vt 1.000000 0.051270
vt 0.970885 0.101786
vt 1.000000 0.000000
vt 0.000000 0.000000
vn 0.9270 0.0835 0.3656
vn -0.0520 0.9853 0.1629
vn -0.0630 0.9813 0.1819
vn 0.3400 -0.2090 -0.9169
vn -0.0963 0.9689 0.2278
vn -0.0967 0.9682 0.2306
vn -0.0968 0.9679 0.2319
vn -0.0962 0.9692 0.2265
vn -0.0610 0.9816 0.1808
vn -0.0684 0.9791 0.1917
vn 0.3285 0.2666 -0.9061
vn -0.0586 0.9841 0.1676
vn -0.0676 0.9807 0.1837
vn 0.3419 0.1918 -0.9200
vn -0.0828 0.9797 0.1824
vn -0.0921 0.9646 0.2469
vn -0.0951 0.9651 0.2440
vn -0.0940 0.9664 0.2391
vn -0.0933 0.9672 0.2362
vn -0.0958 0.9643 0.2469
vn 0.0241 0.9994 -0.0257
vn 0.2201 0.9717 -0.0862
vn -0.0026 1.0000 -0.0077
vn -0.0003 1.0000 -0.0030
vn 0.0010 1.0000 -0.0003
vn -0.9134 -0.1021 -0.3941
vn 0.9299 0.0012 0.3678
vn 0.9300 -0.0116 0.3674
vn -0.9001 -0.1996 -0.3874
vn -0.9229 -0.0686 -0.3789
vn 0.2115 0.9695 -0.1241
vn -0.0039 0.9999 -0.0104
vn 0.3169 0.3011 -0.8994
vn 0.3400 0.1785 -0.9233
vn 0.3555 -0.0971 -0.9296
vn -0.0406 0.9984 -0.0382
vn 0.9301 0.0447 0.3645
vn -0.9336 0.0872 -0.3476
vn 0.3532 -0.0379 -0.9348
vn 0.9124 0.1605 0.3766
vn -0.9128 0.0584 -0.4042
vn 0.3541 0.2043 -0.9126
vn -0.9069 -0.3143 -0.2807
vn 0.9056 0.1140 0.4084
vn 0.3505 -0.0230 -0.9363
vn 0.3507 -0.0191 -0.9363
vn 0.3508 -0.0165 -0.9363
vn 0.9414 -0.1174 0.3163
vn -0.9353 0.0940 -0.3413
vn -0.5618 0.0031 -0.8273
vn 0.5603 0.0233 0.8280
vn -0.8298 -0.0025 0.5581
vn -0.8274 -0.0250 0.5611
vn -0.5273 0.0889 -0.8450
vn 0.4911 0.0151 0.8710
vn 0.5016 0.0152 0.8650
vn -0.4967 -0.0689 -0.8652
vn -0.5164 0.0515 -0.8548
vn -0.3262 0.0583 -0.9435
vn -0.3203 0.0130 -0.9472
vn 0.4956 -0.0990 0.8629
vn 0.3277 0.0099 0.9447
vn 0.3212 -0.0330 0.9465
vn -0.9582 0.1050 0.2663
vn -0.9455 0.0572 0.3207
vn 0.3444 0.0673 -0.9364
vn 0.3762 -0.0526 -0.9250
vn 0.3504 -0.0256 -0.9363
vn 0.0187 0.9992 0.0361
vn -0.0413 0.9989 0.0226
vn -0.8265 0.0209 0.5626
vn -0.8234 -0.0369 0.5663
vn -0.0028 0.9988 -0.0494
vn 0.0774 0.9965 -0.0324
vn -0.8469 0.0048 0.5317
vn -0.8400 -0.0435 0.5408
vn -0.0522 0.9868 0.1530
vn -0.0661 0.9826 0.1735
vn 0.3375 0.1169 -0.9341
vn 0.3455 -0.0019 -0.9384
usemtl マテリアル
s 1
f 1/1/1 2/2/1 3/3/1
f 4/4/2 5/5/2 6/6/2
f 4/4/3 7/7/3 5/5/3
f 7/8/4 8/9/4 5/10/4
f 9/11/5 10/12/6 11/13/7
f 9/11/5 12/14/8 10/12/6
f 13/15/9 14/16/9 15/17/9
f 13/15/10 16/18/10 14/16/10
f 16/19/11 17/20/11 14/21/11
f 18/22/12 19/23/12 20/24/12
f 18/22/13 21/25/13 19/23/13
f 21/26/14 22/27/14 19/28/14
f 23/29/15 24/30/15 25/31/15
f 23/29/16 26/32/16 24/30/16
f 27/33/17 28/34/18 29/35/19
f 27/33/17 30/36/20 28/34/18
f 31/37/21 32/38/21 33/39/21
f 34/40/22 35/41/22 36/42/22
f 37/43/23 35/44/24 38/45/25
f 6/46/26 5/47/26 8/9/26
f 7/48/27 4/49/27 39/50/27
f 21/51/28 18/52/28 40/53/28
f 20/54/29 19/55/29 22/27/29
f 15/56/30 14/57/30 17/20/30
f 34/40/31 41/58/31 35/41/31
f 37/43/23 36/59/32 35/44/24
f 7/8/33 39/50/33 8/9/33
f 16/19/34 42/60/34 17/20/34
f 21/26/35 40/53/35 22/27/35
f 31/37/36 43/61/36 32/38/36
f 16/62/37 13/63/37 42/60/37
f 44/64/38 45/65/38 46/66/38
f 10/67/39 47/68/39 11/69/39
f 48/70/40 10/12/40 12/14/40
f 11/69/41 47/68/41 9/11/41
f 24/71/42 49/72/42 25/73/42
f 25/73/43 49/72/43 23/29/43
f 26/32/44 50/74/44 24/71/44
f 29/75/45 51/76/46 52/77/47
f 30/36/48 51/76/48 28/78/48
f 29/75/49 52/77/49 27/33/49
f 33/39/50 32/38/50 53/79/50
f 43/61/51 31/37/51 54/80/51
f 31/37/52 53/79/52 54/80/52
f 31/37/53 33/39/53 53/79/53
f 55/81/54 56/82/54 57/83/54
f 58/84/55 59/85/55 60/86/55
f 61/87/56 62/88/56 63/89/56
f 64/90/57 65/91/57 66/92/57
f 35/41/58 41/58/58 67/93/58
f 68/94/59 35/44/59 67/93/59
f 68/94/60 38/45/60 35/44/60
f 69/95/61 34/40/61 36/42/61
f 69/95/62 37/43/62 70/96/62
f 69/95/63 36/42/63 37/43/63
f 37/43/64 68/94/64 70/96/64
f 37/43/65 38/45/65 68/94/65
f 10/67/66 48/70/66 47/68/66
f 24/71/67 50/74/67 49/72/67
f 29/75/45 28/78/68 51/76/46
f 60/86/69 56/82/69 55/81/69
f 60/86/70 59/85/70 56/82/70
f 60/86/71 57/83/71 58/84/71
f 60/86/72 55/81/72 57/83/72
f 62/88/73 64/90/73 66/92/73
f 62/88/74 61/87/74 64/90/74
f 65/91/75 62/88/75 66/92/75
f 65/91/76 63/89/76 62/88/76
f 2/97/77 45/98/77 44/99/77
f 2/97/78 1/100/78 45/98/78
f 1/101/79 46/66/79 45/102/79
f 1/101/80 3/3/80 46/66/80
