# Blender v2.90.1 OBJ File: 'MugenStage.blend'
# www.blender.org
mtllib MugenStageSlope.mtl
o slope_平面.001
v 21.770081 -7.632875 -18.454716
v 16.017550 -6.221262 -17.230606
v 16.655521 -6.199178 -15.352593
v 2.106983 -6.205124 -10.416058
v 1.464567 -6.205125 -12.310076
v 20.757557 -7.632875 -20.179480
v 16.031057 -8.488585 -17.375319
v 1.327544 -8.550577 -12.295881
v 15.867393 -8.515470 -15.165800
v 1.868962 -8.650750 -10.307975
v 11.986061 0.249022 -20.978802
v 11.482861 -0.021011 -19.641283
v 12.009559 -0.052651 -20.969524
v 6.149085 -0.055449 -6.833831
v 0.947614 0.163184 -9.815216
v 0.580315 -0.004136 -8.920679
v 6.509894 0.136923 -7.746801
v 0.950019 -0.045433 -9.766763
v 12.235413 -0.080932 -31.879143
v 15.771765 0.118913 -31.446999
v 12.516422 0.093163 -32.488525
v 15.544678 -0.048923 -30.825348
v 9.190625 -0.021893 -14.135331
v 4.167634 0.279324 -17.467110
v 3.639807 0.000401 -16.130806
v 9.697050 0.273653 -15.463963
v 4.220502 -0.031949 -17.539539
v 7.753309 -0.021612 -10.667277
v 2.531220 0.162902 -13.575180
v 2.204474 -0.000170 -12.731935
v 8.088630 0.159437 -11.510352
v 2.583003 -0.029948 -13.596134
v 12.872046 -0.036742 -40.676754
v 16.773853 0.129531 -39.889458
v 13.025058 0.095900 -41.319695
v 16.525024 -0.048161 -39.288094
v 14.962303 -0.026637 -46.520100
v 20.499134 0.176118 -45.163429
v 15.207306 0.149175 -47.143112
v 20.282070 0.005368 -44.580879
v 42.361656 -2.955388 -34.178165
v 42.900669 -3.039944 -36.961910
v 41.239540 -2.970836 -35.833645
v 6.531527 -0.047497 -7.800926
v 8.078861 -0.049887 -11.492228
v 9.730756 -0.037965 -15.511805
v 44.034935 -2.930654 -35.311180
v 5.958214 -0.003778 -21.637074
v 6.476892 0.230599 -22.971508
v 6.465209 -0.052424 -23.011135
v 12.501334 -0.121922 -32.485508
v 15.803606 -0.059460 -31.448103
v 13.081898 -0.057216 -41.331917
v 16.789013 -0.049459 -39.873108
v 20.472277 -0.049657 -45.167297
v 15.189860 -0.036225 -47.146381
v 41.245644 -3.293624 -35.839008
v 42.366329 -3.264143 -34.172634
v 34.831806 -4.672511 -27.694347
v 36.506645 -4.666123 -28.738871
v 34.827217 -4.911172 -27.716583
v 35.917732 -5.032514 -26.110033
v 37.640911 -4.656681 -27.088140
v 35.920498 -4.749804 -26.116497
v 27.802513 -6.187393 -25.374176
v 26.087864 -6.021949 -24.382809
v 26.107788 -6.455895 -24.386732
v 26.653019 -6.153535 -27.077061
v 25.005199 -6.504278 -26.103115
v 24.992382 -6.111201 -26.127048
vt -1.698412 -2.013983
vt -1.279991 -0.676729
vt -2.013983 -0.654555
vt -1.705597 2.936793
vt -0.964762 2.913894
vt -0.964764 -1.941769
vt -0.027330 -0.711500
vt 0.517924 -2.013983
vt 0.818035 -0.725896
vt 0.818035 2.882300
vt -0.055174 2.848053
vt -0.055174 1.428692
vt -0.355571 3.013983
vt -0.915262 1.619159
vt -0.964762 -1.946569
vt -0.055174 -2.013983
vt 2.644377 -0.041891
vt 1.900577 -0.595699
vt 2.644377 -0.615937
vt 1.912818 -0.045386
vt 2.576805 -0.619521
vt 2.651294 -0.869602
vt 2.689227 -0.619521
vt 2.271602 -0.619550
vt 1.907105 -2.007351
vt 2.271602 -2.013983
vt 1.900577 -0.615937
vt 1.828436 -0.623506
vt 1.897836 0.315790
vt 1.820795 0.309801
vt 1.327433 0.094533
vt 1.075765 0.776719
vt 1.072795 0.105990
vt 1.327433 0.778094
vt 0.822752 -2.008896
vt 1.360824 -0.635117
vt 0.818035 -0.625874
vt 1.360824 -2.013983
vt 1.820794 0.556739
vt 1.703838 -0.359923
vt 1.820794 -0.376908
vt 1.703838 0.755397
vt 1.362581 -0.630181
vt 1.703838 -0.632747
vt 1.360824 0.759806
vt 2.834259 0.476961
vt 2.761997 -0.444007
vt 2.834258 -0.455858
vt 1.073086 0.073063
vt 1.320714 -0.625874
vt 1.320712 0.094533
vt 1.072795 -0.623030
vt 1.072795 -0.625874
vt 0.824257 0.701543
vt 0.818035 -0.623023
vt 1.061177 0.701543
vt 3.013983 -2.011239
vt 2.273048 -1.545865
vt 2.271602 -2.013983
vt 1.870322 0.483866
vt 2.342333 -0.799824
vt 2.342333 -0.622169
vt 2.271602 -0.799203
vt 2.416233 -0.799824
vt 2.416233 -0.635140
vt 2.342334 -0.783823
vt 2.785638 -0.615937
vt 1.735757 -0.632747
vt 1.897836 -0.632747
vt 1.704093 0.567080
vt 2.756632 0.471686
vt 3.013983 -1.538422
vt 2.388752 -1.055507
vt 2.388752 -0.799824
vt 2.271602 -1.048125
vt 2.718717 0.570306
vt 2.650861 0.316764
vt 2.756632 0.316693
vt 2.840621 -1.534148
vt 2.907413 -1.079973
vt 2.827767 -1.086401
vt 0.968515 0.821797
vt 0.902511 0.813755
vt 0.968515 0.701543
vt 2.877097 -0.959954
vt 1.897836 1.061015
vt 1.831639 0.598106
vt 1.889158 0.586151
vt 1.849686 0.483866
vt 1.035040 0.701543
vt 1.035040 0.818806
vt 0.968515 0.816873
vt 2.918121 -0.496295
vt 2.834258 0.383716
vt 2.849222 -0.501060
vt 0.902511 0.701543
vt 0.902511 0.804483
vt 0.818035 0.802395
vt 2.863164 -0.615937
vt 1.823825 0.567080
vt 1.823825 1.035033
vt 1.703838 0.571766
vt 2.827766 -1.062386
vt 2.714263 -1.527027
vt 2.827767 -1.538422
vt 2.599272 -1.069434
vt 2.714263 -1.538422
vt 2.714263 -1.068886
vt 2.594123 -1.536861
vt 2.852410 1.031581
vt 2.870414 0.570306
vt 2.941485 1.031580
vt 2.747418 0.570306
vt 2.747418 1.042632
vt 2.644377 0.583877
vt 2.594123 -1.075047
vt 2.433063 -1.529210
vt 2.594123 -1.538422
vt 2.576805 -1.075047
vt 2.576805 -0.619521
vt 2.433063 -0.635926
vt 2.907413 -1.538422
vt 1.831363 1.061015
vt 2.918121 0.390698
vt 2.634027 0.911763
vt 1.901789 0.484552
vt 2.634027 0.462135
vt 1.900577 0.952811
vt 2.747418 1.019869
vt 2.852410 0.570306
vt 2.852410 1.024961
vt 2.763241 0.571907
vt 2.630684 0.438155
vt 1.922237 -0.018724
vt 2.630684 -0.041891
vt 1.900577 0.462135
vt 2.286392 -1.057830
vt 2.433063 -1.538422
vt 2.433063 -1.055507
vt 2.271602 -1.535470
vt 1.900577 -0.636721
vt 1.361354 -2.006248
vt 1.900576 -2.013983
vt 1.360824 -0.632747
vt 2.644377 -0.613950
vt 2.756632 -0.615937
vn 0.2201 0.9717 -0.0862
vn -0.0026 1.0000 -0.0077
vn -0.0003 1.0000 -0.0030
vn 0.0010 1.0000 -0.0003
vn 0.2115 0.9695 -0.1241
vn -0.0039 0.9999 -0.0104
vn -0.5164 0.0515 -0.8548
vn -0.3262 0.0583 -0.9435
vn -0.3203 0.0130 -0.9472
vn 0.4956 -0.0990 0.8629
vn 0.3277 0.0099 0.9447
vn 0.3212 -0.0330 0.9465
vn -0.9582 0.1050 0.2663
vn -0.9455 0.0572 0.3207
vn 0.9270 0.0835 0.3656
vn -0.0520 0.9853 0.1629
vn -0.0630 0.9813 0.1819
vn 0.3400 -0.2090 -0.9169
vn -0.0832 0.9687 0.2338
vn -0.0835 0.9683 0.2355
vn -0.0838 0.9677 0.2378
vn -0.0831 0.9693 0.2314
vn -0.0610 0.9816 0.1808
vn -0.0684 0.9791 0.1917
vn 0.3285 0.2666 -0.9061
vn -0.0586 0.9841 0.1676
vn -0.0676 0.9807 0.1837
vn 0.3419 0.1918 -0.9200
vn -0.0788 0.9799 0.1834
vn -0.0910 0.9646 0.2474
vn -0.0951 0.9651 0.2440
vn -0.0940 0.9664 0.2391
vn -0.0933 0.9672 0.2362
vn -0.0958 0.9643 0.2469
vn 0.0241 0.9994 -0.0257
vn -0.9134 -0.1021 -0.3941
vn 0.9299 0.0012 0.3678
vn 0.9300 -0.0116 0.3674
vn -0.9001 -0.1996 -0.3874
vn -0.9229 -0.0686 -0.3789
vn 0.3169 0.3011 -0.8994
vn 0.3400 0.1785 -0.9233
vn 0.3555 -0.0971 -0.9296
vn -0.0406 0.9984 -0.0382
vn 0.9301 0.0447 0.3645
vn -0.9336 0.0872 -0.3476
vn 0.3048 -0.0347 -0.9518
vn 0.9124 0.1605 0.3766
vn -0.9128 0.0584 -0.4043
vn 0.3475 0.2021 -0.9156
vn -0.9069 -0.3143 -0.2807
vn 0.9056 0.1140 0.4084
vn 0.3505 -0.0230 -0.9363
vn 0.3507 -0.0191 -0.9363
vn 0.3508 -0.0165 -0.9363
vn 0.9414 -0.1174 0.3163
vn -0.9353 0.0940 -0.3413
vn -0.5618 0.0031 -0.8273
vn 0.5603 0.0233 0.8280
vn -0.8298 -0.0025 0.5581
vn -0.8274 -0.0250 0.5611
vn -0.5273 0.0889 -0.8450
vn 0.4911 0.0151 0.8710
vn 0.5016 0.0152 0.8650
vn -0.4967 -0.0689 -0.8652
vn 0.2982 0.0591 -0.9527
vn 0.3657 -0.0539 -0.9292
vn 0.3504 -0.0256 -0.9363
vn 0.0187 0.9992 0.0361
vn -0.0413 0.9989 0.0226
vn -0.8265 0.0209 0.5626
vn -0.8234 -0.0369 0.5663
vn -0.0028 0.9988 -0.0494
vn 0.0774 0.9965 -0.0324
vn -0.8469 0.0048 0.5317
vn -0.8400 -0.0435 0.5408
vn -0.0522 0.9868 0.1530
vn -0.0661 0.9826 0.1735
vn 0.3375 0.1169 -0.9341
vn 0.3455 -0.0019 -0.9384
usemtl マテリアル.026
s 1
f 1/1/1 2/2/1 3/3/1
f 4/4/2 2/2/3 5/5/4
f 1/1/5 6/6/5 2/2/5
f 4/4/2 3/3/6 2/2/3
f 2/7/7 6/8/7 7/9/7
f 8/10/8 2/7/8 7/9/8
f 8/10/9 5/11/9 2/7/9
f 9/12/10 1/13/10 3/14/10
f 9/12/11 4/15/11 10/16/11
f 9/12/12 3/14/12 4/15/12
f 4/17/13 8/18/13 10/19/13
f 4/17/14 5/20/14 8/18/14
f 11/21/15 12/22/15 13/23/15
f 14/24/16 15/25/16 16/26/16
f 14/24/17 17/27/17 15/25/17
f 17/28/18 18/29/18 15/30/18
f 19/31/19 20/32/20 21/33/21
f 19/31/19 22/34/22 20/32/20
f 23/35/23 24/36/23 25/37/23
f 23/35/24 26/38/24 24/36/24
f 26/39/25 27/40/25 24/41/25
f 28/42/26 29/43/26 30/44/26
f 28/42/27 31/45/27 29/43/27
f 31/46/28 32/47/28 29/48/28
f 33/49/29 34/50/29 35/51/29
f 33/49/30 36/52/30 34/50/30
f 37/53/31 38/54/32 39/55/33
f 37/53/31 40/56/34 38/54/32
f 41/57/35 42/58/35 43/59/35
f 16/60/36 15/30/36 18/29/36
f 17/61/37 14/62/37 44/63/37
f 31/64/38 28/65/38 45/66/38
f 30/67/39 29/48/39 32/47/39
f 25/68/40 24/41/40 27/40/40
f 17/28/41 44/69/41 18/29/41
f 26/39/42 46/70/42 27/40/42
f 31/46/43 45/71/43 32/47/43
f 41/57/44 47/72/44 42/58/44
f 26/73/45 23/74/45 46/75/45
f 48/76/46 49/77/46 50/78/46
f 20/79/47 51/80/47 21/81/47
f 52/82/48 20/83/48 22/84/48
f 21/81/49 51/80/49 19/85/49
f 34/86/50 53/87/50 35/88/50
f 35/88/51 53/87/51 33/89/51
f 36/90/52 54/91/52 34/92/52
f 39/93/53 55/94/54 56/95/55
f 40/96/56 55/97/56 38/98/56
f 39/93/57 56/95/57 37/99/57
f 43/100/58 42/101/58 57/102/58
f 47/103/59 41/104/59 58/105/59
f 41/106/60 57/107/60 58/108/60
f 41/106/61 43/109/61 57/107/61
f 59/110/62 60/111/62 61/112/62
f 62/113/63 63/114/63 64/115/63
f 65/116/64 66/117/64 67/118/64
f 68/119/65 69/120/65 70/121/65
f 20/79/66 52/122/66 51/80/66
f 34/86/67 54/123/67 53/87/67
f 39/93/53 38/124/68 55/94/54
f 64/125/69 60/126/69 59/127/69
f 64/125/70 63/128/70 60/126/70
f 64/129/71 61/130/71 62/131/71
f 64/129/72 59/132/72 61/130/72
f 66/133/73 68/134/73 70/135/73
f 66/133/74 65/136/74 68/134/74
f 69/137/75 66/138/75 70/139/75
f 69/137/76 67/140/76 66/138/76
f 12/141/77 49/142/77 48/143/77
f 12/141/78 11/144/78 49/142/78
f 11/145/79 50/78/79 49/77/79
f 11/145/80 13/146/80 50/78/80
