# Blender v2.90.1 OBJ File: ''
# www.blender.org
mtllib MugenStageSidewalk.mtl
o MugenStageSidewalk.003_stage_平面.002
v 43.637093 -2.862469 -37.682484
v 39.841003 -4.309242 -28.236170
v 47.723904 -2.282106 -34.043076
v 37.230152 -0.129940 -64.630577
v 43.506969 -0.287034 -56.600666
v 46.742210 -0.139372 -60.931992
v 15.955674 -8.663214 -15.059517
v 0.123050 -8.637268 -15.475035
v 0.455308 -8.630937 -9.760501
v -16.657084 -0.105113 23.694565
v -23.037540 -0.565817 17.115021
v -25.617786 -0.115380 23.119255
v -10.366781 -6.395993 -7.135633
v -26.984213 -2.262868 -5.131887
v -23.906403 -3.035387 -1.024922
v -8.539089 -0.138443 19.699787
v -5.923912 -0.081612 6.337438
v -12.306759 -0.271273 15.253824
v 47.953476 -0.611624 -51.198029
v 52.924133 -0.327731 -48.868114
v 52.944492 -0.091574 -52.896362
v 15.297417 -8.406460 -20.585205
v -0.147964 -0.135285 8.267043
v 5.662411 -0.136911 -20.868565
v 47.694798 -1.232102 -44.248249
v 51.181046 -1.347303 -39.891060
v 52.893269 -0.685804 -42.760277
v -18.133259 -0.343695 17.537096
v -10.478999 -6.415788 -12.596226
v 28.971954 -0.090997 -58.928352
v 19.006622 -0.138334 -57.783867
v 23.497208 -0.093052 -54.561817
v 27.085148 -0.133255 -63.951195
v -28.254547 -1.648212 8.718822
v -32.233189 -0.135803 17.037220
v -26.815411 -0.928758 14.040318
v -34.321400 -0.134675 8.193549
v 36.322224 -4.292433 -32.608635
v 36.352257 -0.092367 -59.225681
v 47.800873 -0.977661 -47.098129
v 49.977615 -0.701620 -47.740555
v 11.967209 -0.137366 -20.797079
v 45.322189 -2.239298 -40.425076
v 47.667034 -1.872937 -39.643532
vt 38.783318 38.718624
vt 50.681274 28.939032
vt 54.876465 38.928123
vt -30.336651 53.831356
vt -0.725568 52.546085
vt -2.992854 58.115253
vt 28.638901 1.534650
vt -4.769746 -9.715875
vt 7.523746 -13.660766
vt 41.341446 -50.542343
vt 14.496519 -50.411488
vt 21.614773 -56.710907
vt -9.358868 -23.602440
vt -39.724159 -37.102558
vt -24.791809 -37.828506
vt 49.850761 -41.644993
vt 27.555021 -29.917707
vt 32.818970 -41.167133
vt 19.700628 51.848156
vt 34.814568 53.812218
vt 26.495472 56.787968
vt 15.914120 5.177150
vt 43.501335 -27.093307
vt -4.891884 -1.463243
vt 33.599846 46.544640
vt 49.855682 45.920025
vt 47.428406 49.300224
vt 25.475986 -47.120293
vt -20.778479 -19.556543
vt -35.591148 43.574635
vt -53.833122 35.410225
vt -37.857567 36.348499
vt -49.911575 45.872398
vt -13.637240 -48.150833
vt -4.678571 -57.118473
vt 0.359168 -50.954712
vt -27.334703 -52.171417
vt 34.375191 29.676027
vt -20.921131 49.220364
vt 27.900223 48.719437
vt 31.062428 50.804108
vt 8.297121 3.121089
vt 36.625816 41.976013
vt 43.120026 43.136642
vn -0.2101 0.9758 0.0601
vn -0.0124 0.9993 0.0345
vn -0.0015 1.0000 0.0001
vn 0.0040 0.9968 -0.0799
vn 0.2426 0.9701 0.0024
vn 0.2425 0.9702 0.0023
vn -0.0393 0.9992 -0.0068
vn -0.0942 0.9934 0.0661
vn -0.0896 0.9934 0.0713
vn -0.0917 0.9939 0.0609
vn -0.1501 0.9874 0.0492
vn 0.0014 1.0000 0.0002
vn 0.0006 1.0000 0.0001
vn 0.0016 1.0000 0.0003
vn -0.1443 0.9808 0.1310
vn -0.1441 0.9829 0.1145
vn -0.1474 0.9800 0.1335
vn -0.0273 0.9989 -0.0391
vn 0.2004 0.9797 0.0002
vn -0.0001 1.0000 0.0008
vn -0.0020 1.0000 -0.0003
vn -0.0026 1.0000 -0.0006
vn -0.0001 1.0000 0.0012
vn -0.0001 1.0000 0.0009
vn 0.0690 0.9859 -0.1525
vn 0.0690 0.9859 -0.1524
vn 0.2613 0.9652 -0.0129
vn 0.2614 0.9651 -0.0129
vn -0.0907 0.9938 0.0641
vn -0.0237 0.9955 -0.0916
vn -0.1244 0.9876 0.0961
vn -0.1250 0.9875 0.0957
vn -0.1250 0.9875 0.0959
vn 0.0249 0.9997 0.0054
vn -0.0024 0.9994 0.0340
vn -0.0420 0.9985 -0.0356
vn 0.2424 0.9702 0.0003
vn 0.2425 0.9702 0.0003
vn 0.0012 1.0000 0.0012
vn -0.1093 0.9904 0.0846
vn -0.1074 0.9901 0.0902
vn -0.1031 0.9909 0.0860
vn -0.1332 0.9858 0.1027
vn 0.0017 1.0000 0.0003
vn -0.1906 0.9737 0.1248
vn -0.1973 0.9730 0.1198
vn -0.2037 0.9732 0.1071
vn -0.0111 0.9995 -0.0308
vn 0.2030 0.9791 -0.0098
vn 0.2030 0.9791 -0.0099
vn 0.0000 1.0000 0.0013
vn 0.2544 0.9653 -0.0599
vn 0.2518 0.9675 -0.0244
vn 0.0107 0.9986 0.0518
vn 0.0950 0.9898 -0.1066
vn -0.1419 0.9847 0.1007
vn -0.1423 0.9870 0.0750
vn -0.2037 0.9732 0.1070
vn -0.2140 0.9725 0.0919
vn -0.2196 0.9723 0.0804
vn -0.1060 0.9915 0.0749
vn -0.1128 0.9919 0.0576
vn -0.1034 0.9909 0.0861
vn -0.1256 0.9893 0.0739
vn -0.1325 0.9888 0.0692
vn -0.2141 0.9725 0.0919
usemtl マテリアル.001
s 1
f 1/1/1 2/2/1 3/3/1
f 4/4/2 5/5/2 6/6/2
f 7/7/3 8/8/3 9/9/3
f 10/10/4 11/11/4 12/12/4
f 13/13/5 14/14/6 15/15/5
f 16/16/7 17/17/7 18/18/7
f 19/19/8 20/20/9 21/21/10
f 2/2/11 22/22/11 7/7/11
f 23/23/12 24/24/13 17/17/14
f 25/25/15 26/26/16 27/27/17
f 10/10/18 18/18/18 28/28/18
f 9/9/19 29/29/19 13/13/19
f 30/30/20 31/31/21 32/32/22
f 30/30/20 4/4/23 33/33/24
f 34/34/25 35/35/25 36/36/26
f 37/37/27 15/15/28 14/14/28
f 6/6/29 19/19/8 21/21/10
f 36/36/30 12/12/30 11/11/30
f 1/1/31 38/38/32 2/2/33
f 4/4/34 39/39/34 5/5/34
f 7/7/35 22/22/35 8/8/35
f 10/10/36 28/28/36 11/11/36
f 13/13/37 29/29/37 14/14/38
f 16/16/39 23/23/39 17/17/39
f 19/19/40 40/40/41 41/41/42
f 2/2/33 38/38/32 22/22/43
f 23/23/12 42/42/44 24/24/13
f 25/25/45 43/43/46 44/44/47
f 10/10/48 16/16/48 18/18/48
f 9/9/49 8/8/49 29/29/50
f 30/30/20 33/33/24 31/31/21
f 30/30/20 39/39/51 4/4/23
f 34/34/52 37/37/52 35/35/52
f 37/37/53 34/34/53 15/15/53
f 6/6/54 5/5/54 19/19/54
f 36/36/55 35/35/55 12/12/55
f 31/31/21 42/42/44 32/32/22
f 26/26/16 44/44/56 3/3/57
f 44/44/58 1/1/59 3/3/60
f 20/20/9 41/41/61 27/27/62
f 41/41/63 25/25/64 27/27/65
f 19/19/8 41/41/61 20/20/9
f 25/25/15 44/44/56 26/26/16
f 31/31/21 24/24/13 42/42/44
f 44/44/47 43/43/46 1/1/66
f 41/41/42 40/40/41 25/25/64
