# Blender v2.90.1 OBJ File: ''
# www.blender.org
mtllib blockB.mtl
o 立方体.001
v -0.333070 0.021084 0.555519
v -0.333070 -0.718458 -0.184023
v -0.333070 -0.718459 0.555519
v -0.333070 0.021085 -0.184023
v 0.406472 -0.718458 -0.184023
v 0.406472 0.021085 -0.184023
v 0.406472 -0.718459 0.555519
v 0.406472 0.021084 0.555519
v -0.135137 0.753085 0.372051
v -0.457195 0.013543 -0.293683
v -0.135137 0.013542 0.372051
v -0.457195 0.753085 -0.293683
v 0.208539 0.013543 -0.615742
v 0.208539 0.753086 -0.615742
v 0.530598 0.013543 0.049991
v 0.530598 0.753085 0.049991
vt 0.625000 0.000000
vt 0.375000 0.250000
vt 0.375000 0.000000
vt 0.625000 0.250000
vt 0.375000 0.500000
vt 0.625000 0.500000
vt 0.375000 0.750000
vt 0.625000 0.750000
vt 0.375000 1.000000
vt 0.125000 0.750000
vt 0.125000 0.500000
vt 0.875000 0.500000
vt 0.625000 0.000000
vt 0.375000 0.250000
vt 0.375000 0.000000
vt 0.625000 0.250000
vt 0.375000 0.500000
vt 0.625000 0.500000
vt 0.375000 0.750000
vt 0.625000 0.750000
vt 0.375000 1.000000
vt 0.125000 0.750000
vt 0.125000 0.500000
vt 0.875000 0.500000
vt 0.625000 1.000000
vt 0.875000 0.750000
vt 0.625000 1.000000
vt 0.875000 0.750000
vn -1.0000 0.0000 0.0000
vn 0.0000 0.0000 -1.0000
vn 1.0000 -0.0000 0.0000
vn 0.0000 -0.0000 1.0000
vn 0.0000 -1.0000 -0.0000
vn 0.0000 1.0000 0.0000
vn -0.9002 -0.0000 0.4355
vn -0.4355 0.0000 -0.9002
vn 0.9002 0.0000 -0.4355
vn 0.4355 -0.0000 0.9002
usemtl None.001
s 1
f 1/1/1 2/2/1 3/3/1
f 4/4/2 5/5/2 2/2/2
f 6/6/3 7/7/3 5/5/3
f 8/8/4 3/9/4 7/7/4
f 5/5/5 3/10/5 2/11/5
f 4/12/6 8/8/6 6/6/6
f 9/13/7 10/14/7 11/15/7
f 12/16/8 13/17/8 10/14/8
f 14/18/9 15/19/9 13/17/9
f 16/20/10 11/21/10 15/19/10
f 13/17/5 11/22/5 10/23/5
f 12/24/6 16/20/6 14/18/6
f 1/1/1 4/4/1 2/2/1
f 4/4/2 6/6/2 5/5/2
f 6/6/3 8/8/3 7/7/3
f 8/8/4 1/25/4 3/9/4
f 5/5/5 7/7/5 3/10/5
f 4/12/6 1/26/6 8/8/6
f 9/13/7 12/16/7 10/14/7
f 12/16/8 14/18/8 13/17/8
f 14/18/9 16/20/9 15/19/9
f 16/20/10 9/27/10 11/21/10
f 13/17/5 15/19/5 11/22/5
f 12/24/6 9/28/6 16/20/6
