# Blender v2.90.1 OBJ File: ''
# www.blender.org
mtllib blockD.mtl
o 立方体.004_立方体.005
v -1.057209 0.476059 1.767634
v -0.734780 -0.263484 1.102080
v -1.057209 -0.263484 1.767634
v -0.734780 0.476059 1.102080
v -0.069226 -0.263484 1.424510
v -0.069226 0.476059 1.424510
v -0.391655 -0.263484 2.090064
v -0.391655 0.476059 2.090064
v -0.044575 0.464113 -1.348575
v 0.277855 -0.275430 -2.014128
v -0.044575 -0.275430 -1.348575
v 0.277855 0.464113 -2.014128
v 0.943410 -0.275430 -1.691700
v 0.943410 0.464113 -1.691699
v 0.620980 -0.275430 -1.026145
v 0.620980 0.464113 -1.026145
vt 0.625000 0.000000
vt 0.375000 0.250000
vt 0.375000 0.000000
vt 0.625000 0.250000
vt 0.375000 0.500000
vt 0.625000 0.500000
vt 0.375000 0.750000
vt 0.625000 0.750000
vt 0.375000 1.000000
vt 0.125000 0.750000
vt 0.125000 0.500000
vt 0.875000 0.500000
vt 0.625000 0.000000
vt 0.375000 0.250000
vt 0.375000 0.000000
vt 0.625000 0.250000
vt 0.375000 0.500000
vt 0.625000 0.500000
vt 0.375000 0.750000
vt 0.625000 0.750000
vt 0.375000 1.000000
vt 0.125000 0.750000
vt 0.125000 0.500000
vt 0.875000 0.500000
vt 0.625000 1.000000
vt 0.875000 0.750000
vt 0.625000 1.000000
vt 0.875000 0.750000
vn -0.9000 0.0000 -0.4360
vn 0.4360 0.0000 -0.9000
vn 0.9000 0.0000 0.4360
vn -0.4360 -0.0000 0.9000
vn 0.0000 -1.0000 -0.0000
vn -0.0000 1.0000 0.0000
usemtl None.003
s 1
f 1/1/1 2/2/1 3/3/1
f 4/4/2 5/5/2 2/2/2
f 6/6/3 7/7/3 5/5/3
f 8/8/4 3/9/4 7/7/4
f 5/5/5 3/10/5 2/11/5
f 4/12/6 8/8/6 6/6/6
f 9/13/1 10/14/1 11/15/1
f 12/16/2 13/17/2 10/14/2
f 14/18/3 15/19/3 13/17/3
f 16/20/4 11/21/4 15/19/4
f 13/17/5 11/22/5 10/23/5
f 12/24/6 16/20/6 14/18/6
f 1/1/1 4/4/1 2/2/1
f 4/4/2 6/6/2 5/5/2
f 6/6/3 8/8/3 7/7/3
f 8/8/4 1/25/4 3/9/4
f 5/5/5 7/7/5 3/10/5
f 4/12/6 1/26/6 8/8/6
f 9/13/1 12/16/1 10/14/1
f 12/16/2 14/18/2 13/17/2
f 14/18/3 16/20/3 15/19/3
f 16/20/4 9/27/4 11/21/4
f 13/17/5 15/19/5 11/22/5
f 12/24/6 9/28/6 16/20/6
