# Blender v2.90.1 OBJ File: ''
# www.blender.org
mtllib itemBox.mtl
o 立方体
v -0.472971 -0.472971 0.472971
v -0.472971 0.472971 0.472971
v -0.472971 -0.472971 -0.472971
v -0.472971 0.472971 -0.472971
v 0.472971 -0.472971 0.472971
v 0.472971 0.472971 0.472971
v 0.472971 -0.472971 -0.472971
v 0.472971 0.472971 -0.472971
vt 0.001655 0.996354
vt 0.994103 0.003906
vt 0.994103 0.996354
vt -0.000400 0.997008
vt 0.997086 -0.000478
vt 0.997086 0.997008
vt 0.003907 0.998530
vt 0.998530 0.003906
vt 0.998530 0.998529
vt -0.000166 0.000942
vt 0.997731 0.998839
vt -0.000166 0.998839
vt -0.000488 1.000488
vt 0.996094 0.003906
vt 0.996094 1.000488
vt 0.995000 0.996094
vt 0.003906 0.005000
vt 0.995000 0.005000
vt 0.001655 0.003906
vt -0.000400 -0.000478
vt 0.003906 0.003907
vt 0.997731 0.000942
vt -0.000488 0.003906
vt 0.003906 0.996094
vn -1.0000 0.0000 0.0000
vn 0.0000 0.0000 -1.0000
vn 1.0000 0.0000 0.0000
vn 0.0000 0.0000 1.0000
vn 0.0000 -1.0000 0.0000
vn 0.0000 1.0000 0.0000
usemtl None
s off
f 2/1/1 3/2/1 1/3/1
f 4/4/2 7/5/2 3/6/2
f 8/7/3 5/8/3 7/9/3
f 6/10/4 1/11/4 5/12/4
f 7/13/5 1/14/5 3/15/5
f 4/16/6 6/17/6 8/18/6
f 2/1/1 4/19/1 3/2/1
f 4/4/2 8/20/2 7/5/2
f 8/7/3 6/21/3 5/8/3
f 6/10/4 2/22/4 1/11/4
f 7/13/5 5/23/5 1/14/5
f 4/16/6 2/24/6 6/17/6
