# Blender v2.90.1 OBJ File: ''
# www.blender.org
mtllib shell.mtl
o Cube
v 1.000000 -0.586238 -1.000000
v 1.000000 -0.586238 1.000000
v -1.000000 -0.586238 -1.000000
v -1.000000 -0.586238 1.000000
v 0.236096 0.542560 -0.480721
v 0.139751 0.683794 -0.139751
v 0.480721 0.542560 -0.236096
v 0.614140 0.164515 -0.858765
v 0.858765 0.164515 -0.614140
v 1.000000 -0.176455 -1.000000
v 0.480721 0.542560 0.236096
v 0.139751 0.683794 0.139751
v 0.236096 0.542560 0.480721
v 0.858765 0.164515 0.614140
v 0.614140 0.164515 0.858765
v 1.000000 -0.176455 1.000000
v -0.139751 0.683794 -0.139751
v -0.236096 0.542560 -0.480721
v -0.480721 0.542560 -0.236096
v -0.614140 0.164515 -0.858765
v -1.000000 -0.176455 -1.000000
v -0.858765 0.164515 -0.614140
v -0.139751 0.683794 0.139751
v -0.480721 0.542560 0.236096
v -0.236096 0.542560 0.480721
v -0.858765 0.164515 0.614140
v -1.000000 -0.176455 1.000000
v -0.614140 0.164515 0.858765
vt 0.810090 0.595488
vt 0.857346 0.701768
vt 0.810090 0.654512
vt 0.375000 0.500000
vt 0.125000 0.750000
vt 0.125000 0.500000
vt 0.517469 0.500000
vt 0.375000 0.750000
vt 0.517469 0.250000
vt 0.375000 0.250000
vt 0.517469 0.750000
vt 0.375000 1.000000
vt 0.767469 0.607531
vt 0.732531 0.642469
vt 0.732531 0.607531
vt 0.517469 0.000000
vt 0.375000 0.000000
vt 0.672256 0.654512
vt 0.577744 0.548232
vt 0.672256 0.595488
vt 0.779512 0.685090
vt 0.673232 0.732346
vt 0.720488 0.685090
vt 0.720488 0.564910
vt 0.732531 0.582564
vt 0.700103 0.575103
vt 0.673232 0.517654
vt 0.652847 0.527847
vt 0.625000 0.500000
vt 0.689910 0.669801
vt 0.732531 0.667436
vt 0.720488 0.667436
vt 0.577744 0.701768
vt 0.598130 0.722153
vt 0.542436 0.750000
vt 0.779512 0.564910
vt 0.842057 0.517654
vt 0.875000 0.500000
vt 0.875000 0.548232
vt 0.767469 0.642469
vt 0.857346 0.717057
vt 0.875000 0.750000
vt 0.826768 0.750000
vt 0.700103 0.674897
vt 0.652847 0.722153
vt 0.625000 0.750000
vt 0.826768 0.732346
vt 0.826768 0.517654
vt 0.857346 0.548232
vt 0.517469 1.000000
vn -0.7071 0.7071 0.0000
vn 0.0000 -1.0000 0.0000
vn 1.0000 0.0000 0.0000
vn 0.0000 0.0000 -1.0000
vn 0.0000 0.0000 1.0000
vn 0.0000 1.0000 0.0000
vn -1.0000 0.0000 0.0000
vn 0.7071 0.7071 0.0000
vn 0.0000 0.7071 0.7071
vn 0.2938 0.9096 -0.2938
vn 0.4773 0.7378 -0.4773
vn 0.2938 0.9096 0.2938
vn 0.4773 0.7378 0.4773
vn -0.2938 0.9096 -0.2938
vn -0.4773 0.7378 -0.4773
vn -0.2938 0.9096 0.2938
vn -0.4773 0.7378 0.4773
vn 0.4082 0.8165 0.4082
vn 0.0000 0.9239 0.3827
vn -0.4082 0.8165 0.4082
vn 0.0000 0.3827 0.9239
vn 0.4082 0.8165 -0.4082
vn 0.3827 0.9239 0.0000
vn 0.9239 0.3827 0.0000
vn -0.3827 0.9239 0.0000
vn -0.4082 0.8165 -0.4082
vn -0.9239 0.3827 0.0000
vn 0.0000 0.9239 -0.3827
vn 0.0000 0.3827 -0.9239
vn 0.0000 0.7071 -0.7071
usemtl Material
s off
f 19/1/1 26/2/1 24/3/1
f 1/4/2 4/5/2 3/6/2
f 10/7/3 2/8/3 1/4/3
f 21/9/4 1/4/4 3/10/4
f 16/11/5 4/12/5 2/8/5
f 17/13/6 12/14/6 6/15/6
f 27/16/7 3/10/7 4/17/7
f 11/18/8 9/19/8 7/20/8
f 25/21/9 15/22/9 13/23/9
f 5/24/10 6/25/10 7/26/10
f 8/27/11 9/28/11 10/29/11
f 11/30/12 12/31/12 13/32/12
f 14/33/13 15/34/13 16/35/13
f 17/13/14 18/36/14 19/1/14
f 20/37/15 21/38/15 22/39/15
f 23/40/16 24/3/16 25/21/16
f 26/41/17 27/42/17 28/43/17
f 11/44/18 15/22/18 14/45/18
f 23/40/19 13/23/19 12/14/19
f 26/2/20 25/21/20 24/3/20
f 16/46/21 28/47/21 27/42/21
f 5/24/22 9/28/22 8/27/22
f 12/14/23 7/20/23 6/15/23
f 10/7/24 14/33/24 16/11/24
f 17/13/25 24/3/25 23/40/25
f 20/48/26 19/1/26 18/36/26
f 27/42/27 22/49/27 21/38/27
f 6/15/28 18/36/28 17/13/28
f 21/38/29 8/27/29 10/29/29
f 5/24/30 20/48/30 18/36/30
f 19/1/1 22/49/1 26/2/1
f 1/4/2 2/8/2 4/5/2
f 10/7/3 16/11/3 2/8/3
f 21/9/4 10/7/4 1/4/4
f 16/11/5 27/50/5 4/12/5
f 17/13/6 23/40/6 12/14/6
f 27/16/7 21/9/7 3/10/7
f 11/18/8 14/33/8 9/19/8
f 25/21/9 28/47/9 15/22/9
f 11/44/18 13/23/18 15/22/18
f 23/40/19 25/21/19 13/23/19
f 26/2/20 28/47/20 25/21/20
f 16/46/21 15/22/21 28/47/21
f 5/24/22 7/26/22 9/28/22
f 12/14/23 11/18/23 7/20/23
f 10/7/24 9/19/24 14/33/24
f 17/13/25 19/1/25 24/3/25
f 20/48/26 22/49/26 19/1/26
f 27/42/27 26/2/27 22/49/27
f 6/15/28 5/24/28 18/36/28
f 21/38/29 20/48/29 8/27/29
f 5/24/30 8/27/30 20/48/30
