# Blender v2.90.1 OBJ File: 'carBlend.blend'
# www.blender.org
mtllib carFrontLight.mtl
o frontLight_Cube.022
v 0.558597 -0.452361 -2.095268
v 0.943981 -0.446596 -1.872815
v 0.398091 -0.632994 -2.207501
v 0.961234 -0.607294 -1.985663
v -0.558597 -0.452361 -2.095268
v -0.943981 -0.446596 -1.872815
v -0.398091 -0.632994 -2.207501
v -0.961234 -0.607294 -1.985663
vt 0.559409 0.500000
vt 0.558315 0.500000
vt 0.619886 0.500000
vt 0.619886 0.500000
vt 0.558315 0.500000
vt 0.559409 0.500000
vt 0.618717 0.500000
vt 0.618717 0.500000
vn 0.3442 0.2555 -0.9035
vn -0.3442 0.2555 -0.9035
vn 0.4102 0.5532 -0.7250
vn -0.4102 0.5532 -0.7250
usemtl Material.002
s off
f 4/1/1 3/2/1 1/3/1
f 5/4/2 7/5/2 8/6/2
f 4/1/3 1/3/3 2/7/3
f 5/4/4 8/6/4 6/8/4
