# Blender v2.90.1 OBJ File: 'carBlend.blend'
# www.blender.org
mtllib carLeftTireFrame.mtl
o leftTireFrame_Cube.006
v -0.157002 -0.555248 -0.277254
v -0.157002 -0.450775 -0.256473
v -0.157002 -0.362207 -0.197294
v -0.157002 -0.303028 -0.108726
v -0.157002 -0.282246 -0.004253
v -0.157002 -0.303028 0.100221
v -0.157002 -0.362207 0.188789
v -0.157002 -0.450775 0.247968
v -0.157002 -0.555248 0.268749
v -0.157002 -0.659721 0.247968
v -0.157002 -0.748289 0.188789
v -0.157002 -0.807468 0.100221
v -0.157002 -0.828250 -0.004253
v -0.157002 -0.807468 -0.108726
v -0.157002 -0.748289 -0.197294
v -0.157002 -0.659721 -0.256473
v 0.166160 -0.748289 0.188789
v 0.166160 -0.807468 0.100221
v 0.166160 -0.828250 -0.004253
v 0.166160 -0.807468 -0.108726
v 0.166160 -0.748289 -0.197294
v 0.166160 -0.659721 -0.256473
v -0.062776 -0.555248 -0.236066
v -0.062776 -0.466537 -0.218420
v -0.062776 -0.391331 -0.168170
v -0.062776 -0.341080 -0.092964
v -0.062776 -0.323434 -0.004253
v -0.062776 -0.341080 0.084459
v -0.062776 -0.391331 0.159665
v -0.062776 -0.466537 0.209915
v -0.062776 -0.555248 0.227561
v -0.062776 -0.643959 0.209916
v -0.062776 -0.719165 0.159665
v -0.062776 -0.769416 0.084459
v -0.062776 -0.787062 -0.004253
v -0.062776 -0.769416 -0.092964
v -0.062776 -0.719165 -0.168170
v -0.062776 -0.643959 -0.218421
v 0.071933 -0.555248 -0.236066
v 0.071933 -0.466537 -0.218420
v 0.071933 -0.391331 -0.168170
v 0.071933 -0.341080 -0.092964
v 0.071933 -0.323434 -0.004253
v 0.071933 -0.341080 0.084459
v 0.071933 -0.391331 0.159665
v 0.071933 -0.466537 0.209915
v 0.071933 -0.555248 0.227561
v 0.071933 -0.643959 0.209916
v 0.071933 -0.719165 0.159665
v 0.071933 -0.769416 0.084459
v 0.071933 -0.787062 -0.004253
v 0.071933 -0.769416 -0.092964
v 0.071933 -0.719165 -0.168170
v 0.071933 -0.643959 -0.218421
v -0.132625 -0.466537 -0.218420
v -0.132625 -0.555248 -0.236066
v -0.132625 -0.391331 -0.168170
v -0.132625 -0.341080 -0.092964
v -0.132625 -0.323434 -0.004253
v -0.132625 -0.341080 0.084459
v -0.132625 -0.391331 0.159665
v -0.132625 -0.466537 0.209915
v -0.132625 -0.555248 0.227561
v -0.132625 -0.643959 0.209916
v -0.132625 -0.719165 0.159665
v -0.132625 -0.769416 0.084459
v -0.132625 -0.787062 -0.004253
v -0.132625 -0.769416 -0.092964
v -0.132625 -0.719165 -0.168170
v -0.132625 -0.643959 -0.218421
v 0.141782 -0.466537 -0.218420
v 0.141782 -0.555248 -0.236066
v 0.141782 -0.391331 -0.168170
v 0.141782 -0.341080 -0.092964
v 0.141782 -0.323434 -0.004253
v 0.141782 -0.341080 0.084459
v 0.141782 -0.391331 0.159665
v 0.141782 -0.466537 0.209915
v 0.141782 -0.555248 0.227561
v 0.141782 -0.643959 0.209916
v 0.141782 -0.719165 0.159665
v 0.141782 -0.769416 0.084459
v 0.141782 -0.787062 -0.004253
v 0.141782 -0.769416 -0.092964
v 0.141782 -0.719165 -0.168170
v 0.141782 -0.643959 -0.218421
v -0.013264 -0.555248 -0.065662
v -0.013264 -0.531748 -0.060987
v -0.013264 -0.511825 -0.047676
v -0.013264 -0.498513 -0.027753
v -0.013264 -0.493839 -0.004253
v -0.013264 -0.498513 0.019248
v -0.013264 -0.511825 0.039170
v -0.013264 -0.531748 0.052482
v -0.013264 -0.555248 0.057157
v -0.013264 -0.578748 0.052482
v -0.013264 -0.598671 0.039170
v -0.013264 -0.611983 0.019248
v -0.013264 -0.616657 -0.004253
v -0.013264 -0.611983 -0.027753
v -0.013264 -0.598671 -0.047676
v -0.013264 -0.578748 -0.060988
v 0.022422 -0.555248 -0.065662
v 0.022422 -0.531748 -0.060987
v 0.022422 -0.511825 -0.047676
v 0.022422 -0.498513 -0.027753
v 0.022422 -0.493839 -0.004253
v 0.022422 -0.498513 0.019248
v 0.022422 -0.511825 0.039170
v 0.022422 -0.531748 0.052482
v 0.022422 -0.555248 0.057157
v 0.022422 -0.578748 0.052482
v 0.022422 -0.598671 0.039170
v 0.022422 -0.611983 0.019248
v 0.022422 -0.616657 -0.004253
v 0.022422 -0.611983 -0.027753
v 0.022422 -0.598671 -0.047676
v 0.022422 -0.578748 -0.060988
v -0.048592 -0.555248 -0.065662
v -0.048592 -0.531748 -0.060987
v -0.048592 -0.511825 -0.047676
v -0.048592 -0.498513 -0.027753
v -0.048592 -0.493839 -0.004253
v -0.048592 -0.498513 0.019248
v -0.048592 -0.511825 0.039170
v -0.048592 -0.531748 0.052482
v -0.048592 -0.555248 0.057157
v -0.048592 -0.578748 0.052482
v -0.048592 -0.598671 0.039170
v -0.048592 -0.611983 0.019248
v -0.048592 -0.616657 -0.004253
v -0.048592 -0.611983 -0.027753
v -0.048592 -0.598671 -0.047676
v -0.048592 -0.578748 -0.060988
v -0.012906 -0.555248 -0.065662
v -0.012906 -0.531748 -0.060987
v -0.012906 -0.511825 -0.047676
v -0.012906 -0.498513 -0.027753
v -0.012906 -0.493839 -0.004253
v -0.012906 -0.498513 0.019248
v -0.012906 -0.511825 0.039170
v -0.012906 -0.531748 0.052482
v -0.012906 -0.555248 0.057157
v -0.012906 -0.578748 0.052482
v -0.012906 -0.598671 0.039170
v -0.012906 -0.611983 0.019248
v -0.012906 -0.616657 -0.004253
v -0.012906 -0.611983 -0.027753
v -0.012906 -0.598671 -0.047676
v -0.012906 -0.578748 -0.060988
v -0.025194 -0.532993 -0.057981
v -0.025194 -0.555248 -0.062408
v -0.025194 -0.501520 -0.026508
v -0.025194 -0.514126 -0.045374
v -0.025194 -0.501520 0.018003
v -0.025194 -0.497093 -0.004253
v -0.025194 -0.532993 0.049476
v -0.025194 -0.514126 0.036869
v -0.025194 -0.577503 0.049476
v -0.025194 -0.555248 0.053903
v -0.025194 -0.608976 0.018003
v -0.025194 -0.596370 0.036869
v -0.025194 -0.608976 -0.026508
v -0.025194 -0.613403 -0.004253
v -0.025194 -0.577503 -0.057981
v -0.025194 -0.596370 -0.045374
v -0.007671 -0.532993 -0.057981
v -0.007671 -0.555248 -0.062408
v -0.007671 -0.501520 -0.026508
v -0.007671 -0.514126 -0.045374
v -0.007671 -0.501520 0.018003
v -0.007671 -0.497093 -0.004253
v -0.007671 -0.532993 0.049476
v -0.007671 -0.514126 0.036869
v -0.007671 -0.577503 0.049476
v -0.007671 -0.555248 0.053903
v -0.007671 -0.608976 0.018003
v -0.007671 -0.596370 0.036869
v -0.007671 -0.608976 -0.026508
v -0.007671 -0.613403 -0.004253
v -0.007671 -0.577503 -0.057981
v -0.007671 -0.596370 -0.045374
vt 0.000000 0.000000
vt 0.000000 0.000000
vt 0.000000 0.000000
vt 0.000000 0.000000
vt 0.000000 0.000000
vt 0.000000 0.000000
vt 0.000000 0.000000
vt 0.000000 0.000000
vt 0.000000 0.000000
vt 0.000000 0.000000
vt 0.000000 0.000000
vt 0.000000 0.000000
vt 0.000000 0.000000
vt 0.000000 0.000000
vt 0.000000 0.000000
vt 0.000000 0.000000
vt 0.000000 0.000000
vt 0.000000 0.000000
vt 0.000000 0.000000
vt 0.000000 0.000000
vt 0.000000 0.000000
vt 0.000000 0.000000
vt 0.000000 0.000000
vt 0.000000 0.000000
vt 0.000000 0.000000
vt 0.000000 0.000000
vt 0.000000 0.000000
vt 0.000000 0.000000
vt 0.000000 0.000000
vt 0.000000 0.000000
vt 0.000000 0.000000
vt 0.000000 0.000000
vt 0.000000 0.000000
vt 0.000000 0.000000
vt 0.000000 0.000000
vt 0.000000 0.000000
vt 0.000000 0.000000
vt 0.000000 0.000000
vt 0.000000 0.000000
vt 0.000000 0.000000
vt 0.000000 0.000000
vt 0.000000 0.000000
vt 0.000000 0.000000
vt 0.000000 0.000000
vt 0.000000 0.000000
vt 0.000000 0.000000
vt 0.000000 0.000000
vt 0.000000 0.000000
vt 0.000000 0.000000
vt 0.000000 0.000000
vt 0.000000 0.000000
vt 0.000000 0.000000
vt 0.000000 0.000000
vt 0.000000 0.000000
vt 0.000000 0.000000
vt 0.000000 0.000000
vt 0.000000 0.000000
vt 0.000000 0.000000
vt 0.000000 0.000000
vt 0.000000 0.000000
vt 0.000000 0.000000
vt 0.000000 0.000000
vt 0.000000 0.000000
vt 0.000000 0.000000
vt 0.000000 0.000000
vt 0.000000 0.000000
vt 0.000000 0.000000
vt 0.000000 0.000000
vt 0.000000 0.000000
vt 0.000000 0.000000
vt 0.000000 0.000000
vt 0.000000 0.000000
vt 0.000000 0.000000
vt 0.000000 0.000000
vt 0.000000 0.000000
vt 0.000000 0.000000
vt 0.000000 0.000000
vt 0.000000 0.000000
vt 0.000000 0.000000
vt 0.000000 0.000000
vt 0.000000 0.000000
vt 0.000000 0.000000
vt 0.000000 0.000000
vt 0.000000 0.000000
vt 0.000000 0.000000
vt 0.000000 0.000000
vt 0.000000 0.000000
vt 0.000000 0.000000
vt 0.000000 0.000000
vt 0.000000 0.000000
vt 0.000000 0.000000
vt 0.000000 0.000000
vt 0.000000 0.000000
vt 0.000000 0.000000
vt 0.000000 0.000000
vt 0.000000 0.000000
vt 0.000000 0.000000
vt 0.000000 0.000000
vt 0.000000 0.000000
vt 0.000000 0.000000
vt 0.000000 0.000000
vt 0.000000 0.000000
vt 0.000000 0.000000
vt 0.000000 0.000000
vt 0.000000 0.000000
vt 0.000000 0.000000
vt 0.000000 0.000000
vt 0.000000 0.000000
vt 0.000000 0.000000
vt 0.000000 0.000000
vt 0.000000 0.000000
vt 0.000000 0.000000
vt 0.000000 0.000000
vt 0.000000 0.000000
vt 0.000000 0.000000
vt 0.000000 0.000000
vt 0.000000 0.000000
vt 0.000000 0.000000
vt 0.000000 0.000000
vt 0.000000 0.000000
vt 0.000000 0.000000
vt 0.000000 0.000000
vt 0.000000 0.000000
vt 0.000000 0.000000
vt 0.000000 0.000000
vt 0.000000 0.000000
vt 0.000000 0.000000
vt 0.000000 0.000000
vt 0.000000 0.000000
vt 0.000000 0.000000
vt 0.000000 0.000000
vt 0.000000 0.000000
vt 0.000000 0.000000
vt 0.000000 0.000000
vt 0.000000 0.000000
vt 0.000000 0.000000
vt 0.000000 0.000000
vt 0.000000 0.000000
vt 0.000000 0.000000
vt 0.000000 0.000000
vt 0.000000 0.000000
vt 0.000000 0.000000
vt 0.000000 0.000000
vt 0.000000 0.000000
vt 0.000000 0.000000
vt 0.000000 0.000000
vt 0.000000 0.000000
vt 0.000000 0.000000
vt 0.000000 0.000000
vt 0.000000 0.000000
vt 0.000000 0.000000
vt 0.000000 0.000000
vt 0.000000 0.000000
vt 0.000000 0.000000
vt 0.000000 0.000000
vt 0.000000 0.000000
vt 0.000000 0.000000
vt 0.000000 0.000000
vt 0.000000 0.000000
vt 0.000000 0.000000
vt 0.000000 0.000000
vt 0.000000 0.000000
vt 0.000000 0.000000
vt 0.000000 0.000000
vt 0.000000 0.000000
vt 0.000000 0.000000
vt 0.000000 0.000000
vt 0.000000 0.000000
vt 0.000000 0.000000
vt 0.000000 0.000000
vt 0.000000 0.000000
vt 0.000000 0.000000
vt 0.000000 0.000000
vt 0.000000 0.000000
vt 0.000000 0.000000
vt 0.000000 0.000000
vt 0.000000 0.000000
vt 0.000000 0.000000
vt 0.000000 0.000000
vt 0.000000 0.000000
vt 0.000000 0.000000
vt 0.000000 0.000000
vn 0.8562 0.2870 0.4296
vn 0.8562 0.4296 0.2870
vn 0.8562 0.5067 0.1008
vn 0.9588 0.1578 -0.2362
vn 0.9588 0.0554 -0.2786
vn 0.9588 -0.0554 -0.2786
vn 0.9588 -0.1578 -0.2362
vn 0.9588 -0.2362 -0.1578
vn 0.9588 -0.2786 -0.0554
vn 0.9588 -0.2786 0.0554
vn 0.9588 -0.2362 0.1578
vn 0.9588 0.0554 0.2786
vn 0.8562 0.4296 -0.2870
vn 0.8562 0.5067 -0.1008
vn 0.9514 0.1710 0.2559
vn 0.0000 -0.8315 0.5556
vn 0.0000 -0.9808 0.1951
vn 0.0000 -0.9808 -0.1951
vn 0.0000 -0.8315 -0.5556
vn 0.0000 -0.5556 -0.8315
vn 0.0000 -0.1951 -0.9808
vn 0.0000 0.1951 -0.9808
vn 0.0000 0.5556 -0.8315
vn 0.0000 0.8315 -0.5556
vn 0.0000 0.9808 -0.1951
vn 0.0000 0.9808 0.1951
vn 0.0000 0.8315 0.5556
vn 0.0000 0.5556 0.8315
vn 0.0000 0.1951 0.9808
vn 0.9588 0.2362 -0.1578
vn 0.9588 0.2786 -0.0554
vn 0.9588 0.2786 0.0554
vn 0.9588 0.2362 0.1578
vn 0.9588 0.1578 0.2362
vn 0.0000 -0.1951 0.9808
vn 0.9514 -0.0601 0.3019
vn 0.9514 -0.2559 0.1710
vn 0.9514 -0.3019 -0.0601
vn 0.9514 -0.1710 -0.2559
vn 0.9514 0.2559 -0.1710
vn 0.9514 0.3019 0.0601
vn -0.8562 -0.2870 -0.4296
vn -0.8562 -0.4296 -0.2870
vn -0.8562 -0.5067 -0.1008
vn -0.8562 -0.5067 0.1008
vn -0.8562 -0.4296 0.2870
vn -0.8562 0.1008 0.5067
vn -0.8562 -0.2870 0.4296
vn -0.9588 0.2786 -0.0554
vn -0.9588 0.2362 -0.1578
vn -0.9588 0.1578 -0.2362
vn -0.9588 0.0554 -0.2786
vn -0.9588 -0.0554 -0.2786
vn -0.9588 -0.2362 -0.1578
vn -0.8562 -0.1008 -0.5067
vn -0.8562 0.1008 -0.5067
vn -0.8562 0.2870 -0.4296
vn -0.8562 0.4296 -0.2870
vn -0.8562 0.5067 -0.1008
vn -0.8562 0.5067 0.1008
vn -0.8562 0.4296 0.2870
vn -0.8562 -0.1008 0.5067
vn -0.8562 0.2870 0.4296
vn -0.8458 -0.5232 -0.1041
vn 0.0000 -0.5556 0.8315
vn 0.0000 0.9239 0.3827
vn 0.0000 -0.7071 0.7071
vn -0.8458 -0.4436 0.2964
vn 0.0000 0.3827 -0.9239
vn -0.9588 0.2786 0.0554
vn -0.9588 0.2362 0.1578
vn -0.9588 0.1578 0.2362
vn -0.9588 -0.1578 0.2362
vn -0.9588 0.0554 0.2786
vn -0.9588 -0.2362 0.1578
vn -0.9588 -0.2786 0.0554
vn 0.9588 -0.1578 0.2362
vn -0.9588 -0.2786 -0.0554
vn -1.0000 0.0000 0.0000
vn 0.0000 -0.7071 -0.7071
vn 0.0000 0.3827 0.9239
vn -0.8458 -0.2964 -0.4436
vn 0.0000 0.0000 -1.0000
vn 0.0000 -0.3827 0.9239
vn -0.8458 0.1041 -0.5232
vn 0.0000 0.7071 -0.7071
vn 0.0000 -0.9239 0.3827
vn -0.8458 0.4436 -0.2964
vn 0.0000 1.0000 0.0000
vn 0.9514 0.0601 -0.3019
vn 0.0000 -0.9239 -0.3827
vn -0.8458 0.5232 0.1041
vn 0.0000 0.7071 0.7071
vn 0.0000 -0.3827 -0.9239
vn -0.8458 -0.1041 0.5232
vn -0.8458 0.2964 0.4436
vn 0.0000 0.0000 1.0000
usemtl Material
s off
f 85/1/1 21/2/1 22/3/1
f 84/4/2 20/5/2 21/2/2
f 83/6/3 19/7/3 20/5/3
f 112/8/4 48/9/4 49/10/4
f 111/11/5 47/12/5 48/9/5
f 46/13/6 47/12/6 111/11/6
f 45/14/7 46/13/7 110/15/7
f 108/16/8 44/17/8 45/14/8
f 43/18/9 44/17/9 108/16/9
f 106/19/10 42/20/10 43/18/10
f 41/21/11 42/20/11 106/19/11
f 54/22/12 39/23/12 103/24/12
f 81/25/13 17/26/13 18/27/13
f 18/27/14 19/7/14 83/6/14
f 29/28/15 30/29/15 173/30/15
f 74/31/16 42/20/16 41/21/16
f 75/32/17 43/18/17 42/20/17
f 76/33/18 44/17/18 43/18/18
f 77/34/19 45/14/19 44/17/19
f 78/35/20 46/13/20 45/14/20
f 79/36/21 47/12/21 46/13/21
f 80/37/22 48/9/22 47/12/22
f 81/25/23 49/10/23 48/9/23
f 82/38/24 50/39/24 49/10/24
f 83/6/25 51/40/25 50/39/25
f 84/4/26 52/41/26 51/40/26
f 85/1/27 53/42/27 52/41/27
f 86/43/28 54/22/28 53/42/28
f 72/44/29 39/23/29 54/22/29
f 49/10/30 50/39/30 114/45/30
f 50/39/31 51/40/31 115/46/31
f 115/46/32 51/40/32 52/41/32
f 52/41/33 53/42/33 117/47/33
f 117/47/34 53/42/34 54/22/34
f 152/48/35 168/49/35 167/50/35
f 154/51/16 170/52/16 169/53/16
f 156/54/18 172/55/18 171/56/18
f 158/57/20 174/58/20 173/30/20
f 160/59/22 176/60/22 175/61/22
f 162/62/24 178/63/24 177/64/24
f 164/65/26 180/66/26 179/67/26
f 166/68/28 182/69/28 181/70/28
f 176/60/36 31/71/36 32/72/36
f 33/73/37 34/74/37 177/64/37
f 180/66/38 35/75/38 36/76/38
f 37/77/39 38/78/39 181/70/39
f 25/79/40 26/80/40 169/53/40
f 172/55/41 27/81/41 28/82/41
f 85/1/1 22/3/1 86/43/1
f 84/4/2 21/2/2 85/1/2
f 83/6/3 20/5/3 84/4/3
f 112/8/4 49/10/4 113/83/4
f 111/11/5 48/9/5 112/8/5
f 46/13/6 111/11/6 110/15/6
f 45/14/7 110/15/7 109/84/7
f 108/16/8 45/14/8 109/84/8
f 43/18/9 108/16/9 107/85/9
f 106/19/10 43/18/10 107/85/10
f 41/21/11 106/19/11 105/86/11
f 54/22/12 103/24/12 118/87/12
f 81/25/13 18/27/13 82/38/13
f 18/27/14 83/6/14 82/38/14
f 29/28/15 173/30/15 174/58/15
f 74/31/16 41/21/16 73/88/16
f 75/32/17 42/20/17 74/31/17
f 76/33/18 43/18/18 75/32/18
f 77/34/19 44/17/19 76/33/19
f 78/35/20 45/14/20 77/34/20
f 79/36/21 46/13/21 78/35/21
f 80/37/22 47/12/22 79/36/22
f 81/25/23 48/9/23 80/37/23
f 82/38/24 49/10/24 81/25/24
f 83/6/25 50/39/25 82/38/25
f 84/4/26 51/40/26 83/6/26
f 85/1/27 52/41/27 84/4/27
f 86/43/28 53/42/28 85/1/28
f 72/44/29 54/22/29 86/43/29
f 49/10/30 114/45/30 113/83/30
f 50/39/31 115/46/31 114/45/31
f 115/46/32 52/41/32 116/89/32
f 52/41/33 117/47/33 116/89/33
f 117/47/34 54/22/34 118/87/34
f 152/48/35 167/50/35 151/90/35
f 154/51/16 169/53/16 153/91/16
f 156/54/18 171/56/18 155/92/18
f 158/57/20 173/30/20 157/93/20
f 160/59/22 175/61/22 159/94/22
f 162/62/24 177/64/24 161/95/24
f 164/65/26 179/67/26 163/96/26
f 166/68/28 181/70/28 165/97/28
f 176/60/36 32/72/36 175/61/36
f 33/73/37 177/64/37 178/63/37
f 180/66/38 36/76/38 179/67/38
f 37/77/39 181/70/39 182/69/39
f 25/79/40 169/53/40 170/52/40
f 172/55/41 28/82/41 171/56/41
usemtl Material.004
f 8/98/42 7/99/42 61/100/42
f 7/99/43 6/101/43 60/102/43
f 6/101/44 5/103/44 59/104/44
f 59/104/45 5/103/45 4/105/45
f 58/106/46 4/105/46 3/107/46
f 56/108/47 1/109/47 16/110/47
f 3/107/48 2/111/48 55/112/48
f 99/113/49 35/75/49 34/74/49
f 98/114/50 34/74/50 33/73/50
f 33/73/51 32/72/51 96/115/51
f 96/115/52 32/72/52 31/71/52
f 31/71/53 30/29/53 94/116/53
f 29/28/54 28/82/54 92/117/54
f 63/118/55 9/119/55 8/98/55
f 64/120/56 10/121/56 9/119/56
f 11/122/57 10/121/57 64/120/57
f 12/123/58 11/122/58 65/124/58
f 67/125/59 13/126/59 12/123/59
f 14/127/60 13/126/60 67/125/60
f 69/128/61 15/129/61 14/127/61
f 2/111/62 1/109/62 56/108/62
f 16/110/63 15/129/63 69/128/63
f 155/92/64 60/102/64 59/104/64
f 55/112/65 24/130/65 25/79/65
f 58/106/17 26/80/17 27/81/17
f 24/130/66 55/112/66 151/90/66
f 60/102/19 28/82/19 29/28/19
f 62/131/21 30/29/21 31/71/21
f 166/68/67 69/128/67 37/77/67
f 64/120/23 32/72/23 33/73/23
f 66/132/25 34/74/25 35/75/25
f 153/91/68 58/106/68 57/133/68
f 68/134/27 36/76/27 37/77/27
f 36/76/69 68/134/69 163/96/69
f 73/88/65 41/21/65 40/135/65
f 132/136/18 100/137/18 99/113/18
f 144/138/23 112/8/23 113/83/23
f 131/139/17 99/113/17 98/114/17
f 143/140/22 111/11/22 112/8/22
f 130/141/16 98/114/16 97/142/16
f 142/143/21 110/15/21 111/11/21
f 129/144/65 97/142/65 96/115/65
f 141/145/20 109/84/20 110/15/20
f 128/146/35 96/115/35 95/147/35
f 140/148/19 108/16/19 109/84/19
f 127/149/29 95/147/29 94/116/29
f 139/150/18 107/85/18 108/16/18
f 126/151/28 94/116/28 93/152/28
f 138/153/17 106/19/17 107/85/17
f 125/154/27 93/152/27 92/117/27
f 137/155/16 105/86/16 106/19/16
f 36/76/70 35/75/70 99/113/70
f 101/156/71 37/77/71 36/76/71
f 102/157/72 38/78/72 37/77/72
f 89/158/73 25/79/73 24/130/73
f 87/159/74 23/160/74 38/78/74
f 26/80/75 25/79/75 89/158/75
f 91/161/76 27/81/76 26/80/76
f 40/135/77 41/21/77 105/86/77
f 92/117/78 28/82/78 27/81/78
f 146/162/24 130/141/24 129/144/24
f 139/150/17 123/163/17 122/164/17
f 147/165/25 131/139/25 130/141/25
f 140/148/18 124/166/18 123/163/18
f 148/167/26 132/136/26 131/139/26
f 141/145/19 125/154/19 124/166/19
f 149/168/27 133/169/27 132/136/27
f 142/143/20 126/151/20 125/154/20
f 150/170/28 134/171/28 133/169/28
f 143/140/21 127/149/21 126/151/21
f 136/172/35 120/173/35 119/174/35
f 135/175/29 119/174/29 134/171/29
f 144/138/22 128/146/22 127/149/22
f 137/155/65 121/176/65 120/173/65
f 145/177/23 129/144/23 128/146/23
f 138/153/16 122/164/16 121/176/16
f 145/177/24 113/83/24 114/45/24
f 133/169/19 101/156/19 100/137/19
f 120/173/22 88/178/22 87/159/22
f 146/162/25 114/45/25 115/46/25
f 134/171/20 102/157/20 101/156/20
f 121/176/23 89/158/23 88/178/23
f 147/165/26 115/46/26 116/89/26
f 119/174/21 87/159/21 102/157/21
f 122/164/24 90/179/24 89/158/24
f 148/167/27 116/89/27 117/47/27
f 135/175/35 103/24/35 104/180/35
f 123/163/25 91/161/25 90/179/25
f 149/168/28 117/47/28 118/87/28
f 136/172/65 104/180/65 105/86/65
f 124/166/26 92/117/26 91/161/26
f 150/170/29 118/87/29 103/24/29
f 128/146/79 120/173/79 132/136/79
f 154/51/80 57/133/80 25/79/80
f 26/80/81 58/106/81 153/91/81
f 157/93/82 62/131/82 61/100/82
f 156/54/83 59/104/83 27/81/83
f 28/82/84 60/102/84 155/92/84
f 64/120/85 63/118/85 160/59/85
f 158/57/86 61/100/86 29/28/86
f 30/29/87 62/131/87 157/93/87
f 161/95/88 66/132/88 65/124/88
f 160/59/89 63/118/89 31/71/89
f 168/49/90 23/160/90 24/130/90
f 32/72/91 64/120/91 159/94/91
f 68/134/92 67/125/92 164/65/92
f 162/62/93 65/124/93 33/73/93
f 34/74/94 66/132/94 161/95/94
f 55/112/95 56/108/95 152/48/95
f 165/97/96 70/181/96 69/128/96
f 164/65/97 67/125/97 35/75/97
f 8/98/42 61/100/42 62/131/42
f 7/99/43 60/102/43 61/100/43
f 6/101/44 59/104/44 60/102/44
f 59/104/45 4/105/45 58/106/45
f 58/106/46 3/107/46 57/133/46
f 56/108/47 16/110/47 70/181/47
f 3/107/48 55/112/48 57/133/48
f 99/113/49 34/74/49 98/114/49
f 98/114/50 33/73/50 97/142/50
f 33/73/51 96/115/51 97/142/51
f 96/115/52 31/71/52 95/147/52
f 31/71/53 94/116/53 95/147/53
f 29/28/54 92/117/54 93/152/54
f 63/118/55 8/98/55 62/131/55
f 64/120/56 9/119/56 63/118/56
f 11/122/57 64/120/57 65/124/57
f 12/123/58 65/124/58 66/132/58
f 67/125/59 12/123/59 66/132/59
f 14/127/60 67/125/60 68/134/60
f 69/128/61 14/127/61 68/134/61
f 2/111/62 56/108/62 55/112/62
f 16/110/63 69/128/63 70/181/63
f 155/92/64 59/104/64 156/54/64
f 55/112/65 25/79/65 57/133/65
f 58/106/17 27/81/17 59/104/17
f 24/130/66 151/90/66 167/50/66
f 60/102/19 29/28/19 61/100/19
f 62/131/21 31/71/21 63/118/21
f 166/68/67 37/77/67 182/69/67
f 64/120/23 33/73/23 65/124/23
f 66/132/25 35/75/25 67/125/25
f 153/91/68 57/133/68 154/51/68
f 68/134/27 37/77/27 69/128/27
f 36/76/69 163/96/69 179/67/69
f 73/88/65 40/135/65 71/182/65
f 132/136/18 99/113/18 131/139/18
f 144/138/23 113/83/23 145/177/23
f 131/139/17 98/114/17 130/141/17
f 143/140/22 112/8/22 144/138/22
f 130/141/16 97/142/16 129/144/16
f 142/143/21 111/11/21 143/140/21
f 129/144/65 96/115/65 128/146/65
f 141/145/20 110/15/20 142/143/20
f 128/146/35 95/147/35 127/149/35
f 140/148/19 109/84/19 141/145/19
f 127/149/29 94/116/29 126/151/29
f 139/150/18 108/16/18 140/148/18
f 126/151/28 93/152/28 125/154/28
f 138/153/17 107/85/17 139/150/17
f 125/154/27 92/117/27 124/166/27
f 137/155/16 106/19/16 138/153/16
f 36/76/70 99/113/70 100/137/70
f 101/156/71 36/76/71 100/137/71
f 102/157/72 37/77/72 101/156/72
f 89/158/73 24/130/73 88/178/73
f 87/159/74 38/78/74 102/157/74
f 26/80/75 89/158/75 90/179/75
f 91/161/76 26/80/76 90/179/76
f 40/135/77 105/86/77 104/180/77
f 92/117/78 27/81/78 91/161/78
f 146/162/24 129/144/24 145/177/24
f 139/150/17 122/164/17 138/153/17
f 147/165/25 130/141/25 146/162/25
f 140/148/18 123/163/18 139/150/18
f 148/167/26 131/139/26 147/165/26
f 141/145/19 124/166/19 140/148/19
f 149/168/27 132/136/27 148/167/27
f 142/143/20 125/154/20 141/145/20
f 150/170/28 133/169/28 149/168/28
f 143/140/21 126/151/21 142/143/21
f 136/172/35 119/174/35 135/175/35
f 135/175/29 134/171/29 150/170/29
f 144/138/22 127/149/22 143/140/22
f 137/155/65 120/173/65 136/172/65
f 145/177/23 128/146/23 144/138/23
f 138/153/16 121/176/16 137/155/16
f 145/177/24 114/45/24 146/162/24
f 133/169/19 100/137/19 132/136/19
f 120/173/22 87/159/22 119/174/22
f 146/162/25 115/46/25 147/165/25
f 134/171/20 101/156/20 133/169/20
f 121/176/23 88/178/23 120/173/23
f 147/165/26 116/89/26 148/167/26
f 119/174/21 102/157/21 134/171/21
f 122/164/24 89/158/24 121/176/24
f 148/167/27 117/47/27 149/168/27
f 135/175/35 104/180/35 136/172/35
f 123/163/25 90/179/25 122/164/25
f 149/168/28 118/87/28 150/170/28
f 136/172/65 105/86/65 137/155/65
f 124/166/26 91/161/26 123/163/26
f 150/170/29 103/24/29 135/175/29
f 120/173/79 122/164/79 121/176/79
f 122/164/79 124/166/79 123/163/79
f 124/166/79 128/146/79 125/154/79
f 125/154/79 128/146/79 126/151/79
f 126/151/79 128/146/79 127/149/79
f 128/146/79 132/136/79 129/144/79
f 129/144/79 132/136/79 130/141/79
f 130/141/79 132/136/79 131/139/79
f 132/136/79 120/173/79 133/169/79
f 133/169/79 120/173/79 134/171/79
f 134/171/79 120/173/79 119/174/79
f 120/173/79 128/146/79 122/164/79
f 122/164/79 128/146/79 124/166/79
f 154/51/80 25/79/80 170/52/80
f 26/80/81 153/91/81 169/53/81
f 157/93/82 61/100/82 158/57/82
f 156/54/83 27/81/83 172/55/83
f 28/82/84 155/92/84 171/56/84
f 64/120/85 160/59/85 159/94/85
f 158/57/86 29/28/86 174/58/86
f 30/29/87 157/93/87 173/30/87
f 161/95/88 65/124/88 162/62/88
f 160/59/89 31/71/89 176/60/89
f 168/49/90 24/130/90 167/50/90
f 32/72/91 159/94/91 175/61/91
f 68/134/92 164/65/92 163/96/92
f 162/62/93 33/73/93 178/63/93
f 34/74/94 161/95/94 177/64/94
f 55/112/95 152/48/95 151/90/95
f 165/97/96 69/128/96 166/68/96
f 164/65/97 35/75/97 180/66/97
