# Blender v2.90.1 OBJ File: 'carBlend.blend'
# www.blender.org
mtllib carLeftLight.mtl
o leftLight_Cube.011
v 0.538990 -0.491795 1.921737
v 0.538990 -0.649108 1.917867
v 0.811507 -0.649789 1.945545
v 0.811507 -0.492476 1.949415
v 0.281971 -0.491795 1.921737
v 0.281971 -0.649108 1.917867
v 0.558597 -0.452361 -2.095268
v 0.943981 -0.446596 -1.872815
v 0.398091 -0.632994 -2.207501
v 0.961234 -0.607294 -1.985663
vt 0.559409 0.500000
vt 0.558315 0.500000
vt 0.619886 0.500000
vt 0.618717 0.500000
vt 0.541388 0.750000
vt 0.444105 0.750000
vt 0.444106 0.750000
vt 0.444106 0.803307
vt 0.541388 0.750000
vt 0.541388 0.803307
vn 0.3442 0.2555 -0.9035
vn 0.4102 0.5532 -0.7250
vn -0.1011 -0.0245 0.9946
vn 0.0000 -0.0246 0.9997
usemtl Material.002
s off
f 10/1/1 9/2/1 7/3/1
f 10/1/2 7/3/2 8/4/2
usemtl Material.008
f 1/5/3 2/6/3 3/7/3
f 6/8/4 2/6/4 1/5/4
f 1/5/3 3/7/3 4/9/3
f 6/8/4 1/5/4 5/10/4
