# Blender v2.90.1 OBJ File: 'low poly car .blend'
# www.blender.org
mtllib carMirror.mtl
o mirror_Cube.004
v -0.977736 -0.342998 -0.717796
v -1.021756 -0.182201 -0.770497
v -1.247684 -0.370170 -0.589685
v -1.291703 -0.209373 -0.642386
v 0.977736 -0.342998 -0.717796
v 1.021756 -0.182201 -0.770497
v 1.247684 -0.370170 -0.589685
v 1.291703 -0.209373 -0.642386
vt 0.625000 0.750000
vt 0.625000 0.750000
vt 0.625000 0.750000
vt 0.625000 0.750000
vt 0.625000 0.750000
vt 0.625000 0.750000
vt 0.625000 0.750000
vt 0.625000 0.750000
vn 0.3654 0.3787 0.8503
vn -0.3654 0.3787 0.8503
usemtl Material.005
s off
f 2/1/1 4/2/1 3/3/1
f 6/4/2 5/5/2 7/6/2
f 2/1/1 3/3/1 1/7/1
f 6/4/2 7/6/2 8/8/2
