# Blender v2.90.1 OBJ File: 'low poly car .blend'
# www.blender.org
mtllib carMirrorCover.mtl
o mirrorCover_Cube.019
v -1.030564 -0.306038 -0.812333
v -1.027771 -0.247289 -0.793598
v -1.060696 -0.264646 -0.860739
v -1.047581 -0.312554 -0.845037
v -1.132325 -0.284911 -0.835492
v -1.136634 -0.335551 -0.864384
v -0.977736 -0.342998 -0.717796
v -1.021756 -0.182201 -0.770497
v -1.215141 -0.297396 -0.776626
v -1.219449 -0.348036 -0.805519
v -1.247684 -0.370170 -0.589685
v -1.291703 -0.209373 -0.642386
v 1.030564 -0.306038 -0.812333
v 1.027771 -0.247289 -0.793598
v 1.060696 -0.264646 -0.860739
v 1.047581 -0.312554 -0.845037
v 1.132325 -0.284911 -0.835492
v 1.136634 -0.335551 -0.864384
v 0.977736 -0.342998 -0.717796
v 1.021756 -0.182201 -0.770497
v 1.215141 -0.297396 -0.776626
v 1.219449 -0.348036 -0.805519
v 1.247684 -0.370170 -0.589685
v 1.291703 -0.209373 -0.642386
vt 0.625000 0.750000
vt 0.625000 0.750000
vt 0.625000 0.750000
vt 0.625000 0.750000
vt 0.625000 0.750000
vt 0.625000 0.750000
vt 0.625000 0.750000
vt 0.625000 0.750000
vt 0.625000 0.750000
vt 0.625000 0.750000
vt 0.625000 0.750000
vt 0.625000 0.750000
vt 0.625000 0.750000
vt 0.625000 0.750000
vt 0.625000 0.750000
vt 0.625000 0.750000
vt 0.625000 0.750000
vt 0.625000 0.750000
vt 0.625000 0.750000
vt 0.625000 0.750000
vt 0.625000 0.750000
vt 0.625000 0.750000
vt 0.625000 0.750000
vt 0.625000 0.750000
vn 0.0551 -0.9940 -0.0947
vn -0.0642 -0.9907 -0.1199
vn 0.0642 -0.9907 -0.1199
vn -0.0551 -0.9940 -0.0947
vn 0.1737 0.4768 -0.8617
vn 0.5493 -0.5562 -0.6237
vn 0.8820 0.0898 -0.4626
vn 0.2693 0.2910 -0.9180
vn -0.9824 0.1482 -0.1133
vn -0.4434 0.7689 -0.4607
vn -0.5624 0.4453 -0.6967
vn 0.2681 -0.2811 0.9215
vn 0.6788 0.7195 0.1469
vn 0.8820 -0.0898 0.4626
vn 0.8747 -0.0981 0.4747
vn 0.8954 -0.3395 -0.2880
vn 0.4434 0.7689 -0.4607
vn 0.5624 0.4453 -0.6967
vn -0.2681 -0.2811 0.9215
vn -0.6788 0.7195 0.1469
vn -0.8820 -0.0898 0.4626
vn -0.8747 -0.0981 0.4747
vn -0.8954 -0.3395 -0.2880
vn -0.3744 0.6630 -0.6483
vn -0.1737 0.4768 -0.8617
vn -0.5493 -0.5562 -0.6237
vn -0.8820 0.0898 -0.4626
vn -0.2693 0.2910 -0.9180
vn 0.9824 0.1482 -0.1133
vn 0.3744 0.6630 -0.6483
usemtl Material
s off
f 7/1/1 11/2/1 10/3/1
f 19/4/2 18/5/2 22/6/2
f 7/1/3 10/3/3 6/7/3
f 19/4/4 22/6/4 23/8/4
usemtl Material.003
f 2/9/5 6/7/5 5/10/5
f 3/11/6 7/1/6 6/7/6
f 4/12/7 8/13/7 7/1/7
f 1/14/8 5/10/8 8/13/8
f 9/15/9 10/3/9 11/2/9
f 8/13/10 5/10/10 9/15/10
f 5/10/11 6/7/11 10/3/11
f 14/16/12 13/17/12 17/18/12
f 15/19/13 14/16/13 18/5/13
f 16/20/14 15/19/14 19/4/14
f 13/17/15 16/20/15 20/21/15
f 21/22/16 24/23/16 23/8/16
f 21/22/17 17/18/17 20/21/17
f 22/6/18 18/5/18 17/18/18
f 2/9/19 5/10/19 1/14/19
f 3/11/20 6/7/20 2/9/20
f 4/12/21 7/1/21 3/11/21
f 1/14/22 8/13/22 4/12/22
f 9/15/23 11/2/23 12/24/23
f 8/13/24 9/15/24 12/24/24
f 5/10/11 10/3/11 9/15/11
f 14/16/25 17/18/25 18/5/25
f 15/19/26 18/5/26 19/4/26
f 16/20/27 19/4/27 20/21/27
f 13/17/28 20/21/28 17/18/28
f 21/22/29 23/8/29 22/6/29
f 21/22/30 20/21/30 24/23/30
f 22/6/18 17/18/18 21/22/18
