# Blender v2.90.1 OBJ File: 'carBlend.blend'
# www.blender.org
mtllib carRightTireFrame.mtl
o rightTireFrame_Cube.008
v 0.170673 -0.014800 -0.263377
v 0.170673 0.089674 -0.242596
v 0.170673 0.178242 -0.183416
v 0.170673 0.237421 -0.094848
v 0.170673 0.258202 0.009625
v 0.170673 0.237421 0.114098
v 0.170673 0.178242 0.202666
v 0.170673 0.089674 0.261845
v 0.170673 -0.014800 0.282627
v 0.170673 -0.119273 0.261846
v 0.170673 -0.207841 0.202666
v 0.170673 -0.267020 0.114098
v 0.170673 -0.287801 0.009625
v 0.170673 -0.267020 -0.094848
v 0.170673 -0.207841 -0.183416
v 0.170673 -0.119273 -0.242596
v -0.152489 -0.014800 0.282627
v -0.152489 -0.119273 0.261846
v -0.152489 -0.207841 0.202666
v -0.152489 -0.267020 0.114098
v -0.152489 -0.287801 0.009625
v -0.152489 -0.267020 -0.094848
v -0.152489 -0.207841 -0.183416
v -0.152489 -0.119273 -0.242596
v 0.076446 -0.014800 -0.222189
v 0.076446 0.073912 -0.204543
v 0.076446 0.149117 -0.154292
v 0.076446 0.199368 -0.079086
v 0.076446 0.217014 0.009625
v 0.076446 0.199368 0.098337
v 0.076446 0.149117 0.173542
v 0.076446 0.073912 0.223793
v 0.076446 -0.014800 0.241439
v 0.076446 -0.103511 0.223793
v 0.076446 -0.178717 0.173542
v 0.076446 -0.228967 0.098337
v 0.076446 -0.246613 0.009625
v 0.076446 -0.228967 -0.079086
v 0.076446 -0.178717 -0.154292
v 0.076446 -0.103511 -0.204543
v -0.058263 -0.014800 -0.222189
v -0.058263 0.073912 -0.204543
v -0.058263 0.149117 -0.154292
v -0.058263 0.199368 -0.079086
v -0.058263 0.217014 0.009625
v -0.058263 0.199368 0.098337
v -0.058263 0.149117 0.173542
v -0.058263 0.073912 0.223793
v -0.058263 -0.014800 0.241439
v -0.058263 -0.103511 0.223793
v -0.058263 -0.178717 0.173542
v -0.058263 -0.228967 0.098337
v -0.058263 -0.246613 0.009625
v -0.058263 -0.228967 -0.079086
v -0.058263 -0.178717 -0.154292
v -0.058263 -0.103511 -0.204543
v 0.146295 0.073912 -0.204543
v 0.146295 -0.014800 -0.222189
v 0.146295 0.149117 -0.154292
v 0.146295 0.199368 -0.079086
v 0.146295 0.217014 0.009625
v 0.146295 0.199368 0.098337
v 0.146295 0.149117 0.173542
v 0.146295 0.073912 0.223793
v 0.146295 -0.014800 0.241439
v 0.146295 -0.103511 0.223793
v 0.146295 -0.178717 0.173542
v 0.146295 -0.228967 0.098337
v 0.146295 -0.246613 0.009625
v 0.146295 -0.228967 -0.079086
v 0.146295 -0.178717 -0.154292
v 0.146295 -0.103511 -0.204543
v -0.128111 0.073912 -0.204543
v -0.128111 -0.014800 -0.222189
v -0.128111 0.149117 -0.154292
v -0.128111 0.199368 -0.079086
v -0.128111 0.217014 0.009625
v -0.128111 0.199368 0.098337
v -0.128111 0.149117 0.173542
v -0.128111 0.073912 0.223793
v -0.128111 -0.014800 0.241439
v -0.128111 -0.103511 0.223793
v -0.128111 -0.178717 0.173542
v -0.128111 -0.228967 0.098337
v -0.128111 -0.246613 0.009625
v -0.128111 -0.228967 -0.079086
v -0.128111 -0.178717 -0.154292
v -0.128111 -0.103511 -0.204543
v 0.026934 -0.014800 -0.051784
v 0.026934 0.008701 -0.047110
v 0.026934 0.028623 -0.033798
v 0.026934 0.041935 -0.013875
v 0.026934 0.046610 0.009625
v 0.026934 0.041935 0.033125
v 0.026934 0.028623 0.053048
v 0.026934 0.008701 0.066360
v 0.026934 -0.014800 0.071034
v 0.026934 -0.038300 0.066360
v 0.026934 -0.058223 0.053048
v 0.026934 -0.071534 0.033125
v 0.026934 -0.076209 0.009625
v 0.026934 -0.071534 -0.013875
v 0.026934 -0.058223 -0.033798
v 0.026934 -0.038300 -0.047110
v -0.008751 -0.014800 -0.051784
v -0.008751 0.008701 -0.047110
v -0.008751 0.028623 -0.033798
v -0.008751 0.041935 -0.013875
v -0.008751 0.046610 0.009625
v -0.008751 0.041935 0.033125
v -0.008751 0.028623 0.053048
v -0.008751 0.008701 0.066360
v -0.008751 -0.014800 0.071034
v -0.008751 -0.038300 0.066360
v -0.008751 -0.058223 0.053048
v -0.008751 -0.071534 0.033125
v -0.008751 -0.076209 0.009625
v -0.008751 -0.071534 -0.013875
v -0.008751 -0.058223 -0.033798
v -0.008751 -0.038300 -0.047110
v 0.062262 -0.014800 -0.051784
v 0.062262 0.008701 -0.047110
v 0.062262 0.028623 -0.033798
v 0.062262 0.041935 -0.013875
v 0.062262 0.046610 0.009625
v 0.062262 0.041935 0.033125
v 0.062262 0.028623 0.053048
v 0.062262 0.008701 0.066360
v 0.062262 -0.014800 0.071034
v 0.062262 -0.038300 0.066360
v 0.062262 -0.058223 0.053048
v 0.062262 -0.071534 0.033125
v 0.062262 -0.076209 0.009625
v 0.062262 -0.071534 -0.013875
v 0.062262 -0.058223 -0.033798
v 0.062262 -0.038300 -0.047110
v 0.026577 -0.014800 -0.051784
v 0.026577 0.008701 -0.047110
v 0.026577 0.028623 -0.033798
v 0.026577 0.041935 -0.013875
v 0.026577 0.046610 0.009625
v 0.026577 0.041935 0.033125
v 0.026577 0.028623 0.053048
v 0.026577 0.008701 0.066360
v 0.026577 -0.014800 0.071034
v 0.026577 -0.038300 0.066360
v 0.026577 -0.058223 0.053048
v 0.026577 -0.071534 0.033125
v 0.026577 -0.076209 0.009625
v 0.026577 -0.071534 -0.013875
v 0.026577 -0.058223 -0.033798
v 0.026577 -0.038300 -0.047110
v 0.038865 0.007455 -0.044103
v 0.038865 -0.014800 -0.048530
v 0.038865 0.038929 -0.012630
v 0.038865 0.026322 -0.031497
v 0.038865 0.038929 0.031880
v 0.038865 0.043356 0.009625
v 0.038865 0.007455 0.063353
v 0.038865 0.026322 0.050747
v 0.038865 -0.037055 0.063353
v 0.038865 -0.014800 0.067780
v 0.038865 -0.068528 0.031880
v 0.038865 -0.055921 0.050747
v 0.038865 -0.068528 -0.012630
v 0.038865 -0.072955 0.009625
v 0.038865 -0.037055 -0.044103
v 0.038865 -0.055921 -0.031497
v 0.021342 0.007455 -0.044103
v 0.021342 -0.014800 -0.048530
v 0.021342 0.038929 -0.012630
v 0.021342 0.026322 -0.031497
v 0.021342 0.038929 0.031880
v 0.021342 0.043356 0.009625
v 0.021342 0.007455 0.063353
v 0.021342 0.026322 0.050747
v 0.021342 -0.037055 0.063353
v 0.021342 -0.014800 0.067780
v 0.021342 -0.068528 0.031880
v 0.021342 -0.055921 0.050747
v 0.021342 -0.068528 -0.012630
v 0.021342 -0.072955 0.009625
v 0.021342 -0.037055 -0.044103
v 0.021342 -0.055921 -0.031497
vt 0.000000 0.000000
vt 0.000000 0.000000
vt 0.000000 0.000000
vt 0.000000 0.000000
vt 0.000000 0.000000
vt 0.000000 0.000000
vt 0.000000 0.000000
vt 0.000000 0.000000
vt 0.000000 0.000000
vt 0.000000 0.000000
vt 0.000000 0.000000
vt 0.000000 0.000000
vt 0.000000 0.000000
vt 0.000000 0.000000
vt 0.000000 0.000000
vt 0.000000 0.000000
vt 0.000000 0.000000
vt 0.000000 0.000000
vt 0.000000 0.000000
vt 0.000000 0.000000
vt 0.000000 0.000000
vt 0.000000 0.000000
vt 0.000000 0.000000
vt 0.000000 0.000000
vt 0.000000 0.000000
vt 0.000000 0.000000
vt 0.000000 0.000000
vt 0.000000 0.000000
vt 0.000000 0.000000
vt 0.000000 0.000000
vt 0.000000 0.000000
vt 0.000000 0.000000
vt 0.000000 0.000000
vt 0.000000 0.000000
vt 0.000000 0.000000
vt 0.000000 0.000000
vt 0.000000 0.000000
vt 0.000000 0.000000
vt 0.000000 0.000000
vt 0.000000 0.000000
vt 0.000000 0.000000
vt 0.000000 0.000000
vt 0.000000 0.000000
vt 0.000000 0.000000
vt 0.000000 0.000000
vt 0.000000 0.000000
vt 0.000000 0.000000
vt 0.000000 0.000000
vt 0.000000 0.000000
vt 0.000000 0.000000
vt 0.000000 0.000000
vt 0.000000 0.000000
vt 0.000000 0.000000
vt 0.000000 0.000000
vt 0.000000 0.000000
vt 0.000000 0.000000
vt 0.000000 0.000000
vt 0.000000 0.000000
vt 0.000000 0.000000
vt 0.000000 0.000000
vt 0.000000 0.000000
vt 0.000000 0.000000
vt 0.000000 0.000000
vt 0.000000 0.000000
vt 0.000000 0.000000
vt 0.000000 0.000000
vt 0.000000 0.000000
vt 0.000000 0.000000
vt 0.000000 0.000000
vt 0.000000 0.000000
vt 0.000000 0.000000
vt 0.000000 0.000000
vt 0.000000 0.000000
vt 0.000000 0.000000
vt 0.000000 0.000000
vt 0.000000 0.000000
vt 0.000000 0.000000
vt 0.000000 0.000000
vt 0.000000 0.000000
vt 0.000000 0.000000
vt 0.000000 0.000000
vt 0.000000 0.000000
vt 0.000000 0.000000
vt 0.000000 0.000000
vt 0.000000 0.000000
vt 0.000000 0.000000
vt 0.000000 0.000000
vt 0.000000 0.000000
vt 0.000000 0.000000
vt 0.000000 0.000000
vt 0.000000 0.000000
vt 0.000000 0.000000
vt 0.000000 0.000000
vt 0.000000 0.000000
vt 0.000000 0.000000
vt 0.000000 0.000000
vt 0.000000 0.000000
vt 0.000000 0.000000
vt 0.000000 0.000000
vt 0.000000 0.000000
vt 0.000000 0.000000
vt 0.000000 0.000000
vt 0.000000 0.000000
vt 0.000000 0.000000
vt 0.000000 0.000000
vt 0.000000 0.000000
vt 0.000000 0.000000
vt 0.000000 0.000000
vt 0.000000 0.000000
vt 0.000000 0.000000
vt 0.000000 0.000000
vt 0.000000 0.000000
vt 0.000000 0.000000
vt 0.000000 0.000000
vt 0.000000 0.000000
vt 0.000000 0.000000
vt 0.000000 0.000000
vt 0.000000 0.000000
vt 0.000000 0.000000
vt 0.000000 0.000000
vt 0.000000 0.000000
vt 0.000000 0.000000
vt 0.000000 0.000000
vt 0.000000 0.000000
vt 0.000000 0.000000
vt 0.000000 0.000000
vt 0.000000 0.000000
vt 0.000000 0.000000
vt 0.000000 0.000000
vt 0.000000 0.000000
vt 0.000000 0.000000
vt 0.000000 0.000000
vt 0.000000 0.000000
vt 0.000000 0.000000
vt 0.000000 0.000000
vt 0.000000 0.000000
vt 0.000000 0.000000
vt 0.000000 0.000000
vt 0.000000 0.000000
vt 0.000000 0.000000
vt 0.000000 0.000000
vt 0.000000 0.000000
vt 0.000000 0.000000
vt 0.000000 0.000000
vt 0.000000 0.000000
vt 0.000000 0.000000
vt 0.000000 0.000000
vt 0.000000 0.000000
vt 0.000000 0.000000
vt 0.000000 0.000000
vt 0.000000 0.000000
vt 0.000000 0.000000
vt 0.000000 0.000000
vt 0.000000 0.000000
vt 0.000000 0.000000
vt 0.000000 0.000000
vt 0.000000 0.000000
vt 0.000000 0.000000
vt 0.000000 0.000000
vt 0.000000 0.000000
vt 0.000000 0.000000
vt 0.000000 0.000000
vt 0.000000 0.000000
vt 0.000000 0.000000
vt 0.000000 0.000000
vt 0.000000 0.000000
vt 0.000000 0.000000
vt 0.000000 0.000000
vt 0.000000 0.000000
vt 0.000000 0.000000
vt 0.000000 0.000000
vt 0.000000 0.000000
vt 0.000000 0.000000
vt 0.000000 0.000000
vt 0.000000 0.000000
vt 0.000000 0.000000
vt 0.000000 0.000000
vt 0.000000 0.000000
vt 0.000000 0.000000
vt 0.000000 0.000000
vt 0.000000 0.000000
vt 0.000000 0.000000
vt 0.000000 0.000000
vt 0.000000 0.000000
vn -0.8562 0.2870 0.4296
vn -0.8562 0.4296 0.2870
vn -0.8562 0.5067 0.1008
vn -0.9588 0.1578 -0.2362
vn -0.9588 0.0554 -0.2786
vn -0.9588 -0.1578 -0.2362
vn -0.9588 -0.2362 -0.1578
vn -0.9588 -0.2786 -0.0554
vn -0.9588 -0.2786 0.0554
vn -0.9588 -0.2362 0.1578
vn -0.9588 0.0554 0.2786
vn -0.8562 0.1008 -0.5067
vn -0.8562 0.2870 -0.4296
vn -0.8562 0.4296 -0.2870
vn -0.8562 0.5067 -0.1008
vn -0.9514 0.1710 0.2559
vn 0.0000 -0.8315 0.5556
vn 0.0000 -0.9808 0.1951
vn 0.0000 -0.9808 -0.1951
vn 0.0000 -0.8315 -0.5556
vn 0.0000 -0.5556 -0.8315
vn 0.0000 0.1951 -0.9808
vn 0.0000 0.5556 -0.8315
vn 0.0000 0.8315 -0.5556
vn 0.0000 0.9808 -0.1951
vn 0.0000 0.9808 0.1951
vn 0.0000 0.8315 0.5556
vn 0.0000 0.5556 0.8315
vn 0.0000 0.1951 0.9808
vn -0.9588 0.2362 -0.1578
vn -0.9588 0.2786 -0.0554
vn -0.9588 0.2786 0.0554
vn -0.9588 0.2362 0.1578
vn -0.9588 0.1578 0.2362
vn 0.0000 -0.1951 0.9808
vn -0.9514 -0.0601 0.3019
vn -0.9514 -0.2559 0.1710
vn -0.9514 -0.3019 -0.0601
vn -0.9514 -0.1710 -0.2559
vn -0.9514 0.2559 -0.1710
vn -0.9514 0.3019 0.0601
vn 0.8562 -0.2870 -0.4296
vn 0.8562 -0.4296 -0.2870
vn 0.8562 -0.5067 -0.1008
vn 0.8562 -0.5067 0.1008
vn 0.8562 -0.4296 0.2870
vn 0.8562 0.1008 0.5067
vn 0.8562 -0.2870 0.4296
vn 0.9588 0.2786 -0.0554
vn 0.9588 0.2362 -0.1578
vn 0.9588 0.1578 -0.2362
vn 0.9588 0.0554 -0.2786
vn 0.9588 -0.0554 -0.2786
vn 0.9588 -0.1578 -0.2362
vn 0.9588 -0.2362 -0.1578
vn 0.8562 -0.1008 -0.5067
vn 0.8562 0.1008 -0.5067
vn 0.8562 0.2870 -0.4296
vn 0.8562 0.4296 -0.2870
vn 0.8562 0.5067 -0.1008
vn 0.8562 0.5067 0.1008
vn 0.8562 0.4296 0.2870
vn 0.8562 -0.1008 0.5067
vn 0.8562 0.2870 0.4296
vn 0.8458 -0.5232 -0.1041
vn 0.0000 -0.5556 0.8315
vn 0.0000 0.9239 -0.3827
vn 0.0000 0.9239 0.3827
vn 0.0000 -0.1951 -0.9808
vn 0.0000 -0.7071 0.7071
vn 0.0000 -1.0000 0.0000
vn 0.8458 -0.4436 0.2964
vn 0.0000 0.3827 -0.9239
vn 0.9588 0.2786 0.0554
vn 0.9588 0.2362 0.1578
vn 0.9588 -0.0554 0.2786
vn 0.9588 0.1578 0.2362
vn 0.9588 -0.1578 0.2362
vn 0.9588 0.0554 0.2786
vn 0.9588 -0.2362 0.1578
vn -0.9588 -0.0554 0.2786
vn 0.9588 -0.2786 0.0554
vn -0.9588 -0.1578 0.2362
vn 0.9588 -0.2786 -0.0554
vn 1.0000 -0.0000 0.0000
vn 0.0000 -0.7071 -0.7071
vn 0.0000 0.3827 0.9239
vn 0.8458 -0.2964 -0.4436
vn 0.0000 0.0000 -1.0000
vn 0.0000 -0.3827 0.9239
vn 0.8458 0.1041 -0.5232
vn 0.0000 0.7071 -0.7071
vn 0.0000 -0.9239 0.3827
vn 0.8458 0.4436 -0.2964
vn 0.0000 1.0000 0.0000
vn -0.9514 0.0601 -0.3019
vn 0.0000 -0.9239 -0.3827
vn 0.8458 0.5232 0.1041
vn 0.0000 0.7071 0.7071
vn 0.0000 -0.3827 -0.9239
vn 0.8458 -0.1041 0.5232
vn 0.8458 0.2964 0.4436
vn 0.0000 0.0000 1.0000
vn 0.8562 -0.2871 -0.4296
usemtl Material
s off
f 24/1/1 23/2/1 87/3/1
f 22/4/2 86/5/2 87/3/2
f 22/4/3 21/6/3 85/7/3
f 51/8/4 50/9/4 114/10/4
f 49/11/5 113/12/5 114/10/5
f 47/13/6 111/14/6 112/15/6
f 47/13/7 46/16/7 110/17/7
f 45/18/8 109/19/8 110/17/8
f 45/18/9 44/20/9 108/21/9
f 44/20/10 43/22/10 107/23/10
f 41/24/11 56/25/11 120/26/11
f 18/27/12 17/28/12 81/29/12
f 19/30/13 18/27/13 82/31/13
f 20/32/14 19/30/14 83/33/14
f 20/32/15 84/34/15 85/7/15
f 31/35/16 176/36/16 175/37/16
f 43/22/17 44/20/17 76/38/17
f 44/20/18 45/18/18 77/39/18
f 45/18/19 46/16/19 78/40/19
f 46/16/20 47/13/20 79/41/20
f 47/13/21 48/42/21 80/43/21
f 49/11/22 50/9/22 82/31/22
f 50/9/23 51/8/23 83/33/23
f 51/8/24 52/44/24 84/34/24
f 52/44/25 53/45/25 85/7/25
f 53/45/26 54/46/26 86/5/26
f 54/46/27 55/47/27 87/3/27
f 55/47/28 56/25/28 88/48/28
f 56/25/29 41/24/29 74/49/29
f 51/8/30 115/50/30 116/51/30
f 53/45/31 52/44/31 116/51/31
f 54/46/32 53/45/32 117/52/32
f 54/46/33 118/53/33 119/54/33
f 55/47/34 119/54/34 120/26/34
f 169/55/35 170/56/35 154/57/35
f 171/58/17 172/59/17 156/60/17
f 173/61/19 174/62/19 158/63/19
f 175/37/21 176/36/21 160/64/21
f 177/65/22 178/66/22 162/67/22
f 179/68/24 180/69/24 164/70/24
f 181/71/26 182/72/26 166/73/26
f 183/74/28 184/75/28 168/76/28
f 34/77/36 33/78/36 178/66/36
f 36/79/37 35/80/37 180/69/37
f 38/81/38 37/82/38 182/72/38
f 39/83/39 184/75/39 183/74/39
f 27/84/40 172/59/40 171/58/40
f 29/85/41 174/62/41 173/61/41
f 24/1/1 87/3/1 88/48/1
f 22/4/2 87/3/2 23/2/2
f 22/4/3 85/7/3 86/5/3
f 51/8/4 114/10/4 115/50/4
f 49/11/5 114/10/5 50/9/5
f 47/13/6 112/15/6 48/42/6
f 47/13/7 110/17/7 111/14/7
f 45/18/8 110/17/8 46/16/8
f 45/18/9 108/21/9 109/19/9
f 44/20/10 107/23/10 108/21/10
f 41/24/11 120/26/11 105/86/11
f 18/27/12 81/29/12 82/31/12
f 19/30/13 82/31/13 83/33/13
f 20/32/14 83/33/14 84/34/14
f 20/32/15 85/7/15 21/6/15
f 31/35/16 175/37/16 32/87/16
f 43/22/17 76/38/17 75/88/17
f 44/20/18 77/39/18 76/38/18
f 45/18/19 78/40/19 77/39/19
f 46/16/20 79/41/20 78/40/20
f 47/13/21 80/43/21 79/41/21
f 49/11/22 82/31/22 81/29/22
f 50/9/23 83/33/23 82/31/23
f 51/8/24 84/34/24 83/33/24
f 52/44/25 85/7/25 84/34/25
f 53/45/26 86/5/26 85/7/26
f 54/46/27 87/3/27 86/5/27
f 55/47/28 88/48/28 87/3/28
f 56/25/29 74/49/29 88/48/29
f 51/8/30 116/51/30 52/44/30
f 53/45/31 116/51/31 117/52/31
f 54/46/32 117/52/32 118/53/32
f 54/46/33 119/54/33 55/47/33
f 55/47/34 120/26/34 56/25/34
f 169/55/35 154/57/35 153/89/35
f 171/58/17 156/60/17 155/90/17
f 173/61/19 158/63/19 157/91/19
f 175/37/21 160/64/21 159/92/21
f 177/65/22 162/67/22 161/93/22
f 179/68/24 164/70/24 163/94/24
f 181/71/26 166/73/26 165/95/26
f 183/74/28 168/76/28 167/96/28
f 34/77/36 178/66/36 177/65/36
f 36/79/37 180/69/37 179/68/37
f 38/81/38 182/72/38 181/71/38
f 39/83/39 183/74/39 40/97/39
f 27/84/40 171/58/40 28/98/40
f 29/85/41 173/61/41 30/99/41
usemtl Material.004
f 8/100/42 64/101/42 63/102/42
f 7/103/43 63/102/43 62/104/43
f 6/105/44 62/104/44 61/106/44
f 4/107/45 5/108/45 61/106/45
f 3/109/46 4/107/46 60/110/46
f 16/111/47 1/112/47 58/113/47
f 3/109/48 59/114/48 57/115/48
f 36/79/49 37/82/49 101/116/49
f 35/80/50 36/79/50 100/117/50
f 35/80/51 99/118/51 98/119/51
f 33/78/52 34/77/52 98/119/52
f 32/87/53 33/78/53 97/120/53
f 31/35/54 32/87/54 96/121/54
f 31/35/55 95/122/55 94/123/55
f 8/100/56 9/124/56 65/125/56
f 9/124/57 10/126/57 66/127/57
f 11/128/58 67/129/58 66/127/58
f 11/128/59 12/130/59 68/131/59
f 12/130/60 13/132/60 69/133/60
f 14/134/61 70/135/61 69/133/61
f 14/134/62 15/136/62 71/137/62
f 2/138/63 57/115/63 58/113/63
f 16/111/64 72/139/64 71/137/64
f 61/106/65 62/104/65 157/91/65
f 27/84/66 26/140/66 57/115/66
f 40/97/67 183/74/67 167/96/67
f 29/85/18 28/98/18 60/110/18
f 26/140/68 169/55/68 153/89/68
f 31/35/20 30/99/20 62/104/20
f 33/78/69 32/87/69 64/101/69
f 39/83/70 71/137/70 168/76/70
f 35/80/23 34/77/23 66/127/23
f 25/141/71 58/113/71 154/57/71
f 37/82/25 36/79/25 68/131/25
f 59/114/72 60/110/72 155/90/72
f 39/83/27 38/81/27 70/135/27
f 38/81/73 181/71/73 165/95/73
f 25/141/29 40/97/29 72/139/29
f 41/24/35 42/142/35 73/143/35
f 42/142/66 43/22/66 75/88/66
f 101/116/19 102/144/19 134/145/19
f 115/50/23 114/10/23 146/146/23
f 100/117/18 101/116/18 133/147/18
f 114/10/22 113/12/22 145/148/22
f 99/118/17 100/117/17 132/149/17
f 113/12/69 112/15/69 144/150/69
f 98/119/66 99/118/66 131/151/66
f 112/15/21 111/14/21 143/152/21
f 97/120/35 98/119/35 130/153/35
f 111/14/20 110/17/20 142/154/20
f 96/121/29 97/120/29 129/155/29
f 110/17/19 109/19/19 141/156/19
f 95/122/28 96/121/28 128/157/28
f 109/19/18 108/21/18 140/158/18
f 94/123/27 95/122/27 127/159/27
f 108/21/17 107/23/17 139/160/17
f 38/81/74 102/144/74 101/116/74
f 38/81/75 39/83/75 103/161/75
f 26/140/76 90/162/76 89/163/76
f 39/83/77 40/97/77 104/164/77
f 26/140/78 27/84/78 91/165/78
f 25/141/79 89/163/79 104/164/79
f 28/98/80 92/166/80 91/165/80
f 42/142/81 41/24/81 105/86/81
f 28/98/82 29/85/82 93/167/82
f 42/142/83 106/168/83 107/23/83
f 29/85/84 30/99/84 94/123/84
f 131/151/24 132/149/24 148/169/24
f 124/170/18 125/171/18 141/156/18
f 132/149/25 133/147/25 149/172/25
f 125/171/19 126/173/19 142/154/19
f 133/147/26 134/145/26 150/174/26
f 126/173/20 127/159/20 143/152/20
f 134/145/27 135/175/27 151/176/27
f 127/159/21 128/157/21 144/150/21
f 135/175/28 136/177/28 152/178/28
f 128/157/69 129/155/69 145/148/69
f 121/179/35 122/180/35 138/181/35
f 136/177/29 121/179/29 137/182/29
f 129/155/22 130/153/22 146/146/22
f 122/180/66 123/183/66 139/160/66
f 130/153/23 131/151/23 147/184/23
f 123/183/17 124/170/17 140/158/17
f 116/51/24 115/50/24 147/184/24
f 102/144/20 103/161/20 135/175/20
f 89/163/22 90/162/22 122/180/22
f 117/52/25 116/51/25 148/169/25
f 103/161/21 104/164/21 136/177/21
f 90/162/23 91/165/23 123/183/23
f 118/53/26 117/52/26 149/172/26
f 104/164/69 89/163/69 121/179/69
f 91/165/24 92/166/24 124/170/24
f 119/54/27 118/53/27 150/174/27
f 106/168/35 105/86/35 137/182/35
f 92/166/25 93/167/25 125/171/25
f 120/26/28 119/54/28 151/176/28
f 107/23/66 106/168/66 138/181/66
f 93/167/26 94/123/26 126/173/26
f 105/86/29 120/26/29 152/178/29
f 132/149/85 124/170/85 128/157/85
f 27/84/86 59/114/86 156/60/86
f 28/98/87 171/58/87 155/90/87
f 63/102/88 64/101/88 159/92/88
f 29/85/89 61/106/89 158/63/89
f 30/99/90 173/61/90 157/91/90
f 66/127/91 161/93/91 162/67/91
f 31/35/92 63/102/92 160/64/92
f 32/87/93 175/37/93 159/92/93
f 67/129/94 68/131/94 163/94/94
f 33/78/95 65/125/95 162/67/95
f 26/140/96 25/141/96 170/56/96
f 34/77/97 177/65/97 161/93/97
f 69/133/98 70/135/98 165/95/98
f 35/80/99 67/129/99 164/70/99
f 36/79/100 179/68/100 163/94/100
f 57/115/101 153/89/101 154/57/101
f 72/139/102 167/96/102 168/76/102
f 37/82/103 69/133/103 166/73/103
f 8/100/104 63/102/104 7/103/104
f 7/103/43 62/104/43 6/105/43
f 6/105/44 61/106/44 5/108/44
f 4/107/45 61/106/45 60/110/45
f 3/109/46 60/110/46 59/114/46
f 16/111/47 58/113/47 72/139/47
f 3/109/48 57/115/48 2/138/48
f 36/79/49 101/116/49 100/117/49
f 35/80/50 100/117/50 99/118/50
f 35/80/51 98/119/51 34/77/51
f 33/78/52 98/119/52 97/120/52
f 32/87/53 97/120/53 96/121/53
f 31/35/54 96/121/54 95/122/54
f 31/35/55 94/123/55 30/99/55
f 8/100/56 65/125/56 64/101/56
f 9/124/57 66/127/57 65/125/57
f 11/128/58 66/127/58 10/126/58
f 11/128/59 68/131/59 67/129/59
f 12/130/60 69/133/60 68/131/60
f 14/134/61 69/133/61 13/132/61
f 14/134/62 71/137/62 70/135/62
f 2/138/63 58/113/63 1/112/63
f 16/111/64 71/137/64 15/136/64
f 61/106/65 157/91/65 158/63/65
f 27/84/66 57/115/66 59/114/66
f 40/97/67 167/96/67 72/139/67
f 29/85/18 60/110/18 61/106/18
f 26/140/68 153/89/68 57/115/68
f 31/35/20 62/104/20 63/102/20
f 33/78/69 64/101/69 65/125/69
f 39/83/70 168/76/70 184/75/70
f 35/80/23 66/127/23 67/129/23
f 25/141/71 154/57/71 170/56/71
f 37/82/25 68/131/25 69/133/25
f 59/114/72 155/90/72 156/60/72
f 39/83/27 70/135/27 71/137/27
f 38/81/73 165/95/73 70/135/73
f 25/141/29 72/139/29 58/113/29
f 41/24/35 73/143/35 74/49/35
f 42/142/66 75/88/66 73/143/66
f 101/116/19 134/145/19 133/147/19
f 115/50/23 146/146/23 147/184/23
f 100/117/18 133/147/18 132/149/18
f 114/10/22 145/148/22 146/146/22
f 99/118/17 132/149/17 131/151/17
f 113/12/69 144/150/69 145/148/69
f 98/119/66 131/151/66 130/153/66
f 112/15/21 143/152/21 144/150/21
f 97/120/35 130/153/35 129/155/35
f 111/14/20 142/154/20 143/152/20
f 96/121/29 129/155/29 128/157/29
f 110/17/19 141/156/19 142/154/19
f 95/122/28 128/157/28 127/159/28
f 109/19/18 140/158/18 141/156/18
f 94/123/27 127/159/27 126/173/27
f 108/21/17 139/160/17 140/158/17
f 38/81/74 101/116/74 37/82/74
f 38/81/75 103/161/75 102/144/75
f 26/140/76 89/163/76 25/141/76
f 39/83/77 104/164/77 103/161/77
f 26/140/78 91/165/78 90/162/78
f 25/141/79 104/164/79 40/97/79
f 28/98/80 91/165/80 27/84/80
f 42/142/81 105/86/81 106/168/81
f 28/98/82 93/167/82 92/166/82
f 42/142/83 107/23/83 43/22/83
f 29/85/84 94/123/84 93/167/84
f 131/151/24 148/169/24 147/184/24
f 124/170/18 141/156/18 140/158/18
f 132/149/25 149/172/25 148/169/25
f 125/171/19 142/154/19 141/156/19
f 133/147/26 150/174/26 149/172/26
f 126/173/20 143/152/20 142/154/20
f 134/145/27 151/176/27 150/174/27
f 127/159/21 144/150/21 143/152/21
f 135/175/28 152/178/28 151/176/28
f 128/157/69 145/148/69 144/150/69
f 121/179/35 138/181/35 137/182/35
f 136/177/29 137/182/29 152/178/29
f 129/155/22 146/146/22 145/148/22
f 122/180/66 139/160/66 138/181/66
f 130/153/23 147/184/23 146/146/23
f 123/183/17 140/158/17 139/160/17
f 116/51/24 147/184/24 148/169/24
f 102/144/20 135/175/20 134/145/20
f 89/163/22 122/180/22 121/179/22
f 117/52/25 148/169/25 149/172/25
f 103/161/21 136/177/21 135/175/21
f 90/162/23 123/183/23 122/180/23
f 118/53/26 149/172/26 150/174/26
f 104/164/69 121/179/69 136/177/69
f 91/165/24 124/170/24 123/183/24
f 119/54/27 150/174/27 151/176/27
f 106/168/35 137/182/35 138/181/35
f 92/166/25 125/171/25 124/170/25
f 120/26/28 151/176/28 152/178/28
f 107/23/66 138/181/66 139/160/66
f 93/167/26 126/173/26 125/171/26
f 105/86/29 152/178/29 137/182/29
f 124/170/85 122/180/85 123/183/85
f 122/180/85 136/177/85 121/179/85
f 136/177/85 132/149/85 135/175/85
f 135/175/85 132/149/85 134/145/85
f 134/145/85 132/149/85 133/147/85
f 132/149/85 128/157/85 131/151/85
f 131/151/85 128/157/85 130/153/85
f 130/153/85 128/157/85 129/155/85
f 128/157/85 124/170/85 127/159/85
f 127/159/85 124/170/85 126/173/85
f 126/173/85 124/170/85 125/171/85
f 124/170/85 132/149/85 122/180/85
f 122/180/85 132/149/85 136/177/85
f 27/84/86 156/60/86 172/59/86
f 28/98/87 155/90/87 60/110/87
f 63/102/88 159/92/88 160/64/88
f 29/85/89 158/63/89 174/62/89
f 30/99/90 157/91/90 62/104/90
f 66/127/91 162/67/91 65/125/91
f 31/35/92 160/64/92 176/36/92
f 32/87/93 159/92/93 64/101/93
f 67/129/94 163/94/94 164/70/94
f 33/78/95 162/67/95 178/66/95
f 26/140/96 170/56/96 169/55/96
f 34/77/97 161/93/97 66/127/97
f 69/133/98 165/95/98 166/73/98
f 35/80/99 164/70/99 180/69/99
f 36/79/100 163/94/100 68/131/100
f 57/115/101 154/57/101 58/113/101
f 72/139/102 168/76/102 71/137/102
f 37/82/103 166/73/103 182/72/103
