# Blender v2.90.1 OBJ File: 'carBlend.blend'
# www.blender.org
mtllib carRightTire.mtl
o rightTire_Cube.002
v 0.155906 -0.015946 -0.337866
v 0.155906 0.118043 -0.311214
v 0.155906 0.231633 -0.235316
v 0.155906 0.307531 -0.121726
v 0.155906 0.334183 0.012263
v 0.155906 0.307531 0.146252
v 0.155906 0.231633 0.259842
v 0.155906 0.118043 0.335741
v 0.155906 -0.015946 0.362393
v 0.155906 -0.149935 0.335741
v 0.155906 -0.263525 0.259842
v 0.155906 -0.339424 0.146252
v 0.155906 -0.366076 0.012263
v 0.155906 -0.339424 -0.121726
v 0.155906 -0.263525 -0.235316
v 0.155906 -0.149935 -0.311214
v -0.137626 -0.015946 -0.337866
v -0.137626 0.118043 -0.311214
v -0.137626 0.231633 -0.235316
v -0.137626 0.307531 -0.121726
v -0.137626 0.334183 0.012263
v -0.137626 0.307531 0.146252
v -0.137626 0.231633 0.259842
v -0.137626 0.118043 0.335741
v -0.137626 -0.015946 0.362393
v -0.137626 -0.149935 0.335741
v -0.137626 -0.263525 0.259842
v -0.137626 -0.339424 0.146252
v -0.137626 -0.366076 0.012263
v -0.137626 -0.339424 -0.121726
v -0.137626 -0.263525 -0.235316
v -0.137626 -0.149935 -0.311214
v 0.170721 -0.015946 -0.260738
v 0.170721 0.088527 -0.239957
v 0.170721 0.177095 -0.180778
v 0.170721 0.236274 -0.092210
v 0.170721 0.257055 0.012263
v 0.170721 0.236274 0.116737
v 0.170721 0.177095 0.205304
v 0.170721 0.088527 0.264484
v 0.170721 -0.015946 0.285265
v 0.170721 -0.120419 0.264484
v 0.170721 -0.208987 0.205305
v 0.170721 -0.268167 0.116737
v 0.170721 -0.288948 0.012263
v 0.170721 -0.268167 -0.092210
v 0.170721 -0.208987 -0.180778
v 0.170721 -0.120419 -0.239957
v -0.149639 -0.163747 0.388393
v -0.149639 0.296833 0.283947
v -0.149639 -0.163747 -0.004070
v -0.149639 -0.163747 -0.406027
v -0.149639 0.394949 -0.004070
v -0.149639 0.290167 -0.287147
v -0.149639 0.020670 0.391558
v -0.149639 0.020670 -0.004070
v -0.149639 0.020963 -0.399225
v -0.137626 -0.015946 -0.337866
v -0.137626 0.118043 -0.311214
v -0.137626 0.231633 -0.235316
v -0.137626 0.307531 -0.121726
v -0.137626 0.334183 0.012263
v -0.137626 0.307531 0.146252
v -0.137626 0.231633 0.259842
v -0.137626 0.118043 0.335741
v -0.137626 -0.015946 0.362393
v -0.137626 -0.149935 0.335741
v -0.137626 -0.263525 0.259842
v -0.137626 -0.339424 0.146252
v -0.137626 -0.366076 0.012263
v -0.137626 -0.339424 -0.121726
v -0.137626 -0.263525 -0.235316
v -0.137626 -0.149935 -0.311214
v -0.152441 -0.015946 -0.260738
v -0.152441 0.088527 -0.239957
v -0.152441 0.177095 -0.180778
v -0.152441 0.236274 -0.092210
v -0.152441 0.257055 0.012263
v -0.152441 0.236274 0.116737
v -0.152441 0.177095 0.205304
v -0.152441 0.088527 0.264484
v -0.152441 -0.015946 0.285265
v -0.152441 -0.120419 0.264484
v -0.152441 -0.208987 0.205305
v -0.152441 -0.268167 0.116737
v -0.152441 -0.288948 0.012263
v -0.152441 -0.268167 -0.092210
v -0.152441 -0.208987 -0.180778
v -0.152441 -0.120419 -0.239957
v -0.128063 0.072765 -0.201905
v -0.128063 -0.015946 -0.219551
v -0.128063 0.147971 -0.151654
v -0.128063 0.198222 -0.076448
v -0.128063 0.215868 0.012263
v -0.128063 0.198222 0.100975
v -0.128063 0.147971 0.176180
v -0.128063 0.072765 0.226431
v -0.128063 -0.015946 0.244077
v -0.128063 -0.104657 -0.201905
v -0.149639 -0.163747 0.388393
v -0.149639 0.296833 0.283947
v -0.149639 0.394949 -0.004070
v -0.149639 0.290167 -0.287147
v -0.149639 0.020670 0.391558
v -0.149639 0.020963 -0.399225
v 0.141615 0.019942 0.421138
v 0.080702 -0.164475 0.417973
v 0.141615 0.296105 0.313528
v 0.141615 0.020235 -0.369644
v 0.141615 0.394221 0.025511
v 0.141615 0.289440 -0.257566
v 0.155906 0.118043 -0.311214
v -0.137626 0.118043 -0.311214
v 0.170721 0.088527 -0.239957
v -0.152441 0.088527 -0.239957
v 0.076494 0.072765 -0.201905
v -0.058215 0.072765 -0.201905
v -0.058215 0.072765 0.226431
v -0.058215 -0.015946 0.244077
v 0.146343 0.072765 -0.201905
v -0.128063 0.072765 -0.201905
v -0.128063 0.072765 0.226431
v -0.128063 -0.015946 0.244077
v 0.026983 0.007554 -0.044472
v -0.008703 0.007554 -0.044472
v -0.008703 0.007554 0.068998
v -0.008703 -0.015946 0.073673
v 0.062310 0.007554 -0.044472
v 0.026625 0.007554 -0.044472
vt 0.000000 0.000000
vt 0.000000 0.000000
vt 0.000000 0.000000
vt 0.000000 0.000000
vt 0.000000 0.000000
vt 0.000000 0.000000
vt 0.000000 0.000000
vt 0.000000 0.000000
vt 0.000000 0.000000
vt 0.000000 0.000000
vt 0.000000 0.000000
vt 0.000000 0.000000
vt 0.000000 0.000000
vt 0.000000 0.000000
vt 0.000000 0.000000
vt 0.000000 0.000000
vt 0.000000 0.000000
vt 0.000000 0.000000
vt 0.000000 0.000000
vt 0.000000 0.000000
vt 0.000000 0.000000
vt 0.000000 0.000000
vt 0.000000 0.000000
vt 0.000000 0.000000
vt 0.000000 0.000000
vt 0.000000 0.000000
vt 0.000000 0.000000
vt 0.000000 0.000000
vt 0.000000 0.000000
vt 0.000000 0.000000
vt 0.000000 0.000000
vt 0.000000 0.000000
vt 0.000000 0.000000
vt 0.000000 0.000000
vt 0.000000 0.000000
vt 0.000000 0.000000
vt 0.000000 0.000000
vt 0.000000 0.000000
vt 0.000000 0.000000
vt 0.000000 0.000000
vt 0.000000 0.000000
vt 0.000000 0.000000
vt 0.000000 0.000000
vt 0.000000 0.000000
vt 0.000000 0.000000
vt 0.000000 0.000000
vt 0.000000 0.000000
vt 0.000000 0.000000
vt 0.000000 0.000000
vt 0.000000 0.000000
vt 0.000000 0.000000
vt 0.000000 0.000000
vt 0.000000 0.000000
vt 0.000000 0.000000
vt 0.000000 0.000000
vt 0.000000 0.000000
vt 0.000000 0.000000
vt 0.000000 0.000000
vt 0.000000 0.000000
vt 0.000000 0.000000
vt 0.000000 0.000000
vt 0.000000 0.000000
vt 0.000000 0.000000
vt 0.000000 0.000000
vt 0.000000 0.000000
vt 0.000000 0.000000
vt 0.000000 0.000000
vt 0.000000 0.000000
vt 0.000000 0.000000
vt 0.000000 0.000000
vt 0.000000 0.000000
vt 0.000000 0.000000
vt 0.000000 0.000000
vt 0.000000 0.000000
vt 0.432463 0.500000
vt 0.432463 0.500000
vt 0.375000 0.500000
vt 0.432463 0.500000
vt 0.375000 0.500000
vt 0.553030 0.500000
vt 0.553030 0.500000
vt 0.553030 0.500000
vt 0.000000 0.000000
vt 0.000000 0.000000
vt 0.000000 0.000000
vt 0.000000 0.000000
vt 0.000000 0.000000
vt 0.000000 0.000000
vt 0.000000 0.000000
vt 0.000000 0.000000
vt 0.000000 0.000000
vt 0.000000 0.000000
vt 0.000000 0.000000
vt 0.000000 0.000000
vt 0.000000 0.000000
vt 0.000000 0.000000
vt 0.000000 0.000000
vt 0.000000 0.000000
vt 0.000000 0.000000
vt 0.000000 0.000000
vt 0.000000 0.000000
vt 0.000000 0.000000
vt 0.000000 0.000000
vt 0.000000 0.000000
vt 0.553030 0.500000
vt 0.553030 0.500000
vt 0.553030 0.500000
vt 0.553030 0.500000
vt 0.553030 0.500000
vt 0.432463 0.500000
vt 0.553030 0.500000
vt 0.432463 0.500000
vt 0.432463 0.500000
vt 0.375000 0.500000
vt 0.375000 0.500000
vt 0.375000 0.500000
vt 0.432463 0.500000
vt 0.000000 0.000000
vt 0.000000 0.000000
vt 0.000000 0.000000
vt 0.000000 0.000000
vt 0.000000 0.000000
vt 0.000000 0.000000
vt 0.000000 0.000000
vt 0.000000 0.000000
vt 0.000000 0.000000
vt 0.000000 0.000000
vt 0.000000 0.000000
vt 0.000000 0.000000
vn -0.8562 -0.5067 -0.1008
vn -0.8562 -0.5067 0.1008
vn -0.8562 -0.4296 0.2870
vn -0.8562 0.1008 0.5067
vn -0.8562 -0.2870 0.4296
vn -0.8562 -0.1008 0.5067
vn -0.8562 -0.4296 -0.2870
vn -0.8562 -0.2870 -0.4296
vn -0.8562 -0.1008 -0.5067
vn -0.9588 -0.0554 -0.2786
vn 0.0000 -0.1951 -0.9808
vn 0.0000 -0.8315 0.5556
vn 0.0000 0.9808 -0.1951
vn 0.0000 -0.9808 0.1951
vn 0.0000 0.9808 0.1951
vn 0.0000 -0.9808 -0.1951
vn 0.0000 0.8315 0.5556
vn 0.0000 -0.8315 -0.5556
vn 0.0000 0.5556 0.8315
vn 0.0000 -0.5556 -0.8315
vn 0.0000 0.1951 0.9808
vn 0.0000 0.1951 -0.9808
vn 0.0000 -0.1951 0.9808
vn 0.0000 0.5556 -0.8315
vn 0.0000 -0.5556 0.8315
vn 0.0000 0.8315 -0.5556
vn 0.9814 -0.1068 0.1598
vn 0.9814 -0.1598 0.1068
vn 0.9814 -0.1885 0.0375
vn 0.9814 -0.1885 -0.0375
vn 0.9814 -0.1598 -0.1068
vn 0.9814 0.0375 -0.1885
vn 0.9814 -0.1068 -0.1598
vn 0.9814 0.1068 -0.1598
vn 0.9814 -0.0375 -0.1885
vn 0.9814 0.1598 -0.1068
vn 0.9814 0.1885 -0.0375
vn 0.9814 0.1885 0.0375
vn 0.9814 0.1598 0.1068
vn 0.9814 0.1068 0.1598
vn 0.9814 0.0375 0.1885
vn 0.9814 -0.0375 0.1885
vn 1.0000 -0.0000 0.0000
vn -0.9814 0.1068 0.1598
vn -0.9814 0.0375 0.1885
vn -0.9814 -0.0375 0.1885
vn -0.9814 -0.1068 0.1598
vn -0.9814 -0.1598 0.1068
vn -0.9814 -0.1885 0.0375
vn -0.9814 -0.1885 -0.0375
vn -0.9814 -0.1598 -0.1068
vn -0.9814 0.0375 -0.1885
vn -0.9814 -0.1068 -0.1598
vn -0.9814 0.1068 -0.1598
vn -0.9814 -0.0375 -0.1885
vn -0.9814 0.1598 -0.1068
vn -0.9814 0.1885 -0.0375
vn -0.9814 0.1885 0.0375
vn -0.9814 0.1598 0.1068
vn 0.0304 -0.9461 -0.3223
vn -0.0376 -0.9372 0.3469
vn 0.0933 -0.3615 -0.9277
vn -0.0943 -0.3826 0.9191
vn 0.1274 0.0170 -0.9917
vn 0.1010 -0.0163 -0.9948
vn 0.0000 -0.9239 -0.3827
vn 0.0000 0.0000 1.0000
usemtl Material
s off
f 79/1/1 78/2/1 94/3/1
f 77/4/2 93/5/2 94/3/2
f 76/6/3 92/7/3 93/5/3
f 74/8/4 89/9/4 99/10/4
f 76/6/5 75/11/5 90/12/5
f 75/11/6 74/8/6 91/13/6
f 80/14/7 79/1/7 95/15/7
f 81/16/8 80/14/8 96/17/8
f 81/16/9 97/18/9 98/19/9
f 118/20/10 126/21/10 127/22/10
f 118/20/11 119/23/11 123/24/11
f 79/1/1 94/3/1 95/15/1
f 77/4/2 94/3/2 78/2/2
f 76/6/3 93/5/3 77/4/3
f 74/8/4 99/10/4 91/13/4
f 76/6/5 90/12/5 92/7/5
f 75/11/6 91/13/6 90/12/6
f 80/14/7 95/15/7 96/17/7
f 81/16/8 96/17/8 97/18/8
f 81/16/9 98/19/9 82/25/9
f 118/20/10 127/22/10 119/23/10
f 118/20/11 123/24/11 122/26/11
usemtl Material.003
f 28/27/12 12/28/12 11/29/12
f 21/30/13 5/31/13 4/32/13
f 29/33/14 13/34/14 12/28/14
f 22/35/15 6/36/15 5/31/15
f 30/37/16 14/38/16 13/34/16
f 23/39/17 7/40/17 6/36/17
f 31/41/18 15/42/18 14/38/18
f 24/43/19 8/44/19 7/40/19
f 32/45/20 16/46/20 15/42/20
f 25/47/21 9/48/21 8/44/21
f 18/49/22 2/50/22 1/51/22
f 17/52/11 1/51/11 16/46/11
f 26/53/23 10/54/23 9/48/23
f 19/55/24 3/56/24 2/50/24
f 27/57/25 11/29/25 10/54/25
f 20/58/26 4/32/26 3/56/26
f 11/29/27 43/59/27 42/60/27
f 12/28/28 44/61/28 43/59/28
f 12/28/29 13/34/29 45/62/29
f 14/38/30 46/63/30 45/62/30
f 14/38/31 15/42/31 47/64/31
f 2/50/32 34/65/32 33/66/32
f 16/46/33 48/67/33 47/64/33
f 2/50/34 3/56/34 35/68/34
f 16/46/35 1/51/35 33/66/35
f 3/56/36 4/32/36 36/69/36
f 4/32/37 5/31/37 37/70/37
f 6/36/38 38/71/38 37/70/38
f 7/40/39 39/72/39 38/71/39
f 8/44/40 40/73/40 39/72/40
f 8/44/41 9/48/41 41/74/41
f 9/48/42 10/54/42 42/60/42
f 56/75/43 55/76/43 49/77/43
f 57/78/43 56/75/43 51/79/43
f 54/80/43 53/81/43 56/75/43
f 50/82/43 55/76/43 56/75/43
f 65/83/44 64/84/44 80/14/44
f 65/83/45 81/16/45 82/25/45
f 66/85/46 82/25/46 83/86/46
f 68/87/47 67/88/47 83/86/47
f 69/89/48 68/87/48 84/90/48
f 69/89/49 85/91/49 86/92/49
f 71/93/50 70/94/50 86/92/50
f 71/93/51 87/95/51 88/96/51
f 59/97/52 58/98/52 74/8/52
f 73/99/53 72/100/53 88/96/53
f 59/97/54 75/11/54 76/6/54
f 73/99/55 89/9/55 74/8/55
f 60/101/56 76/6/56 77/4/56
f 61/102/57 77/4/57 78/2/57
f 63/103/58 62/104/58 78/2/58
f 64/84/59 63/103/59 79/1/59
f 101/105/60 102/106/60 110/107/60
f 102/106/61 103/108/61 111/109/61
f 104/110/62 101/105/62 108/111/62
f 103/108/63 105/112/63 109/113/63
f 107/114/64 100/115/64 104/110/64
f 28/27/12 11/29/12 27/57/12
f 21/30/13 4/32/13 20/58/13
f 29/33/14 12/28/14 28/27/14
f 22/35/15 5/31/15 21/30/15
f 30/37/16 13/34/16 29/33/16
f 23/39/17 6/36/17 22/35/17
f 31/41/18 14/38/18 30/37/18
f 24/43/19 7/40/19 23/39/19
f 32/45/20 15/42/20 31/41/20
f 25/47/21 8/44/21 24/43/21
f 18/49/22 1/51/22 17/52/22
f 17/52/11 16/46/11 32/45/11
f 26/53/23 9/48/23 25/47/23
f 19/55/24 2/50/24 18/49/24
f 27/57/25 10/54/25 26/53/25
f 20/58/26 3/56/26 19/55/26
f 11/29/27 42/60/27 10/54/27
f 12/28/28 43/59/28 11/29/28
f 12/28/29 45/62/29 44/61/29
f 14/38/30 45/62/30 13/34/30
f 14/38/31 47/64/31 46/63/31
f 2/50/32 33/66/32 1/51/32
f 16/46/33 47/64/33 15/42/33
f 2/50/34 35/68/34 34/65/34
f 16/46/35 33/66/35 48/67/35
f 3/56/36 36/69/36 35/68/36
f 4/32/37 37/70/37 36/69/37
f 6/36/38 37/70/38 5/31/38
f 7/40/39 38/71/39 6/36/39
f 8/44/40 39/72/40 7/40/40
f 8/44/41 41/74/41 40/73/41
f 9/48/42 42/60/42 41/74/42
f 56/75/43 49/77/43 51/79/43
f 57/78/43 51/79/43 52/116/43
f 54/80/43 56/75/43 57/78/43
f 50/82/43 56/75/43 53/81/43
f 65/83/44 80/14/44 81/16/44
f 65/83/45 82/25/45 66/85/45
f 66/85/46 83/86/46 67/88/46
f 68/87/47 83/86/47 84/90/47
f 69/89/48 84/90/48 85/91/48
f 69/89/49 86/92/49 70/94/49
f 71/93/50 86/92/50 87/95/50
f 71/93/51 88/96/51 72/100/51
f 59/97/52 74/8/52 75/11/52
f 73/99/53 88/96/53 89/9/53
f 59/97/54 76/6/54 60/101/54
f 73/99/55 74/8/55 58/98/55
f 60/101/56 77/4/56 61/102/56
f 61/102/57 78/2/57 62/104/57
f 63/103/58 78/2/58 79/1/58
f 64/84/59 79/1/59 80/14/59
f 101/105/60 110/107/60 108/111/60
f 102/106/61 111/109/61 110/107/61
f 104/110/62 108/111/62 106/117/62
f 103/108/63 109/113/63 111/109/63
f 107/114/65 104/110/65 106/117/65
usemtl Material.004
f 112/118/66 116/119/66 117/120/66
f 112/118/66 117/120/66 113/121/66
f 113/121/66 117/120/66 115/122/66
f 115/122/66 117/120/66 121/123/66
f 117/120/66 129/124/66 125/125/66
f 129/124/67 124/126/67 128/127/67
f 117/120/66 116/119/66 129/124/66
f 129/124/66 116/119/66 124/126/66
f 116/119/66 114/128/66 120/129/66
f 114/128/66 116/119/66 112/118/66
