# Blender v2.90.1 OBJ File: 'carBlend.blend'
# www.blender.org
mtllib carRightTire.mtl
o rightTire_Cube.002
v 0.152466 -0.014651 -0.361503
v 0.152466 0.119338 -0.334850
v 0.152466 0.232928 -0.258952
v 0.152466 0.308827 -0.145362
v 0.152466 0.335479 -0.011373
v 0.152466 0.308827 0.122616
v 0.152466 0.232928 0.236206
v 0.152466 0.119338 0.312104
v 0.152466 -0.014651 0.338757
v 0.152466 -0.148639 0.312105
v 0.152466 -0.262230 0.236206
v 0.152466 -0.338128 0.122616
v 0.152466 -0.364780 -0.011373
v 0.152466 -0.338128 -0.145362
v 0.152466 -0.262230 -0.258952
v 0.152466 -0.148639 -0.334851
v -0.141065 -0.014651 -0.361503
v -0.141065 0.119338 -0.334850
v -0.141065 0.232928 -0.258952
v -0.141065 0.308827 -0.145362
v -0.141065 0.335479 -0.011373
v -0.141065 0.308827 0.122616
v -0.141065 0.232928 0.236206
v -0.141065 0.119338 0.312104
v -0.141065 -0.014651 0.338757
v -0.141065 -0.148639 0.312105
v -0.141065 -0.262230 0.236206
v -0.141065 -0.338128 0.122616
v -0.141065 -0.364780 -0.011373
v -0.141065 -0.338128 -0.145362
v -0.141065 -0.262230 -0.258952
v -0.141065 -0.148639 -0.334851
v 0.167281 -0.014651 -0.284375
v 0.167281 0.089823 -0.263594
v 0.167281 0.178391 -0.204414
v 0.167281 0.237570 -0.115846
v 0.167281 0.258351 -0.011373
v 0.167281 0.237570 0.093100
v 0.167281 0.178391 0.181668
v 0.167281 0.089823 0.240847
v 0.167281 -0.014651 0.261629
v 0.167281 -0.119124 0.240848
v 0.167281 -0.207692 0.181668
v 0.167281 -0.266871 0.093100
v 0.167281 -0.287652 -0.011373
v 0.167281 -0.266871 -0.115846
v 0.167281 -0.207692 -0.204414
v 0.167281 -0.119124 -0.263594
v -0.141065 -0.014651 -0.361503
v -0.141065 0.119338 -0.334850
v -0.141065 0.232928 -0.258952
v -0.141065 0.308827 -0.145362
v -0.141065 0.335479 -0.011373
v -0.141065 0.308827 0.122616
v -0.141065 0.232928 0.236206
v -0.141065 0.119338 0.312104
v -0.141065 -0.014651 0.338757
v -0.141065 -0.148639 0.312105
v -0.141065 -0.262230 0.236206
v -0.141065 -0.338128 0.122616
v -0.141065 -0.364780 -0.011373
v -0.141065 -0.338128 -0.145362
v -0.141065 -0.262230 -0.258952
v -0.141065 -0.148639 -0.334851
v -0.155880 -0.014651 -0.284375
v -0.155880 0.089823 -0.263594
v -0.155880 0.178391 -0.204414
v -0.155880 0.237570 -0.115846
v -0.155880 0.258351 -0.011373
v -0.155880 0.237570 0.093100
v -0.155880 0.178391 0.181668
v -0.155880 0.089823 0.240847
v -0.155880 -0.014651 0.261629
v -0.155880 -0.119124 0.240848
v -0.155880 -0.207692 0.181668
v -0.155880 -0.266871 0.093100
v -0.155880 -0.287652 -0.011373
v -0.155880 -0.266871 -0.115846
v -0.155880 -0.207692 -0.204414
v -0.155880 -0.119124 -0.263594
v -0.131503 0.074061 -0.225541
v -0.131503 -0.014651 -0.243187
v -0.131503 0.149266 -0.175290
v -0.131503 0.199517 -0.100084
v -0.131503 0.217163 -0.011373
v -0.131503 0.199517 0.077338
v -0.131503 0.149266 0.152544
v -0.131503 0.074061 0.202795
v -0.131503 -0.014651 0.220441
v -0.131503 -0.103362 -0.225541
v -0.061654 0.074061 0.202795
v -0.061654 -0.014651 0.220441
v -0.131503 0.074061 0.202795
v -0.131503 -0.014651 0.220441
vt 0.000000 0.000000
vt 0.000000 0.000000
vt 0.000000 0.000000
vt 0.000000 0.000000
vt 0.000000 0.000000
vt 0.000000 0.000000
vt 0.000000 0.000000
vt 0.000000 0.000000
vt 0.000000 0.000000
vt 0.000000 0.000000
vt 0.000000 0.000000
vt 0.000000 0.000000
vt 0.000000 0.000000
vt 0.000000 0.000000
vt 0.000000 0.000000
vt 0.000000 0.000000
vt 0.000000 0.000000
vt 0.000000 0.000000
vt 0.000000 0.000000
vt 0.000000 0.000000
vt 0.000000 0.000000
vt 0.000000 0.000000
vt 0.000000 0.000000
vt 0.000000 0.000000
vt 0.000000 0.000000
vt 0.000000 0.000000
vt 0.000000 0.000000
vt 0.000000 0.000000
vt 0.000000 0.000000
vt 0.000000 0.000000
vt 0.000000 0.000000
vt 0.000000 0.000000
vt 0.000000 0.000000
vt 0.000000 0.000000
vt 0.000000 0.000000
vt 0.000000 0.000000
vt 0.000000 0.000000
vt 0.000000 0.000000
vt 0.000000 0.000000
vt 0.000000 0.000000
vt 0.000000 0.000000
vt 0.000000 0.000000
vt 0.000000 0.000000
vt 0.000000 0.000000
vt 0.000000 0.000000
vt 0.000000 0.000000
vt 0.000000 0.000000
vt 0.000000 0.000000
vt 0.000000 0.000000
vt 0.000000 0.000000
vt 0.000000 0.000000
vt 0.000000 0.000000
vt 0.000000 0.000000
vt 0.000000 0.000000
vt 0.000000 0.000000
vt 0.000000 0.000000
vt 0.000000 0.000000
vt 0.000000 0.000000
vt 0.000000 0.000000
vt 0.000000 0.000000
vt 0.000000 0.000000
vt 0.000000 0.000000
vt 0.000000 0.000000
vt 0.000000 0.000000
vt 0.000000 0.000000
vt 0.000000 0.000000
vt 0.000000 0.000000
vt 0.000000 0.000000
vt 0.000000 0.000000
vt 0.000000 0.000000
vt 0.000000 0.000000
vt 0.000000 0.000000
vt 0.000000 0.000000
vt 0.000000 0.000000
vt 0.000000 0.000000
vt 0.000000 0.000000
vt 0.000000 0.000000
vt 0.000000 0.000000
vt 0.000000 0.000000
vt 0.000000 0.000000
vt 0.000000 0.000000
vt 0.000000 0.000000
vt 0.000000 0.000000
vt 0.000000 0.000000
vt 0.000000 0.000000
vt 0.000000 0.000000
vt 0.000000 0.000000
vt 0.000000 0.000000
vt 0.000000 0.000000
vt 0.000000 0.000000
vt 0.000000 0.000000
vt 0.000000 0.000000
vt 0.000000 0.000000
vt 0.000000 0.000000
vn -0.8562 -0.5067 -0.1008
vn -0.8562 -0.5067 0.1008
vn -0.8562 -0.4296 0.2870
vn -0.8562 0.1008 0.5067
vn -0.8562 -0.2870 0.4296
vn -0.8562 -0.1008 0.5067
vn -0.8562 -0.4296 -0.2870
vn -0.8562 -0.2870 -0.4296
vn -0.8562 -0.1008 -0.5067
vn 0.0000 -0.1951 -0.9808
vn 0.0000 -0.8315 0.5556
vn 0.0000 0.9808 -0.1951
vn 0.0000 -0.9808 0.1951
vn 0.0000 0.9808 0.1951
vn 0.0000 -0.9808 -0.1951
vn 0.0000 0.8315 0.5556
vn 0.0000 -0.8315 -0.5556
vn 0.0000 0.5556 0.8315
vn 0.0000 -0.5556 -0.8315
vn 0.0000 0.1951 0.9808
vn 0.0000 0.1951 -0.9808
vn 0.0000 -0.1951 0.9808
vn 0.0000 0.5556 -0.8315
vn 0.0000 -0.5556 0.8315
vn 0.0000 0.8315 -0.5556
vn 0.9814 -0.1068 0.1598
vn 0.9814 -0.1598 0.1068
vn 0.9814 -0.1885 0.0375
vn 0.9814 -0.1885 -0.0375
vn 0.9814 -0.1598 -0.1068
vn 0.9814 0.0375 -0.1885
vn 0.9814 -0.1068 -0.1598
vn 0.9814 0.1068 -0.1598
vn 0.9814 -0.0375 -0.1885
vn 0.9814 0.1598 -0.1068
vn 0.9814 0.1885 -0.0375
vn 0.9814 0.1885 0.0375
vn 0.9814 0.1598 0.1068
vn 0.9814 0.1068 0.1598
vn 0.9814 0.0375 0.1885
vn 0.9814 -0.0375 0.1885
vn -0.9814 0.1068 0.1598
vn -0.9814 0.0375 0.1885
vn -0.9814 -0.0375 0.1885
vn -0.9814 -0.1068 0.1598
vn -0.9814 -0.1598 0.1068
vn -0.9814 -0.1885 0.0375
vn -0.9814 -0.1885 -0.0375
vn -0.9814 -0.1598 -0.1068
vn -0.9814 0.0375 -0.1885
vn -0.9814 -0.1068 -0.1598
vn -0.9814 0.1068 -0.1598
vn -0.9814 -0.0375 -0.1885
vn -0.9814 0.1598 -0.1068
vn -0.9814 0.1885 -0.0375
vn -0.9814 0.1885 0.0375
vn -0.9814 0.1598 0.1068
usemtl Material
s off
f 70/1/1 69/2/1 85/3/1
f 68/4/2 84/5/2 85/3/2
f 67/6/3 83/7/3 84/5/3
f 65/8/4 80/9/4 90/10/4
f 67/6/5 66/11/5 81/12/5
f 66/11/6 65/8/6 82/13/6
f 71/14/7 70/1/7 86/15/7
f 72/16/8 71/14/8 87/17/8
f 72/16/9 88/18/9 89/19/9
f 91/20/10 92/21/10 94/22/10
f 70/1/1 85/3/1 86/15/1
f 68/4/2 85/3/2 69/2/2
f 67/6/3 84/5/3 68/4/3
f 65/8/4 90/10/4 82/13/4
f 67/6/5 81/12/5 83/7/5
f 66/11/6 82/13/6 81/12/6
f 71/14/7 86/15/7 87/17/7
f 72/16/8 87/17/8 88/18/8
f 72/16/9 89/19/9 73/23/9
f 91/20/10 94/22/10 93/24/10
usemtl Material.003
f 28/25/11 12/26/11 11/27/11
f 21/28/12 5/29/12 4/30/12
f 29/31/13 13/32/13 12/26/13
f 22/33/14 6/34/14 5/29/14
f 30/35/15 14/36/15 13/32/15
f 23/37/16 7/38/16 6/34/16
f 31/39/17 15/40/17 14/36/17
f 24/41/18 8/42/18 7/38/18
f 32/43/19 16/44/19 15/40/19
f 25/45/20 9/46/20 8/42/20
f 18/47/21 2/48/21 1/49/21
f 17/50/10 1/49/10 16/44/10
f 26/51/22 10/52/22 9/46/22
f 19/53/23 3/54/23 2/48/23
f 27/55/24 11/27/24 10/52/24
f 20/56/25 4/30/25 3/54/25
f 11/27/26 43/57/26 42/58/26
f 12/26/27 44/59/27 43/57/27
f 12/26/28 13/32/28 45/60/28
f 14/36/29 46/61/29 45/60/29
f 14/36/30 15/40/30 47/62/30
f 2/48/31 34/63/31 33/64/31
f 15/40/32 16/44/32 48/65/32
f 2/48/33 3/54/33 35/66/33
f 16/44/34 1/49/34 33/64/34
f 3/54/35 4/30/35 36/67/35
f 4/30/36 5/29/36 37/68/36
f 6/34/37 38/69/37 37/68/37
f 7/38/38 39/70/38 38/69/38
f 8/42/39 40/71/39 39/70/39
f 8/42/40 9/46/40 41/72/40
f 9/46/41 10/52/41 42/58/41
f 56/73/42 55/74/42 71/14/42
f 56/73/43 72/16/43 73/23/43
f 58/75/44 57/76/44 73/23/44
f 59/77/45 58/75/45 74/78/45
f 60/79/46 59/77/46 75/80/46
f 60/79/47 76/81/47 77/82/47
f 62/83/48 61/84/48 77/82/48
f 62/83/49 78/85/49 79/86/49
f 50/87/50 49/88/50 65/8/50
f 64/89/51 63/90/51 79/86/51
f 50/87/52 66/11/52 67/6/52
f 49/88/53 64/89/53 80/9/53
f 51/91/54 67/6/54 68/4/54
f 52/92/55 68/4/55 69/2/55
f 54/93/56 53/94/56 69/2/56
f 55/74/57 54/93/57 70/1/57
f 28/25/11 11/27/11 27/55/11
f 21/28/12 4/30/12 20/56/12
f 29/31/13 12/26/13 28/25/13
f 22/33/14 5/29/14 21/28/14
f 30/35/15 13/32/15 29/31/15
f 23/37/16 6/34/16 22/33/16
f 31/39/17 14/36/17 30/35/17
f 24/41/18 7/38/18 23/37/18
f 32/43/19 15/40/19 31/39/19
f 25/45/20 8/42/20 24/41/20
f 18/47/21 1/49/21 17/50/21
f 17/50/10 16/44/10 32/43/10
f 26/51/22 9/46/22 25/45/22
f 19/53/23 2/48/23 18/47/23
f 27/55/24 10/52/24 26/51/24
f 20/56/25 3/54/25 19/53/25
f 11/27/26 42/58/26 10/52/26
f 12/26/27 43/57/27 11/27/27
f 12/26/28 45/60/28 44/59/28
f 14/36/29 45/60/29 13/32/29
f 14/36/30 47/62/30 46/61/30
f 2/48/31 33/64/31 1/49/31
f 15/40/32 48/65/32 47/62/32
f 2/48/33 35/66/33 34/63/33
f 16/44/34 33/64/34 48/65/34
f 3/54/35 36/67/35 35/66/35
f 4/30/36 37/68/36 36/67/36
f 6/34/37 37/68/37 5/29/37
f 7/38/38 38/69/38 6/34/38
f 8/42/39 39/70/39 7/38/39
f 8/42/40 41/72/40 40/71/40
f 9/46/41 42/58/41 41/72/41
f 56/73/42 71/14/42 72/16/42
f 56/73/43 73/23/43 57/76/43
f 58/75/44 73/23/44 74/78/44
f 59/77/45 74/78/45 75/80/45
f 60/79/46 75/80/46 76/81/46
f 60/79/47 77/82/47 61/84/47
f 62/83/48 77/82/48 78/85/48
f 62/83/49 79/86/49 63/90/49
f 50/87/50 65/8/50 66/11/50
f 64/89/51 79/86/51 80/9/51
f 50/87/52 67/6/52 51/91/52
f 49/88/53 80/9/53 65/8/53
f 51/91/54 68/4/54 52/92/54
f 52/92/55 69/2/55 53/94/55
f 54/93/56 69/2/56 70/1/56
f 55/74/57 70/1/57 71/14/57
