# Blender v2.90.1 OBJ File: 'low poly car .blend'
# www.blender.org
mtllib carWindow.mtl
o window_Cube.003
v -0.916276 -0.243052 0.670036
v -0.724815 0.074940 0.626503
v -0.917049 -0.242619 -0.133322
v -0.724111 0.117986 0.226027
v -0.724057 0.093608 -0.206882
v -0.917681 -0.242258 -0.919658
v -0.916356 -0.242998 1.079944
v -0.763703 -0.056310 1.079803
v -0.916316 -0.243025 0.878899
v -0.744630 0.008063 0.857476
v -0.366452 -0.151117 1.466433
v -0.000000 -0.151117 1.466433
v -0.732934 -0.151117 1.466433
v -0.732934 -0.075960 1.262768
v -0.366452 -0.016059 1.066663
v -0.366452 -0.075960 1.262768
v -0.000000 -0.075960 1.262768
v -0.732934 -0.016059 1.066663
v -0.324544 0.050952 0.835439
v -0.655656 0.050952 0.835439
v 0.916276 -0.243052 0.670036
v 0.724815 0.074940 0.626503
v 0.917049 -0.242619 -0.133322
v 0.724111 0.117986 0.226027
v 0.724057 0.093608 -0.206882
v 0.917681 -0.242258 -0.919658
v 0.916356 -0.242998 1.079944
v 0.763703 -0.056310 1.079803
v 0.916316 -0.243025 0.878899
v 0.744630 0.008063 0.857476
v 0.366452 -0.151117 1.466433
v 0.732934 -0.151117 1.466433
v 0.732934 -0.075960 1.262768
v 0.366452 -0.016059 1.066663
v -0.000000 -0.016059 1.066663
v -0.000000 0.050952 0.835439
v 0.366452 -0.075960 1.262768
v 0.732934 -0.016059 1.066663
v 0.324544 0.050952 0.835439
v 0.655656 0.050952 0.835439
v -0.365848 -0.238666 -1.025912
v -0.554403 0.135997 -0.231791
v -0.711965 -0.238666 -1.025912
v -0.000000 0.135997 -0.231791
v -0.280403 0.135997 -0.231791
v -0.918644 -0.239393 -0.996332
v -0.703729 0.135270 -0.202210
v 0.365848 -0.238666 -1.025912
v -0.000000 -0.238666 -1.025912
v 0.554403 0.135997 -0.231791
v 0.711965 -0.238666 -1.025912
v 0.280403 0.135997 -0.231791
v 0.918644 -0.239393 -0.996332
v 0.703729 0.135270 -0.202210
vt 0.625000 0.750000
vt 0.625000 0.750000
vt 0.625000 0.750000
vt 0.625000 0.750000
vt 0.625000 0.750000
vt 0.625000 0.750000
vt 0.625000 0.750000
vt 0.625000 0.750000
vt 0.625000 0.750000
vt 0.625000 0.750000
vt 0.682213 0.750000
vt 0.682213 0.750000
vt 0.682213 0.750000
vt 0.682213 0.750000
vt 0.750000 0.750000
vt 0.625000 0.750000
vt 0.625000 0.750000
vt 0.625000 0.750000
vt 0.750000 0.750000
vt 0.750000 0.750000
vt 0.625000 0.750000
vt 0.625000 0.750000
vt 0.625000 0.750000
vt 0.625000 0.750000
vt 0.625000 0.750000
vt 0.625000 0.750000
vt 0.625000 0.750000
vt 0.625000 0.750000
vt 0.625000 0.750000
vt 0.682213 0.750000
vt 0.682213 0.750000
vt 0.625000 0.750000
vt 0.682213 0.750000
vt 0.750000 0.750000
vt 0.682213 0.750000
vt 0.625000 0.750000
vt 0.625000 0.750000
vt 0.625000 0.750000
vt 0.750000 0.750000
vt 0.682213 0.750000
vt 0.682213 0.750000
vt 0.625000 0.750000
vt 0.625000 0.750000
vt 0.625000 0.750000
vt 0.625000 0.750000
vt 0.682213 0.750000
vt 0.682213 0.750000
vt 0.625000 0.750000
vt 0.625000 0.750000
vt 0.625000 0.750000
vt 0.625000 0.750000
vt 0.625000 0.750000
vt 0.750000 0.750000
vt 0.625000 0.750000
vn -0.8255 0.5644 -0.0002
vn -0.8696 0.4930 -0.0279
vn -0.8521 0.5205 0.0545
vn -0.7741 0.6330 -0.0002
vn 0.0000 0.9382 0.3462
vn 0.0000 0.9605 0.2784
vn 0.0000 0.9564 0.2921
vn 0.8255 0.5644 -0.0002
vn 0.8672 0.4980 0.0009
vn 0.8822 0.4709 0.0011
vn 0.7741 0.6330 -0.0002
vn 0.0000 0.9044 -0.4267
vn -0.0622 0.9090 -0.4121
vn 0.0859 0.9075 -0.4111
vn -0.8493 0.5221 0.0783
vn -0.8672 0.4980 0.0009
vn -0.8822 0.4709 0.0011
vn -0.8181 0.5674 0.0941
vn 0.8493 0.5221 0.0783
vn 0.8696 0.4930 -0.0279
vn 0.8521 0.5205 0.0545
vn 0.8181 0.5674 0.0941
vn -0.0859 0.9075 -0.4111
vn 0.0622 0.9090 -0.4121
usemtl Material.005
s off
f 1/1/1 9/2/1 10/3/1
f 3/4/2 4/5/2 5/6/2
f 1/1/3 2/7/3 4/5/3
f 9/2/4 7/8/4 8/9/4
f 13/10/5 11/11/5 16/12/5
f 19/13/6 15/14/6 35/15/6
f 35/15/7 15/14/7 16/12/7
f 15/14/7 18/16/7 14/17/7
f 20/18/6 18/16/6 15/14/6
f 11/11/5 12/19/5 17/20/5
f 30/21/8 29/22/8 21/23/8
f 23/24/9 26/25/9 25/26/9
f 21/23/10 23/24/10 24/27/10
f 28/28/11 27/29/11 29/22/11
f 37/30/5 31/31/5 32/32/5
f 39/33/6 36/34/6 35/15/6
f 37/30/7 34/35/7 35/15/7
f 33/36/7 38/37/7 34/35/7
f 40/38/6 39/33/6 34/35/6
f 17/20/5 12/19/5 31/31/5
f 49/39/12 41/40/12 45/41/12
f 43/42/13 46/43/13 47/44/13
f 41/40/12 43/42/12 42/45/12
f 52/46/12 48/47/12 49/39/12
f 51/48/14 50/49/14 54/50/14
f 50/49/12 51/48/12 48/47/12
f 1/1/15 10/3/15 2/7/15
f 3/4/16 5/6/16 6/51/16
f 1/1/17 4/5/17 3/4/17
f 9/2/18 8/9/18 10/3/18
f 13/10/5 16/12/5 14/17/5
f 19/13/6 35/15/6 36/34/6
f 35/15/7 16/12/7 17/20/7
f 15/14/7 14/17/7 16/12/7
f 20/18/6 15/14/6 19/13/6
f 11/11/5 17/20/5 16/12/5
f 30/21/19 21/23/19 22/52/19
f 23/24/20 25/26/20 24/27/20
f 21/23/21 24/27/21 22/52/21
f 28/28/22 29/22/22 30/21/22
f 37/30/5 32/32/5 33/36/5
f 39/33/6 35/15/6 34/35/6
f 37/30/7 35/15/7 17/20/7
f 33/36/7 34/35/7 37/30/7
f 40/38/6 34/35/6 38/37/6
f 17/20/5 31/31/5 37/30/5
f 49/39/12 45/41/12 44/53/12
f 43/42/23 47/44/23 42/45/23
f 41/40/12 42/45/12 45/41/12
f 52/46/12 49/39/12 44/53/12
f 51/48/24 54/50/24 53/54/24
f 50/49/12 48/47/12 52/46/12
