# Blender v2.90.1 OBJ File: 'MugenStage.blend'
# www.blender.org
mtllib MugenStageGrass1.mtl
o grass1_å¹³é¢.017
v 42.062210 -1.261740 -44.473366
v 43.657909 -2.858519 -37.629715
v 47.700134 -1.185161 -44.247395
v 18.295080 -0.044970 -38.386105
v 28.546381 -0.037391 -50.468864
v 23.497314 -0.048819 -54.565109
v 30.902138 -0.037391 -51.995369
v 28.973476 -0.044723 -58.931335
v 34.393028 -0.037391 -52.200825
v 36.348602 -0.047463 -59.233730
v 38.328964 -0.272785 -51.102982
v 43.519798 -0.244938 -56.599552
v 41.327492 -0.750303 -48.274250
v 47.960472 -0.566265 -51.198288
vt 0.000000 0.000000
vt 1.000000 1.000000
vt 0.000000 1.000000
vt 0.000000 0.000000
vt 1.000000 0.000000
vt 1.000000 1.000000
vt 0.000000 0.000000
vt 1.000000 1.000000
vt 0.000000 1.000000
vt 0.000000 0.000000
vt 1.000000 1.000000
vt 0.000000 1.000000
vt 1.000000 0.000000
vt 0.000000 1.000000
vt 0.000000 0.000000
vt 1.000000 0.000000
vt 0.000000 1.000000
vt 0.000000 0.000000
vt 0.000000 0.000000
vt 1.000000 1.000000
vt 0.000000 1.000000
vt 1.000000 0.000000
vt 1.000000 0.000000
vt 1.000000 1.000000
vt 1.000000 1.000000
vt 1.000000 0.000000
vn -0.0225 0.9724 0.2321
vn -0.0016 1.0000 -0.0008
vn -0.0015 1.0000 -0.0009
vn 0.0003 1.0000 -0.0011
vn 0.0558 0.9983 0.0141
vn 0.0811 0.9934 0.0817
vn 0.0117 0.9960 0.0891
vn -0.0006 1.0000 -0.0009
vn -0.0001 1.0000 -0.0015
vn 0.0191 0.9996 0.0231
vn -0.0011 0.9982 0.0603
vn -0.0189 0.9904 0.1369
usemtl None
s off
f 1/1/1 2/2/1 3/3/1
f 4/4/2 5/5/2 6/6/2
f 5/7/3 8/8/3 6/9/3
f 7/10/4 10/11/4 8/12/4
f 11/13/5 10/14/5 9/15/5
f 13/16/6 12/17/6 11/18/6
f 13/19/7 3/20/7 14/21/7
f 5/7/8 7/22/8 8/8/8
f 7/10/9 9/23/9 10/11/9
f 11/13/10 12/24/10 10/14/10
f 13/16/11 14/25/11 12/17/11
f 13/19/12 1/26/12 3/20/12
