# Blender v2.90.1 OBJ File: 'MugenStage.blend'
# www.blender.org
mtllib MugenStage.mtl
o stage_å¹³é¢.012
v -0.147964 -0.035278 8.267043
v -5.917510 -0.025822 6.331949
v 19.006622 -0.038397 -57.783867
v 5.662411 -0.036932 -20.868565
v 2.396662 -3.707427 -15.699947
v 4.247278 -3.566677 -11.839516
v 11.967209 -0.037387 -20.797079
v 12.747150 -0.037384 -40.380875
v 23.497101 -0.037382 -54.558525
v 27.085148 -0.033325 -63.951195
v 28.970432 -0.037381 -58.925362
v 37.230152 -0.030017 -64.630577
v 43.494137 -0.229229 -56.601776
v 46.742210 -0.039442 -60.931992
v 47.946476 -0.557071 -51.197769
v 52.944492 0.008363 -52.896362
v 47.689457 -1.179114 -44.249100
v 52.893269 -0.585853 -42.760277
v 47.639347 -2.213300 -33.956131
v 43.626225 -2.845286 -37.725624
v 39.845749 -4.242892 -28.241179
v 15.907711 -8.538245 -15.069176
v 36.417759 -4.242891 -32.685738
v 15.321360 -8.350763 -20.617903
v 24.738907 2.029179 -68.168312
v 37.883656 2.050919 -68.607224
v 48.374195 2.468515 -64.233467
v 56.676327 2.561496 -54.208336
v 57.061420 1.266912 -41.466911
v 0.457765 -8.562640 -9.840986
v 0.184204 -8.562640 -15.497091
v -10.421251 -6.337818 -7.091166
v -10.415277 -6.337817 -12.604643
v -8.539089 -0.038422 19.699787
v -12.316117 -0.217227 15.250205
v -16.657084 -0.005085 23.694565
v -18.144182 -0.287766 17.521301
v -25.617786 -0.015352 23.119255
v -23.031631 -0.508464 17.097609
v -26.804533 -0.879926 14.036350
v -28.256483 -1.600129 8.721632
v -32.233189 -0.035782 17.037220
v -27.003208 -2.194400 -5.120543
v -23.887850 -2.983930 -1.040722
v -36.874889 2.557619 7.548373
v -34.321400 -0.034668 8.193549
v -26.991516 -2.190617 -5.138598
v -34.139378 2.706037 19.765137
v -26.883530 2.690629 26.157263
v -15.969908 2.464924 27.168516
v -5.364021 1.646193 20.812506
v 18.302822 -0.037384 -38.390228
v 36.355911 -0.037381 -59.217628
v 15.828836 -0.037385 -31.520308
v 13.124949 -0.037385 -32.499107
v 13.844124 -0.037385 -34.631760
v 16.777378 -0.037385 -34.154274
v 14.122120 -0.037385 -35.335083
v 13.093508 -0.037440 -41.343834
v 14.162848 -0.037613 -44.316879
v 15.353657 -0.037384 -43.818481
v 13.400923 -0.037384 -41.243103
v 16.984753 -0.037384 -43.128387
v 15.923355 -0.037384 -40.275375
vt 0.558876 0.507580
vt 0.253899 0.630284
vt 0.452966 0.470597
vt 0.812335 0.795346
vt 0.904826 0.714486
vt 0.939582 0.797017
vt 0.109326 0.857598
vt 0.200365 0.955643
vt 0.000000 0.870868
vt 0.266748 0.921985
vt 0.501284 0.910633
vt 0.484744 0.956206
vt 0.725150 0.489091
vt 0.457142 0.398209
vt 0.553507 0.365735
vt 0.805839 0.069265
vt 0.593361 0.070719
vt 0.647720 0.019474
vt 0.415451 0.286435
vt 0.168277 0.179606
vt 0.286968 0.172838
vt 0.875814 0.141563
vt 0.702340 0.237899
vt 0.741028 0.145789
vt 0.426138 0.000000
vt 0.660875 0.000680
vt 0.663247 0.904227
vt 0.882389 0.882730
vt 0.718139 0.944660
vt 0.075448 0.772428
vt 0.625161 0.519222
vt 0.829784 0.260256
vt 0.260910 0.057720
vt 0.196080 0.045262
vt 0.970885 0.901310
vt 0.772360 0.860267
vt 0.681189 0.097401
vt 0.326043 0.319711
vt 0.222225 0.838498
vt 0.202234 0.779644
vt 0.371635 0.089220
vt 0.439155 0.016811
vt 0.481359 0.066432
vt 0.871364 0.054547
vt 0.970885 0.145346
vt 0.168174 0.179788
vt 0.829368 0.260390
vt 0.365446 0.602142
vt 0.358644 0.608034
vt 0.756447 0.976961
vt 0.250757 0.639367
vt 0.244025 0.638149
vt 0.775751 0.720911
vt 0.340113 0.884149
vt 0.460258 1.000000
vt 0.448914 0.595178
vt 0.388127 0.585010
vt 0.421903 0.616695
vt 0.378465 0.651298
vt 0.279659 0.672031
vt 0.308351 0.648523
vt 0.213539 0.662432
vt 0.241372 0.666499
vn 0.0001 1.0000 0.0000
vn -0.2101 0.9758 0.0601
vn 0.0130 0.9011 0.4335
vn -0.0124 0.9993 0.0345
vn -0.0016 1.0000 0.0001
vn 0.0040 0.9968 -0.0799
vn 0.2427 0.9701 0.0024
vn -0.0393 0.9992 -0.0068
vn 0.4345 0.7549 -0.4913
vn -0.0928 0.9940 0.0578
vn 0.2402 0.9181 0.3154
vn -0.1501 0.9874 0.0492
vn 0.0016 1.0000 0.0003
vn 0.7229 0.6697 -0.1700
vn -0.3892 0.9191 -0.0624
vn -0.1404 0.9852 0.0983
vn -0.0273 0.9989 -0.0392
vn 0.2004 0.9797 0.0002
vn -0.0001 1.0000 -0.0001
vn -0.0003 1.0000 0.0009
vn -0.4188 0.9066 0.0510
vn 0.0690 0.9859 -0.1525
vn 0.2614 0.9651 -0.0129
vn -0.2498 0.8156 -0.5219
vn -0.0907 0.9938 0.0641
vn 0.6588 0.7105 0.2473
vn 0.0366 0.8110 -0.5839
vn -0.1683 0.8845 0.4352
vn -0.0236 0.9955 -0.0917
vn -0.3740 0.8860 -0.2742
vn 0.0000 1.0000 0.0000
vn -0.4467 0.8276 0.3399
vn -0.1244 0.9876 0.0959
vn 0.0310 0.8835 0.4674
vn 0.0249 0.9997 0.0054
vn -0.0025 0.9994 0.0340
vn -0.0420 0.9985 -0.0356
vn 0.2425 0.9702 0.0003
vn 0.0012 1.0000 0.0012
vn 0.4313 0.7691 -0.4717
vn -0.1364 0.9871 0.0833
vn -0.1332 0.9858 0.1027
vn 0.7216 0.6711 -0.1703
vn -0.2421 0.9655 0.0958
vn -0.0110 0.9995 -0.0308
vn 0.2028 0.9792 -0.0098
vn -0.0000 1.0000 0.0008
vn 0.0001 1.0000 0.0014
vn -0.5372 0.8373 0.1013
vn 0.2544 0.9652 -0.0599
vn 0.2518 0.9675 -0.0244
vn -0.2556 0.8111 -0.5261
vn 0.0107 0.9986 0.0518
vn 0.0755 0.7600 -0.6455
vn -0.2443 0.8265 0.5071
vn 0.0950 0.9898 -0.1066
vn -0.4654 0.8004 0.3780
usemtl None
s off
f 7/1/1 8/2/1 4/3/1
f 20/4/2 21/5/2 19/6/2
f 10/7/3 26/8/3 25/9/3
f 12/10/4 13/11/4 14/12/4
f 22/13/5 31/14/5 30/15/5
f 36/16/6 39/17/6 38/18/6
f 32/19/7 43/20/7 44/21/7
f 34/22/8 2/23/8 35/24/8
f 38/18/9 48/25/9 49/26/9
f 15/27/10 18/28/10 16/29/10
f 3/30/11 10/7/11 25/9/11
f 21/5/12 24/31/12 22/13/12
f 1/32/13 4/3/13 2/23/13
f 48/25/14 46/33/14 45/34/14
f 19/6/15 29/35/15 18/28/15
f 17/36/16 19/6/16 18/28/16
f 36/16/17 35/24/17 37/37/17
f 30/15/18 33/38/18 32/19/18
f 11/39/19 3/30/19 9/40/19
f 11/39/20 12/10/20 10/7/20
f 29/35/21 16/29/21 18/28/21
f 41/41/22 42/42/22 40/43/22
f 46/33/23 44/21/23 43/20/23
f 34/22/24 50/44/24 51/45/24
f 14/12/25 15/27/25 16/29/25
f 45/34/26 46/33/26 47/46/26
f 38/18/27 50/44/27 36/16/27
f 14/12/28 26/8/28 12/10/28
f 40/43/29 38/18/29 39/17/29
f 1/47/30 34/22/30 51/45/30
f 56/48/31 58/49/31 8/2/31
f 28/50/32 14/12/32 16/29/32
f 8/2/19 62/51/19 59/52/19
f 20/4/33 23/53/33 21/5/33
f 10/7/34 12/10/34 26/8/34
f 12/10/35 53/54/35 13/11/35
f 22/13/36 24/31/36 31/14/36
f 36/16/37 37/37/37 39/17/37
f 32/19/38 33/38/38 43/20/38
f 34/22/39 1/32/39 2/23/39
f 38/18/40 42/42/40 48/25/40
f 15/27/41 17/36/41 18/28/41
f 21/5/42 23/53/42 24/31/42
f 1/32/1 7/1/1 4/3/1
f 48/25/43 42/42/43 46/33/43
f 17/36/44 20/4/44 19/6/44
f 36/16/45 34/22/45 35/24/45
f 30/15/46 31/14/46 33/38/46
f 11/39/47 10/7/47 3/30/47
f 11/39/48 53/54/48 12/10/48
f 29/35/49 28/50/49 16/29/49
f 41/41/50 46/33/50 42/42/50
f 46/33/51 41/41/51 44/21/51
f 34/22/52 36/16/52 50/44/52
f 14/12/53 13/11/53 15/27/53
f 38/18/54 49/26/54 50/44/54
f 14/12/55 27/55/55 26/8/55
f 40/43/56 42/42/56 38/18/56
f 7/1/31 54/56/31 55/57/31
f 8/2/31 7/1/31 55/57/31
f 57/58/31 52/59/31 58/49/31
f 52/59/31 8/2/31 58/49/31
f 8/2/31 55/57/31 56/48/31
f 28/50/57 27/55/57 14/12/57
f 63/60/31 64/61/31 52/59/31
f 60/62/19 9/40/19 3/30/19
f 62/51/31 8/2/31 64/61/31
f 8/2/31 52/59/31 64/61/31
f 9/40/31 61/63/31 63/60/31
f 9/40/31 63/60/31 52/59/31
f 60/62/19 61/63/19 9/40/19
