# Blender v2.90.1 OBJ File: ''
# www.blender.org
mtllib MugenStageOrnament.mtl
o ornament_å¹³é¢.015
v -19.395716 -4.111759 -3.066173
v -15.349873 -0.756222 11.056625
v -5.917509 -0.025823 6.331950
v -19.086859 -1.146450 12.576116
v -23.476112 -2.161866 9.012838
v -22.370367 -1.693265 11.413568
v -21.130703 -1.369301 12.786922
v -10.228192 -3.733135 -7.144752
v 42.062210 -1.261733 -44.473358
v 18.295082 -0.044964 -38.386101
v 43.622173 -2.815070 -37.696907
v 38.328968 -0.272776 -51.102982
v 28.546383 -0.037383 -50.468864
v 34.393032 -0.037382 -52.200821
v 30.902142 -0.037383 -51.995369
v 36.234715 -1.536260 -32.649635
v 29.800854 -0.862422 -29.011152
v 34.869053 -0.561752 -23.660044
v 18.302822 -0.037378 -38.390228
v 16.777380 -0.037379 -34.154274
v -4.782734 -1.714843 -14.000607
v -4.708772 -1.700881 -8.369747
v 3.136137 -0.042782 -14.920753
v 5.662411 -0.036929 -20.868563
v 19.006626 -0.038388 -57.783867
v -10.302155 -3.747097 -12.775611
v -0.147964 -0.035279 8.267044
v 39.780590 -1.536260 -28.297873
v -3.977281 -1.089941 -31.408987
v -26.957912 -2.203606 -5.136517
v -5.262644 1.289233 22.381001
v 15.828838 -0.037380 -31.520304
v 11.967209 -0.037384 -20.797077
v -23.209507 -1.420086 -93.304115
v -3.977280 -1.089941 -31.408987
v 19.006628 -0.038388 -57.783859
v -70.002167 1.273919 -33.939461
v -26.957912 -2.203606 -5.136518
v -35.321808 -1.927085 9.924035
v -91.941162 0.058024 57.977364
v -130.992172 0.442923 23.858740
v -25.445286 -3.942002 122.338593
v -12.339214 0.144464 25.836502
v -5.262644 1.289233 22.381001
v 47.808460 -2.250983 -34.130020
v 106.331696 2.833551 1.180471
v 32.299004 -1.181520 -63.960144
v 43.326740 -8.557478 -144.171814
v 27.808029 -3.419882 -58.166183
v 51.926701 -2.108569 -44.417252
v 136.606094 -7.653740 -70.504280
v 198.275345 16.188335 -80.908699
v 170.690170 17.944712 50.702961
v 0.831684 12.465297 222.049286
v -196.437424 8.057394 135.655441
v -243.906296 12.010489 -9.038761
v -171.236481 13.713470 -168.916962
v -6.920620 23.275383 -282.009216
v 206.154556 22.836428 -209.508530
v 41.327496 -0.750294 -48.274246
v 47.808460 -2.250983 -34.130020
vt 1.000000 1.000000
vt 0.000000 0.000000
vt 0.000000 1.000000
vt 0.000000 0.000000
vt 1.000000 0.000000
vt 1.000000 1.000000
vt 1.000000 1.000000
vt 0.000000 0.000000
vt 0.000000 0.000000
vt 1.000000 0.000000
vt 0.000000 0.000000
vt 1.000000 1.000000
vt 0.000000 0.000000
vt 1.000000 0.000000
vt 0.000000 0.000000
vt 0.000000 0.000000
vt 0.000000 0.000000
vt 0.000000 0.000000
vt 0.000000 0.000000
vt 0.378465 0.651298
vt 0.421903 0.616695
vt 0.000000 0.000000
vt 0.000000 0.000000
vt 0.000000 0.000000
vt 0.000000 0.000000
vt 0.000000 0.000000
vt 0.000000 0.000000
vt 0.000000 0.000000
vt 0.000000 0.000000
vt 0.000000 0.000000
vt 0.000000 0.000000
vt 0.000000 0.000000
vt 0.000000 0.000000
vt 0.558876 0.507580
vt 0.000000 0.000000
vt 0.000000 0.000000
vt 0.000000 0.000000
vt 0.000000 0.000000
vt 0.000000 0.000000
vt 0.000000 0.000000
vt 0.000000 0.000000
vt 0.000000 0.000000
vt 0.000000 0.000000
vt 0.000000 0.000000
vt 0.000000 0.000000
vt 0.000000 0.000000
vt 0.000000 0.000000
vt 0.000000 0.000000
vt 0.000000 0.000000
vt 0.000000 0.000000
vt 0.000000 0.000000
vt 0.000000 0.000000
vt 0.000000 0.000000
vt 0.000000 0.000000
vt 0.000000 0.000000
vt 0.000000 0.000000
vt 0.000000 0.000000
vt 0.000000 0.000000
vt 0.000000 0.000000
vt 0.000000 0.000000
vt 0.000000 0.000000
vt 0.000000 0.000000
vn -0.1665 0.9690 -0.1825
vn -0.1445 0.9842 -0.1025
vn -0.1202 0.9850 -0.1239
vn -0.1383 0.9653 -0.2213
vn 0.1011 0.9745 0.2001
vn 0.0255 0.9994 0.0223
vn 0.0000 1.0000 0.0000
vn 0.1107 0.9899 -0.0888
vn 0.0905 0.9956 -0.0243
vn 0.0472 0.9938 -0.1006
vn 0.0554 0.9983 0.0199
vn -0.3451 0.9386 0.0022
vn -0.3686 0.9197 -0.1351
vn -0.3098 0.9415 -0.1327
vn -0.2158 0.9722 -0.0907
vn -0.2057 0.9758 -0.0744
vn -0.3732 0.9124 -0.1678
vn 0.6670 -0.1301 0.7337
vn 0.1804 0.9633 0.1986
vn -0.0717 0.9903 -0.1189
vn 0.0823 0.9876 -0.1334
vn 0.0240 0.9997 0.0086
vn 0.0240 0.9997 0.0088
vn 0.0241 0.9997 0.0094
vn 0.0241 0.9997 0.0100
vn -0.0382 0.9992 0.0065
vn 0.0330 0.9969 0.0711
vn 0.0658 0.9976 0.0207
vn 0.0670 0.9976 0.0198
vn 0.0677 0.9975 0.0193
vn -0.0014 0.9999 0.0129
vn -0.0169 -0.9989 -0.0446
vn -0.0338 0.9961 -0.0809
vn 0.1494 -0.9885 -0.0216
vn -0.0726 0.9971 -0.0232
vn 0.1536 0.9847 0.0825
vn 0.0411 0.9955 -0.0859
vn 0.3125 0.8593 -0.4049
vn -0.1413 0.9553 0.2595
vn -0.1821 0.9564 0.2283
vn 0.0442 0.9967 -0.0682
vn 0.0011 0.9895 -0.1443
vn -0.1896 0.9804 -0.0528
vn -0.1447 0.9831 -0.1120
vn -0.0552 -0.9828 0.1763
vn -0.1039 -0.9946 0.0069
vn -0.0873 -0.9949 -0.0503
vn 0.0336 0.9906 0.1325
vn 0.2144 0.9659 0.1449
vn 0.0152 -0.9986 -0.0507
vn -0.2719 0.9112 0.3096
vn -0.1187 0.9731 -0.1972
vn -0.1145 0.9836 -0.1393
vn 0.0808 0.9898 0.1176
vn 0.0704 0.9932 0.0931
vn 0.0306 0.9942 0.1034
vn 0.1110 0.9897 -0.0904
vn -0.2066 0.9784 0.0003
vn 0.1858 0.9620 0.2002
vn 0.1354 0.9886 0.0652
vn 0.0364 0.9992 -0.0166
vn 0.0579 0.9980 0.0270
vn 0.1208 0.9899 -0.0744
vn 0.0792 0.9958 0.0455
vn -0.3873 0.8746 -0.2915
vn -0.1599 0.9799 -0.1191
vn -0.0693 -0.9976 0.0096
vn -0.0458 -0.9981 0.0412
vn -0.0430 -0.9973 -0.0597
vn 0.0890 0.9957 0.0250
vn -0.2856 0.8919 0.3507
usemtl None.001
s 1
f 1/1/1 2/2/1 3/3/1
f 4/4/2 2/2/2 5/5/2
f 4/4/3 6/6/3 7/7/3
f 1/8/4 3/3/4 8/9/4
f 9/10/5 10/11/5 11/12/5
f 10/11/6 12/13/6 13/14/6
f 13/14/7 14/15/7 15/16/7
f 11/12/8 10/11/8 16/17/8
f 16/17/9 10/11/9 17/18/9
f 18/19/10 16/17/10 17/18/10
f 17/18/11 19/20/11 20/21/11
f 21/22/12 8/9/12 22/23/12
f 8/9/13 3/3/13 22/23/13
f 23/24/14 22/23/14 3/3/14
f 23/24/15 24/25/15 21/22/15
f 25/26/16 21/22/16 24/25/16
f 21/22/17 25/26/17 26/27/17
f 18/19/18 27/28/18 28/29/18
f 26/27/19 29/30/19 30/31/19
f 31/32/20 28/29/20 27/28/20
f 17/18/21 32/33/21 18/19/21
f 32/33/22 33/34/23 18/19/24
f 18/19/24 33/34/23 27/28/25
f 34/35/26 35/36/26 36/37/26
f 35/36/27 37/38/27 38/39/27
f 37/38/28 39/40/29 38/39/30
f 40/41/31 37/38/31 41/42/31
f 42/43/32 40/41/32 43/44/32
f 40/41/33 43/44/33 39/40/33
f 44/45/34 42/43/34 43/44/34
f 45/46/35 42/43/35 46/47/35
f 45/46/36 44/45/36 42/43/36
f 34/35/37 47/48/37 48/49/37
f 34/35/38 36/37/38 49/50/38
f 47/48/39 34/35/39 49/50/39
f 50/51/40 47/48/40 49/50/40
f 51/52/41 48/49/41 50/51/41
f 51/52/42 45/46/42 46/47/42
f 52/53/43 46/47/43 53/54/43
f 46/47/44 54/55/44 53/54/44
f 55/56/45 42/43/45 54/55/45
f 41/42/46 55/56/46 56/57/46
f 57/58/47 41/42/47 56/57/47
f 57/58/48 34/35/48 58/59/48
f 34/35/49 48/49/49 58/59/49
f 52/53/50 58/59/50 59/60/50
f 48/49/51 52/53/51 58/59/51
f 1/1/52 5/5/52 2/2/52
f 4/4/53 5/5/53 6/6/53
f 9/10/54 60/61/54 10/11/54
f 10/11/55 60/61/55 12/13/55
f 13/14/56 12/13/56 14/15/56
f 18/19/57 28/29/57 16/17/57
f 21/22/12 26/27/12 8/9/12
f 23/24/58 21/22/58 22/23/58
f 26/27/59 25/26/59 29/30/59
f 31/32/60 61/62/60 28/29/60
f 17/18/11 20/21/11 32/33/11
f 34/35/61 37/38/61 35/36/61
f 37/38/28 40/41/62 39/40/29
f 50/51/63 48/49/63 47/48/63
f 51/52/64 50/51/64 45/46/64
f 52/53/65 51/52/65 46/47/65
f 46/47/66 42/43/66 54/55/66
f 55/56/67 40/41/67 42/43/67
f 41/42/68 40/41/68 55/56/68
f 57/58/69 37/38/69 41/42/69
f 57/58/70 37/38/70 34/35/70
f 48/49/71 51/52/71 52/53/71
