# Blender v2.90.1 OBJ File: 'MugenStage.blend'
# www.blender.org
mtllib MugenStage.mtl
o stage_å¹³é¢.004
v 11.967209 -0.037387 -20.797081
v 12.747152 -0.037385 -40.380875
v 5.664976 -0.037387 -20.874924
v 23.497101 -0.037382 -54.558529
v 19.012831 -0.037189 -57.781750
v 27.085152 -0.033326 -63.951195
v 28.970438 -0.037381 -58.925362
v 37.230156 -0.030016 -64.630569
v 43.494141 -0.229229 -56.601784
v 46.742210 -0.039442 -60.931999
v 47.946476 -0.557071 -51.197777
v 52.944500 0.008363 -52.896370
v 47.689461 -1.179114 -44.249100
v 52.893276 -0.585853 -42.760284
v 47.639351 -2.213300 -33.956131
v 43.626225 -2.845286 -37.725624
v 39.845749 -4.242892 -28.241184
v 15.907711 -8.538245 -15.069178
v 36.417759 -4.242892 -32.685738
v 15.321360 -8.350763 -20.617907
v 24.738911 2.029179 -68.168312
v 37.883659 2.050919 -69.269630
v 49.510860 2.200539 -65.144638
v 56.676323 2.561495 -54.208336
v 57.061420 1.266912 -41.466915
v 0.457764 -8.562641 -9.840987
v 0.184204 -8.562640 -15.497093
v -10.421252 -6.337818 -7.091167
v -10.415277 -6.337817 -12.604643
v -0.148935 -0.037392 8.282894
v -5.904705 -0.014253 6.320969
v -8.539089 -0.038422 19.699783
v -12.316118 -0.217227 15.250204
v -16.657085 -0.005085 23.694565
v -18.144182 -0.287767 17.521297
v -25.617786 -0.015352 23.119255
v -23.031631 -0.508464 17.097607
v -26.804533 -0.879926 14.036346
v -28.256485 -1.600129 8.721630
v -32.233189 -0.035782 17.037218
v -27.003210 -2.194400 -5.120544
v -23.887854 -2.983930 -1.040722
v -37.450699 2.557619 7.548374
v -34.321404 -0.034668 8.193546
v -26.991518 -2.190617 -5.138598
v -34.139378 2.706037 18.341091
v -26.883533 2.690629 25.378208
v -15.969912 2.464923 27.168518
v -5.364021 1.185778 22.378136
v -0.150681 -0.035431 8.259148
v 18.302822 -0.037385 -38.390228
v 36.355911 -0.037381 -59.217632
v 15.828838 -0.037385 -31.520309
v 13.124948 -0.037385 -32.499107
v 13.844124 -0.037385 -34.631760
v 16.777378 -0.037385 -34.154278
v 14.122124 -0.037385 -35.335087
vt 0.558876 0.507580
vt 0.253899 0.630284
vt 0.452966 0.470597
vt 0.812335 0.795346
vt 0.904826 0.714486
vt 0.939582 0.797017
vt 0.109326 0.857598
vt 0.200365 0.955643
vt 0.000000 0.870868
vt 0.266748 0.921985
vt 0.501284 0.910633
vt 0.484744 0.956206
vt 0.725150 0.489091
vt 0.457142 0.398209
vt 0.553507 0.365735
vt 0.805839 0.069265
vt 0.593361 0.070719
vt 0.647720 0.019474
vt 0.415451 0.286435
vt 0.168277 0.179606
vt 0.286968 0.172838
vt 0.875814 0.141563
vt 0.702340 0.237899
vt 0.741028 0.145789
vt 0.426138 0.000000
vt 0.660875 0.000680
vt 0.663247 0.904227
vt 0.882389 0.882730
vt 0.718139 0.944660
vt 0.075448 0.772428
vt 0.625161 0.519222
vt 0.829784 0.260256
vt 0.260910 0.057720
vt 0.196080 0.045262
vt 0.970885 0.901310
vt 0.772360 0.860267
vt 0.681189 0.097401
vt 0.326043 0.319711
vt 0.222225 0.838498
vt 0.202234 0.779644
vt 0.371635 0.089220
vt 0.439155 0.016811
vt 0.481359 0.066432
vt 0.871364 0.054547
vt 0.970885 0.145346
vt 0.168174 0.179788
vt 0.829368 0.260390
vt 0.365446 0.602142
vt 0.358644 0.608034
vt 0.756447 0.976961
vt 0.775751 0.720911
vt 0.340113 0.884149
vt 0.460258 1.000000
vt 0.448914 0.595178
vt 0.388127 0.585010
vt 0.421903 0.616695
vt 0.378465 0.651298
vn -0.0000 1.0000 0.0000
vn -0.2101 0.9758 0.0601
vn 0.0340 0.9051 0.4238
vn -0.0124 0.9993 0.0345
vn -0.0016 1.0000 0.0001
vn 0.0040 0.9968 -0.0799
vn 0.2427 0.9701 0.0024
vn -0.0401 0.9992 -0.0061
vn 0.5119 0.6789 -0.5264
vn -0.0928 0.9940 0.0578
vn 0.2405 0.9181 0.3152
vn -0.1501 0.9874 0.0492
vn 0.0038 1.0000 0.0008
vn 0.6490 0.7314 -0.2092
vn -0.3892 0.9191 -0.0624
vn -0.1404 0.9852 0.0983
vn -0.0273 0.9989 -0.0392
vn 0.2004 0.9797 0.0002
vn -0.0003 1.0000 0.0009
vn -0.4188 0.9066 0.0510
vn 0.0690 0.9859 -0.1525
vn 0.2614 0.9651 -0.0129
vn -0.0520 0.9301 -0.3635
vn -0.0907 0.9938 0.0641
vn 0.5992 0.7741 0.2042
vn 0.0366 0.8110 -0.5839
vn -0.1496 0.9098 0.3871
vn -0.0236 0.9955 -0.0917
vn -0.2286 0.9590 -0.1674
vn -0.4467 0.8276 0.3399
vn -0.1244 0.9876 0.0959
vn 0.0273 0.9106 0.4123
vn 0.0249 0.9997 0.0054
vn -0.0025 0.9994 0.0340
vn -0.0420 0.9985 -0.0356
vn 0.2425 0.9702 0.0003
vn 0.0032 1.0000 0.0024
vn 0.5222 0.6342 -0.5702
vn -0.1364 0.9871 0.0833
vn -0.1332 0.9858 0.1027
vn 0.7652 0.6179 -0.1806
vn -0.2421 0.9655 0.0958
vn -0.0110 0.9995 -0.0308
vn 0.2028 0.9792 -0.0098
vn 0.0001 1.0000 0.0008
vn 0.0001 1.0000 0.0014
vn -0.5372 0.8373 0.1013
vn 0.2544 0.9652 -0.0599
vn 0.2518 0.9675 -0.0244
vn -0.2556 0.8111 -0.5261
vn 0.0107 0.9986 0.0518
vn 0.1335 0.6712 -0.7292
vn -0.1488 0.9103 0.3863
vn 0.0950 0.9898 -0.1066
vn -0.3853 0.8955 0.2229
usemtl None
s off
f 1/1/1 2/2/1 3/3/1
f 16/4/2 17/5/2 15/6/2
f 6/7/3 22/8/3 21/9/3
f 8/10/4 9/11/4 10/12/4
f 18/13/5 27/14/5 26/15/5
f 34/16/6 37/17/6 36/18/6
f 28/19/7 41/20/7 42/21/7
f 32/22/8 31/23/8 33/24/8
f 36/18/9 46/25/9 47/26/9
f 11/27/10 14/28/10 12/29/10
f 5/30/11 6/7/11 21/9/11
f 17/5/12 20/31/12 18/13/12
f 30/32/13 3/3/13 31/23/13
f 46/25/14 44/33/14 43/34/14
f 15/6/15 25/35/15 14/28/15
f 13/36/16 15/6/16 14/28/16
f 34/16/17 33/24/17 35/37/17
f 26/15/18 29/38/18 28/19/18
f 7/39/1 5/30/1 4/40/1
f 7/39/19 8/10/19 6/7/19
f 25/35/20 12/29/20 14/28/20
f 39/41/21 40/42/21 38/43/21
f 44/33/22 42/21/22 41/20/22
f 32/22/23 48/44/23 49/45/23
f 10/12/24 11/27/24 12/29/24
f 43/34/25 44/33/25 45/46/25
f 36/18/26 48/44/26 34/16/26
f 10/12/27 22/8/27 8/10/27
f 38/43/28 36/18/28 37/17/28
f 50/47/29 32/22/29 49/45/29
f 55/48/1 57/49/1 2/2/1
f 24/50/30 10/12/30 12/29/30
f 2/2/1 4/40/1 5/30/1
f 16/4/31 19/51/31 17/5/31
f 6/7/32 8/10/32 22/8/32
f 8/10/33 52/52/33 9/11/33
f 18/13/34 20/31/34 27/14/34
f 34/16/35 35/37/35 37/17/35
f 28/19/36 29/38/36 41/20/36
f 32/22/37 30/32/37 31/23/37
f 36/18/38 40/42/38 46/25/38
f 11/27/39 13/36/39 14/28/39
f 17/5/40 19/51/40 20/31/40
f 30/32/1 1/1/1 3/3/1
f 46/25/41 40/42/41 44/33/41
f 13/36/42 16/4/42 15/6/42
f 34/16/43 32/22/43 33/24/43
f 26/15/44 27/14/44 29/38/44
f 7/39/45 6/7/45 5/30/45
f 7/39/46 52/52/46 8/10/46
f 25/35/47 24/50/47 12/29/47
f 39/41/48 44/33/48 40/42/48
f 44/33/49 39/41/49 42/21/49
f 32/22/50 34/16/50 48/44/50
f 10/12/51 9/11/51 11/27/51
f 36/18/52 47/26/52 48/44/52
f 10/12/53 23/53/53 22/8/53
f 38/43/54 40/42/54 36/18/54
f 1/1/1 53/54/1 54/55/1
f 2/2/1 1/1/1 54/55/1
f 56/56/1 51/57/1 57/49/1
f 51/57/1 2/2/1 57/49/1
f 2/2/1 54/55/1 55/48/1
f 24/50/55 23/53/55 10/12/55
f 2/2/1 51/57/1 4/40/1
