# Blender v2.90.1 OBJ File: ''
# www.blender.org
mtllib MugenStageTunnelCeiling.mtl
o ornament_å¹³é¢.002
v -10.228193 -3.733134 -7.144753
v 0.613663 -2.479287 -10.105349
v -10.302156 -3.747095 -12.775612
v 0.221726 -2.479285 -15.846113
v 15.519106 -2.719322 -20.644636
v 36.234711 -1.536255 -32.649643
v 16.239693 -2.801123 -14.938833
v 39.780586 -1.536255 -28.297873
v -10.302156 -3.747095 -12.775612
v -26.957912 -2.203605 -5.136516
v -10.542722 -6.393782 -12.587795
v 0.221726 -2.479285 -15.846113
v 0.061897 -8.611930 -15.452965
v 15.283051 -8.379910 -20.565569
v 15.519106 -2.719322 -20.644636
v 43.622169 -2.815064 -37.696915
v 36.234711 -1.536255 -32.649643
v 36.290379 -4.275650 -32.582932
v 15.519108 -2.719322 -20.644636
v 36.290379 -4.275650 -32.582932
v 36.234715 -1.536255 -32.649643
v 15.283052 -8.379910 -20.565567
vt 0.000000 0.000000
vt 0.000000 0.000000
vt 0.000000 0.000000
vt 0.000000 0.000000
vt 0.000000 0.000000
vt 0.000000 0.000000
vt 0.000000 0.000000
vt 0.000000 0.000000
vt 0.000000 0.000000
vt 0.000000 0.000000
vt 0.000000 0.000000
vt 0.000000 0.000000
vt 0.000000 0.000000
vt 0.000000 0.000000
vt 0.000000 0.000000
vt 0.000000 0.000000
vt 0.000000 0.000000
vt 0.000000 0.000000
vt 0.000000 0.000000
vt 0.000000 0.000000
vt 0.000000 0.000000
vt 0.000000 0.000000
vn 0.1138 -0.9935 -0.0065
vn 0.1188 -0.9929 -0.0005
vn 0.1128 -0.9936 -0.0077
vn -0.0241 -0.9996 -0.0113
vn 0.0367 -0.9989 -0.0299
vn 0.1199 -0.9928 0.0009
vn -0.0154 -0.9999 0.0010
vn 0.0454 -0.9988 -0.0201
vn 0.4188 0.0264 0.9077
vn 0.2741 0.0459 0.9606
vn 0.2717 0.0528 0.9609
vn 0.2711 0.0545 0.9610
vn 0.2993 0.0008 0.9542
vn 0.5676 0.0316 0.8227
vn 0.4998 0.0312 0.8656
vn 0.2750 0.0432 0.9605
vn 0.3173 0.0524 0.9469
vn 0.4978 -0.0086 0.8672
usemtl None.001
s 1
f 1/1/1 4/2/2 2/3/3
f 2/3/4 5/4/4 7/5/4
f 7/5/5 6/6/5 8/7/5
f 1/1/1 3/8/6 4/2/2
f 2/3/7 4/2/7 5/4/7
f 7/5/8 5/4/8 6/6/8
f 9/9/9 10/10/9 11/11/9
f 12/12/10 11/11/11 13/13/12
f 12/12/13 14/14/13 15/15/13
f 16/16/14 17/17/14 18/18/14
f 19/19/15 20/20/15 21/21/15
f 12/12/10 9/9/16 11/11/11
f 12/12/17 13/13/17 14/14/17
f 19/19/18 22/22/18 20/20/18
