# Blender v2.90.1 OBJ File: 'MugenStage.blend'
# www.blender.org
mtllib MugenStageSlope.mtl
o slope_å¹³é¢.023
v 11.986061 0.249010 -20.978802
v 11.482861 -0.021023 -19.641283
v 6.476892 0.230583 -22.971508
v 12.103027 -0.052663 -21.175198
v 6.149085 -0.055453 -6.833831
v 0.947614 0.163176 -9.815216
v 0.580315 -0.004140 -8.920679
v 6.509894 0.136919 -7.746801
v 0.976474 -0.045441 -9.824979
v 6.557983 -0.047501 -7.859141
v 12.813895 -0.080952 -31.848026
v 15.782286 0.073292 -31.442217
v 13.105426 0.047541 -32.452629
v 15.544678 -0.048943 -30.825348
v 5.958214 -0.003794 -21.637074
v 13.079817 -0.121942 -32.454391
v 6.558677 -0.052440 -23.216808
v 15.803606 -0.059480 -31.448103
v 9.190625 -0.021901 -14.135331
v 4.167634 0.279312 -17.467110
v 3.639807 0.000389 -16.130806
v 9.697050 0.273641 -15.463963
v 4.187644 -0.049372 -17.633310
v 9.697898 -0.055388 -15.605576
v 7.753309 -0.021620 -10.667277
v 2.531220 0.162894 -13.575180
v 2.204474 -0.000178 -12.731935
v 8.088630 0.159429 -11.510352
v 2.580535 -0.036422 -13.652380
v 8.076393 -0.056361 -11.548472
v 12.847327 -0.122091 -40.661098
v 15.815893 0.072127 -40.245438
v 13.038294 0.038496 -41.313679
v 15.638866 -0.041549 -39.600121
v 14.962303 -0.026669 -46.520100
v 20.499134 0.176090 -45.163429
v 15.207306 0.149143 -47.143112
v 20.282070 0.005340 -44.580879
v 42.361656 -2.955408 -34.178165
v 44.034935 -2.930678 -35.311180
v 41.239540 -2.970860 -35.833645
v 42.900669 -3.039968 -36.961910
v 35.920498 -4.749821 -26.116497
v 37.640911 -4.641041 -27.088140
v 34.831806 -4.672527 -27.694347
v 36.506645 -4.623388 -28.738871
v 26.087864 -6.021965 -24.382801
v 27.802511 -6.049833 -25.374168
v 24.992382 -6.111217 -26.127041
v 26.653019 -6.153551 -27.077053
v 16.655521 -6.199187 -15.352589
v 20.083412 -7.855423 -17.404476
v 16.017550 -6.221274 -17.230598
v 19.070887 -7.855424 -19.129240
v 2.106983 -6.205132 -10.416054
v 1.464567 -6.205133 -12.310072
v 13.081898 -0.057244 -41.331917
v 15.817815 -0.049487 -40.235107
v 15.189860 -0.036257 -47.146381
v 20.472277 -0.049685 -45.167297
v 41.245644 -3.293648 -35.839008
v 42.366329 -3.264164 -34.172634
v 34.827217 -4.911189 -27.716583
v 35.917732 -5.032531 -26.110033
v 26.107788 -6.455911 -24.386724
v 25.005199 -6.504295 -26.103107
v 16.031057 -8.488597 -17.375311
v 1.327544 -8.550585 -12.295877
v 15.867393 -8.515481 -15.165796
v 1.868962 -8.650758 -10.307971
vt 0.000000 0.000000
vt 1.000000 0.000000
vt 1.000000 1.000000
vt 0.991835 0.152856
vt 0.971288 0.101853
vt 0.991835 0.101786
vt 0.970885 0.152858
vt 1.000000 0.000000
vt 0.000000 1.000000
vt 0.000000 0.000000
vt 0.987115 0.251319
vt 0.970904 0.275702
vt 0.970885 0.251411
vt 0.987115 0.276135
vt 1.000000 0.101708
vt 0.971290 0.051412
vt 1.000000 0.051270
vt 0.970885 0.101786
vt 1.000000 0.000000
vt 0.000000 1.000000
vt 0.000000 0.000000
vt 0.991662 0.203295
vt 0.971290 0.153009
vt 0.991662 0.152858
vt 0.970885 0.203383
vt 1.000000 0.000000
vt 0.000000 1.000000
vt 0.000000 0.000000
vt 0.987115 0.276135
vt 0.970903 0.300518
vt 0.970885 0.276227
vt 0.987115 0.300950
vt 0.987113 0.203383
vt 0.970895 0.250924
vt 0.970885 0.203511
vt 0.987113 0.251319
vt 0.000000 0.000000
vt 1.000000 1.000000
vt 0.000000 1.000000
vt 1.000000 0.000000
vt 0.000000 1.000000
vt 0.000000 0.000000
vt 0.000000 0.000000
vt 1.000000 1.000000
vt 0.000000 1.000000
vt 0.000000 0.000000
vt 1.000000 1.000000
vt 0.000000 0.000000
vt 1.000000 0.000000
vt 1.000000 1.000000
vt 0.000000 0.000000
vt 1.000000 0.000000
vt 1.000000 1.000000
vt 0.000000 0.000000
vt 1.000000 1.000000
vt 0.000000 0.000000
vt 1.000000 1.000000
vt 1.000000 1.000000
vt 1.000000 0.000000
vt 1.000000 1.000000
vt 1.000000 0.000000
vt 0.000000 0.000000
vt 1.000000 0.000000
vt 0.000000 0.000000
vt 1.000000 1.000000
vt 0.000000 1.000000
vt 0.000000 0.000000
vt 1.000000 1.000000
vt 0.000000 1.000000
vt 1.000000 0.000000
vt 0.000000 1.000000
vt 0.000000 0.000000
vt 1.000000 1.000000
vt 0.000000 0.000000
vt 1.000000 1.000000
vt 0.000000 1.000000
vt 1.000000 0.000000
vt 0.000000 0.000000
vt 0.000000 0.000000
vt 0.000000 1.000000
vt 1.000000 1.000000
vt 0.000000 0.000000
vt 0.000000 0.000000
vt 1.000000 0.000000
vt 0.000000 0.000000
vt 1.000000 0.000000
vt 0.000000 0.000000
vt 0.000000 0.000000
vt 1.000000 1.000000
vt 0.000000 0.000000
vt 0.000000 1.000000
vt 0.000000 0.000000
vt 0.000000 0.000000
vt 0.000000 0.000000
vt 0.000000 0.000000
vt 1.000000 0.000000
vt 1.000000 0.101708
vt 0.971290 0.051412
vt 1.000000 0.051270
vt 0.970885 0.101786
vt 1.000000 0.000000
vt 0.000000 0.000000
vn 0.9216 0.1163 0.3702
vn -0.0520 0.9853 0.1629
vn -0.0630 0.9813 0.1819
vn 0.3475 0.0917 -0.9332
vn -0.0746 0.9821 0.1727
vn -0.0738 0.9833 0.1664
vn -0.0610 0.9816 0.1808
vn -0.0684 0.9791 0.1917
vn 0.3055 0.4444 -0.8421
vn -0.0586 0.9841 0.1676
vn -0.0676 0.9807 0.1837
vn 0.3179 0.4098 -0.8550
vn -0.0933 0.9728 0.2121
vn -0.0855 0.9850 0.1501
vn -0.0933 0.9672 0.2362
vn -0.0958 0.9643 0.2469
vn 0.0241 0.9994 -0.0257
vn 0.3646 0.9214 -0.1347
vn 0.0010 1.0000 -0.0003
vn -0.9124 -0.1077 -0.3948
vn 0.9287 0.0165 0.3705
vn 0.9313 -0.1139 0.3460
vn -0.9236 -0.0836 -0.3741
vn -0.9318 0.1170 -0.3436
vn 0.3569 0.9103 -0.2095
vn -0.0039 0.9999 -0.0104
vn 0.2773 0.5515 -0.7867
vn 0.3205 0.3752 -0.8698
vn 0.3543 0.1432 -0.9241
vn -0.0406 0.9984 -0.0382
vn 0.9353 -0.1378 0.3258
vn -0.9336 0.0388 -0.3561
vn 0.3471 -0.0427 -0.9369
vn 0.9163 0.1303 0.3788
vn -0.9032 0.1407 -0.4056
vn 0.3365 0.3218 -0.8850
vn -0.8787 -0.3355 -0.3397
vn 0.9619 0.0382 0.2706
vn 0.3508 -0.0165 -0.9363
vn 0.9414 -0.1174 0.3163
vn -0.9353 0.0940 -0.3413
vn -0.5618 0.0031 -0.8273
vn 0.5603 0.0233 0.8280
vn -0.8298 -0.0025 0.5581
vn -0.8274 -0.0250 0.5611
vn -0.5290 0.0888 -0.8440
vn 0.4910 0.0151 0.8710
vn 0.5007 0.0152 0.8655
vn -0.4967 -0.0689 -0.8652
vn -0.5072 0.0519 -0.8603
vn -0.3262 0.0583 -0.9435
vn -0.3203 0.0130 -0.9472
vn 0.4782 -0.0923 0.8734
vn 0.3277 0.0099 0.9447
vn 0.3212 -0.0330 0.9465
vn -0.9582 0.1050 0.2663
vn -0.9455 0.0572 0.3207
vn 0.3506 0.0976 -0.9314
vn 0.3713 -0.0728 -0.9257
vn 0.3504 -0.0256 -0.9363
vn 0.0008 0.9988 0.0483
vn -0.0411 0.9984 0.0389
vn -0.8265 0.0209 0.5626
vn -0.8234 -0.0369 0.5663
vn -0.0028 0.9988 -0.0494
vn -0.0136 0.9986 -0.0516
vn -0.8469 0.0048 0.5317
vn -0.8400 -0.0435 0.5408
vn -0.0522 0.9868 0.1530
vn -0.0661 0.9826 0.1735
vn 0.2491 0.6744 -0.6951
vn 0.2771 0.5974 -0.7525
usemtl None
s off
f 1/1/1 2/2/1 4/3/1
f 5/4/2 6/5/2 7/6/2
f 5/4/3 8/7/3 6/5/3
f 8/8/4 9/9/4 6/10/4
f 11/11/5 12/12/5 13/13/5
f 11/11/6 14/14/6 12/12/6
f 19/15/7 20/16/7 21/17/7
f 19/15/8 22/18/8 20/16/8
f 22/19/9 23/20/9 20/21/9
f 25/22/10 26/23/10 27/24/10
f 25/22/11 28/25/11 26/23/11
f 28/26/12 29/27/12 26/28/12
f 31/29/13 32/30/13 33/31/13
f 31/29/14 34/32/14 32/30/14
f 35/33/15 36/34/15 37/35/15
f 35/33/16 38/36/16 36/34/16
f 39/37/17 42/38/17 41/39/17
f 52/40/18 53/41/18 51/42/18
f 55/43/19 53/44/19 56/45/19
f 7/46/20 6/47/20 9/9/20
f 8/48/21 5/49/21 10/50/21
f 28/51/22 25/52/22 30/53/22
f 27/54/23 26/55/23 29/27/23
f 21/56/24 20/57/24 23/20/24
f 52/40/25 54/58/25 53/41/25
f 55/43/26 51/59/26 53/44/26
f 8/8/27 10/50/27 9/9/27
f 22/19/28 24/60/28 23/20/28
f 28/26/29 30/53/29 29/27/29
f 39/37/30 40/61/30 42/38/30
f 22/62/31 19/63/31 24/60/31
f 15/64/32 3/65/32 17/66/32
f 13/67/33 18/68/33 16/69/33
f 18/68/34 12/12/34 14/14/34
f 13/67/35 16/69/35 11/11/35
f 32/70/36 57/71/36 33/72/36
f 33/72/37 57/71/37 31/29/37
f 34/32/38 58/73/38 32/70/38
f 37/74/39 60/75/39 59/76/39
f 38/36/40 60/75/40 36/77/40
f 37/74/41 59/76/41 35/33/41
f 41/39/42 42/38/42 61/78/42
f 40/61/43 39/37/43 62/79/43
f 39/37/44 61/78/44 62/79/44
f 39/37/45 41/39/45 61/78/45
f 45/80/46 46/81/46 63/82/46
f 64/83/47 44/84/47 43/85/47
f 48/86/48 47/87/48 65/88/48
f 50/89/49 66/90/49 49/91/49
f 53/41/50 54/58/50 67/92/50
f 68/93/51 53/44/51 67/92/51
f 68/93/52 56/45/52 53/44/52
f 69/94/53 52/40/53 51/42/53
f 69/94/54 55/43/54 70/95/54
f 69/94/55 51/42/55 55/43/55
f 55/43/56 68/93/56 70/95/56
f 55/43/57 56/45/57 68/93/57
f 13/67/58 12/96/58 18/68/58
f 32/70/59 58/73/59 57/71/59
f 37/74/60 36/77/60 60/75/60
usemtl None.001
f 43/85/61 46/81/61 45/80/61
f 43/85/62 44/84/62 46/81/62
f 43/85/63 63/82/63 64/83/63
f 43/85/64 45/80/64 63/82/64
usemtl None.002
f 47/87/65 50/89/65 49/91/65
f 47/87/66 48/86/66 50/89/66
f 66/90/67 47/87/67 49/91/67
f 66/90/68 65/88/68 47/87/68
usemtl None.007
f 2/97/69 3/98/69 15/99/69
f 2/97/70 1/100/70 3/98/70
f 1/101/71 17/66/71 3/102/71
f 1/101/72 4/3/72 17/66/72
