# Blender v2.90.1 OBJ File: ''
# www.blender.org
mtllib MugenStageTunnel.mtl
o ornament_å¹³é¢.001
v -10.312311 -6.354180 -7.180087
v -19.395718 -4.111759 -3.066171
v -10.228193 -3.733135 -7.144752
v 0.613663 -2.479289 -10.105349
v -10.302156 -3.747097 -12.775611
v -26.957912 -2.203606 -5.136515
v -10.542722 -6.393784 -12.587794
v 0.221726 -2.479288 -15.846113
v 0.061897 -8.611933 -15.452964
v 15.283051 -8.379913 -20.565567
v 15.519106 -2.719325 -20.644636
v 43.622169 -2.815070 -37.696915
v 36.234711 -1.536260 -32.649643
v 36.290379 -4.275655 -32.582932
v 16.239693 -2.801125 -14.938833
v 39.780586 -1.536260 -28.297873
v 0.453834 -8.611934 -9.712201
v 16.239693 -2.801125 -14.938831
v 16.003637 -9.812809 -14.859764
v 39.836254 -4.275655 -28.231161
v 39.780590 -1.536260 -28.297873
v 47.808460 -2.250983 -34.130020
v 15.519108 -2.719325 -20.644636
v 36.290379 -4.275655 -32.582932
v 36.234715 -1.536260 -32.649643
v 0.453833 -8.611934 -9.712201
v 0.613663 -2.479289 -10.105349
v 15.283052 -8.379913 -20.565565
vt 0.000000 0.000000
vt 0.000000 0.000000
vt 0.000000 0.000000
vt 0.000000 0.000000
vt 0.000000 0.000000
vt 0.000000 0.000000
vt 0.000000 0.000000
vt 0.000000 0.000000
vt 0.000000 0.000000
vt 0.000000 0.000000
vt 0.000000 0.000000
vt 0.000000 0.000000
vt 0.000000 0.000000
vt 0.000000 0.000000
vt 0.000000 0.000000
vt 0.000000 0.000000
vt 0.000000 0.000000
vt 0.000000 0.000000
vt 0.000000 0.000000
vt 0.000000 0.000000
vt 0.000000 0.000000
vt 0.000000 0.000000
vt 0.000000 0.000000
vt 0.000000 0.000000
vt 0.000000 0.000000
vt 0.000000 0.000000
vt 0.000000 0.000000
vt 0.000000 0.000000
vn -0.4072 0.0254 -0.9130
vn -0.2657 0.0215 -0.9638
vn 0.4188 0.0264 0.9077
vn 0.2741 0.0459 0.9606
vn 0.2717 0.0528 0.9609
vn 0.2711 0.0545 0.9610
vn 0.2993 0.0008 0.9542
vn 0.5676 0.0316 0.8227
vn 0.1138 -0.9935 -0.0065
vn 0.1188 -0.9929 -0.0005
vn 0.1128 -0.9936 -0.0077
vn -0.0241 -0.9996 -0.0113
vn 0.0367 -0.9989 -0.0299
vn -0.3143 -0.0001 -0.9493
vn -0.4905 0.0067 -0.8714
vn -0.5893 -0.0316 -0.8073
vn 0.4998 0.0312 0.8656
vn -0.2397 -0.0559 -0.9692
vn 0.2750 0.0432 0.9605
vn 0.3173 0.0524 0.9469
vn 0.1199 -0.9928 0.0009
vn -0.0154 -0.9999 0.0010
vn 0.0454 -0.9988 -0.0201
vn -0.2961 -0.0534 -0.9537
vn -0.4920 -0.0312 -0.8700
vn 0.4978 -0.0086 0.8672
usemtl None.001
s 1
f 1/1/1 2/2/1 3/3/1
f 4/4/2 1/1/2 3/3/2
f 5/5/3 6/6/3 7/7/3
f 8/8/4 7/7/5 9/9/6
f 8/8/7 10/10/7 11/11/7
f 12/12/8 13/13/8 14/14/8
f 3/3/9 8/8/10 4/4/11
f 4/4/12 11/11/12 15/15/12
f 15/15/13 13/13/13 16/16/13
f 17/17/14 18/18/14 19/19/14
f 18/18/15 20/20/15 19/19/15
f 21/21/16 22/22/16 20/20/16
f 23/23/17 24/24/17 25/25/17
f 4/4/18 26/26/18 1/1/18
f 8/8/4 5/5/19 7/7/5
f 8/8/20 9/9/20 10/10/20
f 3/3/9 5/5/21 8/8/10
f 4/4/22 8/8/22 11/11/22
f 15/15/23 11/11/23 13/13/23
f 17/17/24 27/27/24 18/18/24
f 18/18/25 21/21/25 20/20/25
f 23/23/26 28/28/26 24/24/26
