# Blender v2.90.1 OBJ File: ''
# www.blender.org
mtllib BuildingLowWindow.mtl
o Residential_Buildings_001_Cube.002
v 1.582695 1.041940 0.517443
v 1.687624 1.347054 0.273575
v 1.582695 1.347054 0.517443
v 1.687624 1.041940 0.273575
v -1.108092 1.041940 -0.640316
v -1.003163 1.347054 -0.884184
v -1.003163 1.041940 -0.884184
v -1.605850 1.041941 0.516540
v -1.500920 1.347054 0.272671
v -1.500920 1.041941 0.272671
v 2.052149 1.684705 -0.524866
v 2.052149 0.835808 -0.524865
v 2.381409 0.835808 -1.290110
v 2.381409 1.684704 -1.290110
v -0.345199 1.672062 -2.461202
v 0.933835 0.847549 1.895401
v 0.751909 1.684922 2.318223
v 0.751908 0.847549 2.318223
v 0.933835 1.684922 1.895401
v -1.844426 0.847549 1.201104
v -1.662499 1.684922 0.778281
v -1.662499 0.847549 0.778281
v -1.844426 1.684922 1.201103
v -0.345199 0.844420 -2.461202
v -0.672949 0.844420 -1.699466
v -0.672949 1.672062 -1.699467
v 2.134443 0.228911 -1.067404
v 2.239372 0.534025 -1.311272
v 2.134443 0.534025 -1.067404
v 2.239372 0.228911 -1.311272
v 1.983225 0.534025 -0.715954
v 1.983225 0.228911 -0.715954
v 2.088154 0.534025 -0.959822
v 2.088154 0.228911 -0.959822
v 1.605182 0.228911 0.162671
v 1.710111 0.534026 -0.081198
v 1.605182 0.534026 0.162671
v 1.710111 0.228911 -0.081198
v 0.388151 0.706248 2.722842
v -1.888113 0.367126 1.743438
v 0.388151 0.367126 2.722842
v -1.888113 0.706248 1.743438
v -1.535557 0.674398 0.661730
v -0.220910 0.112452 -2.393685
v -1.535557 0.112453 0.661731
v -0.220910 0.674397 -2.393685
v -1.732293 0.720231 1.115946
v -1.599977 0.520959 0.808428
v -1.732293 0.520959 1.115946
v -1.599977 0.720231 0.808427
v 1.582695 1.902794 0.517444
v 1.687624 2.207908 0.273575
v 1.582695 2.207908 0.517443
v 1.687624 1.902794 0.273575
v -1.108092 1.902794 -0.640315
v -1.003163 2.207908 -0.884184
v -1.003163 1.902794 -0.884184
v -1.605850 1.902794 0.516540
v -1.500921 2.207908 0.272671
v -1.500921 1.902794 0.272671
v 0.933835 1.708402 1.895401
v 0.751909 2.545774 2.318223
v 0.751909 1.708403 2.318223
v 0.933835 2.545775 1.895400
v -1.844426 1.708403 1.201103
v -1.662499 2.545776 0.778280
v -1.662499 1.708403 0.778281
v -1.844426 2.545776 1.201103
v -0.673906 2.532916 -1.695101
v -0.342687 2.532917 -2.464899
v -0.673906 1.704010 -1.695101
v -0.342687 1.704009 -2.464899
v 2.049383 2.545558 -0.521826
v 2.049383 1.699610 -0.521826
v 2.381714 1.699610 -1.294208
v 2.381714 2.545558 -1.294208
v -1.108092 1.347054 -0.640316
v -1.605850 1.347055 0.516540
v -1.108092 2.207908 -0.640316
v -1.605850 2.207908 0.516540
vt 0.493661 0.506339
vt 0.506339 0.493661
vt 0.506339 0.506339
vt 0.493661 0.506339
vt 0.506339 0.493661
vt 0.506339 0.506339
vt 0.493661 0.506339
vt 0.506339 0.493661
vt 0.506339 0.506339
vt 0.506339 0.506339
vt 0.493661 0.493661
vt 0.506339 0.493661
vt 0.493661 0.506339
vt 0.506339 0.493661
vt 0.506339 0.506339
vt 0.493661 0.506339
vt 0.506339 0.493661
vt 0.506339 0.506339
vt 0.493661 0.506339
vt 0.506339 0.493661
vt 0.506339 0.506339
vt 0.493661 0.506339
vt 0.506339 0.493661
vt 0.506339 0.506339
vt 0.493661 0.506339
vt 0.506339 0.493661
vt 0.506339 0.506339
vt 0.493661 0.506339
vt 0.506339 0.493661
vt 0.506339 0.506339
vt 0.506339 0.493661
vt 0.493661 0.506339
vt 0.493661 0.493661
vt 0.493661 0.506339
vt 0.506339 0.493661
vt 0.506339 0.506339
vt 0.493661 0.506339
vt 0.506339 0.493661
vt 0.506339 0.506339
vt 0.493661 0.506339
vt 0.506339 0.493661
vt 0.506339 0.506339
vt 0.493661 0.506339
vt 0.506339 0.493661
vt 0.506339 0.506339
vt 0.493661 0.506339
vt 0.506339 0.493661
vt 0.506339 0.506339
vt 0.493661 0.506339
vt 0.506339 0.493661
vt 0.506339 0.506339
vt 0.493661 0.506339
vt 0.506339 0.493661
vt 0.506339 0.506339
vt 0.489006 0.510994
vt 0.510994 0.489006
vt 0.510994 0.510994
vt 0.493661 0.506339
vt 0.506339 0.493661
vt 0.506339 0.506339
vt 0.493661 0.493661
vt 0.493661 0.493661
vt 0.493661 0.493661
vt 0.493661 0.506339
vt 0.493661 0.493661
vt 0.493661 0.493661
vt 0.493661 0.493661
vt 0.493661 0.493661
vt 0.493661 0.493661
vt 0.493661 0.493661
vt 0.506339 0.506339
vt 0.493661 0.493661
vt 0.493661 0.493661
vt 0.493661 0.493661
vt 0.493661 0.493661
vt 0.493661 0.493661
vt 0.493661 0.493661
vt 0.493661 0.493661
vt 0.489006 0.489006
vt 0.493661 0.493661
vn 0.9186 -0.0000 0.3952
vn -0.9186 -0.0000 -0.3952
vn -0.3952 0.0000 0.9186
usemtl ground.002
s off
f 1/1/1 2/2/1 3/3/1
f 5/4/2 6/5/2 7/6/2
f 8/7/2 9/8/2 10/9/2
f 13/10/1 11/11/1 12/12/1
f 16/13/1 17/14/1 18/15/1
f 20/16/2 21/17/2 22/18/2
f 24/19/2 26/20/2 15/21/2
f 27/22/1 28/23/1 29/24/1
f 32/25/1 33/26/1 31/27/1
f 35/28/1 36/29/1 37/30/1
f 39/31/3 40/32/3 41/33/3
f 43/34/2 44/35/2 45/36/2
f 47/37/2 48/38/2 49/39/2
f 51/40/1 52/41/1 53/42/1
f 55/43/2 56/44/2 57/45/2
f 58/46/2 59/47/2 60/48/2
f 61/49/1 62/50/1 63/51/1
f 65/52/2 66/53/2 67/54/2
f 72/55/2 69/56/2 70/57/2
f 76/58/1 74/59/1 75/60/1
f 1/1/1 4/61/1 2/2/1
f 5/4/2 77/62/2 6/5/2
f 8/7/2 78/63/2 9/8/2
f 13/10/1 14/64/1 11/11/1
f 16/13/1 19/65/1 17/14/1
f 20/16/2 23/66/2 21/17/2
f 24/19/2 25/67/2 26/20/2
f 27/22/1 30/68/1 28/23/1
f 32/25/1 34/69/1 33/26/1
f 35/28/1 38/70/1 36/29/1
f 39/31/3 42/71/3 40/32/3
f 43/34/2 46/72/2 44/35/2
f 47/37/2 50/73/2 48/38/2
f 51/40/1 54/74/1 52/41/1
f 55/43/2 79/75/2 56/44/2
f 58/46/2 80/76/2 59/47/2
f 61/49/1 64/77/1 62/50/1
f 65/52/2 68/78/2 66/53/2
f 72/55/2 71/79/2 69/56/2
f 76/58/1 73/80/1 74/59/1
