# Blender v2.90.1 OBJ File: ''
# www.blender.org
mtllib BuildingLow2Window.mtl
o Residential_Buildings_002_Cube.001
v 4.651462 1.041938 6.276448
v 4.756392 1.347053 6.032580
v 4.651462 1.347053 6.276448
v 4.756392 1.041938 6.032580
v 1.960678 1.041938 5.118672
v 2.065609 1.347053 4.874804
v 2.065609 1.041938 4.874804
v 1.462913 1.041939 6.275526
v 1.567844 1.347053 6.031657
v 1.567844 1.041938 6.031657
v 5.120923 1.684703 5.234140
v 5.120922 0.835806 5.234140
v 5.450187 0.835806 4.468897
v 5.450187 1.684703 4.468897
v 2.395828 1.672061 4.059524
v 2.723583 1.672061 3.297788
v 4.002593 0.847546 7.654404
v 3.820663 1.684921 8.077224
v 3.820663 0.847547 8.077225
v 4.002593 1.684921 7.654404
v 1.224332 0.847547 6.960089
v 1.406262 1.684921 6.537266
v 1.406262 0.847546 6.537267
v 1.224333 1.684921 6.960088
v 2.723583 0.844418 3.297788
v 2.395828 0.844418 4.059523
v 4.651462 1.902793 6.276448
v 4.756392 2.207907 6.032580
v 4.651462 2.207907 6.276448
v 4.756392 1.902793 6.032580
v 1.960678 1.902793 5.118671
v 2.065609 2.207907 4.874804
v 2.065609 1.902793 4.874804
v 1.462913 1.902793 6.275526
v 1.567844 2.207908 6.031658
v 1.567844 1.902793 6.031658
v 5.120923 2.545557 5.234140
v 5.120923 1.696660 5.234140
v 5.450187 1.696660 4.468897
v 5.450187 2.545557 4.468897
v 2.395828 2.532916 4.059523
v 2.723583 2.532917 3.297787
v 4.002593 1.708401 7.654404
v 3.820663 2.545774 8.077224
v 3.820663 1.708401 8.077224
v 4.002593 2.545775 7.654404
v 1.224333 1.708402 6.960088
v 1.406262 2.545775 6.537266
v 1.406262 1.708401 6.537266
v 1.224333 2.545775 6.960088
v 2.723583 1.705272 3.297788
v 2.395828 1.705272 4.059524
v 5.203220 0.228908 4.691602
v 5.308150 0.534022 4.447735
v 5.203220 0.534023 4.691602
v 5.308150 0.228908 4.447735
v 5.052000 0.534023 5.043052
v 5.052000 0.228908 5.043052
v 5.156930 0.534023 4.799184
v 5.156930 0.228908 4.799184
v 4.673950 0.228908 5.921675
v 4.778881 0.534023 5.677807
v 4.673950 0.534023 5.921675
v 4.778881 0.228908 5.677807
v 3.456903 0.706246 8.481842
v 1.180642 0.367123 7.502423
v 3.456903 0.367123 8.481842
v 1.180642 0.706246 7.502423
v 1.533205 0.674396 6.420717
v 2.847872 0.112448 3.365306
v 1.533205 0.112449 6.420717
v 2.847872 0.674395 3.365306
v 1.336466 0.720228 6.874932
v 1.468783 0.520957 6.567414
v 1.336466 0.520957 6.874932
v 1.468783 0.720228 6.567414
v 4.651462 2.763647 6.276448
v 4.756392 3.068762 6.032580
v 4.651462 3.068762 6.276448
v 4.756392 2.763647 6.032580
v 1.960678 2.763647 5.118671
v 2.065609 3.068762 4.874804
v 2.065609 2.763647 4.874804
v 1.462913 2.763648 6.275526
v 1.567844 3.068762 6.031658
v 1.567844 2.763648 6.031658
v 4.002593 2.569256 7.654404
v 3.820664 3.406630 8.077225
v 3.820663 2.569256 8.077224
v 4.002593 3.406630 7.654404
v 1.224333 2.569256 6.960088
v 1.406263 3.406630 6.537266
v 1.406262 2.569256 6.537266
v 1.224333 3.406630 6.960088
v 2.394871 3.393771 4.063888
v 2.726095 3.393770 3.294091
v 2.726095 2.564863 3.294091
v 2.394871 2.564863 4.063889
v 5.118157 3.406413 5.237179
v 5.450492 2.560463 4.464800
v 5.450493 3.406412 4.464799
v 5.118156 2.560463 5.237182
v 1.960678 1.347053 5.118672
v 1.462913 1.347053 6.275526
v 1.960678 2.207907 5.118671
v 1.462913 2.207908 6.275526
v 1.960678 3.068762 5.118671
v 1.462913 3.068762 6.275526
vt 0.496404 0.503596
vt 0.503596 0.496404
vt 0.503596 0.503596
vt 0.496404 0.503596
vt 0.503596 0.496404
vt 0.503596 0.503596
vt 0.496404 0.503596
vt 0.503596 0.496404
vt 0.503596 0.503596
vt 0.496404 0.503596
vt 0.503596 0.496404
vt 0.503596 0.503596
vt 0.496404 0.503596
vt 0.503596 0.496404
vt 0.503596 0.503596
vt 0.496404 0.503596
vt 0.503596 0.496404
vt 0.503596 0.503596
vt 0.496404 0.503596
vt 0.503596 0.496404
vt 0.503596 0.503596
vt 0.496404 0.503596
vt 0.503596 0.496404
vt 0.503596 0.503596
vt 0.496404 0.503596
vt 0.503596 0.496404
vt 0.503596 0.503596
vt 0.496404 0.503596
vt 0.503596 0.496404
vt 0.503596 0.503596
vt 0.496404 0.503596
vt 0.503596 0.496404
vt 0.503596 0.503596
vt 0.496404 0.503596
vt 0.503596 0.496404
vt 0.503596 0.503596
vt 0.496404 0.503596
vt 0.503596 0.496404
vt 0.503596 0.503596
vt 0.496404 0.503596
vt 0.503596 0.496404
vt 0.503596 0.503596
vt 0.496404 0.503596
vt 0.503596 0.496404
vt 0.503596 0.503596
vt 0.496404 0.503596
vt 0.503596 0.496404
vt 0.503596 0.503596
vt 0.496404 0.503596
vt 0.503596 0.496404
vt 0.503596 0.503596
vt 0.503596 0.496404
vt 0.496404 0.503596
vt 0.496404 0.496404
vt 0.496404 0.503596
vt 0.503596 0.496404
vt 0.503596 0.503596
vt 0.496404 0.503596
vt 0.503596 0.496404
vt 0.503596 0.503596
vt 0.496404 0.503596
vt 0.503596 0.496404
vt 0.503596 0.503596
vt 0.496404 0.503596
vt 0.503596 0.496404
vt 0.503596 0.503596
vt 0.496404 0.503596
vt 0.503596 0.496404
vt 0.503596 0.503596
vt 0.496404 0.503596
vt 0.503596 0.496404
vt 0.503596 0.503596
vt 0.496404 0.503596
vt 0.503596 0.496404
vt 0.503596 0.503596
vt 0.496404 0.503596
vt 0.503596 0.496404
vt 0.503596 0.503596
vt 0.503596 0.503596
vt 0.496404 0.496404
vt 0.503596 0.496404
vt 0.496404 0.496404
vt 0.496404 0.496404
vt 0.496404 0.496404
vt 0.496404 0.496404
vt 0.496404 0.496404
vt 0.496404 0.496404
vt 0.496404 0.496404
vt 0.496404 0.496404
vt 0.496404 0.496404
vt 0.496404 0.496404
vt 0.496404 0.496404
vt 0.496404 0.496404
vt 0.496404 0.496404
vt 0.496404 0.496404
vt 0.496404 0.496404
vt 0.496404 0.496404
vt 0.496404 0.496404
vt 0.503596 0.503596
vt 0.496404 0.496404
vt 0.496404 0.496404
vt 0.496404 0.496404
vt 0.496404 0.496404
vt 0.496404 0.496404
vt 0.496404 0.496404
vt 0.496404 0.496404
vt 0.496404 0.496404
vt 0.496404 0.503596
vn 0.9186 0.0000 0.3952
vn -0.9186 0.0000 -0.3952
vn -0.3952 0.0000 0.9186
usemtl hotel_glas.005
s off
f 1/1/1 2/2/1 3/3/1
f 5/4/2 6/5/2 7/6/2
f 8/7/2 9/8/2 10/9/2
f 14/10/1 12/11/1 13/12/1
f 17/13/1 18/14/1 19/15/1
f 21/16/2 22/17/2 23/18/2
f 25/19/2 15/20/2 16/21/2
f 27/22/1 28/23/1 29/24/1
f 31/25/2 32/26/2 33/27/2
f 34/28/2 35/29/2 36/30/2
f 40/31/1 38/32/1 39/33/1
f 43/34/1 44/35/1 45/36/1
f 47/37/2 48/38/2 49/39/2
f 51/40/2 41/41/2 42/42/2
f 53/43/1 54/44/1 55/45/1
f 58/46/1 59/47/1 57/48/1
f 61/49/1 62/50/1 63/51/1
f 65/52/3 66/53/3 67/54/3
f 69/55/2 70/56/2 71/57/2
f 73/58/2 74/59/2 75/60/2
f 77/61/1 78/62/1 79/63/1
f 81/64/2 82/65/2 83/66/2
f 84/67/2 85/68/2 86/69/2
f 87/70/1 88/71/1 89/72/1
f 91/73/2 92/74/2 93/75/2
f 97/76/2 95/77/2 96/78/2
f 100/79/1 99/80/1 102/81/1
f 1/1/1 4/82/1 2/2/1
f 5/4/2 103/83/2 6/5/2
f 8/7/2 104/84/2 9/8/2
f 14/10/1 11/85/1 12/11/1
f 17/13/1 20/86/1 18/14/1
f 21/16/2 24/87/2 22/17/2
f 25/19/2 26/88/2 15/20/2
f 27/22/1 30/89/1 28/23/1
f 31/25/2 105/90/2 32/26/2
f 34/28/2 106/91/2 35/29/2
f 40/31/1 37/92/1 38/32/1
f 43/34/1 46/93/1 44/35/1
f 47/37/2 50/94/2 48/38/2
f 51/40/2 52/95/2 41/41/2
f 53/43/1 56/96/1 54/44/1
f 58/46/1 60/97/1 59/47/1
f 61/49/1 64/98/1 62/50/1
f 65/52/3 68/99/3 66/53/3
f 69/55/2 72/100/2 70/56/2
f 73/58/2 76/101/2 74/59/2
f 77/61/1 80/102/1 78/62/1
f 81/64/2 107/103/2 82/65/2
f 84/67/2 108/104/2 85/68/2
f 87/70/1 90/105/1 88/71/1
f 91/73/2 94/106/2 92/74/2
f 97/76/2 98/107/2 95/77/2
f 100/79/1 101/108/1 99/80/1
