# Blender v2.90.1 OBJ File: ''
# www.blender.org
mtllib BuildingMiddleWindow.mtl
o Residential_Buildings_005_Cube.001
v 1.309106 0.691785 -0.013370
v 1.393513 0.937222 -0.209540
v 1.309106 0.937222 -0.013370
v 1.393513 0.691785 -0.209540
v -0.855382 0.691786 -0.944695
v -0.770975 0.937222 -1.140865
v -0.770975 0.691785 -1.140865
v -1.255788 0.691786 -0.014113
v -1.171381 0.937222 -0.210283
v -1.171381 0.691786 -0.210283
v 1.951608 1.208831 -1.467379
v 1.686744 1.208831 -0.851811
v 1.686744 0.525971 -0.851811
v 1.951608 0.525971 -1.467378
v -0.241695 1.198661 -2.409429
v 0.787151 0.535415 1.095068
v 0.640805 1.209006 1.435188
v 0.640805 0.535415 1.435189
v 0.787151 1.209006 1.095068
v -1.447704 0.535415 0.536555
v -1.301359 1.209006 0.196434
v -1.301359 0.535415 0.196434
v -1.447704 1.209006 0.536555
v -0.241695 0.532898 -2.409429
v -0.505344 0.532898 -1.796683
v -0.505344 1.198662 -1.796683
v 1.309106 1.384264 -0.013370
v 1.393513 1.629700 -0.209540
v 1.309106 1.629700 -0.013370
v 1.393513 1.384264 -0.209540
v -0.855382 1.384264 -0.944695
v -0.770975 1.629701 -1.140865
v -0.770975 1.384264 -1.140865
v -1.255788 1.384264 -0.014113
v -1.171381 1.629701 -0.210283
v -1.171381 1.384264 -0.210283
v 1.686744 1.901310 -0.851811
v 1.686744 1.218449 -0.851811
v 1.951608 1.218449 -1.467379
v 1.951608 1.901309 -1.467379
v -0.241695 1.891140 -2.409429
v 0.787151 1.227894 1.095068
v 0.640805 1.901485 1.435188
v 0.640805 1.227894 1.435188
v 0.787151 1.901484 1.095067
v -1.447704 1.227894 0.536555
v -1.301359 1.901484 0.196434
v -1.301359 1.227894 0.196434
v -1.447704 1.901485 0.536555
v -0.241695 1.225377 -2.409429
v -0.505344 1.225377 -1.796683
v -0.505344 1.891140 -1.796683
v 1.309106 2.076742 -0.013370
v 1.393513 2.322179 -0.209540
v 1.309106 2.322179 -0.013370
v 1.393513 2.076742 -0.209540
v -0.855382 2.076742 -0.944695
v -0.770975 2.322179 -1.140865
v -0.770975 2.076742 -1.140865
v -1.255788 2.076743 -0.014113
v -1.171381 2.322180 -0.210283
v -1.171381 2.076743 -0.210283
v 1.686745 2.593788 -0.851812
v 1.686744 1.910928 -0.851811
v 1.951608 1.910928 -1.467379
v 1.951608 2.593788 -1.467378
v -0.241695 2.583620 -2.409429
v 0.787151 1.920372 1.095067
v 0.640806 2.593963 1.435189
v 0.640805 1.920372 1.435188
v 0.787151 2.593963 1.095068
v -1.447704 1.920372 0.536555
v -1.301359 2.593963 0.196434
v -1.301359 1.920372 0.196434
v -1.447704 2.593963 0.536555
v -0.241695 1.917855 -2.409429
v -0.505344 1.917856 -1.796683
v -0.505344 2.583619 -1.796684
v 1.309106 2.769221 -0.013370
v 1.393513 3.014657 -0.209540
v 1.309106 3.014657 -0.013370
v 1.393513 2.769221 -0.209540
v -0.855382 2.769221 -0.944695
v -0.770975 3.014657 -1.140864
v -0.770975 2.769221 -1.140864
v -1.255788 2.769221 -0.014114
v -1.171381 3.014658 -0.210283
v -1.171381 2.769221 -0.210283
v 1.951608 3.286266 -1.467378
v 1.686745 3.286267 -0.851811
v 1.686745 2.603407 -0.851812
v 1.951608 2.603406 -1.467378
v -0.241695 3.276098 -2.409429
v 0.787151 2.612851 1.095068
v 0.640806 3.286442 1.435189
v 0.640806 2.612851 1.435189
v 0.787151 3.286442 1.095068
v -1.447704 2.612851 0.536555
v -1.301359 3.286442 0.196435
v -1.301359 2.612851 0.196434
v -1.447704 3.286442 0.536556
v -0.241695 2.610334 -2.409429
v -0.505344 2.610334 -1.796684
v -0.505344 3.276097 -1.796684
v 1.309106 3.461699 -0.013369
v 1.393513 3.707136 -0.209539
v 1.309106 3.707136 -0.013369
v 1.393513 3.461699 -0.209539
v -0.855382 3.461699 -0.944694
v -0.770975 3.707136 -1.140864
v -0.770975 3.461699 -1.140864
v -1.255788 3.461700 -0.014113
v -1.171381 3.707137 -0.210282
v -1.171381 3.461700 -0.210282
v 1.686745 3.978745 -0.851811
v 1.686745 3.295885 -0.851811
v 1.951608 3.295885 -1.467378
v 1.951608 3.978745 -1.467378
v -0.241695 3.968575 -2.409429
v 0.787151 3.305330 1.095068
v 0.640806 3.978920 1.435189
v 0.640806 3.305330 1.435189
v 0.787151 3.978920 1.095068
v -1.447704 3.305330 0.536556
v -1.301359 3.978920 0.196435
v -1.301359 3.305330 0.196435
v -1.447704 3.978920 0.536556
v -0.241695 3.302813 -2.409429
v -0.505344 3.302813 -1.796683
v -0.505344 3.968576 -1.796683
v 1.309106 4.154178 -0.013370
v 1.393514 4.399614 -0.209541
v 1.309107 4.399614 -0.013371
v 1.393513 4.154178 -0.209539
v -0.855382 4.154178 -0.944695
v -0.770974 4.399614 -1.140866
v -0.770975 4.154178 -1.140864
v -1.255788 4.154179 -0.014113
v -1.171380 4.399615 -0.210284
v -1.171381 4.154179 -0.210282
v 1.951608 4.671224 -1.467380
v 1.686745 4.671224 -0.851812
v 1.686745 3.988364 -0.851811
v 1.951608 3.988363 -1.467378
v -0.241694 4.661055 -2.409430
v 0.787151 3.997808 1.095068
v 0.640806 4.671399 1.435188
v 0.640806 3.997808 1.435189
v 0.787152 4.671399 1.095067
v -1.447704 3.997808 0.536556
v -1.301358 4.671399 0.196433
v -1.301359 3.997808 0.196435
v -1.447704 4.671399 0.536554
v -0.241695 3.995291 -2.409429
v -0.505344 3.995291 -1.796683
v -0.505343 4.661055 -1.796684
v 1.309107 4.846656 -0.013371
v 1.393514 5.092093 -0.209541
v 1.309107 5.092093 -0.013371
v 1.393514 4.846656 -0.209541
v -0.855381 4.846656 -0.944696
v -0.770974 5.092093 -1.140866
v -0.770974 4.846656 -1.140866
v -1.255787 4.846657 -0.014114
v -1.171380 5.092093 -0.210284
v -1.171380 4.846657 -0.210284
v 1.686745 5.363702 -0.851812
v 1.686745 4.680842 -0.851812
v 1.951608 4.680841 -1.467380
v 1.951608 5.363702 -1.467380
v -0.241694 5.353532 -2.409430
v 0.787152 4.690287 1.095067
v 0.640806 5.363877 1.435187
v 0.640806 4.690287 1.435188
v 0.787152 5.363876 1.095066
v -1.447704 4.690287 0.536554
v -1.301358 5.363877 0.196433
v -1.301358 4.690287 0.196433
v -1.447704 5.363877 0.536554
v -0.241694 4.687769 -2.409430
v -0.505343 4.687769 -1.796684
v -0.505343 5.353533 -1.796684
v 1.752945 0.037777 -1.288234
v 1.837352 0.283214 -1.484402
v 1.752945 0.283214 -1.288234
v 1.837351 0.037777 -1.484402
v 1.631302 0.283214 -1.005524
v 1.631302 0.037777 -1.005524
v 1.715709 0.283214 -1.201694
v 1.715709 0.037777 -1.201694
v 1.327196 0.037777 -0.298752
v 1.411603 0.283214 -0.494922
v 1.327196 0.283214 -0.298752
v 1.411603 0.037777 -0.494922
v 0.348193 0.421751 1.760668
v -1.482850 0.148959 0.972814
v 0.348193 0.148959 1.760668
v -1.482850 0.421751 0.972814
v -1.199245 0.396131 0.102681
v -0.141716 -0.055903 -2.355117
v -1.199245 -0.055903 0.102681
v -0.141716 0.396131 -2.355117
v -1.357503 0.433000 0.468055
v -1.251066 0.272703 0.220685
v -1.357503 0.272704 0.468055
v -1.251066 0.432999 0.220684
v 1.309107 5.539135 -0.013371
v 1.393514 5.784572 -0.209541
v 1.309107 5.784572 -0.013371
v 1.393514 5.539135 -0.209541
v -0.855381 5.539135 -0.944696
v -0.770974 5.784572 -1.140866
v -0.770974 5.539135 -1.140866
v -1.255788 5.539135 -0.014113
v -1.171381 5.784572 -0.210283
v -1.171381 5.539135 -0.210283
v 0.787152 5.382765 1.095066
v 0.640806 6.056355 1.435187
v 0.640806 5.382765 1.435187
v 0.787152 6.056355 1.095066
v -1.447704 5.382765 0.536554
v -1.301358 6.056355 0.196433
v -1.301358 5.382765 0.196433
v -1.447703 6.056355 0.536554
v -0.506113 6.046011 -1.793173
v -0.239674 6.046011 -2.412404
v -0.239674 5.379230 -2.412404
v -0.506113 5.379231 -1.793173
v 1.951854 6.056180 -1.470675
v 1.684520 6.056180 -0.849367
v 1.951854 5.375691 -1.470675
v 1.684520 5.375692 -0.849367
v -0.855382 0.937222 -0.944695
v -1.255788 0.937222 -0.014113
v -0.855382 1.629701 -0.944695
v -1.255788 1.629701 -0.014113
v -0.855382 2.322179 -0.944695
v -1.255788 2.322180 -0.014113
v -0.855382 3.014657 -0.944695
v -1.255788 3.014658 -0.014114
v -0.855382 3.707136 -0.944694
v -1.255788 3.707137 -0.014113
v -0.855381 4.399614 -0.944696
v -1.255787 4.399615 -0.014114
v -0.855381 5.092093 -0.944696
v -1.255787 5.092093 -0.014114
v -0.855381 5.784572 -0.944696
v -1.255788 5.784572 -0.014113
vt 0.491240 0.508760
vt 0.508760 0.491240
vt 0.508760 0.508760
vt 0.491240 0.508760
vt 0.508760 0.491240
vt 0.508760 0.508760
vt 0.491240 0.508760
vt 0.508760 0.491240
vt 0.508760 0.508760
vt 0.491240 0.508760
vt 0.508760 0.491240
vt 0.508760 0.508760
vt 0.491240 0.508760
vt 0.508760 0.491240
vt 0.508760 0.508760
vt 0.490797 0.509203
vt 0.509203 0.490797
vt 0.509203 0.509203
vt 0.491240 0.508760
vt 0.508760 0.491240
vt 0.508760 0.508760
vt 0.491240 0.508760
vt 0.508760 0.491240
vt 0.508760 0.508760
vt 0.491240 0.508760
vt 0.508760 0.491240
vt 0.508760 0.508760
vt 0.491240 0.508760
vt 0.508760 0.491240
vt 0.508760 0.508760
vt 0.491240 0.508760
vt 0.508760 0.491240
vt 0.508760 0.508760
vt 0.491240 0.508760
vt 0.508760 0.491240
vt 0.508760 0.508760
vt 0.491240 0.508760
vt 0.508760 0.491240
vt 0.508760 0.508760
vt 0.491240 0.508760
vt 0.508760 0.491240
vt 0.508760 0.508760
vt 0.491240 0.508760
vt 0.508760 0.491240
vt 0.508760 0.508760
vt 0.491240 0.508760
vt 0.508760 0.491240
vt 0.508760 0.508760
vt 0.491240 0.508760
vt 0.508760 0.491240
vt 0.508760 0.508760
vt 0.491240 0.508760
vt 0.508760 0.491240
vt 0.508760 0.508760
vt 0.491240 0.508760
vt 0.508760 0.491240
vt 0.508760 0.508760
vt 0.491240 0.508760
vt 0.508760 0.491240
vt 0.508760 0.508760
vt 0.491240 0.508760
vt 0.508760 0.491240
vt 0.508760 0.508760
vt 0.491240 0.508760
vt 0.508760 0.491240
vt 0.508760 0.508760
vt 0.491240 0.508760
vt 0.508760 0.491240
vt 0.508760 0.508760
vt 0.491240 0.508760
vt 0.508760 0.491240
vt 0.508760 0.508760
vt 0.491240 0.508760
vt 0.508760 0.491240
vt 0.508760 0.508760
vt 0.491240 0.508760
vt 0.508760 0.491240
vt 0.508760 0.508760
vt 0.491240 0.508760
vt 0.508760 0.491240
vt 0.508760 0.508760
vt 0.491240 0.508760
vt 0.508760 0.491240
vt 0.508760 0.508760
vt 0.491240 0.508760
vt 0.508760 0.491240
vt 0.508760 0.508760
vt 0.491240 0.508760
vt 0.508760 0.491240
vt 0.508760 0.508760
vt 0.491240 0.508760
vt 0.508760 0.491240
vt 0.508760 0.508760
vt 0.491240 0.508760
vt 0.508760 0.491240
vt 0.508760 0.508760
vt 0.491240 0.508760
vt 0.508760 0.491240
vt 0.508760 0.508760
vt 0.491240 0.508760
vt 0.508760 0.491240
vt 0.508760 0.508760
vt 0.491240 0.508760
vt 0.508760 0.491240
vt 0.508760 0.508760
vt 0.491240 0.508760
vt 0.508760 0.491240
vt 0.508760 0.508760
vt 0.491240 0.508760
vt 0.508760 0.491240
vt 0.508760 0.508760
vt 0.491240 0.508760
vt 0.508760 0.491240
vt 0.508760 0.508760
vt 0.491240 0.508760
vt 0.508760 0.491240
vt 0.508760 0.508760
vt 0.491240 0.508760
vt 0.508760 0.491240
vt 0.508760 0.508760
vt 0.491240 0.508760
vt 0.508760 0.491240
vt 0.508760 0.508760
vt 0.491240 0.508760
vt 0.508760 0.491240
vt 0.508760 0.508760
vt 0.491240 0.508760
vt 0.508760 0.491240
vt 0.508760 0.508760
vt 0.491240 0.508760
vt 0.508760 0.491240
vt 0.508760 0.508760
vt 0.491240 0.508760
vt 0.508760 0.491240
vt 0.508760 0.508760
vt 0.491240 0.508760
vt 0.508760 0.491240
vt 0.508760 0.508760
vt 0.491240 0.508760
vt 0.508760 0.491240
vt 0.508760 0.508760
vt 0.491240 0.508760
vt 0.508760 0.491240
vt 0.508760 0.508760
vt 0.491240 0.508760
vt 0.508760 0.491240
vt 0.508760 0.508760
vt 0.491240 0.508760
vt 0.508760 0.491240
vt 0.508760 0.508760
vt 0.491240 0.508760
vt 0.508760 0.491240
vt 0.508760 0.508760
vt 0.491240 0.508760
vt 0.508760 0.491240
vt 0.508760 0.508760
vt 0.508760 0.491240
vt 0.491240 0.508760
vt 0.491240 0.491240
vt 0.491240 0.508760
vt 0.508760 0.491240
vt 0.508760 0.508760
vt 0.491240 0.508760
vt 0.508760 0.491240
vt 0.508760 0.508760
vt 0.491240 0.508760
vt 0.508760 0.491240
vt 0.508760 0.508760
vt 0.491240 0.508760
vt 0.508760 0.491240
vt 0.508760 0.508760
vt 0.491240 0.508760
vt 0.508760 0.491240
vt 0.508760 0.508760
vt 0.491240 0.508760
vt 0.508760 0.491240
vt 0.508760 0.508760
vt 0.491240 0.508760
vt 0.508760 0.491240
vt 0.508760 0.508760
vt 0.491240 0.508760
vt 0.508760 0.491240
vt 0.508760 0.508760
vt 0.491240 0.508760
vt 0.508760 0.491240
vt 0.508760 0.508760
vt 0.491240 0.491240
vt 0.491240 0.491240
vt 0.491240 0.491240
vt 0.491240 0.491240
vt 0.491240 0.491240
vt 0.491240 0.508760
vt 0.491240 0.491240
vt 0.508760 0.491240
vt 0.491240 0.491240
vt 0.491240 0.491240
vt 0.491240 0.491240
vt 0.491240 0.491240
vt 0.491240 0.491240
vt 0.491240 0.491240
vt 0.491240 0.491240
vt 0.491240 0.491240
vt 0.491240 0.491240
vt 0.491240 0.491240
vt 0.491240 0.491240
vt 0.491240 0.491240
vt 0.491240 0.491240
vt 0.491240 0.491240
vt 0.491240 0.491240
vt 0.491240 0.491240
vt 0.491240 0.491240
vt 0.491240 0.491240
vt 0.491240 0.491240
vt 0.491240 0.491240
vt 0.491240 0.491240
vt 0.491240 0.491240
vt 0.491240 0.491240
vt 0.491240 0.491240
vt 0.491240 0.491240
vt 0.491240 0.491240
vt 0.491240 0.491240
vt 0.491240 0.491240
vt 0.491240 0.491240
vt 0.491240 0.491240
vt 0.491240 0.491240
vt 0.491240 0.491240
vt 0.491240 0.491240
vt 0.491240 0.491240
vt 0.491240 0.491240
vt 0.491240 0.491240
vt 0.491240 0.491240
vt 0.491240 0.491240
vt 0.491240 0.491240
vt 0.491240 0.491240
vt 0.491240 0.491240
vt 0.491240 0.491240
vt 0.491240 0.491240
vt 0.491240 0.491240
vt 0.491240 0.491240
vt 0.491240 0.491240
vt 0.508760 0.508760
vt 0.491240 0.491240
vt 0.491240 0.491240
vt 0.491240 0.491240
vt 0.491240 0.491240
vt 0.491240 0.491240
vt 0.491240 0.491240
vt 0.490797 0.509203
vt 0.490797 0.490797
vt 0.509203 0.490797
vt 0.491240 0.491240
vt 0.491240 0.491240
vn 0.9186 0.0000 0.3952
vn -0.9186 0.0000 -0.3952
vn -0.3952 -0.0000 0.9186
usemtl hotel_glas.003
s off
f 1/1/1 2/2/1 3/3/1
f 5/4/2 6/5/2 7/6/2
f 8/7/2 9/8/2 10/9/2
f 11/10/1 13/11/1 14/12/1
f 16/13/1 17/14/1 18/15/1
f 20/16/2 21/17/2 22/18/2
f 24/19/2 26/20/2 15/21/2
f 27/22/1 28/23/1 29/24/1
f 31/25/2 32/26/2 33/27/2
f 34/28/2 35/29/2 36/30/2
f 40/31/1 38/32/1 39/33/1
f 42/34/1 43/35/1 44/36/1
f 46/37/2 47/38/2 48/39/2
f 50/40/2 52/41/2 41/42/2
f 53/43/1 54/44/1 55/45/1
f 57/46/2 58/47/2 59/48/2
f 60/49/2 61/50/2 62/51/2
f 66/52/1 64/53/1 65/54/1
f 68/55/1 69/56/1 70/57/1
f 72/58/2 73/59/2 74/60/2
f 76/61/2 78/62/2 67/63/2
f 79/64/1 80/65/1 81/66/1
f 83/67/2 84/68/2 85/69/2
f 86/70/2 87/71/2 88/72/2
f 89/73/1 91/74/1 92/75/1
f 94/76/1 95/77/1 96/78/1
f 98/79/2 99/80/2 100/81/2
f 102/82/2 104/83/2 93/84/2
f 105/85/1 106/86/1 107/87/1
f 109/88/2 110/89/2 111/90/2
f 112/91/2 113/92/2 114/93/2
f 118/94/1 116/95/1 117/96/1
f 120/97/1 121/98/1 122/99/1
f 124/100/2 125/101/2 126/102/2
f 128/103/2 130/104/2 119/105/2
f 131/106/1 132/107/1 133/108/1
f 135/109/2 136/110/2 137/111/2
f 138/112/2 139/113/2 140/114/2
f 141/115/1 143/116/1 144/117/1
f 146/118/1 147/119/1 148/120/1
f 150/121/2 151/122/2 152/123/2
f 154/124/2 156/125/2 145/126/2
f 157/127/1 158/128/1 159/129/1
f 161/130/2 162/131/2 163/132/2
f 164/133/2 165/134/2 166/135/2
f 170/136/1 168/137/1 169/138/1
f 172/139/1 173/140/1 174/141/1
f 176/142/2 177/143/2 178/144/2
f 180/145/2 182/146/2 171/147/2
f 183/148/1 184/149/1 185/150/1
f 188/151/1 189/152/1 187/153/1
f 191/154/1 192/155/1 193/156/1
f 195/157/3 196/158/3 197/159/3
f 199/160/2 200/161/2 201/162/2
f 203/163/2 204/164/2 205/165/2
f 207/166/1 208/167/1 209/168/1
f 211/169/2 212/170/2 213/171/2
f 214/172/2 215/173/2 216/174/2
f 217/175/1 218/176/1 219/177/1
f 221/178/2 222/179/2 223/180/2
f 227/181/2 225/182/2 226/183/2
f 229/184/1 232/185/1 231/186/1
f 1/1/1 4/187/1 2/2/1
f 5/4/2 233/188/2 6/5/2
f 8/7/2 234/189/2 9/8/2
f 11/10/1 12/190/1 13/11/1
f 16/13/1 19/191/1 17/14/1
f 20/192/2 23/193/2 21/194/2
f 24/19/2 25/195/2 26/20/2
f 27/22/1 30/196/1 28/23/1
f 31/25/2 235/197/2 32/26/2
f 34/28/2 236/198/2 35/29/2
f 40/31/1 37/199/1 38/32/1
f 42/34/1 45/200/1 43/35/1
f 46/37/2 49/201/2 47/38/2
f 50/40/2 51/202/2 52/41/2
f 53/43/1 56/203/1 54/44/1
f 57/46/2 237/204/2 58/47/2
f 60/49/2 238/205/2 61/50/2
f 66/52/1 63/206/1 64/53/1
f 68/55/1 71/207/1 69/56/1
f 72/58/2 75/208/2 73/59/2
f 76/61/2 77/209/2 78/62/2
f 79/64/1 82/210/1 80/65/1
f 83/67/2 239/211/2 84/68/2
f 86/70/2 240/212/2 87/71/2
f 89/73/1 90/213/1 91/74/1
f 94/76/1 97/214/1 95/77/1
f 98/79/2 101/215/2 99/80/2
f 102/82/2 103/216/2 104/83/2
f 105/85/1 108/217/1 106/86/1
f 109/88/2 241/218/2 110/89/2
f 112/91/2 242/219/2 113/92/2
f 118/94/1 115/220/1 116/95/1
f 120/97/1 123/221/1 121/98/1
f 124/100/2 127/222/2 125/101/2
f 128/103/2 129/223/2 130/104/2
f 131/106/1 134/224/1 132/107/1
f 135/109/2 243/225/2 136/110/2
f 138/112/2 244/226/2 139/113/2
f 141/115/1 142/227/1 143/116/1
f 146/118/1 149/228/1 147/119/1
f 150/121/2 153/229/2 151/122/2
f 154/124/2 155/230/2 156/125/2
f 157/127/1 160/231/1 158/128/1
f 161/130/2 245/232/2 162/131/2
f 164/133/2 246/233/2 165/134/2
f 170/136/1 167/234/1 168/137/1
f 172/139/1 175/235/1 173/140/1
f 176/142/2 179/236/2 177/143/2
f 180/145/2 181/237/2 182/146/2
f 183/148/1 186/238/1 184/149/1
f 188/151/1 190/239/1 189/152/1
f 191/154/1 194/240/1 192/155/1
f 195/157/3 198/241/3 196/158/3
f 199/160/2 202/242/2 200/161/2
f 203/163/2 206/243/2 204/164/2
f 207/166/1 210/244/1 208/167/1
f 211/169/2 247/245/2 212/170/2
f 214/172/2 248/246/2 215/173/2
f 217/175/1 220/247/1 218/176/1
f 221/248/2 224/249/2 222/250/2
f 227/181/2 228/251/2 225/182/2
f 229/184/1 230/252/1 232/185/1
