# Blender v2.90.1 OBJ File: ''
# www.blender.org
mtllib Carapace.mtl
o Cube
v -1.000000 -0.958415 -0.455112
v -0.455112 -0.958415 -1.000000
v 1.000000 -0.958415 0.455112
v 0.455112 -0.958415 1.000000
v -1.000000 -0.958415 0.455112
v -0.455112 -0.958415 1.000000
v 0.455112 -0.958415 -1.000000
v 1.000000 -0.958415 -0.455112
v 0.455112 -0.503303 -1.000000
v 0.455112 0.041585 -0.455112
v 1.000000 -0.503303 -0.455112
v 1.000000 -0.503303 0.455112
v 0.455112 0.041585 0.455112
v 0.455112 -0.503303 1.000000
v -0.455112 -0.503303 -1.000000
v -1.000000 -0.503303 -0.455112
v -0.455112 0.041585 -0.455112
v -1.000000 -0.503303 0.455112
v -0.455112 -0.503303 1.000000
v -0.455112 0.041585 0.455112
vt 0.556889 0.068111
vt 0.500000 0.181889
vt 0.500000 0.068111
vt 0.556889 0.818111
vt 0.500000 0.931889
vt 0.500000 0.818111
vt 0.806889 0.568111
vt 0.693111 0.681889
vt 0.693111 0.568111
vt 0.556889 0.568111
vt 0.500000 0.681889
vt 0.500000 0.568111
vt 0.556889 0.431889
vt 0.625000 0.431889
vt 0.556889 0.500000
vt 0.556889 0.681889
vt 0.625000 0.681889
vt 0.556889 0.750000
vt 0.556889 0.250000
vt 0.556889 0.250000
vt 0.625000 0.181889
vt 0.500000 0.000000
vt 0.556889 0.000000
vt 0.625000 0.068111
vt 0.625000 0.931889
vt 0.625000 0.818111
vt 0.556889 0.318111
vt 0.625000 0.318111
vt 0.500000 0.431889
vt 0.500000 0.318111
vt 0.556889 0.181889
vt 0.556889 0.931889
vt 0.806889 0.681889
vn -1.0000 0.0000 0.0000
vn 0.0000 0.0000 1.0000
vn 0.0000 1.0000 0.0000
vn 1.0000 0.0000 0.0000
vn 0.5774 0.5774 -0.5774
vn 0.5774 0.5774 0.5774
vn -0.5774 0.5774 -0.5774
vn 0.0000 -1.0000 -0.0000
vn -0.5774 0.5774 0.5774
vn -0.7071 0.0000 0.7071
vn 0.0000 0.7071 0.7071
vn 0.7071 0.7071 0.0000
vn -0.7071 0.7071 0.0000
vn 0.0000 0.7071 -0.7071
vn 0.0000 0.0000 -1.0000
vn -0.7071 0.0000 -0.7071
vn 0.7071 0.0000 0.7071
vn 0.7071 0.0000 -0.7071
usemtl Material
s off
f 18/1/1 1/2/1 5/3/1
f 14/4/2 6/5/2 4/6/2
f 17/7/3 13/8/3 10/9/3
f 11/10/4 3/11/4 8/12/4
f 9/13/5 10/14/5 11/15/5
f 12/16/6 13/17/6 14/18/6
f 15/19/7 16/20/7 17/21/7
f 3/11/8 6/22/8 1/2/8
f 18/1/9 19/23/9 20/24/9
f 19/23/10 5/3/10 6/22/10
f 20/25/11 14/4/11 13/26/11
f 13/8/12 11/10/12 10/9/12
f 17/21/13 18/1/13 20/24/13
f 10/14/14 15/27/14 17/28/14
f 15/27/15 7/29/15 2/30/15
f 2/30/16 16/31/16 15/27/16
f 4/6/17 12/16/17 14/4/17
f 8/12/18 9/13/18 11/10/18
f 18/1/1 16/31/1 1/2/1
f 14/4/2 19/32/2 6/5/2
f 17/7/3 20/33/3 13/8/3
f 11/10/4 12/16/4 3/11/4
f 1/2/8 2/30/8 7/29/8
f 7/29/8 8/12/8 3/11/8
f 3/11/8 4/6/8 6/22/8
f 6/22/8 5/3/8 1/2/8
f 1/2/8 7/29/8 3/11/8
f 19/23/10 18/1/10 5/3/10
f 20/25/11 19/32/11 14/4/11
f 13/8/12 12/16/12 11/10/12
f 17/21/13 16/31/13 18/1/13
f 10/14/14 9/13/14 15/27/14
f 15/27/15 9/13/15 7/29/15
f 2/30/16 1/2/16 16/31/16
f 4/6/17 3/11/17 12/16/17
f 8/12/18 7/29/18 9/13/18
